<?xml version="1.0" encoding="UTF-8" standalone="no"?>
<svg
   xmlns:dc="http://purl.org/dc/elements/1.1/"
   xmlns:cc="http://creativecommons.org/ns#"
   xmlns:rdf="http://www.w3.org/1999/02/22-rdf-syntax-ns#"
   xmlns:svg="http://www.w3.org/2000/svg"
   xmlns="http://www.w3.org/2000/svg"
   xmlns:sodipodi="http://sodipodi.sourceforge.net/DTD/sodipodi-0.dtd"
   xmlns:inkscape="http://www.inkscape.org/namespaces/inkscape"
   version="1.1"
   viewBox="0 0 32 32"
   id="svg899"
   sodipodi:docname="discussion.svg"
   inkscape:version="1.0.2 (e86c8708, 2021-01-15)">
  <metadata
     id="metadata905">
    <rdf:RDF>
      <cc:Work
         rdf:about="">
        <dc:format>image/svg+xml</dc:format>
        <dc:type
           rdf:resource="http://purl.org/dc/dcmitype/StillImage" />
      </cc:Work>
    </rdf:RDF>
  </metadata>
  <defs
     id="defs903" />
  <sodipodi:namedview
     pagecolor="#ffffff"
     bordercolor="#666666"
     borderopacity="1"
     objecttolerance="10"
     gridtolerance="10"
     guidetolerance="10"
     inkscape:pageopacity="0"
     inkscape:pageshadow="2"
     inkscape:window-width="1334"
     inkscape:window-height="720"
     id="namedview901"
     showgrid="false"
     inkscape:zoom="17.553399"
     inkscape:cx="16"
     inkscape:cy="19.665075"
     inkscape:window-x="2029"
     inkscape:window-y="270"
     inkscape:window-maximized="0"
     inkscape:current-layer="svg899" />
  <title
     id="title855">icon_6070</title>
  <path
     d="M-54.657 10.022h2.791v2.765h-2.791v-2.765z"
     id="path861" />
  <path
     d="M-52.626 13.54h1.519v-1.505h-1.519v1.505zM-50.965 13.68h-1.802v-1.785h1.802v1.785zM-53.191 14.1h2.649v-2.625h-2.649v2.625zM-50.4 14.24h-2.932v-2.905h2.932v2.905z"
     id="path863" />
  <path
     d="M-53.168 14.123l-0.046-0.045 2.649-2.625 0.045 0.045z"
     id="path865" />
  <path
     d="M-40.484 11.141h3.284v3.259h-3.284v-3.259z"
     id="path867" />
  <path
     d="M-40.473 10.165h0.167v0.748h-0.167v-0.748z"
     id="path869" />
  <path
     d="M-37.38 10.165h0.167v0.748h-0.167v-0.748z"
     id="path871" />
  <path
     d="M-40.64 10.348h3.595v0.183h-3.595v-0.183z"
     id="path873" />
  <path
     d="M-26.818 10.83h3.298v3.25h-3.298v-3.25z"
     id="path875" />
  <path
     d="M-24.579 9.186h1.059v1.044h-1.059v-1.044z"
     id="path877" />
  <path
     d="M-57.12 7.2h9.6v9.6h-9.6v-9.6z"
     id="path879" />
  <path
     d="M-43.68 7.2h9.6v9.6h-9.6v-9.6z"
     id="path881" />
  <path
     d="M-29.92 7.2h9.6v9.6h-9.6v-9.6z"
     id="path883" />
  <path
     d="M-15.84 7.2h9.6v9.6h-9.6v-9.6z"
     id="path885" />
  <path
     d="M298.691 80.875c-1.093 0-2.061 0.39-2.673 0.99 0.644 0.396 1.080 0.991 1.171 1.692 0.082 0.629-0.125 1.247-0.545 1.764 0.37 0.212 0.8 0.368 1.27 0.451 0.138 0.024-0.037 0.325-0.232 0.632-0.157 0.248-0.367 0.319-0.283 0.404 0.201 0.202 1.22-0.065 1.856-0.807 0.242-0.283 0.893-0.403 1.075-0.479 1.020-0.425 1.709-1.235 1.709-2.164 0-1.371-1.499-2.482-3.348-2.482z"
     id="path887" />
  <path
     d="M298.368 84.284l0.661 0.12-0.116 0.638-0.661-0.12 0.116-0.638zM298.827 81.673l0.692 0.126-0.15 0.826-0.455 1.486-0.329-0.060 0.093-1.553 0.15-0.826z"
     id="path889" />
  <path
     d="M294.015 81.775c1.375 0 2.516 0.741 2.653 1.793 0.131 1.009-0.703 1.976-1.943 2.365-0.116 0.036 0.068 0.276 0.27 0.518 0.163 0.196 0.352 0.233 0.288 0.315-0.045 0.058-0.155 0.088-0.304 0.088-0.357 0-0.939-0.175-1.383-0.575-0.24-0.216-0.813-0.247-0.979-0.292-0.925-0.252-1.608-0.871-1.712-1.671-0.153-1.179 1.012-2.302 2.604-2.509 0.171-0.022 0.34-0.033 0.505-0.033z"
     id="path891" />
  <path
     d="M293.203 82.993c0.123-0.104 0.281-0.168 0.476-0.193 0.256-0.033 0.477 0 0.662 0.1s0.294 0.271 0.325 0.511c0.019 0.147-0.002 0.276-0.062 0.387-0.035 0.067-0.108 0.156-0.217 0.267l-0.108 0.109c-0.060 0.060-0.095 0.124-0.108 0.195-0.008 0.045-0.007 0.113 0.004 0.204l-0.46 0.060c-0.018-0.193-0.017-0.327 0.003-0.404s0.085-0.171 0.194-0.282l0.111-0.113c0.036-0.036 0.065-0.074 0.085-0.113 0.037-0.069 0.051-0.14 0.041-0.214-0.011-0.086-0.047-0.162-0.106-0.226s-0.156-0.088-0.29-0.070c-0.131 0.017-0.219 0.073-0.262 0.167s-0.059 0.188-0.047 0.283l-0.491 0.064c-0.029-0.325 0.054-0.568 0.248-0.73zM293.734 84.866l0.508-0.066 0.064 0.491-0.508 0.066-0.064-0.491z"
     id="path893" />
  <path
     d="M22.221 6.46c-3.063 0-5.775 1.092-7.487 2.773 1.805 1.111 3.026 2.776 3.281 4.74 0.229 1.763-0.349 3.493-1.527 4.94 1.036 0.594 2.241 1.031 3.557 1.262 0.386 0.068-0.105 0.911-0.649 1.771-0.441 0.694-1.029 0.894-0.792 1.13 0.564 0.564 3.42-0.182 5.199-2.26 0.679-0.792 2.502-1.129 3.013-1.342 2.858-1.192 4.787-3.46 4.787-6.063 0-3.84-4.2-6.952-9.382-6.952zM23.379 18.353l-1.868-0.228 0.221-1.805 1.868 0.228-0.22 1.804zM24.258 11.517l-1.032 4.231-0.93-0.113 0.006-4.357 0.285-2.334 1.956 0.238-0.285 2.334z"
     id="path895" />
  <path
     d="M11.11 20.631c3.474-1.088 5.811-3.799 5.444-6.625-0.383-2.948-3.581-5.024-7.434-5.024-0.464 0-0.936 0.030-1.416 0.092-4.457 0.58-7.723 3.726-7.294 7.029 0.291 2.239 2.205 3.976 4.797 4.681 0.462 0.126 2.070 0.212 2.741 0.817 1.243 1.12 2.873 1.611 3.874 1.611 0.419 0 0.727-0.086 0.853-0.248 0.177-0.229-0.351-0.336-0.808-0.883-0.565-0.679-1.082-1.349-0.757-1.451zM8.511 19.019l-0.179-1.376 1.424-0.185 0.179 1.376-1.424 0.185zM10.771 14.647c-0.098 0.187-0.301 0.436-0.608 0.747l-0.302 0.307c-0.166 0.166-0.266 0.349-0.301 0.547-0.023 0.126-0.018 0.315 0.012 0.57l-1.291 0.167c-0.051-0.54-0.048-0.916 0.007-1.132s0.237-0.478 0.544-0.79l0.312-0.316c0.102-0.101 0.183-0.206 0.239-0.317 0.104-0.192 0.143-0.391 0.116-0.6-0.031-0.241-0.131-0.453-0.297-0.633-0.167-0.18-0.438-0.246-0.812-0.197-0.367 0.048-0.612 0.204-0.734 0.468-0.121 0.265-0.165 0.528-0.13 0.792l-1.376 0.179c-0.080-0.91 0.153-1.592 0.697-2.047 0.343-0.29 0.787-0.471 1.334-0.541 0.717-0.093 1.336 0.001 1.854 0.282 0.519 0.281 0.823 0.758 0.911 1.431 0.053 0.412-0.004 0.773-0.173 1.083z"
     id="path897" />
</svg>
