<?xml version="1.0" encoding="UTF-8" standalone="no"?>
<svg
   xmlns:dc="http://purl.org/dc/elements/1.1/"
   xmlns:cc="http://creativecommons.org/ns#"
   xmlns:rdf="http://www.w3.org/1999/02/22-rdf-syntax-ns#"
   xmlns:svg="http://www.w3.org/2000/svg"
   xmlns="http://www.w3.org/2000/svg"
   xmlns:sodipodi="http://sodipodi.sourceforge.net/DTD/sodipodi-0.dtd"
   xmlns:inkscape="http://www.inkscape.org/namespaces/inkscape"
   version="1.1"
   viewBox="0 0 47.262001 32"
   id="svg24"
   sodipodi:docname="fullscreenenter.svg"
   inkscape:version="1.0.2 (e86c8708, 2021-01-15)">
  <metadata
     id="metadata30">
    <rdf:RDF>
      <cc:Work
         rdf:about="">
        <dc:format>image/svg+xml</dc:format>
        <dc:type
           rdf:resource="http://purl.org/dc/dcmitype/StillImage" />
        <dc:title>fullscreenenter</dc:title>
      </cc:Work>
    </rdf:RDF>
  </metadata>
  <defs
     id="defs28" />
  <sodipodi:namedview
     pagecolor="#ffffff"
     bordercolor="#666666"
     borderopacity="1"
     objecttolerance="10"
     gridtolerance="10"
     guidetolerance="10"
     inkscape:pageopacity="0"
     inkscape:pageshadow="2"
     inkscape:window-width="1402"
     inkscape:window-height="850"
     id="namedview26"
     showgrid="false"
     inkscape:pagecheckerboard="true"
     fit-margin-top="0"
     fit-margin-left="0"
     fit-margin-right="0"
     fit-margin-bottom="0"
     inkscape:zoom="1.5039671"
     inkscape:cx="-191.49382"
     inkscape:cy="-24.53617"
     inkscape:window-x="2037"
     inkscape:window-y="121"
     inkscape:window-maximized="0"
     inkscape:current-layer="svg24" />
  <title
     id="title10">fullscreenenter</title>
  <path
     d="M 10.657584,4.0000001 H 4.0000001 V 10.633886 L 6.3518959,8.2689575 9.0781995,11 11,9.0722751 8.267773,6.3649291 Z"
     id="path14"
     style="stroke-width:1" />
  <path
     d="M 43,10.658768 V 4 H 36.366176 L 38.73032,6.3518958 36,9.0781992 37.928051,11 40.634671,8.2701423 Z"
     id="path16"
     style="stroke-width:1" />
  <path
     d="M 4.0000001,21.341291 V 28 H 10.635009 L 8.2696805,25.646522 11,22.923312 9.0707639,21 6.3641444,23.73269 Z"
     id="path18"
     style="stroke-width:1" />
  <path
     d="M 36.341174,28 H 43 V 21.399445 L 40.647318,23.978394 37.923845,21 36,23.103231 l 2.73058,2.634535 z"
     id="path20"
     style="stroke-width:1" />
  <path
     d="M 43.675,32 H 3.505 C 1.527,32 0,30.226 0,28.247 V 3.858 C 0,1.881 1.527,0 3.505,0 h 40.17 c 1.978,0 3.587,1.881 3.587,3.858 v 24.389 c 0,1.979 -1.609,3.753 -3.587,3.753 z m 2.11,-28.371 c 0,-1.188 -0.963,-2.152 -2.152,-2.152 H 3.629 c -1.188,0 -2.152,0.963 -2.152,2.152 v 24.742 c 0,1.188 0.963,2.152 2.152,2.152 h 40.004 c 1.188,0 2.152,-0.963 2.152,-2.152 z"
     id="path22" />
  <rect
     style="fill:#000000;fill-opacity:1;stroke:none;stroke-width:5.00002;stroke-linecap:round;stroke-linejoin:round;stop-color:#000000"
     id="rect1496"
     width="23.511513"
     height="15.788703"
     x="11.875244"
     y="8.105648"
     ry="1.9981846"
     rx="1.9981844" />
</svg>
