<?xml version="1.0" encoding="UTF-8" standalone="no"?>
<svg
   xmlns:dc="http://purl.org/dc/elements/1.1/"
   xmlns:cc="http://creativecommons.org/ns#"
   xmlns:rdf="http://www.w3.org/1999/02/22-rdf-syntax-ns#"
   xmlns:svg="http://www.w3.org/2000/svg"
   xmlns="http://www.w3.org/2000/svg"
   xmlns:sodipodi="http://sodipodi.sourceforge.net/DTD/sodipodi-0.dtd"
   xmlns:inkscape="http://www.inkscape.org/namespaces/inkscape"
   inkscape:version="1.0 (4035a4f, 2020-05-01)"
   sodipodi:docname="favicon.svg"
   id="svg18"
   version="1.1"
   height="1024"
   width="1024">
  <metadata
     id="metadata24">
    <rdf:RDF>
      <cc:Work
         rdf:about="">
        <dc:format>image/svg+xml</dc:format>
        <dc:type
           rdf:resource="http://purl.org/dc/dcmitype/StillImage" />
      </cc:Work>
    </rdf:RDF>
  </metadata>
  <defs
     id="defs22" />
  <sodipodi:namedview
     inkscape:current-layer="svg18"
     inkscape:window-maximized="0"
     inkscape:window-y="0"
     inkscape:window-x="1680"
     inkscape:cy="235.92612"
     inkscape:cx="512"
     inkscape:zoom="0.89257812"
     showgrid="false"
     id="namedview20"
     inkscape:window-height="1058"
     inkscape:window-width="1920"
     inkscape:pageshadow="2"
     inkscape:pageopacity="0"
     guidetolerance="10"
     gridtolerance="10"
     objecttolerance="10"
     borderopacity="1"
     bordercolor="#666666"
     pagecolor="#ffffff" />
  <g
     id="g14"
     transform="translate(-684,-84)">
    <rect
       id="rect10"
       style="paint-order:normal"
       stroke-width="72"
       stroke-linejoin="round"
       stroke="#ffebbc"
       fill="#543d46"
       height="952"
       width="952"
       y="120"
       x="720" />
    <path
       id="path12"
       stroke-width="48"
       fill-rule="evenodd"
       fill="#ffebbc"
       d="m1218.2 207.86c-43.701 14.164-86.724 44.973-116.2 89.153 28.167 76.9 28.167 91.93 0 168.83 31.981 24.826 64.708 39.752 97.585 44.103-3.3121-41.041-5.8279-82.089 1.8061-123.12-21.875-2.3809-37.527-9.6249-59.403-22.275v-51.726c57.582 30.658 99.283 30.146 158.64 0v51.729c-21.456 10.431-35.138 17.917-56.593 21.221 5.8022 41.049 5.5871 82.121 2.2075 123.17 29.933-5.2419 59.782-19.447 89.104-43.099-23.044-76.898-23.047-91.93 0-168.83-27.264-44.966-76.185-74.869-117.15-89.156zm-208.06 13.194c-41.592 177.27-43.91 345.71-43.99 531.29-30.247-2.4676-60.337-8.2201-89.951-17.853v45.843h110.88c13.992 56.232 10.391 112.47-1.6633 168.7h45.162c-11.551-56.234-13.224-112.47-1.3999-168.7h110.62v-45.845c-29.686 7.9343-59.814 13.73-90.063 16.793 0.1317-184.53 4.0073-358.13-39.602-530.23zm143.64 324.91c0 188.28 40.967 374.63 192.91 414.17 167.26-33.771 193.11-225.37 193.11-414.17h-386.02z" />
  </g>
  <rect
     id="rect16"
     fill="#fff"
     height="0"
     width="0"
     y="-84"
     x="-684" />
  <text
     id="text851"
     y="182.61707"
     x="104.19257"
     style="font-style:normal;font-weight:normal;font-size:85.3333px;line-height:1.25;font-family:sans-serif;fill:#000000;fill-opacity:1;stroke:none"
     xml:space="preserve"><tspan
       style="font-size:85.3333px;fill:#ff8080"
       y="182.61707"
       x="104.19257"
       id="tspan849"
       sodipodi:role="line">SVG</tspan></text>
</svg>
