<?xml version="1.0" encoding="UTF-8" standalone="no"?>
<!-- Created with Inkscape (http://www.inkscape.org/) -->

<svg
   version="1.1"
   id="svg140"
   xml:space="preserve"
   width="666.66669"
   height="666.664"
   viewBox="0 0 666.66669 666.664"
   sodipodi:docname="02.svg"
   inkscape:version="1.1.1 (c3084ef, 2021-09-22)"
   xmlns:inkscape="http://www.inkscape.org/namespaces/inkscape"
   xmlns:sodipodi="http://sodipodi.sourceforge.net/DTD/sodipodi-0.dtd"
   xmlns="http://www.w3.org/2000/svg"
   xmlns:svg="http://www.w3.org/2000/svg"><defs
     id="defs144"><clipPath
       clipPathUnits="userSpaceOnUse"
       id="clipPath156"><path
         d="M 0,499.998 H 500 V 0 H 0 Z"
         id="path154" /></clipPath><clipPath
       clipPathUnits="userSpaceOnUse"
       id="clipPath292"><path
         d="M 0,499.998 H 500 V 0 H 0 Z"
         id="path290" /></clipPath><clipPath
       clipPathUnits="userSpaceOnUse"
       id="clipPath300"><path
         d="M 392.625,75.3457 H 402 V 62.5156 h -9.375 z"
         id="path298" /></clipPath><clipPath
       clipPathUnits="userSpaceOnUse"
       id="clipPath320"><path
         d="M 0,499.998 H 500 V 0 H 0 Z"
         id="path318" /></clipPath><clipPath
       clipPathUnits="userSpaceOnUse"
       id="clipPath328"><path
         d="m 97.9995,75.3457 h 9.3755 V 62.5156 h -9.3755 z"
         id="path326" /></clipPath><clipPath
       clipPathUnits="userSpaceOnUse"
       id="clipPath358"><path
         d="M 0,499.998 H 500 V 0 H 0 Z"
         id="path356" /></clipPath><clipPath
       clipPathUnits="userSpaceOnUse"
       id="clipPath406"><path
         d="m 77.6836,208.963 h 26.2504 v -45 H 77.6836 Z"
         id="path404" /></clipPath><clipPath
       clipPathUnits="userSpaceOnUse"
       id="clipPath424"><path
         d="m 127.684,208.963 h 26.25 v -45 h -26.25 z"
         id="path422" /></clipPath><clipPath
       clipPathUnits="userSpaceOnUse"
       id="clipPath442"><path
         d="m 177.684,208.963 h 26.249 v -45 h -26.249 z"
         id="path440" /></clipPath><clipPath
       clipPathUnits="userSpaceOnUse"
       id="clipPath464"><path
         d="M 225.184,214.588 V 158.339 H 424.66 c 14.031,0 21.059,16.964 11.137,26.886 v 0 l -18.821,18.819 c -6.75,6.751 -15.905,10.544 -25.454,10.544 v 0 z"
         id="path462" /></clipPath><clipPath
       clipPathUnits="userSpaceOnUse"
       id="clipPath482"><path
         d="M 0,499.998 H 500 V 0 H 0 Z"
         id="path480" /></clipPath><clipPath
       clipPathUnits="userSpaceOnUse"
       id="clipPath522"><path
         d="m 252.685,208.963 h 26.249 v -45 h -26.249 z"
         id="path520" /></clipPath><clipPath
       clipPathUnits="userSpaceOnUse"
       id="clipPath540"><path
         d="m 302.685,208.963 h 26.249 v -45 h -26.249 z"
         id="path538" /></clipPath><clipPath
       clipPathUnits="userSpaceOnUse"
       id="clipPath712"><path
         d="m 225.184,322.91 v -56.249 h 204.631 c 5.868,0 10.626,4.757 10.626,10.625 v 0 c 0,1.24 -0.218,2.47 -0.64,3.635 v 0 l -9.895,27.185 c -3.235,8.888 -11.685,14.804 -21.143,14.804 v 0 z"
         id="path710" /></clipPath><clipPath
       clipPathUnits="userSpaceOnUse"
       id="clipPath728"><path
         d="M 0,499.998 H 500 V 0 H 0 Z"
         id="path726" /></clipPath><clipPath
       clipPathUnits="userSpaceOnUse"
       id="clipPath736"><path
         d="m 302.685,317.285 h 21.562 V 272.91 h -21.562 z"
         id="path734" /></clipPath></defs><sodipodi:namedview
     id="namedview142"
     pagecolor="#ffffff"
     bordercolor="#666666"
     borderopacity="1.0"
     inkscape:pageshadow="2"
     inkscape:pageopacity="0.0"
     inkscape:pagecheckerboard="0"
     showgrid="false"
     inkscape:zoom="1.3080052"
     inkscape:cx="333.33201"
     inkscape:cy="333.33201"
     inkscape:window-width="1379"
     inkscape:window-height="1052"
     inkscape:window-x="3919"
     inkscape:window-y="0"
     inkscape:window-maximized="0"
     inkscape:current-layer="g146" /><g
     id="g146"
     inkscape:groupmode="layer"
     inkscape:label="117028-OPRQPO-158"
     transform="matrix(1.3333333,0,0,-1.3333333,0,666.664)"><g
       id="g3066"><path
         d="m 228.308,211.463 h -9.375 v -50 h 9.375 z"
         style="fill:#3c3c3b;fill-opacity:1;fill-rule:nonzero;stroke:none"
         id="path344" /><path
         d="m 222.059,214.588 h -162.5 v -56.25 h 162.5 z"
         style="fill:#ffffff;fill-opacity:1;fill-rule:nonzero;stroke:none"
         id="path346" /><path
         d="m 222.059,170.838 h -162.5 v -12.5 h 162.5 z"
         style="fill:#ec5250;fill-opacity:1;fill-rule:nonzero;stroke:none"
         id="path348" /><path
         d="m 222.059,205.213 h -162.5 v -18.75 h 162.5 z"
         style="fill:#c6c6c5;fill-opacity:1;fill-rule:nonzero;stroke:none"
         id="path350" /><g
         id="g352"><g
           id="g354"
           clip-path="url(#clipPath358)"><g
             id="g360"
             transform="translate(87.4463,202.0879)"><path
               d="m 0,0 h -4.212 c -0.995,0 -1.8,-0.806 -1.8,-1.8 v -8.9 c 0,-0.994 0.805,-1.8 1.8,-1.8 H 0 c 0.994,0 1.8,0.806 1.8,1.8 v 8.9 C 1.8,-0.806 0.994,0 0,0"
               style="fill:#538684;fill-opacity:1;fill-rule:nonzero;stroke:none"
               id="path362" /></g><g
             id="g364"
             transform="translate(92.3716,200.2876)"><path
               d="M 0,0 V -8.899 C 0,-9.894 0.806,-10.7 1.8,-10.7 h 4.212 c 0.994,0 1.8,0.806 1.8,1.801 V 0 c 0,0.995 -0.806,1.8 -1.8,1.8 H 1.8 C 0.806,1.8 0,0.995 0,0"
               style="fill:#538684;fill-opacity:1;fill-rule:nonzero;stroke:none"
               id="path366" /></g><g
             id="g368"
             transform="translate(123.3838,202.0879)"><path
               d="m 0,0 h -15.15 c -0.995,0 -1.8,-0.806 -1.8,-1.8 v -8.9 c 0,-0.994 0.805,-1.8 1.8,-1.8 H 0 c 0.994,0 1.8,0.806 1.8,1.8 v 8.9 C 1.8,-0.806 0.994,0 0,0"
               style="fill:#538684;fill-opacity:1;fill-rule:nonzero;stroke:none"
               id="path370" /></g><g
             id="g372"
             transform="translate(137.4463,202.0879)"><path
               d="m 0,0 h -4.212 c -0.995,0 -1.801,-0.806 -1.801,-1.8 v -8.9 c 0,-0.994 0.806,-1.8 1.801,-1.8 H 0 c 0.994,0 1.8,0.806 1.8,1.8 v 8.9 C 1.8,-0.806 0.994,0 0,0"
               style="fill:#538684;fill-opacity:1;fill-rule:nonzero;stroke:none"
               id="path374" /></g><g
             id="g376"
             transform="translate(142.3716,200.2876)"><path
               d="M 0,0 V -8.899 C 0,-9.894 0.806,-10.7 1.799,-10.7 h 4.213 c 0.993,0 1.8,0.806 1.8,1.801 V 0 c 0,0.995 -0.807,1.8 -1.8,1.8 H 1.799 C 0.806,1.8 0,0.995 0,0"
               style="fill:#538684;fill-opacity:1;fill-rule:nonzero;stroke:none"
               id="path378" /></g><g
             id="g380"
             transform="translate(173.3838,202.0879)"><path
               d="m 0,0 h -15.15 c -0.995,0 -1.8,-0.806 -1.8,-1.8 v -8.9 c 0,-0.994 0.805,-1.8 1.8,-1.8 H 0 c 0.993,0 1.8,0.806 1.8,1.8 v 8.9 C 1.8,-0.806 0.993,0 0,0"
               style="fill:#538684;fill-opacity:1;fill-rule:nonzero;stroke:none"
               id="path382" /></g><g
             id="g384"
             transform="translate(187.4458,202.0879)"><path
               d="m 0,0 h -4.212 c -0.995,0 -1.8,-0.806 -1.8,-1.8 v -8.9 c 0,-0.994 0.805,-1.8 1.8,-1.8 H 0 c 0.994,0 1.8,0.806 1.8,1.8 v 8.9 C 1.8,-0.806 0.994,0 0,0"
               style="fill:#538684;fill-opacity:1;fill-rule:nonzero;stroke:none"
               id="path386" /></g><g
             id="g388"
             transform="translate(192.3711,200.2876)"><path
               d="M 0,0 V -8.899 C 0,-9.894 0.806,-10.7 1.8,-10.7 h 4.212 c 0.994,0 1.8,0.806 1.8,1.801 V 0 c 0,0.995 -0.806,1.8 -1.8,1.8 H 1.8 C 0.806,1.8 0,0.995 0,0"
               style="fill:#538684;fill-opacity:1;fill-rule:nonzero;stroke:none"
               id="path390" /></g><g
             id="g392"
             transform="translate(73.3838,202.0879)"><path
               d="m 0,0 h -5.775 c -0.995,0 -1.8,-0.806 -1.8,-1.8 v -8.9 c 0,-0.994 0.805,-1.8 1.8,-1.8 H 0 c 0.995,0 1.8,0.806 1.8,1.8 v 8.9 C 1.8,-0.806 0.995,0 0,0"
               style="fill:#538684;fill-opacity:1;fill-rule:nonzero;stroke:none"
               id="path394" /></g><g
             id="g396"
             transform="translate(214.0088,202.0879)"><path
               d="m 0,0 h -5.775 c -0.995,0 -1.8,-0.806 -1.8,-1.8 v -8.9 c 0,-0.994 0.805,-1.8 1.8,-1.8 H 0 c 0.993,0 1.799,0.806 1.799,1.8 v 8.9 C 1.799,-0.806 0.993,0 0,0"
               style="fill:#538684;fill-opacity:1;fill-rule:nonzero;stroke:none"
               id="path398" /></g><g
             id="g400"><g
               id="g402" /><g
               id="g416"><g
                 clip-path="url(#clipPath406)"
                 id="g414"><g
                   transform="translate(78.9336,165.2129)"
                   id="g410"><path
                     d="m 0,0 h 23.75 v 39.525 c 0,1.641 -1.335,2.975 -2.975,2.975 H 2.975 C 1.334,42.5 0,41.166 0,39.525 Z M 25,-1.25 H -1.25 v 40.775 c 0,2.33 1.896,4.225 4.225,4.225 h 17.8 c 2.33,0 4.225,-1.895 4.225,-4.225 z"
                     style="fill:#c6c6c5;fill-opacity:1;fill-rule:nonzero;stroke:none"
                     id="path408" /></g><path
                   d="m 91.434,164.588 h -1.25 v 43.75 h 1.25 z"
                   style="fill:#c6c6c5;fill-opacity:1;fill-rule:nonzero;stroke:none"
                   id="path412" /></g></g></g><g
             id="g418"><g
               id="g420" /><g
               id="g434"><g
                 clip-path="url(#clipPath424)"
                 id="g432"><g
                   transform="translate(128.9336,165.2129)"
                   id="g428"><path
                     d="m 0,0 h 23.75 v 39.525 c 0,1.641 -1.335,2.975 -2.975,2.975 H 2.975 C 1.334,42.5 0,41.166 0,39.525 Z M 25,-1.25 H -1.25 v 40.775 c 0,2.33 1.896,4.225 4.225,4.225 h 17.8 c 2.33,0 4.225,-1.895 4.225,-4.225 z"
                     style="fill:#c6c6c5;fill-opacity:1;fill-rule:nonzero;stroke:none"
                     id="path426" /></g><path
                   d="m 141.434,164.588 h -1.25 v 43.75 h 1.25 z"
                   style="fill:#c6c6c5;fill-opacity:1;fill-rule:nonzero;stroke:none"
                   id="path430" /></g></g></g><g
             id="g436"><g
               id="g438" /><g
               id="g452"><g
                 clip-path="url(#clipPath442)"
                 id="g450"><g
                   transform="translate(178.9336,165.2129)"
                   id="g446"><path
                     d="m 0,0 h 23.75 v 39.525 c 0,1.641 -1.335,2.975 -2.975,2.975 H 2.975 C 1.334,42.5 0,41.166 0,39.525 Z M 25,-1.25 H -1.25 v 40.775 c 0,2.33 1.895,4.225 4.225,4.225 h 17.8 c 2.33,0 4.225,-1.895 4.225,-4.225 z"
                     style="fill:#c6c6c5;fill-opacity:1;fill-rule:nonzero;stroke:none"
                     id="path444" /></g><path
                   d="m 191.434,164.588 h -1.25 v 43.75 h 1.25 z"
                   style="fill:#c6c6c5;fill-opacity:1;fill-rule:nonzero;stroke:none"
                   id="path448" /></g></g></g><g
             id="g454"
             transform="translate(225.1841,214.5879)"><path
               d="m 0,0 v -56.25 h 199.475 c 14.031,0 21.06,16.965 11.138,26.888 l -18.821,18.818 C 185.042,-3.792 175.886,0 166.338,0 Z"
               style="fill:#ffffff;fill-opacity:1;fill-rule:nonzero;stroke:none"
               id="path456" /></g></g></g><g
         id="g458"><g
           id="g460"
           clip-path="url(#clipPath464)"><path
             d="M 440.441,170.838 H 225.184 v -12.5 h 215.257 z"
             style="fill:#ec5250;fill-opacity:1;fill-rule:nonzero;stroke:none"
             id="path466" /><g
             id="g468"
             transform="translate(440.4414,205.2129)"><path
               d="m 0,0 h -55.408 c -1.988,0 -3.599,-1.612 -3.599,-3.6 v -11.55 c 0,-1.989 1.611,-3.6 3.599,-3.6 H 0 Z"
               style="fill:#c6c6c5;fill-opacity:1;fill-rule:nonzero;stroke:none"
               id="path470" /></g><g
             id="g472"
             transform="translate(440.4414,202.0879)"><path
               d="m 0,0 h -46.508 c -3.452,0 -6.249,-2.798 -6.249,-6.25 0,-3.452 2.797,-6.25 6.249,-6.25 H 0 Z"
               style="fill:#538684;fill-opacity:1;fill-rule:nonzero;stroke:none"
               id="path474" /></g></g></g><g
         id="g484"
         transform="translate(371.5845,205.2129)"><path
           d="M 0,0 H -146.4 V -18.75 H 0 c 1.987,0 3.6,1.611 3.6,3.6 V -3.6 C 3.6,-1.611 1.987,0 0,0"
           style="fill:#c6c6c5;fill-opacity:1;fill-rule:nonzero;stroke:none"
           id="path486" /></g><g
         id="g488"
         transform="translate(367.1338,202.0879)"><path
           d="m 0,0 h -33.9 c -0.994,0 -1.8,-0.806 -1.8,-1.8 v -8.9 c 0,-0.994 0.806,-1.8 1.8,-1.8 H 0 c 0.995,0 1.8,0.806 1.8,1.8 v 8.9 C 1.8,-0.806 0.995,0 0,0"
           style="fill:#538684;fill-opacity:1;fill-rule:nonzero;stroke:none"
           id="path490" /></g><g
         id="g492"
         transform="translate(248.3838,202.0879)"><path
           d="m 0,0 h -15.15 c -0.994,0 -1.8,-0.806 -1.8,-1.8 v -8.9 c 0,-0.994 0.806,-1.8 1.8,-1.8 H 0 c 0.995,0 1.8,0.806 1.8,1.8 v 8.9 C 1.8,-0.806 0.995,0 0,0"
           style="fill:#538684;fill-opacity:1;fill-rule:nonzero;stroke:none"
           id="path494" /></g><g
         id="g496"
         transform="translate(262.4463,202.0879)"><path
           d="m 0,0 h -4.212 c -0.995,0 -1.8,-0.806 -1.8,-1.8 v -8.9 c 0,-0.994 0.805,-1.8 1.8,-1.8 H 0 c 0.995,0 1.801,0.806 1.801,1.8 v 8.9 C 1.801,-0.806 0.995,0 0,0"
           style="fill:#538684;fill-opacity:1;fill-rule:nonzero;stroke:none"
           id="path498" /></g><g
         id="g500"
         transform="translate(267.3721,200.2876)"><path
           d="M 0,0 V -8.899 C 0,-9.894 0.806,-10.7 1.799,-10.7 h 4.213 c 0.995,0 1.8,0.806 1.8,1.801 V 0 c 0,0.995 -0.805,1.8 -1.8,1.8 H 1.799 C 0.806,1.8 0,0.995 0,0"
           style="fill:#538684;fill-opacity:1;fill-rule:nonzero;stroke:none"
           id="path502" /></g><g
         id="g504"
         transform="translate(298.3838,202.0879)"><path
           d="m 0,0 h -15.15 c -0.994,0 -1.8,-0.806 -1.8,-1.8 v -8.9 c 0,-0.994 0.806,-1.8 1.8,-1.8 H 0 c 0.995,0 1.801,0.806 1.801,1.8 v 8.9 C 1.801,-0.806 0.995,0 0,0"
           style="fill:#538684;fill-opacity:1;fill-rule:nonzero;stroke:none"
           id="path506" /></g><g
         id="g508"
         transform="translate(312.4458,202.0879)"><path
           d="m 0,0 h -4.212 c -0.994,0 -1.8,-0.806 -1.8,-1.8 v -8.9 c 0,-0.994 0.806,-1.8 1.8,-1.8 H 0 c 0.995,0 1.801,0.806 1.801,1.8 v 8.9 C 1.801,-0.806 0.995,0 0,0"
           style="fill:#538684;fill-opacity:1;fill-rule:nonzero;stroke:none"
           id="path510" /></g><g
         id="g512"
         transform="translate(317.3716,200.2876)"><path
           d="M 0,0 V -8.899 C 0,-9.894 0.806,-10.7 1.799,-10.7 h 4.213 c 0.995,0 1.8,0.806 1.8,1.801 V 0 c 0,0.995 -0.805,1.8 -1.8,1.8 H 1.799 C 0.806,1.8 0,0.995 0,0"
           style="fill:#538684;fill-opacity:1;fill-rule:nonzero;stroke:none"
           id="path514" /></g><g
         id="g516"><g
           id="g518" /><g
           id="g532"><g
             clip-path="url(#clipPath522)"
             id="g530"><g
               transform="translate(253.9341,165.2129)"
               id="g526"><path
                 d="m 0,0 h 23.75 v 39.525 c 0,1.641 -1.335,2.975 -2.975,2.975 H 2.976 C 1.334,42.5 0,41.166 0,39.525 Z M 25,-1.25 H -1.25 v 40.775 c 0,2.33 1.895,4.225 4.226,4.225 H 20.775 C 23.104,43.75 25,41.855 25,39.525 Z"
                 style="fill:#c6c6c5;fill-opacity:1;fill-rule:nonzero;stroke:none"
                 id="path524" /></g><path
               d="m 266.434,164.588 h -1.25 v 43.75 h 1.25 z"
               style="fill:#c6c6c5;fill-opacity:1;fill-rule:nonzero;stroke:none"
               id="path528" /></g></g></g><g
         id="g534"><g
           id="g536" /><g
           id="g550"><g
             clip-path="url(#clipPath540)"
             id="g548"><g
               transform="translate(303.9341,165.2129)"
               id="g544"><path
                 d="m 0,0 h 23.75 v 39.525 c 0,1.641 -1.335,2.975 -2.975,2.975 H 2.975 C 1.334,42.5 0,41.166 0,39.525 Z M 25,-1.25 H -1.25 v 40.775 c 0,2.33 1.895,4.225 4.225,4.225 h 17.8 C 23.104,43.75 25,41.855 25,39.525 Z"
                 style="fill:#c6c6c5;fill-opacity:1;fill-rule:nonzero;stroke:none"
                 id="path542" /></g><path
               d="m 316.434,164.588 h -1.25 v 43.75 h 1.25 z"
               style="fill:#c6c6c5;fill-opacity:1;fill-rule:nonzero;stroke:none"
               id="path546" /></g></g></g></g><g
       id="g2978"><path
         d="m 228.308,319.787 h -15.624 v -50.001 h 15.624 z"
         style="fill:#3c3c3b;fill-opacity:1;fill-rule:nonzero;stroke:none"
         id="path552" /><path
         d="m 225.184,319.787 h -1.339 v -50.001 h 1.339 z"
         style="fill:#575756;fill-opacity:1;fill-rule:nonzero;stroke:none"
         id="path554" /><path
         d="m 222.505,319.787 h -1.339 v -50.001 h 1.339 z"
         style="fill:#575756;fill-opacity:1;fill-rule:nonzero;stroke:none"
         id="path556" /><path
         d="m 219.827,319.787 h -1.339 v -50.001 h 1.339 z"
         style="fill:#575756;fill-opacity:1;fill-rule:nonzero;stroke:none"
         id="path558" /><path
         d="m 217.148,319.787 h -1.34 v -50.001 h 1.34 z"
         style="fill:#575756;fill-opacity:1;fill-rule:nonzero;stroke:none"
         id="path560" /><g
         id="g562"
         transform="translate(172.0586,263.5352)"><path
           d="m 0,0 v 0 c -3.452,0 -6.25,2.798 -6.25,6.25 0,3.451 2.798,6.25 6.25,6.25 3.452,0 6.25,-2.799 6.25,-6.25 C 6.25,2.798 3.452,0 0,0"
           style="fill:#3c3c3b;fill-opacity:1;fill-rule:nonzero;stroke:none"
           id="path564" /></g><g
         id="g566"
         transform="translate(172.0586,274.7852)"><path
           d="m 0,0 c 2.757,0 5,-2.243 5,-5 0,-2.757 -2.243,-5 -5,-5 -2.757,0 -5,2.243 -5,5 0,2.757 2.243,5 5,5"
           style="fill:#575756;fill-opacity:1;fill-rule:nonzero;stroke:none"
           id="path568" /></g><g
         id="g570"
         transform="translate(187.6836,263.5352)"><path
           d="m 0,0 v 0 c -3.452,0 -6.25,2.798 -6.25,6.25 0,3.451 2.798,6.25 6.25,6.25 3.452,0 6.25,-2.799 6.25,-6.25 C 6.25,2.798 3.452,0 0,0"
           style="fill:#3c3c3b;fill-opacity:1;fill-rule:nonzero;stroke:none"
           id="path572" /></g><g
         id="g574"
         transform="translate(187.6836,274.7852)"><path
           d="m 0,0 c 2.757,0 5,-2.243 5,-5 0,-2.757 -2.243,-5 -5,-5 -2.757,0 -5,2.243 -5,5 0,2.757 2.243,5 5,5"
           style="fill:#575756;fill-opacity:1;fill-rule:nonzero;stroke:none"
           id="path576" /></g><g
         id="g578"
         transform="translate(203.3081,263.5352)"><path
           d="m 0,0 v 0 c -3.451,0 -6.25,2.798 -6.25,6.25 0,3.451 2.799,6.25 6.25,6.25 3.452,0 6.25,-2.799 6.25,-6.25 C 6.25,2.798 3.452,0 0,0"
           style="fill:#3c3c3b;fill-opacity:1;fill-rule:nonzero;stroke:none"
           id="path580" /></g><g
         id="g582"
         transform="translate(203.3081,274.7852)"><path
           d="m 0,0 c 2.757,0 5,-2.243 5,-5 0,-2.757 -2.243,-5 -5,-5 -2.756,0 -5,2.243 -5,5 0,2.757 2.244,5 5,5"
           style="fill:#575756;fill-opacity:1;fill-rule:nonzero;stroke:none"
           id="path584" /></g><g
         id="g586"
         transform="translate(72.0591,263.5352)"><path
           d="m 0,0 v 0 c -3.452,0 -6.25,2.798 -6.25,6.25 0,3.451 2.798,6.25 6.25,6.25 3.452,0 6.25,-2.799 6.25,-6.25 C 6.25,2.798 3.452,0 0,0"
           style="fill:#3c3c3b;fill-opacity:1;fill-rule:nonzero;stroke:none"
           id="path588" /></g><g
         id="g590"
         transform="translate(72.0591,274.7852)"><path
           d="m 0,0 c 2.757,0 5,-2.243 5,-5 0,-2.757 -2.243,-5 -5,-5 -2.757,0 -5,2.243 -5,5 0,2.757 2.243,5 5,5"
           style="fill:#575756;fill-opacity:1;fill-rule:nonzero;stroke:none"
           id="path592" /></g><g
         id="g594"
         transform="translate(87.6841,263.5352)"><path
           d="m 0,0 v 0 c -3.452,0 -6.25,2.798 -6.25,6.25 0,3.451 2.798,6.25 6.25,6.25 3.452,0 6.25,-2.799 6.25,-6.25 C 6.25,2.798 3.452,0 0,0"
           style="fill:#3c3c3b;fill-opacity:1;fill-rule:nonzero;stroke:none"
           id="path596" /></g><g
         id="g598"
         transform="translate(87.6841,274.7852)"><path
           d="m 0,0 c 2.757,0 5,-2.243 5,-5 0,-2.757 -2.243,-5 -5,-5 -2.757,0 -5,2.243 -5,5 0,2.757 2.243,5 5,5"
           style="fill:#575756;fill-opacity:1;fill-rule:nonzero;stroke:none"
           id="path600" /></g><g
         id="g602"
         transform="translate(103.3086,263.5352)"><path
           d="m 0,0 v 0 c -3.451,0 -6.25,2.798 -6.25,6.25 0,3.451 2.799,6.25 6.25,6.25 3.452,0 6.25,-2.799 6.25,-6.25 C 6.25,2.798 3.452,0 0,0"
           style="fill:#3c3c3b;fill-opacity:1;fill-rule:nonzero;stroke:none"
           id="path604" /></g><g
         id="g606"
         transform="translate(103.3086,274.7852)"><path
           d="m 0,0 c 2.757,0 5,-2.243 5,-5 0,-2.757 -2.243,-5 -5,-5 -2.757,0 -5,2.243 -5,5 0,2.757 2.243,5 5,5"
           style="fill:#575756;fill-opacity:1;fill-rule:nonzero;stroke:none"
           id="path608" /></g><path
         d="M 215.808,322.91 H 59.559 v -56.25 h 156.249 z"
         style="fill:#ffffff;fill-opacity:1;fill-rule:nonzero;stroke:none"
         id="path610" /><g
         id="g612"
         transform="translate(94.3594,310.4102)"><path
           d="m 0,0 h -25.85 c -1.491,0 -2.7,-1.209 -2.7,-2.7 v -19.601 c 0,-1.491 1.209,-2.699 2.7,-2.699 H 0 c 1.491,0 2.7,1.208 2.7,2.699 V -2.7 C 2.7,-1.209 1.491,0 0,0"
           style="fill:#538684;fill-opacity:1;fill-rule:nonzero;stroke:none"
           id="path614" /></g><g
         id="g616"
         transform="translate(103.3086,307.71)"><path
           d="M 0,0 V -19.601 C 0,-21.091 1.209,-22.3 2.701,-22.3 H 28.55 c 1.491,0 2.7,1.209 2.7,2.699 V 0 c 0,1.491 -1.209,2.7 -2.7,2.7 H 2.701 C 1.209,2.7 0,1.491 0,0"
           style="fill:#538684;fill-opacity:1;fill-rule:nonzero;stroke:none"
           id="path618" /></g><g
         id="g620"
         transform="translate(178.3086,307.71)"><path
           d="m 0,0 v -19.601 c 0,-1.49 1.209,-2.699 2.7,-2.699 h 25.85 c 1.491,0 2.7,1.209 2.7,2.699 V 0 c 0,1.491 -1.209,2.7 -2.7,2.7 H 2.7 C 1.209,2.7 0,1.491 0,0"
           style="fill:#538684;fill-opacity:1;fill-rule:nonzero;stroke:none"
           id="path622" /></g><g
         id="g624"
         transform="translate(140.8086,288.1094)"><path
           d="m 0,0 v 19.601 c 0,1.49 1.209,2.7 2.701,2.7 H 28.55 c 1.491,0 2.7,-1.21 2.7,-2.7 V 0 c 0,-1.491 -1.209,-2.699 -2.7,-2.699 H 2.701 C 1.209,-2.699 0,-1.491 0,0"
           style="fill:#538684;fill-opacity:1;fill-rule:nonzero;stroke:none"
           id="path626" /></g><path
         d="M 215.808,322.91 H 59.559 v -6.25 h 156.249 z"
         style="fill:#ec5250;fill-opacity:1;fill-rule:nonzero;stroke:none"
         id="path628" /><path
         d="M 215.808,272.91 H 59.559 v -6.25 h 156.249 z"
         style="fill:#3c3c3b;fill-opacity:1;fill-rule:nonzero;stroke:none"
         id="path630" /><path
         d="M 215.808,279.786 H 59.559 v -1.25 h 156.249 z"
         style="fill:#ec5250;fill-opacity:1;fill-rule:nonzero;stroke:none"
         id="path632" /><g
         id="g634"
         transform="translate(357.9961,263.5352)"><path
           d="m 0,0 v 0 c -3.452,0 -6.25,2.798 -6.25,6.25 0,3.452 2.798,6.25 6.25,6.25 3.451,0 6.25,-2.798 6.25,-6.25 C 6.25,2.798 3.451,0 0,0"
           style="fill:#3c3c3b;fill-opacity:1;fill-rule:nonzero;stroke:none"
           id="path636" /></g><g
         id="g638"
         transform="translate(357.9961,274.7852)"><path
           d="m 0,0 c 2.757,0 5,-2.243 5,-5 0,-2.757 -2.243,-5 -5,-5 -2.757,0 -5,2.243 -5,5 0,2.757 2.243,5 5,5"
           style="fill:#575756;fill-opacity:1;fill-rule:nonzero;stroke:none"
           id="path640" /></g><g
         id="g642"
         transform="translate(373.6216,263.5352)"><path
           d="m 0,0 v 0 c -3.453,0 -6.25,2.798 -6.25,6.25 0,3.452 2.797,6.25 6.25,6.25 3.452,0 6.25,-2.798 6.25,-6.25 C 6.25,2.798 3.452,0 0,0"
           style="fill:#3c3c3b;fill-opacity:1;fill-rule:nonzero;stroke:none"
           id="path644" /></g><g
         id="g646"
         transform="translate(373.6216,274.7852)"><path
           d="m 0,0 c 2.756,0 5,-2.243 5,-5 0,-2.757 -2.244,-5 -5,-5 -2.757,0 -5,2.243 -5,5 0,2.757 2.243,5 5,5"
           style="fill:#575756;fill-opacity:1;fill-rule:nonzero;stroke:none"
           id="path648" /></g><g
         id="g650"
         transform="translate(389.2466,263.5352)"><path
           d="m 0,0 v 0 c -3.453,0 -6.25,2.798 -6.25,6.25 0,3.452 2.797,6.25 6.25,6.25 3.452,0 6.25,-2.798 6.25,-6.25 C 6.25,2.798 3.452,0 0,0"
           style="fill:#3c3c3b;fill-opacity:1;fill-rule:nonzero;stroke:none"
           id="path652" /></g><g
         id="g654"
         transform="translate(389.2466,274.7852)"><path
           d="m 0,0 c 2.756,0 5,-2.243 5,-5 0,-2.757 -2.244,-5 -5,-5 -2.757,0 -5,2.243 -5,5 0,2.757 2.243,5 5,5"
           style="fill:#575756;fill-opacity:1;fill-rule:nonzero;stroke:none"
           id="path656" /></g><g
         id="g658"
         transform="translate(237.6846,263.5352)"><path
           d="m 0,0 v 0 c -3.453,0 -6.25,2.798 -6.25,6.25 0,3.452 2.797,6.25 6.25,6.25 3.451,0 6.25,-2.798 6.25,-6.25 C 6.25,2.798 3.451,0 0,0"
           style="fill:#3c3c3b;fill-opacity:1;fill-rule:nonzero;stroke:none"
           id="path660" /></g><g
         id="g662"
         transform="translate(237.6846,274.7852)"><path
           d="m 0,0 c 2.756,0 5,-2.243 5,-5 0,-2.757 -2.244,-5 -5,-5 -2.758,0 -5,2.243 -5,5 0,2.757 2.242,5 5,5"
           style="fill:#575756;fill-opacity:1;fill-rule:nonzero;stroke:none"
           id="path664" /></g><g
         id="g666"
         transform="translate(253.3091,263.5352)"><path
           d="m 0,0 v 0 c -3.452,0 -6.25,2.798 -6.25,6.25 0,3.452 2.798,6.25 6.25,6.25 3.451,0 6.25,-2.798 6.25,-6.25 C 6.25,2.798 3.451,0 0,0"
           style="fill:#3c3c3b;fill-opacity:1;fill-rule:nonzero;stroke:none"
           id="path668" /></g><g
         id="g670"
         transform="translate(253.3091,274.7852)"><path
           d="m 0,0 c 2.757,0 5,-2.243 5,-5 0,-2.757 -2.243,-5 -5,-5 -2.757,0 -5,2.243 -5,5 0,2.757 2.243,5 5,5"
           style="fill:#575756;fill-opacity:1;fill-rule:nonzero;stroke:none"
           id="path672" /></g><g
         id="g674"
         transform="translate(268.9341,263.5352)"><path
           d="m 0,0 v 0 c -3.452,0 -6.25,2.798 -6.25,6.25 0,3.452 2.798,6.25 6.25,6.25 3.451,0 6.25,-2.798 6.25,-6.25 C 6.25,2.798 3.451,0 0,0"
           style="fill:#3c3c3b;fill-opacity:1;fill-rule:nonzero;stroke:none"
           id="path676" /></g><g
         id="g678"
         transform="translate(268.9341,274.7852)"><path
           d="m 0,0 c 2.756,0 5,-2.243 5,-5 0,-2.757 -2.244,-5 -5,-5 -2.757,0 -5,2.243 -5,5 0,2.757 2.243,5 5,5"
           style="fill:#575756;fill-opacity:1;fill-rule:nonzero;stroke:none"
           id="path680" /></g><g
         id="g682"
         transform="translate(225.1841,322.9102)"><path
           d="m 0,0 v -56.25 h 204.63 c 5.869,0 10.627,4.758 10.627,10.626 0,1.24 -0.217,2.47 -0.64,3.635 l -9.896,27.185 C 201.487,-5.916 193.037,0 183.579,0 Z"
           style="fill:#ffffff;fill-opacity:1;fill-rule:nonzero;stroke:none"
           id="path684" /></g><g
         id="g686"
         transform="translate(259.9839,310.4102)"><path
           d="m 0,0 h -25.85 c -1.491,0 -2.7,-1.209 -2.7,-2.7 v -19.6 c 0,-1.491 1.209,-2.7 2.7,-2.7 H 0 c 1.491,0 2.701,1.209 2.701,2.7 V -2.7 C 2.701,-1.209 1.491,0 0,0"
           style="fill:#538684;fill-opacity:1;fill-rule:nonzero;stroke:none"
           id="path688" /></g><g
         id="g690"
         transform="translate(268.9341,307.7104)"><path
           d="M 0,0 V -19.601 C 0,-21.091 1.209,-22.3 2.701,-22.3 H 28.55 c 1.491,0 2.7,1.209 2.7,2.699 V 0 c 0,1.491 -1.209,2.7 -2.7,2.7 H 2.701 C 1.209,2.7 0,1.491 0,0"
           style="fill:#538684;fill-opacity:1;fill-rule:nonzero;stroke:none"
           id="path692" /></g><g
         id="g694"
         transform="translate(355.2964,310.4102)"><path
           d="m 0,0 h -25.85 c -1.491,0 -2.7,-1.209 -2.7,-2.7 v -19.6 c 0,-1.491 1.209,-2.7 2.7,-2.7 H 0 c 1.491,0 2.7,1.209 2.7,2.7 V -2.7 C 2.7,-1.209 1.491,0 0,0"
           style="fill:#538684;fill-opacity:1;fill-rule:nonzero;stroke:none"
           id="path696" /></g><g
         id="g698"
         transform="translate(364.2466,307.7104)"><path
           d="m 0,0 v -19.601 c 0,-1.49 1.208,-2.699 2.7,-2.699 h 25.849 c 1.493,0 2.701,1.209 2.701,2.699 V 0 c 0,1.491 -1.208,2.7 -2.701,2.7 H 2.7 C 1.208,2.7 0,1.491 0,0"
           style="fill:#538684;fill-opacity:1;fill-rule:nonzero;stroke:none"
           id="path700" /></g><g
         id="g702"
         transform="translate(317.7964,310.4102)"><path
           d="m 0,0 h -8.662 c -1.491,0 -2.7,-1.209 -2.7,-2.7 v -19.6 c 0,-1.491 1.209,-2.7 2.7,-2.7 H 0 c 1.491,0 2.701,1.209 2.701,2.7 V -2.7 C 2.701,-1.209 1.491,0 0,0"
           style="fill:#538684;fill-opacity:1;fill-rule:nonzero;stroke:none"
           id="path704" /></g><g
         id="g706"><g
           id="g708"
           clip-path="url(#clipPath712)"><path
             d="M 440.441,322.91 H 225.184 v -6.25 h 215.257 z"
             style="fill:#ec5250;fill-opacity:1;fill-rule:nonzero;stroke:none"
             id="path714" /><g
             id="g716"
             transform="translate(440.4414,310.4102)"><path
               d="m 0,0 h -26.751 c -1.875,0 -3.178,-1.862 -2.537,-3.624 l 7.134,-19.599 C -21.767,-24.29 -20.752,-25 -19.617,-25 H 0 Z"
               style="fill:#538684;fill-opacity:1;fill-rule:nonzero;stroke:none"
               id="path718" /></g><path
             d="M 440.441,272.91 H 225.184 v -6.25 h 215.257 z"
             style="fill:#3c3c3b;fill-opacity:1;fill-rule:nonzero;stroke:none"
             id="path720" /></g></g><g
         id="g730"><g
           id="g732" /><g
           id="g744"><g
             clip-path="url(#clipPath736)"
             id="g742"><g
               transform="translate(303.9341,272.9102)"
               id="g740"><path
                 d="m 0,0 v 40.15 c 0,1.641 1.334,2.975 2.975,2.975 h 13.112 c 1.64,0 2.975,-1.334 2.975,-2.975 V 0 h 1.25 v 40.15 c 0,2.329 -1.895,4.225 -4.225,4.225 H 2.975 c -2.33,0 -4.225,-1.896 -4.225,-4.225 L -1.25,0 Z"
                 style="fill:#c6c6c5;fill-opacity:1;fill-rule:nonzero;stroke:none"
                 id="path738" /></g></g></g></g><g
         id="g746"
         transform="translate(382.9326,279.7856)"><path
           d="M 0,0 H -157.749 V -1.25 H 0 c 6.61,0 12.901,-1.995 18.186,-5.625 H 20.31 C 14.546,-2.45 7.47,0 0,0"
           style="fill:#ec5250;fill-opacity:1;fill-rule:nonzero;stroke:none"
           id="path748" /></g></g><g
       id="g2670"><path
         d="m 365.44,382.796 h -18.267 v -3.125 h 18.267 z"
         style="fill:#3c3c3b;fill-opacity:1;fill-rule:nonzero;stroke:none"
         id="path750" /><path
         d="m 290.143,382.796 h -17.876 v -3.125 h 17.876 z"
         style="fill:#3c3c3b;fill-opacity:1;fill-rule:nonzero;stroke:none"
         id="path752" /><path
         d="m 215.234,382.796 h -17.877 v -3.125 h 17.877 z"
         style="fill:#3c3c3b;fill-opacity:1;fill-rule:nonzero;stroke:none"
         id="path754" /><path
         d="m 140.326,382.796 h -17.877 v -3.125 h 17.877 z"
         style="fill:#3c3c3b;fill-opacity:1;fill-rule:nonzero;stroke:none"
         id="path756" /><path
         d="m 349.908,390.607 h -62.5 v -12.5 h 62.5 z"
         style="fill:#575756;fill-opacity:1;fill-rule:nonzero;stroke:none"
         id="path758" /><g
         id="g760"
         transform="translate(340.9238,368.7329)"><path
           d="m 0,0 v 0 c -3.452,0 -6.25,2.797 -6.25,6.25 0,3.452 2.798,6.25 6.25,6.25 3.451,0 6.25,-2.798 6.25,-6.25 C 6.25,2.797 3.451,0 0,0"
           style="fill:#3c3c3b;fill-opacity:1;fill-rule:nonzero;stroke:none"
           id="path762" /></g><g
         id="g764"
         transform="translate(340.9238,379.3579)"><path
           d="M 0,0 C 2.412,0 4.375,-1.962 4.375,-4.375 4.375,-6.788 2.412,-8.75 0,-8.75 c -2.414,0 -4.375,1.962 -4.375,4.375 C -4.375,-1.962 -2.414,0 0,0"
           style="fill:#575756;fill-opacity:1;fill-rule:nonzero;stroke:none"
           id="path766" /></g><g
         id="g768"
         transform="translate(340.9238,376.2324)"><path
           d="M 0,0 C 0.688,0 1.25,-0.561 1.25,-1.25 1.25,-1.939 0.688,-2.5 0,-2.5 c -0.69,0 -1.25,0.561 -1.25,1.25 C -1.25,-0.561 -0.69,0 0,0"
           style="fill:#3c3c3b;fill-opacity:1;fill-rule:nonzero;stroke:none"
           id="path770" /></g><g
         id="g772"
         transform="translate(296.3931,368.7329)"><path
           d="m 0,0 v 0 c -3.452,0 -6.25,2.797 -6.25,6.25 0,3.452 2.798,6.25 6.25,6.25 3.451,0 6.25,-2.798 6.25,-6.25 C 6.25,2.797 3.451,0 0,0"
           style="fill:#3c3c3b;fill-opacity:1;fill-rule:nonzero;stroke:none"
           id="path774" /></g><g
         id="g776"
         transform="translate(296.3931,379.3579)"><path
           d="M 0,0 C 2.412,0 4.375,-1.962 4.375,-4.375 4.375,-6.788 2.412,-8.75 0,-8.75 c -2.414,0 -4.375,1.962 -4.375,4.375 C -4.375,-1.962 -2.414,0 0,0"
           style="fill:#575756;fill-opacity:1;fill-rule:nonzero;stroke:none"
           id="path778" /></g><g
         id="g780"
         transform="translate(296.3931,376.2324)"><path
           d="M 0,0 C 0.688,0 1.25,-0.561 1.25,-1.25 1.25,-1.939 0.688,-2.5 0,-2.5 c -0.69,0 -1.25,0.561 -1.25,1.25 C -1.25,-0.561 -0.69,0 0,0"
           style="fill:#3c3c3b;fill-opacity:1;fill-rule:nonzero;stroke:none"
           id="path782" /></g><path
         d="m 284.284,384.358 h 68.75 v 28.125 h -68.75 z"
         style="fill:#6f6f6e;fill-opacity:1;fill-rule:nonzero;stroke:none"
         id="path784" /><path
         d="m 354.596,415.607 h -71.875 v -6.25 h 71.875 z"
         style="fill:#868686;fill-opacity:1;fill-rule:nonzero;stroke:none"
         id="path786" /><path
         d="m 307.485,416.857 h -1.25 v -33.75 h 1.25 z"
         style="fill:#3c3c3b;fill-opacity:1;fill-rule:nonzero;stroke:none"
         id="path788" /><path
         d="m 297.018,416.857 h -1.25 v -33.75 h 1.25 z"
         style="fill:#3c3c3b;fill-opacity:1;fill-rule:nonzero;stroke:none"
         id="path790" /><path
         d="m 306.86,413.107 h -10.467 v -1.25 h 10.467 z"
         style="fill:#3c3c3b;fill-opacity:1;fill-rule:nonzero;stroke:none"
         id="path792" /><path
         d="m 306.86,409.358 h -10.467 v -1.25 h 10.467 z"
         style="fill:#3c3c3b;fill-opacity:1;fill-rule:nonzero;stroke:none"
         id="path794" /><path
         d="m 306.86,405.608 h -10.467 v -1.25 h 10.467 z"
         style="fill:#3c3c3b;fill-opacity:1;fill-rule:nonzero;stroke:none"
         id="path796" /><path
         d="m 306.86,401.857 h -10.467 v -1.25 h 10.467 z"
         style="fill:#3c3c3b;fill-opacity:1;fill-rule:nonzero;stroke:none"
         id="path798" /><path
         d="m 306.86,398.107 h -10.467 v -1.25 h 10.467 z"
         style="fill:#3c3c3b;fill-opacity:1;fill-rule:nonzero;stroke:none"
         id="path800" /><path
         d="m 306.86,394.358 h -10.467 v -1.25 h 10.467 z"
         style="fill:#3c3c3b;fill-opacity:1;fill-rule:nonzero;stroke:none"
         id="path802" /><path
         d="m 306.86,390.607 h -10.467 v -1.25 h 10.467 z"
         style="fill:#3c3c3b;fill-opacity:1;fill-rule:nonzero;stroke:none"
         id="path804" /><path
         d="m 306.86,386.857 h -10.467 v -1.25 h 10.467 z"
         style="fill:#3c3c3b;fill-opacity:1;fill-rule:nonzero;stroke:none"
         id="path806" /><g
         id="g808"
         transform="translate(434.1914,390.6074)"><path
           d="M 0,0 6.25,10.938 0,21.875 -3.125,18.75 V 3.125 Z"
           style="fill:#b1b1b1;fill-opacity:1;fill-rule:nonzero;stroke:none"
           id="path810" /></g><g
         id="g812"
         transform="translate(420.6025,414.0454)"><path
           d="m 0,0 2.479,14.062 v 3.125 H -12.178 V 14.062 L -9.698,0 Z"
           style="fill:#d9d9d9;fill-opacity:1;fill-rule:nonzero;stroke:none"
           id="path814" /></g><g
         id="g816"
         transform="translate(424.8164,409.3579)"><path
           d="m 0,0 v 4.45 c 0,0.993 -0.807,1.8 -1.801,1.8 h -14.524 c -0.994,0 -1.801,-0.807 -1.801,-1.8 V 0 Z"
           style="fill:#b1b1b1;fill-opacity:1;fill-rule:nonzero;stroke:none"
           id="path818" /></g><g
         id="g820"
         transform="translate(424.6436,428.1074)"><path
           d="M 0,0 -3.411,9.375 H -14.369 L -17.781,0 Z"
           style="fill:#b1b1b1;fill-opacity:1;fill-rule:nonzero;stroke:none"
           id="path822" /></g><path
         d="m 362.315,378.108 h 68.751 v 17.187 h -68.751 z"
         style="fill:#2d2d2c;fill-opacity:1;fill-rule:nonzero;stroke:none"
         id="path824" /><g
         id="g826"
         transform="translate(392.3945,412.4824)"><path
           d="m 0,0 v 10.938 h -33.205 v -39.063 h 25.002 v 6.25 h 50 V 0 Z"
           style="fill:#d9d9d9;fill-opacity:1;fill-rule:nonzero;stroke:none"
           id="path828" /></g><path
         d="m 427.941,378.108 h 6.25 v 9.375 h -6.25 z"
         style="fill:#2d2d2c;fill-opacity:1;fill-rule:nonzero;stroke:none"
         id="path830" /><g
         id="g832"
         transform="translate(434.1914,387.4824)"><path
           d="M 0,0 V -15.312 H 12.5 Z"
           style="fill:#ec5250;fill-opacity:1;fill-rule:nonzero;stroke:none"
           id="path834" /></g><g
         id="g836"
         transform="translate(424.8164,368.7329)"><path
           d="m 0,0 v 0 c -3.452,0 -6.25,2.797 -6.25,6.25 0,3.452 2.798,6.25 6.25,6.25 3.45,0 6.25,-2.798 6.25,-6.25 C 6.25,2.797 3.45,0 0,0"
           style="fill:#3c3c3b;fill-opacity:1;fill-rule:nonzero;stroke:none"
           id="path838" /></g><g
         id="g840"
         transform="translate(424.8164,379.3579)"><path
           d="M 0,0 C 2.412,0 4.375,-1.962 4.375,-4.375 4.375,-6.788 2.412,-8.75 0,-8.75 c -2.414,0 -4.375,1.962 -4.375,4.375 C -4.375,-1.962 -2.414,0 0,0"
           style="fill:#575756;fill-opacity:1;fill-rule:nonzero;stroke:none"
           id="path842" /></g><g
         id="g844"
         transform="translate(424.8164,376.2324)"><path
           d="M 0,0 C 0.688,0 1.25,-0.561 1.25,-1.25 1.25,-1.939 0.688,-2.5 0,-2.5 c -0.69,0 -1.25,0.561 -1.25,1.25 C -1.25,-0.561 -0.69,0 0,0"
           style="fill:#3c3c3b;fill-opacity:1;fill-rule:nonzero;stroke:none"
           id="path846" /></g><g
         id="g848"
         transform="translate(410.7539,368.7329)"><path
           d="m 0,0 v 0 c -3.452,0 -6.25,2.797 -6.25,6.25 0,3.452 2.798,6.25 6.25,6.25 3.451,0 6.25,-2.798 6.25,-6.25 C 6.25,2.797 3.451,0 0,0"
           style="fill:#3c3c3b;fill-opacity:1;fill-rule:nonzero;stroke:none"
           id="path850" /></g><g
         id="g852"
         transform="translate(410.7539,379.3579)"><path
           d="M 0,0 C 2.412,0 4.375,-1.962 4.375,-4.375 4.375,-6.788 2.412,-8.75 0,-8.75 c -2.413,0 -4.375,1.962 -4.375,4.375 C -4.375,-1.962 -2.413,0 0,0"
           style="fill:#575756;fill-opacity:1;fill-rule:nonzero;stroke:none"
           id="path854" /></g><g
         id="g856"
         transform="translate(410.7539,376.2324)"><path
           d="M 0,0 C 0.688,0 1.25,-0.561 1.25,-1.25 1.25,-1.939 0.688,-2.5 0,-2.5 c -0.689,0 -1.25,0.561 -1.25,1.25 C -1.25,-0.561 -0.689,0 0,0"
           style="fill:#3c3c3b;fill-opacity:1;fill-rule:nonzero;stroke:none"
           id="path858" /></g><g
         id="g860"
         transform="translate(396.6914,368.7329)"><path
           d="m 0,0 v 0 c -3.452,0 -6.25,2.797 -6.25,6.25 0,3.452 2.798,6.25 6.25,6.25 3.451,0 6.25,-2.798 6.25,-6.25 C 6.25,2.797 3.451,0 0,0"
           style="fill:#3c3c3b;fill-opacity:1;fill-rule:nonzero;stroke:none"
           id="path862" /></g><g
         id="g864"
         transform="translate(396.6914,379.3579)"><path
           d="M 0,0 C 2.412,0 4.375,-1.962 4.375,-4.375 4.375,-6.788 2.412,-8.75 0,-8.75 c -2.414,0 -4.375,1.962 -4.375,4.375 C -4.375,-1.962 -2.414,0 0,0"
           style="fill:#575756;fill-opacity:1;fill-rule:nonzero;stroke:none"
           id="path866" /></g><g
         id="g868"
         transform="translate(396.6914,376.2324)"><path
           d="M 0,0 C 0.688,0 1.25,-0.561 1.25,-1.25 1.25,-1.939 0.688,-2.5 0,-2.5 c -0.69,0 -1.25,0.561 -1.25,1.25 C -1.25,-0.561 -0.69,0 0,0"
           style="fill:#3c3c3b;fill-opacity:1;fill-rule:nonzero;stroke:none"
           id="path870" /></g><g
         id="g872"
         transform="translate(377.9414,368.7329)"><path
           d="M 0,0 V 0 C -6.904,0 -12.501,5.595 -12.501,12.5 -12.501,19.403 -6.904,25 0,25 6.903,25 12.5,19.403 12.5,12.5 12.5,5.595 6.903,0 0,0"
           style="fill:#3c3c3b;fill-opacity:1;fill-rule:nonzero;stroke:none"
           id="path874" /></g><g
         id="g876"
         transform="translate(377.9414,391.2334)"><path
           d="m 0,0 c 5.514,0 10,-4.486 10,-10 0,-5.515 -4.486,-10 -10,-10 -5.515,0 -10.001,4.485 -10.001,10 0,5.514 4.486,10 10.001,10"
           style="fill:#575756;fill-opacity:1;fill-rule:nonzero;stroke:none"
           id="path878" /></g><g
         id="g880"
         transform="translate(377.9414,382.4829)"><path
           d="M 0,0 C 0.688,0 1.25,-0.561 1.25,-1.25 1.25,-1.939 0.688,-2.5 0,-2.5 c -0.689,0 -1.25,0.561 -1.25,1.25 C -1.25,-0.561 -0.689,0 0,0"
           style="fill:#3c3c3b;fill-opacity:1;fill-rule:nonzero;stroke:none"
           id="path882" /></g><g
         id="g884"
         transform="translate(417.7852,385.9204)"><path
           d="m 0,0 h -20.171 l -20.299,-8.881 1.252,-2.863 19.7,8.619 H 0 Z"
           style="fill:#6f6f6e;fill-opacity:1;fill-rule:nonzero;stroke:none"
           id="path886" /></g><g
         id="g888"
         transform="translate(377.9414,378.1079)"><path
           d="M 0,0 C -1.379,0 -2.5,-1.122 -2.5,-2.5 -2.5,-3.879 -1.379,-5 0,-5 1.378,-5 2.5,-3.879 2.5,-2.5 2.5,-1.122 1.378,0 0,0"
           style="fill:#b1b1b1;fill-opacity:1;fill-rule:nonzero;stroke:none"
           id="path890" /></g><g
         id="g892"
         transform="translate(377.9414,376.8574)"><path
           d="M 0,0 C 0.688,0 1.25,-0.561 1.25,-1.25 1.25,-1.939 0.688,-2.5 0,-2.5 c -0.689,0 -1.25,0.561 -1.25,1.25 C -1.25,-0.561 -0.689,0 0,0"
           style="fill:#3c3c3b;fill-opacity:1;fill-rule:nonzero;stroke:none"
           id="path894" /></g><g
         id="g896"
         transform="translate(397.9419,386.8574)"><path
           d="M 0,0 C -1.38,0 -2.5,-1.121 -2.5,-2.5 -2.5,-3.878 -1.38,-5 0,-5 1.377,-5 2.5,-3.878 2.5,-2.5 2.5,-1.121 1.377,0 0,0"
           style="fill:#b1b1b1;fill-opacity:1;fill-rule:nonzero;stroke:none"
           id="path898" /></g><g
         id="g900"
         transform="translate(397.9419,385.6074)"><path
           d="M 0,0 C 0.688,0 1.25,-0.561 1.25,-1.25 1.25,-1.939 0.688,-2.5 0,-2.5 c -0.69,0 -1.25,0.561 -1.25,1.25 C -1.25,-0.561 -0.69,0 0,0"
           style="fill:#3c3c3b;fill-opacity:1;fill-rule:nonzero;stroke:none"
           id="path902" /></g><g
         id="g904"
         transform="translate(423.0156,379.6699)"><path
           d="m 0,0 c 0.994,0 1.801,0.807 1.801,1.8 v 5.775 c 0,0.994 -0.807,1.8 -1.801,1.8 h -10.463 c -0.993,0 -1.799,-0.806 -1.799,-1.8 V 1.8 c 0,-0.993 0.806,-1.8 1.799,-1.8 z"
           style="fill:#b1b1b1;fill-opacity:1;fill-rule:nonzero;stroke:none"
           id="path906" /></g><g
         id="g908"
         transform="translate(372.4302,415.6074)"><path
           d="M 0,0 H -5.189 C -6.183,0 -6.99,-0.806 -6.99,-1.799 V -10.7 c 0,-0.994 0.807,-1.8 1.801,-1.8 H 0 c 0.994,0 1.799,0.806 1.799,1.8 v 8.901 C 1.799,-0.806 0.994,0 0,0"
           style="fill:#538684;fill-opacity:1;fill-rule:nonzero;stroke:none"
           id="path910" /></g><g
         id="g912"
         transform="translate(384.3442,415.6074)"><path
           d="m 0,0 h -5.189 c -0.994,0 -1.8,-0.806 -1.8,-1.799 V -10.7 c 0,-0.994 0.806,-1.8 1.8,-1.8 H 0 c 0.993,0 1.8,0.806 1.8,1.8 v 8.901 C 1.8,-0.806 0.993,0 0,0"
           style="fill:#538684;fill-opacity:1;fill-rule:nonzero;stroke:none"
           id="path914" /></g><path
         d="m 393.957,424.982 h -36.329 v -3.125 h 36.329 z"
         style="fill:#ec5250;fill-opacity:1;fill-rule:nonzero;stroke:none"
         id="path916" /><path
         d="M 434.191,396.858 H 359.19 v -1.25 h 75.001 z"
         style="fill:#ec5250;fill-opacity:1;fill-rule:nonzero;stroke:none"
         id="path918" /><path
         d="m 125.184,390.607 h -62.5 v -12.5 h 62.5 z"
         style="fill:#575756;fill-opacity:1;fill-rule:nonzero;stroke:none"
         id="path920" /><g
         id="g922"
         transform="translate(116.1997,368.7329)"><path
           d="m 0,0 v 0 c -3.452,0 -6.25,2.797 -6.25,6.25 0,3.452 2.798,6.25 6.25,6.25 3.451,0 6.25,-2.798 6.25,-6.25 C 6.25,2.797 3.451,0 0,0"
           style="fill:#3c3c3b;fill-opacity:1;fill-rule:nonzero;stroke:none"
           id="path924" /></g><g
         id="g926"
         transform="translate(116.1997,379.3579)"><path
           d="M 0,0 C 2.412,0 4.375,-1.962 4.375,-4.375 4.375,-6.788 2.412,-8.75 0,-8.75 c -2.413,0 -4.375,1.962 -4.375,4.375 C -4.375,-1.962 -2.413,0 0,0"
           style="fill:#575756;fill-opacity:1;fill-rule:nonzero;stroke:none"
           id="path928" /></g><g
         id="g930"
         transform="translate(116.1997,376.2324)"><path
           d="M 0,0 C 0.689,0 1.25,-0.561 1.25,-1.25 1.25,-1.939 0.689,-2.5 0,-2.5 c -0.69,0 -1.25,0.561 -1.25,1.25 C -1.25,-0.561 -0.69,0 0,0"
           style="fill:#3c3c3b;fill-opacity:1;fill-rule:nonzero;stroke:none"
           id="path932" /></g><g
         id="g934"
         transform="translate(71.6685,368.7329)"><path
           d="m 0,0 v 0 c -3.452,0 -6.25,2.797 -6.25,6.25 0,3.452 2.798,6.25 6.25,6.25 3.452,0 6.25,-2.798 6.25,-6.25 C 6.25,2.797 3.452,0 0,0"
           style="fill:#3c3c3b;fill-opacity:1;fill-rule:nonzero;stroke:none"
           id="path936" /></g><g
         id="g938"
         transform="translate(71.6685,379.3579)"><path
           d="M 0,0 C 2.413,0 4.375,-1.962 4.375,-4.375 4.375,-6.788 2.413,-8.75 0,-8.75 c -2.413,0 -4.375,1.962 -4.375,4.375 C -4.375,-1.962 -2.413,0 0,0"
           style="fill:#575756;fill-opacity:1;fill-rule:nonzero;stroke:none"
           id="path940" /></g><g
         id="g942"
         transform="translate(71.6685,376.2324)"><path
           d="M 0,0 C 0.689,0 1.25,-0.561 1.25,-1.25 1.25,-1.939 0.689,-2.5 0,-2.5 c -0.689,0 -1.25,0.561 -1.25,1.25 C -1.25,-0.561 -0.689,0 0,0"
           style="fill:#3c3c3b;fill-opacity:1;fill-rule:nonzero;stroke:none"
           id="path944" /></g><path
         d="m 59.559,384.358 h 68.75 v 39.062 h -68.75 z"
         style="fill:#d9d9d9;fill-opacity:1;fill-rule:nonzero;stroke:none"
         id="path946" /><path
         d="M 129.872,424.982 H 57.997 v -3.125 h 71.875 z"
         style="fill:#ec5250;fill-opacity:1;fill-rule:nonzero;stroke:none"
         id="path948" /><g
         id="g950"
         transform="translate(105.4155,415.6074)"><path
           d="M 0,0 H -8.119 C -9.113,0 -9.918,-0.806 -9.918,-1.799 V -10.7 c 0,-0.994 0.805,-1.8 1.799,-1.8 H 0 c 0.994,0 1.8,0.806 1.8,1.8 v 8.901 C 1.8,-0.806 0.994,0 0,0"
           style="fill:#538684;fill-opacity:1;fill-rule:nonzero;stroke:none"
           id="path952" /></g><g
         id="g954"
         transform="translate(82.4526,403.1074)"><path
           d="m 0,0 h 8.119 c 0.994,0 1.8,0.806 1.8,1.8 v 8.901 c 0,0.993 -0.806,1.799 -1.8,1.799 H 0 c -0.994,0 -1.8,-0.806 -1.8,-1.799 V 1.8 C -1.8,0.806 -0.994,0 0,0"
           style="fill:#538684;fill-opacity:1;fill-rule:nonzero;stroke:none"
           id="path956" /></g><g
         id="g958"
         transform="translate(110.3408,413.8081)"><path
           d="m 0,0 v -8.9 c 0,-0.995 0.806,-1.801 1.799,-1.801 h 8.119 c 0.994,0 1.8,0.806 1.8,1.801 V 0 c 0,0.993 -0.806,1.799 -1.8,1.799 H 1.799 C 0.806,1.799 0,0.993 0,0"
           style="fill:#538684;fill-opacity:1;fill-rule:nonzero;stroke:none"
           id="path960" /></g><g
         id="g962"
         transform="translate(75.7275,415.6074)"><path
           d="M 0,0 H -8.119 C -9.113,0 -9.918,-0.806 -9.918,-1.799 V -10.7 c 0,-0.994 0.805,-1.8 1.799,-1.8 H 0 c 0.995,0 1.8,0.806 1.8,1.8 v 8.901 C 1.8,-0.806 0.995,0 0,0"
           style="fill:#538684;fill-opacity:1;fill-rule:nonzero;stroke:none"
           id="path964" /></g><path
         d="m 128.309,396.858 h -68.75 v -1.25 h 68.75 z"
         style="fill:#ec5250;fill-opacity:1;fill-rule:nonzero;stroke:none"
         id="path966" /><path
         d="m 275,390.607 h -62.5 v -12.5 H 275 Z"
         style="fill:#575756;fill-opacity:1;fill-rule:nonzero;stroke:none"
         id="path968" /><g
         id="g970"
         transform="translate(266.0156,368.7329)"><path
           d="m 0,0 v 0 c -3.452,0 -6.25,2.797 -6.25,6.25 0,3.452 2.798,6.25 6.25,6.25 3.452,0 6.25,-2.798 6.25,-6.25 C 6.25,2.797 3.452,0 0,0"
           style="fill:#3c3c3b;fill-opacity:1;fill-rule:nonzero;stroke:none"
           id="path972" /></g><g
         id="g974"
         transform="translate(266.0156,379.3579)"><path
           d="M 0,0 C 2.412,0 4.375,-1.962 4.375,-4.375 4.375,-6.788 2.412,-8.75 0,-8.75 c -2.412,0 -4.375,1.962 -4.375,4.375 C -4.375,-1.962 -2.412,0 0,0"
           style="fill:#575756;fill-opacity:1;fill-rule:nonzero;stroke:none"
           id="path976" /></g><g
         id="g978"
         transform="translate(266.0156,376.2324)"><path
           d="M 0,0 C 0.689,0 1.25,-0.561 1.25,-1.25 1.25,-1.939 0.689,-2.5 0,-2.5 c -0.689,0 -1.25,0.561 -1.25,1.25 C -1.25,-0.561 -0.689,0 0,0"
           style="fill:#3c3c3b;fill-opacity:1;fill-rule:nonzero;stroke:none"
           id="path980" /></g><g
         id="g982"
         transform="translate(221.4844,368.7329)"><path
           d="m 0,0 v 0 c -3.452,0 -6.25,2.797 -6.25,6.25 0,3.452 2.798,6.25 6.25,6.25 3.452,0 6.25,-2.798 6.25,-6.25 C 6.25,2.797 3.452,0 0,0"
           style="fill:#3c3c3b;fill-opacity:1;fill-rule:nonzero;stroke:none"
           id="path984" /></g><g
         id="g986"
         transform="translate(221.4844,379.3579)"><path
           d="M 0,0 C 2.412,0 4.375,-1.962 4.375,-4.375 4.375,-6.788 2.412,-8.75 0,-8.75 c -2.412,0 -4.375,1.962 -4.375,4.375 C -4.375,-1.962 -2.412,0 0,0"
           style="fill:#575756;fill-opacity:1;fill-rule:nonzero;stroke:none"
           id="path988" /></g><g
         id="g990"
         transform="translate(221.4844,376.2324)"><path
           d="M 0,0 C 0.689,0 1.25,-0.561 1.25,-1.25 1.25,-1.939 0.689,-2.5 0,-2.5 c -0.689,0 -1.25,0.561 -1.25,1.25 C -1.25,-0.561 -0.689,0 0,0"
           style="fill:#3c3c3b;fill-opacity:1;fill-rule:nonzero;stroke:none"
           id="path992" /></g><path
         d="m 209.375,384.358 h 68.75 v 39.062 h -68.75 z"
         style="fill:#d9d9d9;fill-opacity:1;fill-rule:nonzero;stroke:none"
         id="path994" /><path
         d="m 279.687,424.982 h -71.875 v -3.125 h 71.875 z"
         style="fill:#ec5250;fill-opacity:1;fill-rule:nonzero;stroke:none"
         id="path996" /><g
         id="g998"
         transform="translate(255.2319,415.6074)"><path
           d="m 0,0 h -8.119 c -0.994,0 -1.8,-0.806 -1.8,-1.799 V -10.7 c 0,-0.994 0.806,-1.8 1.8,-1.8 H 0 c 0.994,0 1.799,0.806 1.799,1.8 v 8.901 C 1.799,-0.806 0.994,0 0,0"
           style="fill:#538684;fill-opacity:1;fill-rule:nonzero;stroke:none"
           id="path1000" /></g><g
         id="g1002"
         transform="translate(232.2686,403.1074)"><path
           d="m 0,0 h 8.12 c 0.993,0 1.799,0.806 1.799,1.8 v 8.901 C 9.919,11.694 9.113,12.5 8.12,12.5 H 0 c -0.994,0 -1.8,-0.806 -1.8,-1.799 V 1.8 C -1.8,0.806 -0.994,0 0,0"
           style="fill:#538684;fill-opacity:1;fill-rule:nonzero;stroke:none"
           id="path1004" /></g><g
         id="g1006"
         transform="translate(260.1562,413.8081)"><path
           d="m 0,0 v -8.9 c 0,-0.995 0.806,-1.801 1.801,-1.801 h 8.117 c 0.995,0 1.801,0.806 1.801,1.801 V 0 c 0,0.993 -0.806,1.799 -1.801,1.799 H 1.801 C 0.806,1.799 0,0.993 0,0"
           style="fill:#538684;fill-opacity:1;fill-rule:nonzero;stroke:none"
           id="path1008" /></g><g
         id="g1010"
         transform="translate(225.5439,415.6074)"><path
           d="m 0,0 h -8.119 c -0.994,0 -1.8,-0.806 -1.8,-1.799 V -10.7 c 0,-0.994 0.806,-1.8 1.8,-1.8 H 0 c 0.994,0 1.8,0.806 1.8,1.8 v 8.901 C 1.8,-0.806 0.994,0 0,0"
           style="fill:#538684;fill-opacity:1;fill-rule:nonzero;stroke:none"
           id="path1012" /></g><path
         d="m 278.125,396.858 h -68.75 v -1.25 h 68.75 z"
         style="fill:#ec5250;fill-opacity:1;fill-rule:nonzero;stroke:none"
         id="path1014" /><path
         d="m 200.092,390.607 h -62.5 v -12.5 h 62.5 z"
         style="fill:#575756;fill-opacity:1;fill-rule:nonzero;stroke:none"
         id="path1016" /><g
         id="g1018"
         transform="translate(191.1074,368.7329)"><path
           d="m 0,0 v 0 c -3.452,0 -6.25,2.797 -6.25,6.25 0,3.452 2.798,6.25 6.25,6.25 3.452,0 6.25,-2.798 6.25,-6.25 C 6.25,2.797 3.452,0 0,0"
           style="fill:#3c3c3b;fill-opacity:1;fill-rule:nonzero;stroke:none"
           id="path1020" /></g><g
         id="g1022"
         transform="translate(191.1074,379.3579)"><path
           d="M 0,0 C 2.413,0 4.375,-1.962 4.375,-4.375 4.375,-6.788 2.413,-8.75 0,-8.75 c -2.412,0 -4.375,1.962 -4.375,4.375 C -4.375,-1.962 -2.412,0 0,0"
           style="fill:#575756;fill-opacity:1;fill-rule:nonzero;stroke:none"
           id="path1024" /></g><g
         id="g1026"
         transform="translate(191.1074,376.2324)"><path
           d="M 0,0 C 0.689,0 1.25,-0.561 1.25,-1.25 1.25,-1.939 0.689,-2.5 0,-2.5 c -0.689,0 -1.25,0.561 -1.25,1.25 C -1.25,-0.561 -0.689,0 0,0"
           style="fill:#3c3c3b;fill-opacity:1;fill-rule:nonzero;stroke:none"
           id="path1028" /></g><g
         id="g1030"
         transform="translate(146.5762,368.7329)"><path
           d="m 0,0 v 0 c -3.451,0 -6.25,2.797 -6.25,6.25 0,3.452 2.799,6.25 6.25,6.25 3.452,0 6.25,-2.798 6.25,-6.25 C 6.25,2.797 3.452,0 0,0"
           style="fill:#3c3c3b;fill-opacity:1;fill-rule:nonzero;stroke:none"
           id="path1032" /></g><g
         id="g1034"
         transform="translate(146.5762,379.3579)"><path
           d="M 0,0 C 2.413,0 4.375,-1.962 4.375,-4.375 4.375,-6.788 2.413,-8.75 0,-8.75 c -2.412,0 -4.375,1.962 -4.375,4.375 C -4.375,-1.962 -2.412,0 0,0"
           style="fill:#575756;fill-opacity:1;fill-rule:nonzero;stroke:none"
           id="path1036" /></g><g
         id="g1038"
         transform="translate(146.5762,376.2324)"><path
           d="M 0,0 C 0.69,0 1.25,-0.561 1.25,-1.25 1.25,-1.939 0.69,-2.5 0,-2.5 c -0.689,0 -1.25,0.561 -1.25,1.25 C -1.25,-0.561 -0.689,0 0,0"
           style="fill:#3c3c3b;fill-opacity:1;fill-rule:nonzero;stroke:none"
           id="path1040" /></g><path
         d="m 134.467,384.358 h 68.75 v 39.062 h -68.75 z"
         style="fill:#d9d9d9;fill-opacity:1;fill-rule:nonzero;stroke:none"
         id="path1042" /><path
         d="m 204.78,424.982 h -71.875 v -3.125 h 71.875 z"
         style="fill:#ec5250;fill-opacity:1;fill-rule:nonzero;stroke:none"
         id="path1044" /><g
         id="g1046"
         transform="translate(180.3237,415.6074)"><path
           d="m 0,0 h -8.119 c -0.994,0 -1.8,-0.806 -1.8,-1.799 V -10.7 c 0,-0.994 0.806,-1.8 1.8,-1.8 H 0 c 0.994,0 1.8,0.806 1.8,1.8 v 8.901 C 1.8,-0.806 0.994,0 0,0"
           style="fill:#538684;fill-opacity:1;fill-rule:nonzero;stroke:none"
           id="path1048" /></g><g
         id="g1050"
         transform="translate(157.3608,403.1074)"><path
           d="m 0,0 h 8.119 c 0.994,0 1.8,0.806 1.8,1.8 v 8.901 c 0,0.993 -0.806,1.799 -1.8,1.799 H 0 c -0.994,0 -1.8,-0.806 -1.8,-1.799 V 1.8 C -1.8,0.806 -0.994,0 0,0"
           style="fill:#538684;fill-opacity:1;fill-rule:nonzero;stroke:none"
           id="path1052" /></g><g
         id="g1054"
         transform="translate(185.2485,413.8081)"><path
           d="m 0,0 v -8.9 c 0,-0.995 0.806,-1.801 1.8,-1.801 h 8.118 c 0.994,0 1.801,0.806 1.801,1.801 V 0 c 0,0.993 -0.807,1.799 -1.801,1.799 H 1.8 C 0.806,1.799 0,0.993 0,0"
           style="fill:#538684;fill-opacity:1;fill-rule:nonzero;stroke:none"
           id="path1056" /></g><g
         id="g1058"
         transform="translate(150.6362,415.6074)"><path
           d="m 0,0 h -8.119 c -0.994,0 -1.8,-0.806 -1.8,-1.799 V -10.7 c 0,-0.994 0.806,-1.8 1.8,-1.8 H 0 c 0.994,0 1.799,0.806 1.799,1.8 v 8.901 C 1.799,-0.806 0.994,0 0,0"
           style="fill:#538684;fill-opacity:1;fill-rule:nonzero;stroke:none"
           id="path1060" /></g><path
         d="m 203.217,396.858 h -68.75 v -1.25 h 68.75 z"
         style="fill:#ec5250;fill-opacity:1;fill-rule:nonzero;stroke:none"
         id="path1062" /></g></g></svg>
