<svg version="1" xmlns="http://www.w3.org/2000/svg" width="693.333" height="693.333" viewBox="0 0 520.000000 520.000000"><path d="M43.5 44.2c-.3.7-.4 98.3-.3 216.8l.3 215.5h433v-433l-216.3-.3c-172.5-.2-216.4 0-216.7 1zM272.3 92c14.1 6.1 26.9 14.9 37 25.1 4.8 4.9 8.7 9.8 8.7 10.8s-.7 3.8-1.6 6.2c-.8 2.4-2.6 8.9-4 14.4-3.9 16-3.1 27.8 3 47 1.4 4.4 2.6 8.5 2.6 9.2 0 1.6-9.6 7.7-19.5 12.4-7 3.3-21 7.9-24 7.9-.6 0-1.1-8.6-1.2-24.3-.1-13.3-.4-25.9-.5-28.1l-.3-3.8 6.5-1.8c3.6-.9 10-3.1 14.3-4.9l7.7-3.3V135l-5.2 2.2c-26.1 10.6-47.7 10.4-73-.6L219 135V158.7l7.8 3.6c4.3 2.1 11.3 4.5 15.5 5.4 5.6 1.2 7.6 2 7.3 3-1.6 4-2.6 28-1.7 40.8.5 7.7.9 14 .8 14.1-.5.5-14.9-2.8-19.7-4.4-8-2.8-30-14.3-30-15.7 0-.2 1.5-4.3 3.4-9.1 4.9-12.8 6.8-20.9 6.9-29.4.1-8.9-1.3-15-6.4-28.9l-3.9-10.3 2.9-3.7c4.1-5.1 15.7-16 21.6-20.3 12-8.6 30.8-17.1 36.2-16.4 1.8.3 7.5 2.3 12.6 4.6zM156 109.2c3.5 14.8 8.3 42.4 10.5 60.3 3.6 29.9 4.6 52.2 5.2 109.7.4 41.7.9 57.8 1.7 57.8 2.7-.1 27.7-4 34.4-5.4 11-2.4 10.2-3 10.2 8.4v10h-27.9c-15.4 0-28.2.4-28.5.9-.3.4-1.3 5.3-2.2 10.7-2.4 14.2-2.2 38.4.5 53.7 1.2 6.6 2.1 12.1 2.1 12.3 0 .2-5.2.4-11.6.4-9.5 0-11.5-.3-11.1-1.4.3-.8 1.5-7.2 2.7-14.2 1.9-10.9 2.1-15.6 1.8-30.4-.3-11.8-1.1-19.9-2.2-24.7l-1.8-7.3H83v-10.1c0-10 0-10.1 2.3-9.6 14.4 3.1 28.7 5.8 35.3 6.4l8.2.9.6-37.6c1.1-61.1 2.9-93.1 7.7-130 3.8-29.9 13.5-77.5 15.1-74.6.4.8 2.1 7 3.8 13.8zm266.7 156c-1.7 62.7-12.8 103.7-36.2 132.7-13.3 16.6-32.1 28.3-54.4 33.6-7.3 1.8-7.4 1.8-15-.4-10.1-3-24.1-9.9-32.2-16.1-31.4-23.6-49.6-63.2-56.9-123.5-1.2-9.9-3-47.6-2.3-48.8.2-.4 44.8-.7 99-.7h98.6l-.6 23.2z"/></svg>