<?xml version="1.0" encoding="UTF-8" standalone="no"?>
<svg
   xmlns:dc="http://purl.org/dc/elements/1.1/"
   xmlns:cc="http://creativecommons.org/ns#"
   xmlns:rdf="http://www.w3.org/1999/02/22-rdf-syntax-ns#"
   xmlns:svg="http://www.w3.org/2000/svg"
   xmlns="http://www.w3.org/2000/svg"
   xmlns:sodipodi="http://sodipodi.sourceforge.net/DTD/sodipodi-0.dtd"
   xmlns:inkscape="http://www.inkscape.org/namespaces/inkscape"
   version="1.1"
   x="0px"
   y="0px"
   viewBox="0 0 83.779999 94.2575"
   enable-background="new 0 0 100 100"
   xml:space="preserve"
   id="svg10"
   sodipodi:docname="noun_39375_cc.svg"
   width="83.779999"
   height="94.2575"
   inkscape:version="0.92.2 5c3e80d, 2017-08-06"
   inkscape:export-filename="/Users/yyy/work/src/off/offirmo-monorepo/5-incubator/clicker/src2/noun_39375_cc.png"
   inkscape:export-xdpi="146.67"
   inkscape:export-ydpi="146.67"><metadata
     id="metadata16"><rdf:RDF><cc:Work
         rdf:about=""><dc:format>image/svg+xml</dc:format><dc:type
           rdf:resource="http://purl.org/dc/dcmitype/StillImage" /><dc:title></dc:title></cc:Work></rdf:RDF></metadata><defs
     id="defs14" /><sodipodi:namedview
     pagecolor="#ffffff"
     bordercolor="#666666"
     borderopacity="1"
     objecttolerance="10"
     gridtolerance="10"
     guidetolerance="10"
     inkscape:pageopacity="0"
     inkscape:pageshadow="2"
     inkscape:window-width="889"
     inkscape:window-height="593"
     id="namedview12"
     showgrid="false"
     fit-margin-top="0"
     fit-margin-left="0"
     fit-margin-right="0"
     fit-margin-bottom="0"
     inkscape:zoom="1.888"
     inkscape:cx="45.597627"
     inkscape:cy="46.822203"
     inkscape:window-x="74"
     inkscape:window-y="26"
     inkscape:window-maximized="0"
     inkscape:current-layer="svg10" /><path
     d="M 79.78,20.6175 45.89,1.0575 c -2.43,-1.41 -5.57,-1.41 -8,0 L 4,20.6175 c -2.47,1.43 -4,4.08 -4,6.93 v 39.14 c 0,2.85 1.53,5.5 4,6.93 l 33.89,19.56 c 1.21,0.71 2.6,1.08 4,1.08 1.4,0 2.79,-0.37 4,-1.08 l 33.89,-19.56 c 2.47,-1.43 4,-4.08 4,-6.93 v -39.14 c 0,-2.85 -1.53,-5.5 -4,-6.93 z m 0,46.07 c 0,1.42 -0.76,2.75 -2,3.46 l -33.89,19.57 c -1.21,0.7 -2.79,0.7 -4,0 L 6,70.1475 c -1.24,-0.71 -2,-2.04 -2,-3.46 v -39.14 c 0,-1.42 0.76,-2.75 2,-3.46 l 33.89,-19.57 c 0.61,-0.35 1.3,-0.54 2,-0.54 0.7,0 1.39,0.19 2,0.54 l 33.89,19.57 c 1.24,0.71 2,2.04 2,3.46 z"
     id="path2"
     inkscape:connector-curvature="0" /><polygon
     points="52,52 52,70 48,70 48,52 30,52 30,48 48,48 48,30 52,30 52,48 70,48 70,52 "
     id="polygon4"
     transform="translate(-8.11,-2.8825)" /></svg>
