<?xml version="1.0" encoding="UTF-8" standalone="no"?>
<svg
   xmlns:dc="http://purl.org/dc/elements/1.1/"
   xmlns:cc="http://creativecommons.org/ns#"
   xmlns:rdf="http://www.w3.org/1999/02/22-rdf-syntax-ns#"
   xmlns:svg="http://www.w3.org/2000/svg"
   xmlns="http://www.w3.org/2000/svg"
   xmlns:sodipodi="http://sodipodi.sourceforge.net/DTD/sodipodi-0.dtd"
   xmlns:inkscape="http://www.inkscape.org/namespaces/inkscape"
   version="1.1"
   x="0px"
   y="0px"
   viewBox="0 0 80.334 80.330002"
   enable-background="new 0 0 100 100"
   xml:space="preserve"
   id="svg10"
   sodipodi:docname="noun_16657_cc.svg"
   width="80.334"
   height="80.330002"
   inkscape:version="0.92.2 5c3e80d, 2017-08-06"
   inkscape:export-filename="/Users/yyy/work/src/off/offirmo-monorepo/5-incubator/clicker/src2/noun_16657_cc.png"
   inkscape:export-xdpi="152.96001"
   inkscape:export-ydpi="152.96001"><metadata
     id="metadata16"><rdf:RDF><cc:Work
         rdf:about=""><dc:format>image/svg+xml</dc:format><dc:type
           rdf:resource="http://purl.org/dc/dcmitype/StillImage" /><dc:title></dc:title></cc:Work></rdf:RDF></metadata><defs
     id="defs14" /><sodipodi:namedview
     pagecolor="#ffffff"
     bordercolor="#666666"
     borderopacity="1"
     objecttolerance="10"
     gridtolerance="10"
     guidetolerance="10"
     inkscape:pageopacity="0"
     inkscape:pageshadow="2"
     inkscape:window-width="985"
     inkscape:window-height="619"
     id="namedview12"
     showgrid="false"
     fit-margin-top="0"
     fit-margin-left="0"
     fit-margin-right="0"
     fit-margin-bottom="0"
     inkscape:zoom="1.888"
     inkscape:cx="-26.207627"
     inkscape:cy="27.83"
     inkscape:window-x="55"
     inkscape:window-y="393"
     inkscape:window-maximized="0"
     inkscape:current-layer="svg10" /><g
     id="g4"
     transform="translate(-10,-10)"><path
       d="M 66.695,90.33 H 33.635 C 20.601,90.33 10,79.725 10,66.691 V 33.639 C 10,20.597 20.601,10 33.635,10 h 33.06 c 13.034,0 23.639,10.597 23.639,23.639 v 33.053 c 0,13.033 -10.605,23.638 -23.639,23.638 z M 33.635,17.088 c -9.124,0 -16.547,7.427 -16.547,16.55 v 33.053 c 0,9.123 7.423,16.55 16.547,16.55 h 33.06 c 9.124,0 16.55,-7.427 16.55,-16.55 V 33.639 c 0,-9.124 -7.426,-16.55 -16.55,-16.55 H 33.635 Z M 46.638,70.284 V 53.588 H 30.066 V 46.611 H 46.637 V 30.039 h 7.061 v 16.572 h 16.574 v 6.977 H 53.698 v 16.696 z"
       id="path2"
       inkscape:connector-curvature="0" /></g></svg>
