<?xml version="1.0" encoding="UTF-8" standalone="no"?>
<svg
   xmlns:i="http://ns.adobe.com/AdobeIllustrator/10.0/"
   xmlns:dc="http://purl.org/dc/elements/1.1/"
   xmlns:cc="http://creativecommons.org/ns#"
   xmlns:rdf="http://www.w3.org/1999/02/22-rdf-syntax-ns#"
   xmlns:svg="http://www.w3.org/2000/svg"
   xmlns="http://www.w3.org/2000/svg"
   xmlns:sodipodi="http://sodipodi.sourceforge.net/DTD/sodipodi-0.dtd"
   xmlns:inkscape="http://www.inkscape.org/namespaces/inkscape"
   version="1.1"
   x="0px"
   y="0px"
   viewBox="-949 951 60.602352 94.800003"
   xml:space="preserve"
   id="svg24"
   sodipodi:docname="noun_1159662_cc.svg"
   inkscape:version="0.92.2 5c3e80d, 2017-08-06"
   width="60.602352"
   height="94.800003"
   inkscape:export-filename="/Users/yyy/work/src/off/offirmo-monorepo/5-incubator/clicker/src2/noun_1159662_cc.png"
   inkscape:export-xdpi="152.96001"
   inkscape:export-ydpi="152.96001"><metadata
     id="metadata30"><rdf:RDF><cc:Work
         rdf:about=""><dc:format>image/svg+xml</dc:format><dc:type
           rdf:resource="http://purl.org/dc/dcmitype/StillImage" /><dc:title></dc:title></cc:Work></rdf:RDF></metadata><defs
     id="defs28" /><sodipodi:namedview
     pagecolor="#ffffff"
     bordercolor="#666666"
     borderopacity="1"
     objecttolerance="10"
     gridtolerance="10"
     guidetolerance="10"
     inkscape:pageopacity="0"
     inkscape:pageshadow="2"
     inkscape:window-width="1546"
     inkscape:window-height="1014"
     id="namedview26"
     showgrid="false"
     inkscape:zoom="1.888"
     inkscape:cx="-118.99657"
     inkscape:cy="29.647566"
     inkscape:window-x="58"
     inkscape:window-y="5"
     inkscape:window-maximized="0"
     inkscape:current-layer="svg24"
     fit-margin-top="0"
     fit-margin-left="0"
     fit-margin-right="0"
     fit-margin-bottom="0" /><g
     id="g16"
     i:extraneous="self"
     transform="translate(-19.7,-2.6)"
     style="fill:#000000;fill-opacity:1;stroke:none;stroke-opacity:1"><g
       id="g14"
       style="fill:#000000;fill-opacity:1;stroke:none;stroke-opacity:1"><path
         inkscape:connector-curvature="0"
         id="path2"
         d="m -875.8,1000.6 c -1.1,0 -2.2,0.2 -3.1,0.7 -1.4,-1.9 -3.6,-3 -6,-3 -1.2,0 -2.4,0.3 -3.4,0.9 -1.4,-1.7 -3.5,-2.7 -5.7,-2.7 -0.6,0 -1.1,0.1 -1.7,0.2 v -17 c 0,-4.1 -3.4,-7.5 -7.5,-7.5 -4.1,0 -7.5,3.4 -7.5,7.5 v 31.5 l -3.6,-5.5 c -1,-1.6 -2.7,-2.6 -4.7,-2.9 -1.9,-0.3 -3.8,0.2 -5.4,1.2 -1.6,1.1 -2.8,2.7 -3.3,4.5 -0.5,1.9 -0.2,3.8 0.8,5.4 0.1,0.2 15,22.7 17.6,26.5 3.2,4.7 9.6,8 15.6,8 h 5.8 c 10.5,0 19.2,-8.5 19.2,-18.9 v -21.4 c 0.1,-4.2 -3,-7.5 -7.1,-7.5 z m 2.9,28.6 v 0.4 c -0.1,8.1 -6.8,14.7 -15,14.7 h -5.8 c -5.1,0 -10.1,-3.2 -12.1,-6.2 -2.6,-3.8 -17.4,-26.3 -17.5,-26.5 -0.4,-0.6 -0.5,-1.3 -0.3,-2 0.2,-0.8 0.7,-1.5 1.5,-2 0.6,-0.4 1.3,-0.6 2,-0.6 0.2,0 0.3,0 0.5,0 0.7,0.1 1.4,0.5 1.7,1 l 7.6,11.5 c 0.5,0.8 1.5,1.1 2.4,0.9 0.9,-0.3 1.5,-1.1 1.5,-2.1 v -38.6 c 0,-1.8 1.4,-3.2 3.2,-3.2 1.8,0 3.2,1.4 3.2,3.2 v 30.6 c 0,1.2 1,2.1 2.1,2.1 1.1,0 2.1,-1 2.1,-2.1 v -9.1 c 0.5,-0.3 1.1,-0.5 1.7,-0.5 1.3,0 2.4,0.8 2.9,2 v 8.1 c 0,1.2 1,2.1 2.1,2.1 1.1,0 2.1,-1 2.1,-2.1 v -7.6 c 0.6,-0.4 1.2,-0.7 1.9,-0.7 1.4,0 2.6,0.9 3,2.2 v 7.1 c 0,1.2 1,2.1 2.1,2.1 1.2,0 2.1,-1 2.1,-2.1 v -6.4 c 0.5,-0.4 1.2,-0.6 1.8,-0.6 1.9,0 2.9,1.6 2.9,3.2 v 21.2 z"
         style="fill:#000000;fill-opacity:1;stroke:none;stroke-opacity:1" /><path
         inkscape:connector-curvature="0"
         id="path4"
         d="m -903.5,966.7 c 1.2,0 2.1,-1 2.1,-2.1 v -8.9 c 0,-1.2 -1,-2.1 -2.1,-2.1 -1.1,0 -2.1,1 -2.1,2.1 v 8.9 c -0.1,1.1 0.9,2.1 2.1,2.1 z"
         style="fill:#000000;fill-opacity:1;stroke:none;stroke-opacity:1" /><path
         inkscape:connector-curvature="0"
         id="path6"
         d="m -915.5,970.4 c 0.4,0.4 1,0.6 1.5,0.6 0.5,0 1.1,-0.2 1.5,-0.6 0.8,-0.8 0.8,-2.2 0,-3 l -6.3,-6.3 c -0.8,-0.8 -2.2,-0.8 -3,0 -0.8,0.8 -0.8,2.2 0,3 z"
         style="fill:#000000;fill-opacity:1;stroke:none;stroke-opacity:1" /><path
         inkscape:connector-curvature="0"
         id="path8"
         d="m -918.3,981.5 c 1.2,0 2.1,-1 2.1,-2.1 0,-1.1 -1,-2.1 -2.1,-2.1 h -8.9 c -1.2,0 -2.1,1 -2.1,2.1 0,1.1 1,2.1 2.1,2.1 z"
         style="fill:#000000;fill-opacity:1;stroke:none;stroke-opacity:1" /><path
         inkscape:connector-curvature="0"
         id="path10"
         d="m -890.9,979.3 c 0,1.2 1,2.1 2.1,2.1 h 8.9 c 1.2,0 2.1,-1 2.1,-2.1 0,-1.1 -1,-2.1 -2.1,-2.1 h -8.9 c -1.1,0 -2.1,0.9 -2.1,2.1 z"
         style="fill:#000000;fill-opacity:1;stroke:none;stroke-opacity:1" /><path
         inkscape:connector-curvature="0"
         id="path12"
         d="m -893.1,971 c 0.5,0 1.1,-0.2 1.5,-0.6 l 6.3,-6.3 c 0.8,-0.8 0.8,-2.2 0,-3 -0.8,-0.8 -2.2,-0.8 -3,0 l -6.3,6.3 c -0.8,0.8 -0.8,2.2 0,3 0.4,0.4 1,0.6 1.5,0.6 z"
         style="fill:#000000;fill-opacity:1;stroke:none;stroke-opacity:1" /></g></g></svg>
