<?xml version="1.0" encoding="UTF-8" standalone="no"?>
<svg
   xmlns:dc="http://purl.org/dc/elements/1.1/"
   xmlns:cc="http://creativecommons.org/ns#"
   xmlns:rdf="http://www.w3.org/1999/02/22-rdf-syntax-ns#"
   xmlns:svg="http://www.w3.org/2000/svg"
   xmlns="http://www.w3.org/2000/svg"
   xmlns:sodipodi="http://sodipodi.sourceforge.net/DTD/sodipodi-0.dtd"
   xmlns:inkscape="http://www.inkscape.org/namespaces/inkscape"
   xml:space="preserve"
   version="1.1"
   style="shape-rendering:geometricPrecision;text-rendering:geometricPrecision;image-rendering:optimizeQuality;"
   viewBox="0 0 847 1058.75"
   x="0px"
   y="0px"
   fill-rule="evenodd"
   clip-rule="evenodd"
   id="svg14"
   sodipodi:docname="noun_1774761_cc.svg"
   inkscape:export-filename="/Users/yyy/work/src/off/offirmo-monorepo/5-incubator/clicker/src2/noun_1774761_cc.png"
   inkscape:export-xdpi="14.66681"
   inkscape:export-ydpi="14.66681"
   inkscape:version="0.92.2 5c3e80d, 2017-08-06"><metadata
     id="metadata18"><rdf:RDF><cc:Work
         rdf:about=""><dc:format>image/svg+xml</dc:format><dc:type
           rdf:resource="http://purl.org/dc/dcmitype/StillImage" /></cc:Work></rdf:RDF></metadata><sodipodi:namedview
     pagecolor="#ffffff"
     bordercolor="#666666"
     borderopacity="1"
     objecttolerance="10"
     gridtolerance="10"
     guidetolerance="10"
     inkscape:pageopacity="0"
     inkscape:pageshadow="2"
     inkscape:window-width="850"
     inkscape:window-height="673"
     id="namedview16"
     showgrid="false"
     inkscape:zoom="0.22290437"
     inkscape:cx="-170.92532"
     inkscape:cy="529.375"
     inkscape:window-x="0"
     inkscape:window-y="0"
     inkscape:window-maximized="0"
     inkscape:current-layer="svg14" /><defs
     id="defs4"><style
       type="text/css"
       id="style2">

    .fil0 {fill:black}

  </style></defs><g
     id="g8"><path
       class="fil0"
       d="M584 263l95 0c212,0 212,321 0,321l-95 0 0 95c0,212 -321,212 -321,0l0 -95 -95 0c-213,0 -213,-321 0,-321l95 0 0 -95c0,-213 321,-213 321,0l0 95zm-60 -95l0 154 155 0c134,0 134,202 0,202l-155 0 0 155c0,134 -202,134 -202,0l0 -155 -154 0c-134,0 -134,-202 0,-202l154 0 0 -154c0,-134 202,-134 202,0z"
       id="path6" /></g></svg>
