<?xml version="1.0" encoding="UTF-8" standalone="no"?>
<svg
   xmlns:dc="http://purl.org/dc/elements/1.1/"
   xmlns:cc="http://creativecommons.org/ns#"
   xmlns:rdf="http://www.w3.org/1999/02/22-rdf-syntax-ns#"
   xmlns:svg="http://www.w3.org/2000/svg"
   xmlns="http://www.w3.org/2000/svg"
   xmlns:sodipodi="http://sodipodi.sourceforge.net/DTD/sodipodi-0.dtd"
   xmlns:inkscape="http://www.inkscape.org/namespaces/inkscape"
   data-name="Layer 1"
   viewBox="0 0 81.171791 81.052528"
   x="0px"
   y="0px"
   version="1.1"
   id="svg18"
   sodipodi:docname="noun_1494290_cc.svg"
   inkscape:version="0.92.2 5c3e80d, 2017-08-06"
   inkscape:export-filename="/Users/yyy/work/src/off/offirmo-monorepo/5-incubator/clicker/src2/noun_1494290_cc.png"
   inkscape:export-xdpi="152.96001"
   inkscape:export-ydpi="152.96001"
   width="81.171791"
   height="81.052528">
  <metadata
     id="metadata24">
    <rdf:RDF>
      <cc:Work
         rdf:about="">
        <dc:format>image/svg+xml</dc:format>
        <dc:type
           rdf:resource="http://purl.org/dc/dcmitype/StillImage" />
        <dc:title>01</dc:title>
      </cc:Work>
    </rdf:RDF>
  </metadata>
  <defs
     id="defs22" />
  <sodipodi:namedview
     pagecolor="#ffffff"
     bordercolor="#666666"
     borderopacity="1"
     objecttolerance="10"
     gridtolerance="10"
     guidetolerance="10"
     inkscape:pageopacity="0"
     inkscape:pageshadow="2"
     inkscape:window-width="1278"
     inkscape:window-height="613"
     id="namedview20"
     showgrid="false"
     inkscape:zoom="1.888"
     inkscape:cx="-129.47035"
     inkscape:cy="28.001699"
     inkscape:window-x="82"
     inkscape:window-y="15"
     inkscape:window-maximized="0"
     inkscape:current-layer="svg18"
     fit-margin-top="0"
     fit-margin-left="0"
     fit-margin-right="0"
     fit-margin-bottom="0" />
  <title
     id="title2">01</title>
  <g
     data-name="Group"
     id="g12"
     transform="translate(-9.4491668,-9.4491667)">
    <path
       data-name="Compound Path"
       d="m 33.3,39.6 17,48.9 a 3,3 0 0 0 2.6,2 h 0.2 A 3,3 0 0 0 55.8,89 l 7.5,-14.2 8.5,8.5 a 5,5 0 0 0 7.1,0 L 83.2,79 a 5,5 0 0 0 0,-7.1 L 74.7,63.4 89,55.8 a 3,3 0 0 0 -0.4,-5.5 l -48.9,-17 a 5,5 0 0 0 -6.4,6.4 z m 46.8,14.1 -11.8,6.2 a 3,3 0 0 0 -0.7,4.8 L 78.3,75.4 75.4,78.3 64.7,67.6 a 3,3 0 0 0 -4.8,0.7 L 53.7,80.1 39.6,39.6 Z"
       id="path4"
       inkscape:connector-curvature="0" />
    <path
       data-name="Path"
       d="m 26.1,21.8 -6.3,-6.3 a 3,3 0 0 0 -4.2,4.2 l 6.3,6.3 a 3,3 0 0 0 4.2,-4.2 z"
       id="path6"
       inkscape:connector-curvature="0" />
    <path
       data-name="Path"
       d="m 40.2,25 h 0.6 a 3,3 0 0 0 2.4,-3.5 L 41.4,11.9 A 3.0008332,3.0008332 0 1 0 35.5,13 l 1.8,9.6 a 3,3 0 0 0 2.9,2.4 z"
       id="path8"
       inkscape:connector-curvature="0" />
    <path
       data-name="Path"
       d="M 21.5,43.2 H 22 a 3.0103986,3.0103986 0 0 0 0.5,-6 L 13,35.5 a 3.0008332,3.0008332 0 0 0 -1.1,5.9 z"
       id="path10"
       inkscape:connector-curvature="0" />
  </g>
</svg>
