<?xml version="1.0" encoding="UTF-8" standalone="no"?>
<svg
   xmlns:dc="http://purl.org/dc/elements/1.1/"
   xmlns:cc="http://creativecommons.org/ns#"
   xmlns:rdf="http://www.w3.org/1999/02/22-rdf-syntax-ns#"
   xmlns:svg="http://www.w3.org/2000/svg"
   xmlns="http://www.w3.org/2000/svg"
   xmlns:sodipodi="http://sodipodi.sourceforge.net/DTD/sodipodi-0.dtd"
   xmlns:inkscape="http://www.inkscape.org/namespaces/inkscape"
   version="1.1"
   x="0px"
   y="0px"
   viewBox="0 0 100 125"
   style="enable-background:new 0 0 100 100;"
   xml:space="preserve"
   id="svg14"
   sodipodi:docname="noun_1076244_cc.svg"
   inkscape:export-filename="/Users/yyy/work/src/off/offirmo-monorepo/5-incubator/clicker/src2/noun_1076244_cc.png"
   inkscape:export-xdpi="152.96001"
   inkscape:export-ydpi="152.96001"
   inkscape:version="0.92.2 5c3e80d, 2017-08-06"><metadata
     id="metadata20"><rdf:RDF><cc:Work
         rdf:about=""><dc:format>image/svg+xml</dc:format><dc:type
           rdf:resource="http://purl.org/dc/dcmitype/StillImage" /></cc:Work></rdf:RDF></metadata><defs
     id="defs18" /><sodipodi:namedview
     pagecolor="#ffffff"
     bordercolor="#666666"
     borderopacity="1"
     objecttolerance="10"
     gridtolerance="10"
     guidetolerance="10"
     inkscape:pageopacity="0"
     inkscape:pageshadow="2"
     inkscape:window-width="862"
     inkscape:window-height="710"
     id="namedview16"
     showgrid="false"
     inkscape:zoom="1.888"
     inkscape:cx="-20.180085"
     inkscape:cy="62.5"
     inkscape:window-x="135"
     inkscape:window-y="38"
     inkscape:window-maximized="0"
     inkscape:current-layer="svg14" /><g
     id="g8"><path
       d="M92,48c-3.8-7.6-9.8-13-16.4-14.8C71,32.1,66.7,32.7,63,35l0,0c-2.9,1-5.9,1.6-9,1.9v-6c0-1.8,0.4-6.1,4-6.1   c3.7,0,8-1.5,8-8.5c0-1.1-0.9-2-2-2s-2,0.9-2,2c0,3.8-1.4,4.5-4,4.5c-4.9,0-8,4-8,10.1V37c-4.2-0.1-8.5-0.9-12.5-2.5   c-3.7-2.4-8.1-3.1-12.7-1.8C18.1,34.5,12,40,8.1,47.8C1.4,61.1,3.6,77,12.9,83.2c2.6,1.7,5.4,2.6,8.5,2.6c1.4,0,2.9-0.2,4.4-0.6   c6.5-1.7,12.5-7,16.5-14.4c5.2-2.2,11.1-2.2,16.3-0.2l0,0c3.9,7.3,9.8,12.4,16.2,14.1c4.6,1.2,8.9,0.5,12.6-2   C96.4,76.7,98.5,61.1,92,48z M85,79.4c-2.7,1.8-6,2.3-9.4,1.4c-5.4-1.4-10.5-6-13.8-12.4c-0.3-0.6-0.9-1.1-1.6-1.4c0,0,0,0,0,0   l-0.4-0.1c-6.3-2.5-13.5-2.3-19.7,0.4c-0.6,0.3-1.1,0.8-1.5,1.4c-3.4,6.5-8.6,11.3-14.1,12.7c-3.5,0.9-6.8,0.4-9.6-1.5   c-7.7-5.1-9.2-18.7-3.4-30.3c3.3-6.7,8.6-11.5,14.2-13c1.2-0.3,2.3-0.5,3.4-0.5c2.3,0,4.4,0.6,6.3,1.9c0.1,0.1,0.2,0.1,0.4,0.2   C45,41.8,55,42,64.3,38.8l0.3-0.1c0.2-0.1,0.3-0.1,0.5-0.2c2.8-1.8,6-2.3,9.5-1.4c5.4,1.4,10.6,6.2,13.9,12.7   C94.1,61.1,92.6,74.4,85,79.4z"
       id="path2" /><path
       d="M73,47.3c-5,0-9,4-9,9s4,9,9,9s9-4,9-9S78,47.3,73,47.3z M73,61.3c-2.8,0-5-2.2-5-5s2.2-5,5-5s5,2.2,5,5S75.8,61.3,73,61.3   z"
       id="path4" /><path
       d="M32,54.5h-4v-4c0-1.1-0.9-2-2-2s-2,0.9-2,2v4h-4c-1.1,0-2,0.9-2,2s0.9,2,2,2h4v4c0,1.1,0.9,2,2,2s2-0.9,2-2v-4h4   c1.1,0,2-0.9,2-2S33.1,54.5,32,54.5z"
       id="path6" /></g></svg>
