<?xml version="1.0" encoding="UTF-8" standalone="no"?>
<svg
   xmlns:dc="http://purl.org/dc/elements/1.1/"
   xmlns:cc="http://creativecommons.org/ns#"
   xmlns:rdf="http://www.w3.org/1999/02/22-rdf-syntax-ns#"
   xmlns:svg="http://www.w3.org/2000/svg"
   xmlns="http://www.w3.org/2000/svg"
   xmlns:sodipodi="http://sodipodi.sourceforge.net/DTD/sodipodi-0.dtd"
   xmlns:inkscape="http://www.inkscape.org/namespaces/inkscape"
   version="1.1"
   x="0px"
   y="0px"
   viewBox="0 0 74.574997 66.474998"
   xml:space="preserve"
   id="svg20"
   sodipodi:docname="noun_1295034_cc.svg"
   inkscape:export-filename="/Users/yyy/work/src/off/offirmo-monorepo/5-incubator/clicker/src2/noun_1295034_cc.png"
   inkscape:export-xdpi="152.96001"
   inkscape:export-ydpi="152.96001"
   width="74.574997"
   height="66.474998"
   inkscape:version="0.92.2 5c3e80d, 2017-08-06"><metadata
     id="metadata26"><rdf:RDF><cc:Work
         rdf:about=""><dc:format>image/svg+xml</dc:format><dc:type
           rdf:resource="http://purl.org/dc/dcmitype/StillImage" /><dc:title></dc:title></cc:Work></rdf:RDF></metadata><defs
     id="defs24" /><sodipodi:namedview
     pagecolor="#ffffff"
     bordercolor="#666666"
     borderopacity="1"
     objecttolerance="10"
     gridtolerance="10"
     guidetolerance="10"
     inkscape:pageopacity="0"
     inkscape:pageshadow="2"
     inkscape:window-width="1007"
     inkscape:window-height="785"
     id="namedview22"
     showgrid="false"
     fit-margin-top="0"
     fit-margin-left="0"
     fit-margin-right="0"
     fit-margin-bottom="0"
     inkscape:zoom="1.888"
     inkscape:cx="-32.880085"
     inkscape:cy="22"
     inkscape:window-x="68"
     inkscape:window-y="0"
     inkscape:window-maximized="0"
     inkscape:current-layer="svg20" /><g
     id="g14"
     transform="translate(-12.7,-18.025)"><path
       d="m 87.2,81.4 c 0.1,-0.2 0.1,-0.5 0,-0.8 -0.1,-0.1 -0.1,-0.2 -0.2,-0.3 l -2.5,-2.5 c -0.4,-0.4 -1,-0.4 -1.4,0 -0.4,0.4 -0.4,1 0,1.4 L 83.9,80 H 17.2 V 21.4 l 0.8,0.8 c 0.2,0.2 0.5,0.3 0.7,0.3 0.2,0 0.5,-0.1 0.7,-0.3 0.4,-0.4 0.4,-1 0,-1.4 L 17,18.3 c -0.1,-0.1 -0.2,-0.2 -0.3,-0.2 -0.2,-0.1 -0.5,-0.1 -0.8,0 -0.1,0.1 -0.2,0.1 -0.3,0.2 L 13,20.8 c -0.4,0.4 -0.4,1 0,1.4 0.4,0.4 1,0.4 1.4,0 l 0.8,-0.8 V 81 c 0,0.6 0.4,1 1,1 H 83.8 L 83,82.8 c -0.4,0.4 -0.4,1 0,1.4 0.2,0.2 0.5,0.3 0.7,0.3 0.2,0 0.5,-0.1 0.7,-0.3 l 2.5,-2.5 c 0.1,-0.1 0.2,-0.2 0.3,-0.3 z"
       id="path2"
       inkscape:connector-curvature="0" /><path
       d="m 30.2,74 h 6 c 0.6,0 1,-0.4 1,-1 v -9 c 0,-0.6 -0.4,-1 -1,-1 h -6 c -0.6,0 -1,0.4 -1,1 v 9 c 0,0.6 0.5,1 1,1 z m 1,-9 h 4 v 7 h -4 z"
       id="path4"
       inkscape:connector-curvature="0" /><path
       d="m 41.7,57 c -0.6,0 -1,0.4 -1,1 v 15 c 0,0.6 0.4,1 1,1 h 6 c 0.6,0 1,-0.4 1,-1 V 58 c 0,-0.6 -0.4,-1 -1,-1 z m 5,15 h -4 V 59 h 4 z"
       id="path6"
       inkscape:connector-curvature="0" /><path
       d="m 53.2,50 c -0.6,0 -1,0.4 -1,1 v 22 c 0,0.6 0.4,1 1,1 h 6 c 0.6,0 1,-0.4 1,-1 V 51 c 0,-0.6 -0.4,-1 -1,-1 z m 5,22 h -4 V 52 h 4 z"
       id="path8"
       inkscape:connector-curvature="0" /><path
       d="m 64.6,39 c -0.6,0 -1,0.4 -1,1 v 33 c 0,0.6 0.4,1 1,1 h 6 c 0.6,0 1,-0.4 1,-1 V 40 c 0,-0.6 -0.4,-1 -1,-1 z m 5,33 h -4 V 41 h 4 z"
       id="path10"
       inkscape:connector-curvature="0" /><path
       d="m 30.2,55.4 c 0.1,0 0.2,0 0.4,-0.1 0.3,-0.1 25.4,-9.9 39.5,-30.5 l 0.7,3.8 c 0.1,0.5 0.5,0.8 1,0.8 0.1,0 0.1,0 0.2,0 0.5,-0.1 0.9,-0.6 0.8,-1.2 l -1.2,-6.3 c 0,0 0,0 0,0 0,-0.1 -0.1,-0.1 -0.1,-0.2 0,-0.1 0,-0.1 -0.1,-0.2 0,-0.1 -0.1,-0.1 -0.1,-0.1 0,0 -0.1,-0.1 -0.1,-0.1 0,0 0,0 0,0 0,0 0,0 0,0 0,0 -0.1,0 -0.2,-0.1 -0.1,0 -0.1,-0.1 -0.2,-0.1 -0.1,0 -0.1,0 -0.2,0 -0.1,0 -0.1,0 -0.2,0 l -6.3,1.2 c -0.5,0.1 -0.9,0.6 -0.8,1.2 0.1,0.6 0.6,0.9 1.2,0.8 l 4,-0.7 C 54.8,43.8 30.1,53.4 29.9,53.5 c -0.5,0.2 -0.8,0.8 -0.6,1.3 0.1,0.4 0.5,0.6 0.9,0.6 z"
       id="path12"
       inkscape:connector-curvature="0" /></g></svg>
