<?xml version="1.0" encoding="UTF-8" standalone="no"?>
<svg
   xmlns:dc="http://purl.org/dc/elements/1.1/"
   xmlns:cc="http://creativecommons.org/ns#"
   xmlns:rdf="http://www.w3.org/1999/02/22-rdf-syntax-ns#"
   xmlns:svg="http://www.w3.org/2000/svg"
   xmlns="http://www.w3.org/2000/svg"
   xmlns:sodipodi="http://sodipodi.sourceforge.net/DTD/sodipodi-0.dtd"
   xmlns:inkscape="http://www.inkscape.org/namespaces/inkscape"
   version="1.1"
   x="0px"
   y="0px"
   viewBox="0 0 440 280"
   enable-background="new 0 0 300 300"
   xml:space="preserve"
   id="svg5663"
   sodipodi:docname="small_tile_chrome_store.svg"
   width="440"
   height="280"
   inkscape:export-xdpi="96"
   inkscape:export-ydpi="96"
   inkscape:version="0.92.2 5c3e80d, 2017-08-06"
   inkscape:export-filename="/Users/offirmo/work/src/off/offirmo-monorepo/4-tools/universal-debug-api-companion-webextension/src2/tile_440x280.png"><metadata
     id="metadata5669"><rdf:RDF><cc:Work
         rdf:about=""><dc:format>image/svg+xml</dc:format><dc:type
           rdf:resource="http://purl.org/dc/dcmitype/StillImage" /><dc:title></dc:title></cc:Work></rdf:RDF></metadata><defs
     id="defs5667" /><sodipodi:namedview
     pagecolor="#543d46"
     bordercolor="#666666"
     borderopacity="1"
     objecttolerance="10"
     gridtolerance="10"
     guidetolerance="10"
     inkscape:pageopacity="1"
     inkscape:pageshadow="2"
     inkscape:window-width="1687"
     inkscape:window-height="1035"
     id="namedview5665"
     showgrid="false"
     inkscape:pagecheckerboard="false"
     inkscape:zoom="0.89001172"
     inkscape:cx="33.286268"
     inkscape:cy="319.83554"
     inkscape:window-x="0"
     inkscape:window-y="0"
     inkscape:window-maximized="0"
     inkscape:current-layer="svg5663" /><g
     id="g5657"
     transform="matrix(-1.1685991,-1.2052714,-1.2052714,1.1685991,735.38458,302.98202)"
     style="fill:#ffebbc;fill-opacity:1"><path
       d="m 216.404,123.338 5.57,-9.646 h 39.442 l -2.704,-6.838 c -3.522,-8.158 -9.011,-15.758 -16.204,-21.053 -9.533,-7.018 -22.233,-8.777 -33.493,-5.168 -11.072,3.547 -18.119,13.275 -23.169,23.217 -2.536,4.994 -5.042,9.953 -8.558,14.35 -3.246,4.059 -7.132,7.213 -11.856,9.395 -8.82,4.074 -17.965,7.461 -27.036,10.926 -11.481,4.385 -22.997,8.684 -34.525,12.943 -11.648,4.305 -23.312,8.574 -35.007,12.75 -4.516,1.611 -9.15,3.016 -13.601,4.801 -5.162,2.068 -9.724,5.549 -12.732,10.264 -6.32,9.91 -4.747,23.377 2.542,32.338 3.528,4.338 8.372,7.531 13.819,8.859 5.67,1.383 11.612,0.676 17.032,-1.363 1.652,-0.621 3.259,-1.361 4.815,-2.195 l -0.025,0.014 c 20.115,-10.611 39.892,-21.865 59.916,-32.648 10.373,-5.586 20.771,-11.15 31.352,-16.336 2.425,-1.189 4.862,-2.355 7.328,-3.457 2.185,-0.977 4.504,-2.17 6.879,-2.572 6.227,-1.055 12.598,0.195 18.705,1.41 5.98,1.189 12.001,2.51 18.138,2.23 5.259,-0.236 10.455,-1.557 15.158,-3.93 5.016,-2.523 9.411,-6.164 13.03,-10.441 2.696,-3.188 5.176,-6.797 6.802,-10.656 l 2.895,-6.928 h -38.59 z m 23.865,24.82 c -4.148,3.738 -9.244,6.314 -14.788,7.131 -5.896,0.869 -11.743,-0.391 -17.508,-1.545 -6.058,-1.211 -12.181,-2.398 -18.39,-2.189 -2.997,0.102 -5.945,0.504 -8.777,1.514 -2.445,0.871 -4.824,1.934 -7.182,3.018 -10.538,4.846 -20.79,10.332 -31.02,15.791 -10.949,5.84 -21.84,11.791 -32.72,17.76 -11.262,6.176 -22.475,12.455 -33.836,18.449 l -0.016,0.008 -0.01,0.004 c -4.735,2.529 -10.354,4.061 -15.642,2.418 -5.143,-1.596 -8.978,-5.932 -10.726,-10.932 -1.829,-5.234 -1.444,-11.355 1.963,-15.873 3.106,-4.121 7.776,-5.568 12.431,-7.191 21.949,-7.654 43.748,-15.771 65.504,-23.957 10.962,-4.125 21.955,-8.213 32.777,-12.695 4.203,-1.742 8.53,-3.496 12.387,-5.93 4.857,-3.066 8.87,-7.254 12.204,-11.9 3.416,-4.762 5.862,-9.979 8.604,-15.127 2.49,-4.678 5.451,-9.348 9.526,-12.811 4.392,-3.732 9.753,-5.039 15.409,-5.188 5.717,-0.152 11.04,1.318 15.721,4.65 3.799,2.705 6.915,6.266 9.49,10.129 H 216.2 l -11.345,19.645 11.695,20.266 h 27.946 c -1.166,1.495 -2.574,3.071 -4.227,4.555 -2.243,2.022 1.653,-1.484 0,0 z"
       id="path5653"
       inkscape:connector-curvature="0"
       style="fill:#ffebbc;fill-opacity:1" /><path
       d="m 66.17,181.516 c -5.313,-0.002 -10.153,3.527 -11.779,8.584 -1.642,5.104 0.284,10.836 4.668,13.916 4.399,3.092 10.476,2.941 14.717,-0.363 4.229,-3.297 5.869,-9.127 3.969,-14.145 -1.804,-4.758 -6.486,-7.994 -11.575,-7.992 -3.404,-0.002 3.404,-0.002 0,0 z m 3.093,15.466 c -1.696,1.684 -4.487,1.684 -6.184,0 -1.685,-1.697 -1.683,-4.488 -10e-4,-6.186 1.698,-1.682 4.487,-1.684 6.185,0 1.684,1.698 1.684,4.489 0,6.186 -0.804,0.797 0.798,-0.804 0,0 z"
       id="path5655"
       inkscape:connector-curvature="0"
       style="fill:#ffebbc;fill-opacity:1" /></g><text
     xml:space="preserve"
     style="font-style:normal;font-weight:normal;font-size:40px;line-height:1.25;font-family:sans-serif;letter-spacing:0px;word-spacing:0px;fill:#ffebbc;fill-opacity:1;stroke:none"
     x="32.583843"
     y="76.895996"
     id="text835"><tspan
       sodipodi:role="line"
       id="tspan833"
       x="32.583843"
       y="76.895996"
       style="font-style:normal;font-variant:normal;font-weight:bold;font-stretch:normal;font-size:42.66666794px;font-family:'Fira Code';-inkscape-font-specification:'Fira Code Bold'">Universal</tspan><tspan
       sodipodi:role="line"
       x="32.583843"
       y="130.22932"
       id="tspan861"
       style="font-style:normal;font-variant:normal;font-weight:bold;font-stretch:normal;font-size:42.66666794px;font-family:'Fira Code';-inkscape-font-specification:'Fira Code Bold'">Web</tspan><tspan
       sodipodi:role="line"
       x="32.583843"
       y="183.56267"
       id="tspan863"
       style="font-style:normal;font-variant:normal;font-weight:bold;font-stretch:normal;font-size:42.66666794px;font-family:'Fira Code';-inkscape-font-specification:'Fira Code Bold'">Dev</tspan><tspan
       sodipodi:role="line"
       x="32.583843"
       y="236.896"
       id="tspan865"
       style="font-style:normal;font-variant:normal;font-weight:bold;font-stretch:normal;font-size:42.66666794px;font-family:'Fira Code';-inkscape-font-specification:'Fira Code Bold'">Tool</tspan></text>
<flowRoot
     xml:space="preserve"
     id="flowRoot837"
     style="fill:black;fill-opacity:1;stroke:none;font-family:sans-serif;font-style:normal;font-weight:normal;font-size:40px;line-height:1.25;letter-spacing:0px;word-spacing:0px"><flowRegion
       id="flowRegion839"><rect
         id="rect841"
         width="32.583839"
         height="138.20042"
         x="24.718775"
         y="40.677311" /></flowRegion><flowPara
       id="flowPara843"></flowPara></flowRoot><flowRoot
     xml:space="preserve"
     id="flowRoot845"
     style="fill:black;fill-opacity:1;stroke:none;font-family:sans-serif;font-style:normal;font-weight:normal;font-size:40px;line-height:1.25;letter-spacing:0px;word-spacing:0px"><flowRegion
       id="flowRegion847"><rect
         id="rect849"
         width="14.606549"
         height="101.12226"
         x="24.718775"
         y="40.677311" /></flowRegion><flowPara
       id="flowPara851"></flowPara></flowRoot><flowRoot
     xml:space="preserve"
     id="flowRoot853"
     style="fill:black;fill-opacity:1;stroke:none;font-family:sans-serif;font-style:normal;font-weight:normal;font-size:40px;line-height:1.25;letter-spacing:0px;word-spacing:0px"><flowRegion
       id="flowRegion855"><rect
         id="rect857"
         width="17.977291"
         height="171.90785"
         x="24.718775"
         y="40.677311" /></flowRegion><flowPara
       id="flowPara859"></flowPara></flowRoot></svg>
