<?xml version="1.0" encoding="UTF-8" standalone="no"?>
<svg
   xmlns:dc="http://purl.org/dc/elements/1.1/"
   xmlns:cc="http://creativecommons.org/ns#"
   xmlns:rdf="http://www.w3.org/1999/02/22-rdf-syntax-ns#"
   xmlns:svg="http://www.w3.org/2000/svg"
   xmlns="http://www.w3.org/2000/svg"
   xmlns:sodipodi="http://sodipodi.sourceforge.net/DTD/sodipodi-0.dtd"
   xmlns:inkscape="http://www.inkscape.org/namespaces/inkscape"
   version="1.1"
   x="0px"
   y="0px"
   viewBox="0 0 100 100"
   enable-background="new 0 0 100 100"
   xml:space="preserve"
   id="svg1087"
   sodipodi:docname="2fa.svg"
   inkscape:version="0.92.2 5c3e80d, 2017-08-06"
   width="100"
   height="100"><metadata
     id="metadata1093"><rdf:RDF><cc:Work
         rdf:about=""><dc:format>image/svg+xml</dc:format><dc:type
           rdf:resource="http://purl.org/dc/dcmitype/StillImage" /><dc:title></dc:title></cc:Work></rdf:RDF></metadata><defs
     id="defs1091" /><sodipodi:namedview
     pagecolor="#cb3837"
     bordercolor="#666666"
     borderopacity="1"
     objecttolerance="10"
     gridtolerance="10"
     guidetolerance="10"
     inkscape:pageopacity="0"
     inkscape:pageshadow="2"
     inkscape:window-width="1680"
     inkscape:window-height="1028"
     id="namedview1089"
     showgrid="false"
     inkscape:zoom="1.888"
     inkscape:cx="50"
     inkscape:cy="62.5"
     inkscape:window-x="1"
     inkscape:window-y="0"
     inkscape:window-maximized="0"
     inkscape:current-layer="svg1087"
     inkscape:pagecheckerboard="true" /><rect
     style="fill:#cb3837;fill-opacity:1;stroke:none;stroke-width:3.62585998;stroke-linecap:butt;stroke-linejoin:bevel;stroke-miterlimit:4;stroke-dasharray:none;stroke-opacity:1;paint-order:normal"
     id="rect1724"
     width="100"
     height="100"
     x="0"
     y="1.4210855e-14" /><g
     id="g1661"
     transform="matrix(0.85610125,0,0,0.85610125,10.923982,28.597041)"
     style="fill:#ffffff;fill-opacity:1"><path
       inkscape:connector-curvature="0"
       id="path1075"
       d="m 68.143,46.782 c -0.127,0.017 -1.229,0.161 -2.563,0.161 -1.117,0 -2.063,-0.103 -2.416,-0.146 v 7.419 h -42.5 V -4.219 h 42.5 V 3.2 c 0.354,-0.043 1.301,-0.145 2.416,-0.145 1.338,0 2.44,0.147 2.563,0.164 0.114,0.016 0.221,0.053 0.332,0.078 v -15.484 c 0,-2.934 -2.377,-5.313 -5.313,-5.313 h -42.5 c -2.938,0 -5.313,2.379 -5.313,5.313 v 74.375 c 0,2.938 2.375,5.313 5.313,5.313 h 42.5 c 2.937,0 5.313,-2.376 5.313,-5.313 V 46.704 c -0.114,0.025 -0.219,0.064 -0.332,0.078 z m -14.702,-59.04 c 0.729,0 1.328,0.594 1.328,1.328 0,0.732 -0.599,1.327 -1.328,1.327 -0.734,0 -1.328,-0.595 -1.328,-1.327 0,-0.734 0.594,-1.328 1.328,-1.328 z m -17.385,0.071 h 11.709 c 0.737,0 1.329,0.594 1.329,1.328 0,0.734 -0.592,1.328 -1.329,1.328 H 36.056 c -0.737,0 -1.329,-0.594 -1.329,-1.328 0,-0.734 0.591,-1.328 1.329,-1.328 z m 5.854,77.031 c -2.2,0 -3.985,-1.785 -3.985,-3.984 0,-2.197 1.785,-3.98 3.985,-3.98 2.2,0 3.985,1.783 3.985,3.98 10e-4,2.199 -1.785,3.984 -3.985,3.984 z"
       style="fill:#ffffff;fill-opacity:1" /><path
       inkscape:connector-curvature="0"
       id="path1077"
       d="m 65.282,4.999 c -11.048,0 -20.001,8.955 -20.001,20.001 0,11.046 8.956,20 20.001,20 11.045,0 20.002,-8.954 20.002,-20 0,-11.046 -8.955,-20.001 -20.002,-20.001 z m 0,35.334 c -8.47,0 -15.333,-6.864 -15.333,-15.333 0,-8.469 6.863,-15.333 15.333,-15.333 8.469,0 15.334,6.865 15.334,15.333 0,8.468 -6.864,15.333 -15.334,15.333 z"
       style="fill:#ffffff;fill-opacity:1" /><g
       transform="translate(0,-25)"
       id="g1081"
       style="fill:#ffffff;fill-opacity:1"><path
         inkscape:connector-curvature="0"
         id="path1079"
         d="m 59.623,59.627 h 11.655 c 1.15,0 2.083,-0.933 2.083,-2.084 v -8.182 c 0,-1.11 -0.867,-2.014 -1.961,-2.078 v -3.285 c 0,-3.281 -2.669,-5.95 -5.949,-5.95 -3.281,0 -5.951,2.669 -5.951,5.95 v 3.285 c -1.093,0.063 -1.961,0.968 -1.961,2.078 v 8.182 c 0,1.151 0.933,2.084 2.084,2.084 z m 7.731,-3.902 c -0.061,0.093 -0.163,0.147 -0.274,0.147 h -3.26 c -0.11,0 -0.213,-0.055 -0.274,-0.147 -0.062,-0.092 -0.071,-0.208 -0.029,-0.31 l 0.788,-1.867 c -0.415,-0.341 -0.663,-0.854 -0.663,-1.397 0,-0.998 0.812,-1.809 1.808,-1.809 0.998,0 1.81,0.811 1.81,1.809 0,0.544 -0.248,1.057 -0.663,1.397 l 0.787,1.867 c 0.042,0.102 0.031,0.218 -0.03,0.31 z M 62.453,43.998 c 0,-1.653 1.345,-2.998 2.998,-2.998 1.651,0 2.997,1.345 2.997,2.998 v 3.279 h -5.995 z"
         style="fill:#ffffff;fill-opacity:1" /></g></g></svg>