<svg xmlns="http://www.w3.org/2000/svg" data-name="Layer 1" viewBox="0 0 100 125" x="0px" y="0px"><title>01</title><g data-name="Group"><path data-name="Compound Path" d="M33.3,39.6l17,48.9a3,3,0,0,0,2.6,2h.2A3,3,0,0,0,55.8,89l7.5-14.2,8.5,8.5a5,5,0,0,0,7.1,0l4.3-4.3a5,5,0,0,0,0-7.1l-8.5-8.5L89,55.8a3,3,0,0,0-.4-5.5l-48.9-17a5,5,0,0,0-6.4,6.4ZM80.1,53.7,68.3,59.9a3,3,0,0,0-.7,4.8L78.3,75.4l-2.9,2.9L64.7,67.6a3,3,0,0,0-4.8.7L53.7,80.1,39.6,39.6Z"/><path data-name="Path" d="M26.1,21.8l-6.3-6.3a3,3,0,0,0-4.2,4.2l6.3,6.3a3,3,0,0,0,4.2-4.2Z"/><path data-name="Path" d="M40.2,25h.6a3,3,0,0,0,2.4-3.5l-1.8-9.6A3,3,0,1,0,35.5,13l1.8,9.6A3,3,0,0,0,40.2,25Z"/><path data-name="Path" d="M21.5,43.2H22a3,3,0,0,0,.5-6L13,35.5a3,3,0,0,0-1.1,5.9Z"/></g><text x="0" y="115" fill="#000000" font-size="5px" font-weight="bold" font-family="'Helvetica Neue', Helvetica, Arial-Unicode, Arial, Sans-serif">Created by Jugalbandi</text><text x="0" y="120" fill="#000000" font-size="5px" font-weight="bold" font-family="'Helvetica Neue', Helvetica, Arial-Unicode, Arial, Sans-serif">from the Noun Project</text></svg>