<svg xmlns="http://www.w3.org/2000/svg" xmlns:xlink="http://www.w3.org/1999/xlink" version="1.1" x="0px" y="0px" viewBox="0 0 100 125" style="enable-background:new 0 0 100 100;" xml:space="preserve"><g><path d="M92,48c-3.8-7.6-9.8-13-16.4-14.8C71,32.1,66.7,32.7,63,35l0,0c-2.9,1-5.9,1.6-9,1.9v-6c0-1.8,0.4-6.1,4-6.1   c3.7,0,8-1.5,8-8.5c0-1.1-0.9-2-2-2s-2,0.9-2,2c0,3.8-1.4,4.5-4,4.5c-4.9,0-8,4-8,10.1V37c-4.2-0.1-8.5-0.9-12.5-2.5   c-3.7-2.4-8.1-3.1-12.7-1.8C18.1,34.5,12,40,8.1,47.8C1.4,61.1,3.6,77,12.9,83.2c2.6,1.7,5.4,2.6,8.5,2.6c1.4,0,2.9-0.2,4.4-0.6   c6.5-1.7,12.5-7,16.5-14.4c5.2-2.2,11.1-2.2,16.3-0.2l0,0c3.9,7.3,9.8,12.4,16.2,14.1c4.6,1.2,8.9,0.5,12.6-2   C96.4,76.7,98.5,61.1,92,48z M85,79.4c-2.7,1.8-6,2.3-9.4,1.4c-5.4-1.4-10.5-6-13.8-12.4c-0.3-0.6-0.9-1.1-1.6-1.4c0,0,0,0,0,0   l-0.4-0.1c-6.3-2.5-13.5-2.3-19.7,0.4c-0.6,0.3-1.1,0.8-1.5,1.4c-3.4,6.5-8.6,11.3-14.1,12.7c-3.5,0.9-6.8,0.4-9.6-1.5   c-7.7-5.1-9.2-18.7-3.4-30.3c3.3-6.7,8.6-11.5,14.2-13c1.2-0.3,2.3-0.5,3.4-0.5c2.3,0,4.4,0.6,6.3,1.9c0.1,0.1,0.2,0.1,0.4,0.2   C45,41.8,55,42,64.3,38.8l0.3-0.1c0.2-0.1,0.3-0.1,0.5-0.2c2.8-1.8,6-2.3,9.5-1.4c5.4,1.4,10.6,6.2,13.9,12.7   C94.1,61.1,92.6,74.4,85,79.4z"/><path d="M73,47.3c-5,0-9,4-9,9s4,9,9,9s9-4,9-9S78,47.3,73,47.3z M73,61.3c-2.8,0-5-2.2-5-5s2.2-5,5-5s5,2.2,5,5S75.8,61.3,73,61.3   z"/><path d="M32,54.5h-4v-4c0-1.1-0.9-2-2-2s-2,0.9-2,2v4h-4c-1.1,0-2,0.9-2,2s0.9,2,2,2h4v4c0,1.1,0.9,2,2,2s2-0.9,2-2v-4h4   c1.1,0,2-0.9,2-2S33.1,54.5,32,54.5z"/></g><text x="0" y="115" fill="#000000" font-size="5px" font-weight="bold" font-family="'Helvetica Neue', Helvetica, Arial-Unicode, Arial, Sans-serif">Created by Jivan</text><text x="0" y="120" fill="#000000" font-size="5px" font-weight="bold" font-family="'Helvetica Neue', Helvetica, Arial-Unicode, Arial, Sans-serif">from the Noun Project</text></svg>