<svg xmlns:dc="http://purl.org/dc/elements/1.1/" xmlns:cc="http://creativecommons.org/ns#" xmlns:rdf="http://www.w3.org/1999/02/22-rdf-syntax-ns#" xmlns:svg="http://www.w3.org/2000/svg" xmlns="http://www.w3.org/2000/svg" xmlns:sodipodi="http://sodipodi.sourceforge.net/DTD/sodipodi-0.dtd" xmlns:inkscape="http://www.inkscape.org/namespaces/inkscape" version="1.1" x="0px" y="0px" viewBox="0 0 100 125"><g transform="translate(0,-952.36218)"><path style="text-indent:0;text-transform:none;direction:ltr;block-progression:tb;baseline-shift:baseline;color:#000000;enable-background:accumulate;" d="m 47.48811,958.36221 c -23.1209,1.29937 -41.4881099,20.50831 -41.4881099,43.95839 0,24.2985 19.7290999,44.0416 44.0103199,44.0416 23.91508,0 43.42439,-19.1515 43.98968,-42.9634 0,-1.3092 -1.01404,-2.0448 -2.12596,-2.0448 -1.84278,0.05 -3.77425,0.03 -5.48096,-0.058 -1.32453,-5.39018 -6.2016,-9.39292 -11.97259,-9.39292 -0.50612,0 -1.00616,0.0313 -1.49782,0.0916 -0.88531,-1.27132 -2.13392,-2.27021 -3.59816,-2.84171 -0.19103,-6.48199 -5.54241,-11.72026 -12.06414,-11.72026 -0.54563,0 -1.08477,0.0364 -1.61408,0.10788 -0.10017,-0.1469 -0.20256,-0.29238 -0.31001,-0.43408 0.19192,-0.71424 0.29408,-1.46516 0.29408,-2.23566 0,-3.70891 -2.36651,-6.89049 -5.67536,-8.09171 -0.23849,-1.76495 -0.36469,-3.56367 -0.36469,-5.38794 0,-1.73471 -0.45135,-3.02907 -2.1022,-3.02907 z m -1.88158,4.1708 c 0.05407,2.09126 0.25447,4.15047 0.59126,6.16382 0.06786,0.40543 0.26416,0.78827 0.55363,1.07993 0.28948,0.29164 0.67079,0.4906 1.07544,0.56122 2.1587,0.37629 3.80347,2.23655 3.80347,4.53295 0,0.66979 -0.13947,1.28993 -0.38782,1.84915 -0.16079,0.36218 -0.21071,0.77277 -0.14139,1.16299 0.06931,0.39016 0.25758,0.75845 0.53327,1.04294 0.48999,0.50568 0.89673,1.08932 1.20407,1.72752 0.20149,0.41828 0.55326,0.76213 0.97588,0.95388 0.21131,0.0959 0.43942,0.15458 0.67074,0.1726 0.23132,0.018 0.46574,-0.005 0.68933,-0.0667 0.65194,-0.18076 1.35177,-0.27767 2.08596,-0.27767 4.47849,0 8.07005,3.59413 8.07005,8.07578 0,1.5396 0.38366,2.71106 1.66439,3.14446 1.41413,0.37919 2.52181,1.10562 3.0419,2.3442 0.40347,0.8022 1.41448,1.41171 2.34564,1.16209 0.64521,-0.1674 1.32479,-0.25613 2.03814,-0.25613 4.3194,0 7.83706,3.25387 8.28099,7.44596 0.04735,0.4471 0.25053,0.8762 0.56634,1.196 0.31583,0.3198 0.74215,0.5282 1.18836,0.5809 1.694,0.2 3.41212,0.2939 5.14442,0.2939 0.09768,0 0.19625,0 0.29437,0 -1.57316,20.6837 -18.81337,36.9384 -39.88465,36.9384 -22.11913,0 -40.01029,-17.9039 -40.01029,-40.0387 0,-20.64403 15.57123,-37.60376 35.6065,-39.7876 z" fill="#000000" fill-opacity="1" fill-rule="evenodd" stroke="none" marker="none" visibility="visible" display="inline" overflow="visible"/><path style="text-indent:0;text-transform:none;direction:ltr;block-progression:tb;baseline-shift:baseline;color:#000000;enable-background:accumulate;" d="m 35.49,977.48221 c -3.27372,0 -5.96,2.69743 -5.96,5.96 0,3.26763 2.69237,5.96 5.96,5.96 3.26762,0 5.96,-2.69237 5.96,-5.96 0,-3.26257 -2.68629,-5.96 -5.96,-5.96 z m 0,4 c 1.10628,0 1.96,0.86257 1.96,1.96 0,1.11237 -0.84763,1.96 -1.96,1.96 -1.11238,0 -1.96,-0.84763 -1.96,-1.96 0,-1.09743 0.85371,-1.96 1.96,-1.96 z" fill="#000000" fill-opacity="1" fill-rule="evenodd" stroke="none" marker="none" visibility="visible" display="inline" overflow="visible"/><path style="text-indent:0;text-transform:none;direction:ltr;block-progression:tb;baseline-shift:baseline;color:#000000;enable-background:accumulate;" d="m 51.76,1000.3922 c -2.05591,0 -3.76,1.7041 -3.76,3.76 0,2.0559 1.70409,3.76 3.76,3.76 2.05591,0 3.76,-1.7041 3.76,-3.76 0,-2.0559 -1.70409,-3.76 -3.76,-3.76 z m 0,3.52 c 0.11591,0 0.24,0.1241 0.24,0.24 0,0.1159 -0.12409,0.24 -0.24,0.24 -0.11591,0 -0.24,-0.1241 -0.24,-0.24 0,-0.1159 0.12409,-0.24 0.24,-0.24 z" fill="#000000" fill-opacity="1" fill-rule="evenodd" stroke="none" marker="none" visibility="visible" display="inline" overflow="visible"/><path style="text-indent:0;text-transform:none;direction:ltr;block-progression:tb;baseline-shift:baseline;color:#000000;enable-background:accumulate;" d="m 26.14,1004.3222 c -3.20176,0 -5.85,2.637 -5.85,5.85 0,3.208 2.64824,5.84 5.85,5.84 3.20668,0 5.85,-2.6383 5.85,-5.84 0,-3.2067 -2.64332,-5.85 -5.85,-5.85 z m 0,4 c 1.05332,0 1.85,0.7967 1.85,1.85 0,1.0382 -0.79668,1.84 -1.85,1.84 -1.03824,0 -1.85,-0.8081 -1.85,-1.84 0,-1.0471 0.81176,-1.85 1.85,-1.85 z" fill="#000000" fill-opacity="1" fill-rule="evenodd" stroke="none" marker="none" visibility="visible" display="inline" overflow="visible"/><path style="text-indent:0;text-transform:none;direction:ltr;block-progression:tb;baseline-shift:baseline;color:#000000;enable-background:accumulate;" d="m 47.47,1022.5722 c -3.26257,0 -5.95,2.6924 -5.95,5.96 0,3.2676 2.68743,5.96 5.95,5.96 3.26762,0 5.96,-2.6924 5.96,-5.96 0,-3.2676 -2.69238,-5.96 -5.96,-5.96 z m 0,4 c 1.11237,0 1.96,0.8476 1.96,1.96 0,1.1124 -0.84763,1.96 -1.96,1.96 -1.09743,0 -1.95,-0.8476 -1.95,-1.96 0,-1.1124 0.85257,-1.96 1.95,-1.96 z" fill="#000000" fill-opacity="1" fill-rule="evenodd" stroke="none" marker="none" visibility="visible" display="inline" overflow="visible"/><path style="text-indent:0;text-transform:none;direction:ltr;block-progression:tb;baseline-shift:baseline;color:#000000;enable-background:accumulate;" d="m 36.92,995.74221 c -2.05591,0 -3.76,1.70409 -3.76,3.76 0,2.05589 1.70409,3.75999 3.76,3.75999 2.05591,0 3.76,-1.7041 3.76,-3.75999 0,-2.05591 -1.70409,-3.76 -3.76,-3.76 z m 0,3.52 c 0.11591,0 0.24,0.12409 0.24,0.24 0,0.11591 -0.12409,0.24 -0.24,0.24 -0.11591,0 -0.24,-0.12409 -0.24,-0.24 0,-0.11591 0.12409,-0.24 0.24,-0.24 z" fill="#000000" fill-opacity="1" fill-rule="evenodd" stroke="none" marker="none" visibility="visible" display="inline" overflow="visible"/><path style="text-indent:0;text-transform:none;direction:ltr;block-progression:tb;baseline-shift:baseline;color:#000000;enable-background:accumulate;" d="m 62.65,1020.1522 c -2.05591,0 -3.76,1.7041 -3.76,3.76 0,2.0559 1.70409,3.76 3.76,3.76 2.05591,0 3.76,-1.7041 3.76,-3.76 0,-2.0559 -1.70409,-3.76 -3.76,-3.76 z m 0,3.52 c 0.11591,0 0.24,0.1241 0.24,0.24 0,0.1159 -0.12409,0.24 -0.24,0.24 -0.11591,0 -0.24,-0.1241 -0.24,-0.24 0,-0.1159 0.12409,-0.24 0.24,-0.24 z" fill="#000000" fill-opacity="1" fill-rule="evenodd" stroke="none" marker="none" visibility="visible" display="inline" overflow="visible"/><path style="text-indent:0;text-transform:none;direction:ltr;block-progression:tb;baseline-shift:baseline;color:#000000;enable-background:accumulate;" d="m 67.71,1004.4322 c -3.20668,0 -5.85,2.6433 -5.85,5.85 0,3.2017 2.63706,5.85 5.85,5.85 3.20805,0 5.85,-2.642 5.85,-5.85 0,-3.213 -2.64824,-5.85 -5.85,-5.85 z m 0,4 c 1.03824,0 1.85,0.8029 1.85,1.85 0,1.0319 -0.81805,1.85 -1.85,1.85 -1.04706,0 -1.85,-0.8118 -1.85,-1.85 0,-1.0533 0.79668,-1.85 1.85,-1.85 z" fill="#000000" fill-opacity="1" fill-rule="evenodd" stroke="none" marker="none" visibility="visible" display="inline" overflow="visible"/><path style="text-indent:0;text-transform:none;direction:ltr;block-progression:tb;baseline-shift:baseline;color:#000000;enable-background:accumulate;" d="m 31.86,1019.4922 c -2.05591,0 -3.76,1.7041 -3.76,3.76 0,2.0559 1.70409,3.76 3.76,3.76 2.05591,0 3.76,-1.7041 3.76,-3.76 0,-2.0559 -1.70409,-3.76 -3.76,-3.76 z m 0,3.52 c 0.11591,0 0.24,0.1241 0.24,0.24 0,0.1159 -0.12409,0.24 -0.24,0.24 -0.11591,0 -0.24,-0.1241 -0.24,-0.24 0,-0.1159 0.12409,-0.24 0.24,-0.24 z" fill="#000000" fill-opacity="1" fill-rule="evenodd" stroke="none" marker="none" visibility="visible" display="inline" overflow="visible"/></g><text x="0" y="115" fill="#000000" font-size="5px" font-weight="bold" font-family="'Helvetica Neue', Helvetica, Arial-Unicode, Arial, Sans-serif">Created by allex</text><text x="0" y="120" fill="#000000" font-size="5px" font-weight="bold" font-family="'Helvetica Neue', Helvetica, Arial-Unicode, Arial, Sans-serif">from the Noun Project</text></svg>