<?xml version="1.0" encoding="UTF-8" standalone="no"?>
<svg
   xmlns:dc="http://purl.org/dc/elements/1.1/"
   xmlns:cc="http://creativecommons.org/ns#"
   xmlns:rdf="http://www.w3.org/1999/02/22-rdf-syntax-ns#"
   xmlns:svg="http://www.w3.org/2000/svg"
   xmlns="http://www.w3.org/2000/svg"
   xmlns:sodipodi="http://sodipodi.sourceforge.net/DTD/sodipodi-0.dtd"
   xmlns:inkscape="http://www.inkscape.org/namespaces/inkscape"
   version="1.1"
   x="0px"
   y="0px"
   viewBox="0 0 100 125"
   enable-background="new 0 0 100 100"
   xml:space="preserve"
   id="svg6335"
   sodipodi:docname="weight.svg"
   inkscape:version="0.92.2 5c3e80d, 2017-08-06"><metadata
     id="metadata6341"><rdf:RDF><cc:Work
         rdf:about=""><dc:format>image/svg+xml</dc:format><dc:type
           rdf:resource="http://purl.org/dc/dcmitype/StillImage" /><dc:title></dc:title></cc:Work></rdf:RDF></metadata><defs
     id="defs6339" /><sodipodi:namedview
     pagecolor="#ffffff"
     bordercolor="#666666"
     borderopacity="1"
     objecttolerance="10"
     gridtolerance="10"
     guidetolerance="10"
     inkscape:pageopacity="0"
     inkscape:pageshadow="2"
     inkscape:window-width="1647"
     inkscape:window-height="1032"
     id="namedview6337"
     showgrid="false"
     inkscape:zoom="1.888"
     inkscape:cx="-44.809322"
     inkscape:cy="62.5"
     inkscape:window-x="0"
     inkscape:window-y="0"
     inkscape:window-maximized="0"
     inkscape:current-layer="svg6335" /><g
     id="g6329"
     style="fill:#ffebbc;fill-opacity:1"><path
       fill-rule="evenodd"
       clip-rule="evenodd"
       d="M81.344,34H57.001l-0.246-1.28c5.815-2.598,9.883-8.384,9.883-15.152   c0-9.177-7.467-16.623-16.645-16.623c-9.177,0-16.643,7.476-16.643,16.653c0,6.769,4.068,12.52,9.882,15.118L42.987,34H18.642   L3.986,99H96L81.344,34z M40.138,17.608c0-5.443,4.413-9.856,9.855-9.856c5.445,0,9.856,4.414,9.856,9.856   c0,3.452-1.777,6.486-4.465,8.246c-0.989-1.215-3.02-2.057-5.392-2.057c-2.37,0-4.401,0.842-5.39,2.057   C41.916,24.093,40.138,21.06,40.138,17.608z"
       id="path6327"
       style="fill:#ffebbc;fill-opacity:1" /></g></svg>