<svg xmlns="http://www.w3.org/2000/svg" xmlns:xlink="http://www.w3.org/1999/xlink" version="1.2" baseProfile="tiny" x="0px" y="0px" viewBox="0 0 100 125" xml:space="preserve"><path d="M50,5C25.187,5,5,25.187,5,50s20.187,45,45,45s45-20.187,45-45S74.813,5,50,5z M50,90c-22.056,0-40-17.944-40-40   s17.944-40,40-40s40,17.944,40,40S72.056,90,50,90z"/><path d="M65,47.5H52.5V35c0-1.381-1.119-2.5-2.5-2.5s-2.5,1.119-2.5,2.5v12.5H35c-1.381,0-2.5,1.119-2.5,2.5s1.119,2.5,2.5,2.5   h12.5V65c0,1.381,1.119,2.5,2.5,2.5s2.5-1.119,2.5-2.5V52.5H65c1.381,0,2.5-1.119,2.5-2.5S66.381,47.5,65,47.5z"/><text x="0" y="115" fill="#000000" font-size="5px" font-weight="bold" font-family="'Helvetica Neue', Helvetica, Arial-Unicode, Arial, Sans-serif">Created by Nikita Sokolov</text><text x="0" y="120" fill="#000000" font-size="5px" font-weight="bold" font-family="'Helvetica Neue', Helvetica, Arial-Unicode, Arial, Sans-serif">from the Noun Project</text></svg>