<svg xmlns:dc="http://purl.org/dc/elements/1.1/" xmlns:cc="http://creativecommons.org/ns#" xmlns:rdf="http://www.w3.org/1999/02/22-rdf-syntax-ns#" xmlns:svg="http://www.w3.org/2000/svg" xmlns="http://www.w3.org/2000/svg" xmlns:sodipodi="http://sodipodi.sourceforge.net/DTD/sodipodi-0.dtd" xmlns:inkscape="http://www.inkscape.org/namespaces/inkscape" version="1.1" x="0px" y="0px" viewBox="0 0 100 125"><g transform="translate(0,-952.36218)"><g transform="translate(-2544.5013,1884.0001)" style="" fill="#000000"><path style="text-indent:0;text-transform:none;direction:ltr;block-progression:tb;baseline-shift:baseline;color:#000000;enable-background:accumulate;" d="m 2587.9998,-910.63794 c -4.934,0 -8.9998,4.06589 -8.9998,9 l 0,24.31262 c -1.4863,-1.98823 -3.1033,-3.50857 -5,-4.03125 -2.6003,-0.71657 -4.9298,0.2154 -6.4998,1.125 -1.8965,1.50647 -3.553,2.67825 -4.2187,5.0937 -0.6253,2.27855 -0.1636,4.72854 0.9375,7.5625 5.2715,12.6304 11.6573,24.87518 19.5309,33.90625 0.558,0.64167 1.3995,1.02738 2.2499,1.0313 l 26.9995,0 c 0.6366,-0.002 1.2707,-0.2136 1.7812,-0.59375 3.1318,-2.32006 5.471,-6.08072 7.4374,-10.5 1.9665,-4.41928 3.4485,-9.53811 4.2187,-14.53125 0.7702,-4.99314 0.8278,-9.93093 -0.3125,-14 -1.1596,-4.13782 -4.2185,-7.84087 -8.7811,-8.375 -0.7726,-0.022 -1.6051,0.10413 -2.2812,0.1875 -0.588,-1.13021 -1.3785,-2.03782 -2.25,-2.65625 -1.7124,-1.21517 -3.4033,-1.55552 -4.8749,-1.53125 -1.0559,0.0177 -2.015,0.37655 -2.9374,0.875 -0.3693,-0.44074 -0.6669,-1.00249 -1.0938,-1.3125 -1.7075,-1.24005 -3.4618,-1.5625 -4.9061,-1.5625 -0.6837,0 -1.3424,0.10374 -2,0.25 l 0,-15.25012 c 0,-4.93411 -4.0658,-9 -8.9998,-9 z m 0,6 c 1.7138,0 2.9999,1.28611 2.9999,3 l 0,21.00012 c 0,1.35442 1.0227,2.64333 2.3443,2.93944 1.3217,0.29611 2.8013,-0.43098 3.3744,-1.65819 1.0912,-1.41579 2.2257,-1.38369 3.6562,-0.875 0.3579,0.25995 0.625,0.40927 0.625,1.59375 0,1.34202 1.0043,2.62066 2.3103,2.92924 1.3061,0.30858 2.7802,-0.3835 3.377,-1.58549 0.7801,-1.6193 1.2884,-1.42176 2.6562,-0.90625 0.4102,0.29106 0.6563,0.43508 0.6563,1.5625 0.01,1.15381 0.7458,2.27058 1.8039,2.73065 1.0581,0.46007 2.378,0.23793 3.2272,-0.54315 0.033,0.0663 1.3356,-0.35545 1.8125,-0.1875 1.8589,0.2814 2.7682,1.34199 3.5312,4.03125 0.7905,2.78646 0.8405,7.00153 0.1562,11.4375 -0.6842,4.43597 -2.0882,9.12527 -3.8124,13 -1.5648,3.51666 -3.4482,6.14313 -4.9999,7.53125 l -24.2183,0 c -5.5931,-7.57441 -18.4973,-27.94873 -18.4372,-34.875 0.8109,-1.33321 2.0739,-2.1981 3.3437,-2.0625 1.5911,0.80298 1.9863,1.6274 2.9375,3.34375 l 3.9686,7.9375 c 0.5969,1.20199 2.071,1.89407 3.3771,1.58549 1.306,-0.30858 2.3145,-1.58722 2.3103,-2.92924 l 0,-36.00012 c 0,-1.71389 1.2861,-3 3,-3 z" fill="#000000" fill-opacity="1" stroke="none" marker="none" visibility="visible" display="inline" overflow="visible"/><path d="m 2588,-930.63792 c -1.6568,0 -3,1.3432 -3,3 l 0,12 c 0,1.6568 1.3432,3 3,3 1.6569,0 3,-1.3432 3,-3 l 0,-12 c 0,-1.6568 -1.3431,-3 -3,-3 z m -25.5938,14.5 c -0.8284,1.4349 -0.3411,3.2654 1.0938,4.0938 l 10.4062,6 c 1.4348,0.8284 3.2654,0.3411 4.0938,-1.0938 0.8284,-1.4348 0.341,-3.2653 -1.0938,-4.0938 l -10.4062,-6 c -1.5064,-0.7489 -3.2787,-0.4599 -4.0938,1.0938 z m 47.0938,-1.0938 -10.4062,6 c -1.4348,0.8285 -1.9222,2.659 -1.0938,4.0938 0.8284,1.4349 2.659,1.9222 4.0938,1.0938 l 10.4062,-6 c 1.4349,-0.8284 1.9222,-2.6589 1.0938,-4.0938 -1.2098,-1.6793 -2.5589,-1.82 -4.0938,-1.0938 z" style="text-indent:0;text-transform:none;direction:ltr;block-progression:tb;baseline-shift:baseline;color:#000000;enable-background:accumulate;" fill="#000000" fill-opacity="1" stroke="none" marker="none" visibility="visible" display="inline" overflow="visible"/></g></g><text x="0" y="115" fill="#000000" font-size="5px" font-weight="bold" font-family="'Helvetica Neue', Helvetica, Arial-Unicode, Arial, Sans-serif">Created by iconsphere</text><text x="0" y="120" fill="#000000" font-size="5px" font-weight="bold" font-family="'Helvetica Neue', Helvetica, Arial-Unicode, Arial, Sans-serif">from the Noun Project</text></svg>