<!-- by Offirmo, Unlicense -->
<svg version="1.1" xmlns="http://www.w3.org/2000/svg" viewBox="0 0 47 32">
	<title>fullscreenexit</title>
	<path
		d="M32.492 24.285c0 1.584-1.284 2.869-2.869 2.869h-12.477c-1.585 0-2.869-1.284-2.869-2.869v-7.063c0-1.584 1.284-2.869 2.869-2.869h12.477c1.585 0 2.869 1.284 2.869 2.869v7.063z"></path>
	<path d="M13.785 15.831v-5.6l-1.985 1.996-2.301-2.304-1.622 1.627 2.306 2.285-2.017 1.996z"></path>
	<path d="M32.985 15.831h5.598l-1.995-1.985 2.303-2.301-1.627-1.622-2.284 2.304-1.995-2.017z"></path>
	<path d="M13.785 25.677h-5.6l1.996 1.986-2.304 2.298 1.628 1.623 2.284-2.306 1.996 2.018z"></path>
	<path d="M32.985 26.169v5.106l1.986-1.995 2.299 2.303 1.624-1.627-2.305-2.038 2.017-1.75z"></path>
	<path
		d="M43.675 37h-40.17c-1.978 0-3.505-1.774-3.505-3.753v-24.389c0-1.977 1.527-3.858 3.505-3.858h40.17c1.978 0 3.587 1.881 3.587 3.858v24.389c0 1.979-1.609 3.753-3.587 3.753zM45.785 8.629c0-1.188-0.963-2.152-2.152-2.152h-40.004c-1.188 0-2.152 0.963-2.152 2.152v24.742c0 1.188 0.963 2.152 2.152 2.152h40.004c1.188 0 2.152-0.963 2.152-2.152v-24.742z"></path>
</svg>
