<?xml version="1.0" encoding="UTF-8" standalone="no"?>
<!-- Created with Inkscape (http://www.inkscape.org/) -->

<svg
   width="1587.4016"
   height="2245.0393"
   viewBox="0 0 420 594"
   version="1.1"
   id="svg5"
   inkscape:version="1.1.1 (c3084ef, 2021-09-22)"
   sodipodi:docname="index.svg"
   xmlns:inkscape="http://www.inkscape.org/namespaces/inkscape"
   xmlns:sodipodi="http://sodipodi.sourceforge.net/DTD/sodipodi-0.dtd"
   xmlns="http://www.w3.org/2000/svg"
   xmlns:svg="http://www.w3.org/2000/svg">
  <sodipodi:namedview
     id="namedview7"
     pagecolor="#ffffff"
     bordercolor="#666666"
     borderopacity="1.0"
     inkscape:pageshadow="2"
     inkscape:pageopacity="0.0"
     inkscape:pagecheckerboard="true"
     inkscape:document-units="mm"
     showgrid="false"
     units="px"
     inkscape:showpageshadow="false"
     inkscape:zoom="0.37727623"
     inkscape:cx="793.84805"
     inkscape:cy="1122.5197"
     inkscape:window-width="1312"
     inkscape:window-height="1027"
     inkscape:window-x="1897"
     inkscape:window-y="0"
     inkscape:window-maximized="0"
     inkscape:current-layer="layer1" />
  <defs
     id="defs2">
    <clipPath
       clipPathUnits="userSpaceOnUse"
       id="clipPath712">
      <path
         d="m 225.184,322.91 v -56.249 h 204.631 c 5.868,0 10.626,4.757 10.626,10.625 v 0 c 0,1.24 -0.218,2.47 -0.64,3.635 v 0 l -9.895,27.185 c -3.235,8.888 -11.685,14.804 -21.143,14.804 v 0 z"
         id="path710" />
    </clipPath>
    <clipPath
       clipPathUnits="userSpaceOnUse"
       id="clipPath736">
      <path
         d="m 302.685,317.285 h 21.562 V 272.91 h -21.562 z"
         id="path734" />
    </clipPath>
    <clipPath
       clipPathUnits="userSpaceOnUse"
       id="clipPath358">
      <path
         d="M 0,499.998 H 500 V 0 H 0 Z"
         id="path356" />
    </clipPath>
    <clipPath
       clipPathUnits="userSpaceOnUse"
       id="clipPath406">
      <path
         d="m 77.6836,208.963 h 26.2504 v -45 H 77.6836 Z"
         id="path404" />
    </clipPath>
    <clipPath
       clipPathUnits="userSpaceOnUse"
       id="clipPath424">
      <path
         d="m 127.684,208.963 h 26.25 v -45 h -26.25 z"
         id="path422" />
    </clipPath>
    <clipPath
       clipPathUnits="userSpaceOnUse"
       id="clipPath442">
      <path
         d="m 177.684,208.963 h 26.249 v -45 h -26.249 z"
         id="path440" />
    </clipPath>
    <clipPath
       clipPathUnits="userSpaceOnUse"
       id="clipPath464">
      <path
         d="M 225.184,214.588 V 158.339 H 424.66 c 14.031,0 21.059,16.964 11.137,26.886 v 0 l -18.821,18.819 c -6.75,6.751 -15.905,10.544 -25.454,10.544 v 0 z"
         id="path462" />
    </clipPath>
    <clipPath
       clipPathUnits="userSpaceOnUse"
       id="clipPath522">
      <path
         d="m 252.685,208.963 h 26.249 v -45 h -26.249 z"
         id="path520" />
    </clipPath>
    <clipPath
       clipPathUnits="userSpaceOnUse"
       id="clipPath540">
      <path
         d="m 302.685,208.963 h 26.249 v -45 h -26.249 z"
         id="path538" />
    </clipPath>
    <clipPath
       clipPathUnits="userSpaceOnUse"
       id="clipPath4627">
      <path
         d="m 169.512,126.315 h 33.45 V 62.5107 h -33.45 z"
         id="path4625" />
    </clipPath>
    <clipPath
       clipPathUnits="userSpaceOnUse"
       id="clipPath23329">
      <path
         d="M 0,114.9779 H 595 V 727.0222 H 0 Z"
         id="path23327" />
    </clipPath>
    <clipPath
       clipPathUnits="userSpaceOnUse"
       id="clipPath23419">
      <path
         d="M 0,115.0708 H 594.2532 V 725.86 H 0 Z"
         id="path23417" />
    </clipPath>
    <clipPath
       clipPathUnits="userSpaceOnUse"
       id="clipPath23431">
      <path
         d="M 0,114.9779 H 595 V 727.0222 H 0 Z"
         id="path23429" />
    </clipPath>
    <clipPath
       clipPathUnits="userSpaceOnUse"
       id="clipPath23441">
      <path
         d="M 0,115.0708 H 594.2532 V 725.86 H 0 Z"
         id="path23439" />
    </clipPath>
    <clipPath
       clipPathUnits="userSpaceOnUse"
       id="clipPath23453">
      <path
         d="M 0,114.9779 H 595 V 727.0222 H 0 Z"
         id="path23451" />
    </clipPath>
    <clipPath
       clipPathUnits="userSpaceOnUse"
       id="clipPath23463">
      <path
         d="M 0,115.0708 H 594.2532 V 725.86 H 0 Z"
         id="path23461" />
    </clipPath>
    <clipPath
       clipPathUnits="userSpaceOnUse"
       id="clipPath23475">
      <path
         d="M 0,114.9779 H 595 V 727.0222 H 0 Z"
         id="path23473" />
    </clipPath>
    <clipPath
       clipPathUnits="userSpaceOnUse"
       id="clipPath23485">
      <path
         d="M 0,115.0708 H 594.2532 V 725.86 H 0 Z"
         id="path23483" />
    </clipPath>
    <clipPath
       clipPathUnits="userSpaceOnUse"
       id="clipPath23497">
      <path
         d="M 0,114.9779 H 595 V 727.0222 H 0 Z"
         id="path23495" />
    </clipPath>
    <clipPath
       clipPathUnits="userSpaceOnUse"
       id="clipPath23629">
      <path
         d="M 0,115.0708 H 594.2532 V 725.86 H 0 Z"
         id="path23627" />
    </clipPath>
    <clipPath
       clipPathUnits="userSpaceOnUse"
       id="clipPath23641">
      <path
         d="M 0,114.9779 H 595 V 727.0222 H 0 Z"
         id="path23639" />
    </clipPath>
    <clipPath
       clipPathUnits="userSpaceOnUse"
       id="clipPath23651">
      <path
         d="M 0,115.0708 H 594.2532 V 725.86 H 0 Z"
         id="path23649" />
    </clipPath>
    <clipPath
       clipPathUnits="userSpaceOnUse"
       id="clipPath23663">
      <path
         d="M 0,114.9779 H 595 V 727.0222 H 0 Z"
         id="path23661" />
    </clipPath>
    <clipPath
       clipPathUnits="userSpaceOnUse"
       id="clipPath23673">
      <path
         d="M 0,115.0708 H 594.2532 V 725.86 H 0 Z"
         id="path23671" />
    </clipPath>
    <clipPath
       clipPathUnits="userSpaceOnUse"
       id="clipPath23685">
      <path
         d="M 0,114.9779 H 595 V 727.0222 H 0 Z"
         id="path23683" />
    </clipPath>
    <clipPath
       clipPathUnits="userSpaceOnUse"
       id="clipPath23695">
      <path
         d="M 0,115.0708 H 594.2532 V 725.86 H 0 Z"
         id="path23693" />
    </clipPath>
    <clipPath
       clipPathUnits="userSpaceOnUse"
       id="clipPath23707">
      <path
         d="M 0,114.9779 H 595 V 727.0222 H 0 Z"
         id="path23705" />
    </clipPath>
    <clipPath
       clipPathUnits="userSpaceOnUse"
       id="clipPath23717">
      <path
         d="M 0,115.0708 H 594.2532 V 725.86 H 0 Z"
         id="path23715" />
    </clipPath>
    <clipPath
       clipPathUnits="userSpaceOnUse"
       id="clipPath23729">
      <path
         d="M 0,114.9779 H 595 V 727.0222 H 0 Z"
         id="path23727" />
    </clipPath>
    <clipPath
       clipPathUnits="userSpaceOnUse"
       id="clipPath23847">
      <path
         d="M 0,115.0708 H 594.2532 V 725.86 H 0 Z"
         id="path23845" />
    </clipPath>
    <clipPath
       clipPathUnits="userSpaceOnUse"
       id="clipPath23859">
      <path
         d="M 0,114.9779 H 595 V 727.0222 H 0 Z"
         id="path23857" />
    </clipPath>
    <clipPath
       clipPathUnits="userSpaceOnUse"
       id="clipPath23869">
      <path
         d="M 0,115.0708 H 594.2532 V 725.86 H 0 Z"
         id="path23867" />
    </clipPath>
    <clipPath
       clipPathUnits="userSpaceOnUse"
       id="clipPath23881">
      <path
         d="M 0,114.9779 H 595 V 727.0222 H 0 Z"
         id="path23879" />
    </clipPath>
    <clipPath
       clipPathUnits="userSpaceOnUse"
       id="clipPath23891">
      <path
         d="M 0,115.0708 H 594.2532 V 725.86 H 0 Z"
         id="path23889" />
    </clipPath>
    <clipPath
       clipPathUnits="userSpaceOnUse"
       id="clipPath23903">
      <path
         d="M 0,114.9779 H 595 V 727.0222 H 0 Z"
         id="path23901" />
    </clipPath>
    <clipPath
       clipPathUnits="userSpaceOnUse"
       id="clipPath23913">
      <path
         d="M 0,115.0708 H 594.2532 V 725.86 H 0 Z"
         id="path23911" />
    </clipPath>
  </defs>
  <g
     inkscape:label="Layer 1"
     inkscape:groupmode="layer"
     id="layer1" />
</svg>
