<svg xmlns="http://www.w3.org/2000/svg" xmlns:xlink="http://www.w3.org/1999/xlink" version="1.1" x="0px" y="0px" viewBox="0 0 100 125" style="enable-background:new 0 0 100 100;" xml:space="preserve"><style type="text/css">
	.st0{fill:none;stroke:#000000;stroke-width:2;stroke-linecap:round;stroke-linejoin:round;stroke-miterlimit:10;}
</style><path d="M65.535,25.424c0-0.553-0.448-1-1-1H64.36c-0.204-6.207-4.909-11.345-11.12-12.033c-0.286-0.032-0.566,0.06-0.777,0.249  c-0.212,0.189-0.333,0.461-0.333,0.745v11.039h-2.605V11.107c0-0.284-0.121-0.556-0.333-0.745c-0.212-0.19-0.498-0.28-0.777-0.249  c-7.81,0.864-13.699,7.446-13.699,15.311c0,6.192,3.77,11.809,9.451,14.195l-0.843,43.445c-0.036,1.843,0.655,3.581,1.945,4.896  C46.558,89.275,48.283,90,50.125,90s3.567-0.725,4.856-2.039c1.29-1.315,1.981-3.054,1.945-4.896l-0.843-43.445  C61.765,37.232,65.535,31.616,65.535,25.424z M54.129,14.562c4.64,1.018,8.044,5.052,8.232,9.862h-8.232V14.562z M54.727,38.004  c-0.401,0.147-0.665,0.532-0.656,0.959l0.856,44.141c0.025,1.301-0.462,2.528-1.373,3.457C52.643,87.488,51.425,88,50.125,88  s-2.518-0.512-3.429-1.439c-0.911-0.929-1.398-2.156-1.373-3.457l0.856-44.141c0.008-0.427-0.255-0.812-0.656-0.959  c-5.269-1.928-8.808-6.983-8.808-12.58c0-6.466,4.574-11.935,10.809-13.153v13.153c0,0.553,0.448,1,1,1h14.973  C63.104,31.615,59.679,36.191,54.727,38.004z"/><path d="M49.938,28.583c-1.976,0-3.583,1.607-3.583,3.584c0,1.976,1.607,3.583,3.583,3.583s3.583-1.607,3.583-3.583  C53.521,30.19,51.914,28.583,49.938,28.583z M49.938,33.75c-0.873,0-1.583-0.71-1.583-1.583s0.71-1.584,1.583-1.584  s1.583,0.711,1.583,1.584S50.811,33.75,49.938,33.75z"/><path d="M72.258,10.616l-5.333,9.237c-0.178,0.31-0.178,0.69,0,1l5.333,9.238c0.179,0.31,0.509,0.5,0.866,0.5h10.667  c0.357,0,0.688-0.19,0.866-0.5l5.333-9.238c0.178-0.31,0.178-0.69,0-1l-5.333-9.237c-0.179-0.31-0.509-0.5-0.866-0.5H73.125  C72.767,10.116,72.437,10.307,72.258,10.616z M83.214,12.116l4.756,8.237l-4.756,8.238h-9.513l-4.756-8.238l4.756-8.237H83.214z"/><path d="M78.458,25.686c2.999,0,5.438-2.439,5.438-5.438s-2.439-5.438-5.438-5.438s-5.438,2.439-5.438,5.438  S75.459,25.686,78.458,25.686z M78.458,16.809c1.896,0,3.438,1.543,3.438,3.438s-1.542,3.438-3.438,3.438s-3.438-1.543-3.438-3.438  S76.562,16.809,78.458,16.809z"/><path d="M89.991,49.554l-5.333-9.238c-0.179-0.31-0.509-0.5-0.866-0.5H73.125c-0.357,0-0.688,0.19-0.866,0.5l-5.333,9.238  c-0.178,0.31-0.178,0.69,0,1l5.333,9.238c0.179,0.31,0.509,0.5,0.866,0.5h10.667c0.357,0,0.688-0.19,0.866-0.5l5.333-9.238  C90.169,50.244,90.169,49.863,89.991,49.554z M83.214,58.292h-9.513l-4.756-8.238l4.756-8.238h9.513l4.756,8.238L83.214,58.292z"/><path d="M78.458,44.509c-2.999,0-5.438,2.439-5.438,5.438c0,2.998,2.439,5.438,5.438,5.438s5.438-2.439,5.438-5.438  C83.896,46.948,81.457,44.509,78.458,44.509z M78.458,53.385c-1.896,0-3.438-1.542-3.438-3.438s1.542-3.438,3.438-3.438  s3.438,1.543,3.438,3.438S80.354,53.385,78.458,53.385z"/><path d="M84.658,70.016c-0.179-0.31-0.509-0.5-0.866-0.5H73.125c-0.357,0-0.688,0.19-0.866,0.5l-5.333,9.238  c-0.178,0.31-0.178,0.69,0,1l5.333,9.237c0.179,0.31,0.509,0.5,0.866,0.5h10.667c0.357,0,0.688-0.19,0.866-0.5l5.333-9.237  c0.178-0.31,0.178-0.69,0-1L84.658,70.016z M83.214,87.991h-9.513l-4.756-8.237l4.756-8.238h9.513l4.756,8.238L83.214,87.991z"/><path d="M78.458,74.208c-2.999,0-5.438,2.439-5.438,5.438s2.439,5.438,5.438,5.438s5.438-2.439,5.438-5.438  S81.457,74.208,78.458,74.208z M78.458,83.085c-1.896,0-3.438-1.543-3.438-3.438s1.542-3.438,3.438-3.438s3.438,1.543,3.438,3.438  S80.354,83.085,78.458,83.085z"/><path d="M15.592,30.092c0.179,0.31,0.509,0.5,0.866,0.5h10.667c0.357,0,0.688-0.19,0.866-0.5l5.333-9.238c0.178-0.31,0.178-0.69,0-1  l-5.333-9.237c-0.179-0.31-0.509-0.5-0.866-0.5H16.458c-0.357,0-0.688,0.19-0.866,0.5l-5.333,9.237c-0.178,0.31-0.178,0.69,0,1  L15.592,30.092z M17.036,12.116h9.513l4.756,8.237l-4.756,8.238h-9.513l-4.756-8.238L17.036,12.116z"/><path d="M21.792,25.686c2.999,0,5.438-2.439,5.438-5.438s-2.439-5.438-5.438-5.438s-5.438,2.439-5.438,5.438  S18.793,25.686,21.792,25.686z M21.792,16.809c1.896,0,3.438,1.543,3.438,3.438s-1.542,3.438-3.438,3.438s-3.438-1.543-3.438-3.438  S19.896,16.809,21.792,16.809z"/><path d="M15.592,59.792c0.179,0.31,0.509,0.5,0.866,0.5h10.667c0.357,0,0.688-0.19,0.866-0.5l5.333-9.238c0.178-0.31,0.178-0.69,0-1  l-5.333-9.238c-0.179-0.31-0.509-0.5-0.866-0.5H16.458c-0.357,0-0.688,0.19-0.866,0.5l-5.333,9.238c-0.178,0.31-0.178,0.69,0,1  L15.592,59.792z M17.036,41.815h9.513l4.756,8.238l-4.756,8.238h-9.513l-4.756-8.238L17.036,41.815z"/><path d="M21.792,55.385c2.999,0,5.438-2.439,5.438-5.438c0-2.999-2.439-5.438-5.438-5.438s-5.438,2.439-5.438,5.438  C16.354,52.945,18.793,55.385,21.792,55.385z M21.792,46.509c1.896,0,3.438,1.543,3.438,3.438s-1.542,3.438-3.438,3.438  s-3.438-1.542-3.438-3.438S19.896,46.509,21.792,46.509z"/><path d="M15.592,89.491c0.179,0.31,0.509,0.5,0.866,0.5h10.667c0.357,0,0.688-0.19,0.866-0.5l5.333-9.237c0.178-0.31,0.178-0.69,0-1  l-5.333-9.238c-0.179-0.31-0.509-0.5-0.866-0.5H16.458c-0.357,0-0.688,0.19-0.866,0.5l-5.333,9.238c-0.178,0.31-0.178,0.69,0,1  L15.592,89.491z M17.036,71.516h9.513l4.756,8.238l-4.756,8.237h-9.513l-4.756-8.237L17.036,71.516z"/><path d="M21.792,85.085c2.999,0,5.438-2.439,5.438-5.438s-2.439-5.438-5.438-5.438s-5.438,2.439-5.438,5.438  S18.793,85.085,21.792,85.085z M21.792,76.208c1.896,0,3.438,1.543,3.438,3.438s-1.542,3.438-3.438,3.438s-3.438-1.543-3.438-3.438  S19.896,76.208,21.792,76.208z"/><text x="0" y="115" fill="#000000" font-size="5px" font-weight="bold" font-family="'Helvetica Neue', Helvetica, Arial-Unicode, Arial, Sans-serif">Created by Made by Made</text><text x="0" y="120" fill="#000000" font-size="5px" font-weight="bold" font-family="'Helvetica Neue', Helvetica, Arial-Unicode, Arial, Sans-serif">from the Noun Project</text></svg>