<?xml version="1.0" standalone="no"?>
<!DOCTYPE svg PUBLIC "-//W3C//DTD SVG 20010904//EN"
 "http://www.w3.org/TR/2001/REC-SVG-20010904/DTD/svg10.dtd">
<svg version="1.0" xmlns="http://www.w3.org/2000/svg"
 width="520.000000pt" height="520.000000pt" viewBox="0 0 520.000000 520.000000"
 preserveAspectRatio="xMidYMid meet">
<metadata>
Created by potrace 1.11, written by Peter Selinger 2001-2013
</metadata>
<g transform="translate(0.000000,520.000000) scale(0.100000,-0.100000)"
fill="#000000" stroke="none">
<path d="M435 4758 c-3 -7 -4 -983 -3 -2168 l3 -2155 2165 0 2165 0 0 2165 0
2165 -2163 3 c-1725 2 -2164 0 -2167 -10z m2230 -453 c99 -37 221 -103 305
-165 81 -61 210 -193 210 -217 0 -8 -16 -69 -36 -136 -61 -208 -59 -314 13
-551 l27 -89 -30 -23 c-72 -59 -283 -152 -381 -169 l-41 -6 1 188 c1 103 -2
231 -6 283 l-8 95 68 16 c37 9 103 31 146 49 l77 33 0 113 c0 81 -3 114 -12
114 -6 0 -40 -12 -75 -26 -181 -72 -351 -85 -524 -41 -53 14 -115 35 -137 46
-71 36 -72 36 -72 -93 l0 -113 81 -37 c67 -31 183 -65 223 -66 4 0 5 -12 2
-26 -16 -61 -23 -266 -15 -397 5 -77 7 -142 5 -144 -5 -6 -138 25 -196 45 -30
11 -82 33 -115 49 -58 27 -185 101 -185 107 0 2 18 51 39 108 86 231 85 335
-6 576 l-34 93 24 32 c111 144 319 292 502 358 66 23 74 23 150 -6z m-1107
-190 c116 -488 151 -867 159 -1697 3 -324 8 -588 12 -588 27 1 284 43 359 58
l92 19 0 -108 0 -109 -284 0 -283 0 -8 -43 c-21 -129 -25 -176 -25 -317 0
-110 5 -190 20 -275 11 -66 20 -123 20 -127 0 -5 -52 -8 -115 -8 -63 0 -115 2
-115 4 0 2 10 48 21 102 30 140 38 415 15 539 -9 50 -19 98 -22 108 -5 16 -28
17 -290 17 l-284 0 0 109 0 108 98 -24 c107 -26 273 -53 325 -53 l34 0 7 413
c14 851 60 1315 182 1855 21 89 41 159 45 155 3 -4 21 -66 37 -138z m2669
-1572 c-14 -569 -118 -985 -314 -1261 -71 -99 -120 -150 -216 -223 -94 -71
-211 -129 -331 -163 -105 -31 -123 -31 -202 -7 -269 85 -481 261 -632 524
-119 208 -204 490 -246 820 -18 139 -40 522 -31 537 4 7 335 10 992 10 l986 0
-6 -237z"/>
</g>
</svg>
