<?xml version="1.0" encoding="UTF-8" standalone="no"?>
<svg
   xmlns:dc="http://purl.org/dc/elements/1.1/"
   xmlns:cc="http://creativecommons.org/ns#"
   xmlns:rdf="http://www.w3.org/1999/02/22-rdf-syntax-ns#"
   xmlns:svg="http://www.w3.org/2000/svg"
   xmlns="http://www.w3.org/2000/svg"
   xmlns:sodipodi="http://sodipodi.sourceforge.net/DTD/sodipodi-0.dtd"
   xmlns:inkscape="http://www.inkscape.org/namespaces/inkscape"
   version="1.1"
   x="0px"
   y="0px"
   viewBox="0 0 100 125"
   xml:space="preserve"
   id="svg20"
   sodipodi:docname="noun_1295034_cc.svg"
   inkscape:export-filename="/Users/yyy/work/src/off/offirmo-monorepo/5-incubator/clicker/src2/noun_1295034_cc.png"
   inkscape:export-xdpi="152.96001"
   inkscape:export-ydpi="152.96001"
   style="enable-background:new 0 0 100 100;"
   inkscape:version="0.92.2 5c3e80d, 2017-08-06"><metadata
     id="metadata26"><rdf:RDF><cc:Work
         rdf:about=""><dc:format>image/svg+xml</dc:format><dc:type
           rdf:resource="http://purl.org/dc/dcmitype/StillImage" /><dc:title></dc:title></cc:Work></rdf:RDF></metadata><defs
     id="defs24" /><sodipodi:namedview
     pagecolor="#ffffff"
     bordercolor="#666666"
     borderopacity="1"
     objecttolerance="10"
     gridtolerance="10"
     guidetolerance="10"
     inkscape:pageopacity="0"
     inkscape:pageshadow="2"
     inkscape:window-width="1007"
     inkscape:window-height="785"
     id="namedview22"
     showgrid="false"
     inkscape:zoom="1.888"
     inkscape:cx="-32.880085"
     inkscape:cy="22"
     inkscape:window-x="68"
     inkscape:window-y="0"
     inkscape:window-maximized="0"
     inkscape:current-layer="svg20" /><g
     id="g14"><path
       d="M87.2,81.4c0.1-0.2,0.1-0.5,0-0.8c-0.1-0.1-0.1-0.2-0.2-0.3l-2.5-2.5c-0.4-0.4-1-0.4-1.4,0s-0.4,1,0,1.4l0.8,0.8H17.2V21.4   l0.8,0.8c0.2,0.2,0.5,0.3,0.7,0.3s0.5-0.1,0.7-0.3c0.4-0.4,0.4-1,0-1.4L17,18.3c-0.1-0.1-0.2-0.2-0.3-0.2c-0.2-0.1-0.5-0.1-0.8,0   c-0.1,0.1-0.2,0.1-0.3,0.2L13,20.8c-0.4,0.4-0.4,1,0,1.4s1,0.4,1.4,0l0.8-0.8V81c0,0.6,0.4,1,1,1h67.6L83,82.8   c-0.4,0.4-0.4,1,0,1.4c0.2,0.2,0.5,0.3,0.7,0.3s0.5-0.1,0.7-0.3l2.5-2.5C87,81.6,87.1,81.5,87.2,81.4z"
       id="path2" /><path
       d="M30.2,74h6c0.6,0,1-0.4,1-1v-9c0-0.6-0.4-1-1-1h-6c-0.6,0-1,0.4-1,1v9C29.2,73.6,29.7,74,30.2,74z M31.2,65h4v7h-4V65z"
       id="path4" /><path
       d="M41.7,57c-0.6,0-1,0.4-1,1v15c0,0.6,0.4,1,1,1h6c0.6,0,1-0.4,1-1V58c0-0.6-0.4-1-1-1H41.7z M46.7,72h-4V59h4V72z"
       id="path6" /><path
       d="M53.2,50c-0.6,0-1,0.4-1,1v22c0,0.6,0.4,1,1,1h6c0.6,0,1-0.4,1-1V51c0-0.6-0.4-1-1-1H53.2z M58.2,72h-4V52h4V72z"
       id="path8" /><path
       d="M64.6,39c-0.6,0-1,0.4-1,1v33c0,0.6,0.4,1,1,1h6c0.6,0,1-0.4,1-1V40c0-0.6-0.4-1-1-1H64.6z M69.6,72h-4V41h4V72z"
       id="path10" /><path
       d="M30.2,55.4c0.1,0,0.2,0,0.4-0.1c0.3-0.1,25.4-9.9,39.5-30.5l0.7,3.8c0.1,0.5,0.5,0.8,1,0.8c0.1,0,0.1,0,0.2,0   c0.5-0.1,0.9-0.6,0.8-1.2l-1.2-6.3c0,0,0,0,0,0c0-0.1-0.1-0.1-0.1-0.2c0-0.1,0-0.1-0.1-0.2c0-0.1-0.1-0.1-0.1-0.1   c0,0-0.1-0.1-0.1-0.1c0,0,0,0,0,0c0,0,0,0,0,0c0,0-0.1,0-0.2-0.1c-0.1,0-0.1-0.1-0.2-0.1c-0.1,0-0.1,0-0.2,0c-0.1,0-0.1,0-0.2,0   l-6.3,1.2c-0.5,0.1-0.9,0.6-0.8,1.2s0.6,0.9,1.2,0.8l4-0.7C54.8,43.8,30.1,53.4,29.9,53.5c-0.5,0.2-0.8,0.8-0.6,1.3   C29.4,55.2,29.8,55.4,30.2,55.4z"
       id="path12" /></g><text
     x="0"
     y="115"
     fill="#000000"
     font-size="5px"
     font-weight="bold"
     font-family="'Helvetica Neue', Helvetica, Arial-Unicode, Arial, Sans-serif"
     id="text16">Created by Zoie Kim</text>
<text
     x="0"
     y="120"
     fill="#000000"
     font-size="5px"
     font-weight="bold"
     font-family="'Helvetica Neue', Helvetica, Arial-Unicode, Arial, Sans-serif"
     id="text18">from the Noun Project</text>
</svg>
