<svg xmlns="http://www.w3.org/2000/svg" xmlns:xlink="http://www.w3.org/1999/xlink" version="1.1" x="0px" y="0px" viewBox="0 0 100 125" enable-background="new 0 0 100 100" xml:space="preserve"><g><path d="M66.695,90.33h-33.06C20.601,90.33,10,79.725,10,66.691V33.639C10,20.597,20.601,10,33.635,10h33.06   c13.034,0,23.639,10.597,23.639,23.639v33.053C90.334,79.725,79.729,90.33,66.695,90.33z M33.635,17.088   c-9.124,0-16.547,7.427-16.547,16.55v33.053c0,9.123,7.423,16.55,16.547,16.55h33.06c9.124,0,16.55-7.427,16.55-16.55V33.639   c0-9.124-7.426-16.55-16.55-16.55H33.635z M46.638,70.284V53.588H30.066v-6.977h16.571V30.039h7.061v16.572h16.574v6.977H53.698   v16.696H46.638z"/></g><text x="0" y="115" fill="#000000" font-size="5px" font-weight="bold" font-family="'Helvetica Neue', Helvetica, Arial-Unicode, Arial, Sans-serif">Created by Evgeniy Kozachenko</text><text x="0" y="120" fill="#000000" font-size="5px" font-weight="bold" font-family="'Helvetica Neue', Helvetica, Arial-Unicode, Arial, Sans-serif">from the Noun Project</text></svg>