<svg version="1.1"
      xmlns="http://www.w3.org/2000/svg"
      xmlns:xlink="http://www.w3.org/1999/xlink"  id="snapshot-83632" width="250" height="250" viewBox="0 0 250 250"><desc>This image was made on Patterninja.com</desc><defs>
<!-- image 39585 -->
<g id="transformed-39585" data-image="39585" transform="translate(19.599999999999994, 138) rotate(0, 11.400000000000006, 12)"><g><svg version="1.1" width="22.80000000000001px" height="24px" viewBox="0 0 22.80000000000001 24"><g id="original-39585"><svg xmlns="http://www.w3.org/2000/svg" id="svg14" fill-rule="evenodd" viewBox="0 0 821 821" clip-rule="evenodd" image-rendering="optimizeQuality" shape-rendering="geometricPrecision" text-rendering="geometricPrecision" xmlns:xlink="http://www.w3.org/1999/xlink" version="1.1" preserveAspectRatio="xMidYMid meet">
  <g id="g8" transform="translate(-13 -13)">
    <path id="path6" d="M267 579H13V267h254V13h312v254h255v312H579v255H267zm59 196h195V521h254V326H521V72H326v254H72v195h254z" fill="rgba(0, 0, 0, 0.07)" stroke="none"/>
  </g>
</svg>
</g></svg></g></g>
<!-- /image 39585 -->

<!-- image 36574 -->
<g id="transformed-36574" data-image="36574" transform="translate(120.57142857142856, -8) rotate(90, 9.42857142857144, 12)"><g><svg version="1.1" width="18.85714285714288px" height="24px" viewBox="0 0 18.85714285714288 24"><g id="original-36574"><svg xmlns="http://www.w3.org/2000/svg" id="svg14" fill-rule="evenodd" viewBox="0 0 847 1058.75" clip-rule="evenodd" shape-rendering="geometricPrecision" text-rendering="geometricPrecision" image-rendering="optimizeQuality" xmlns:xlink="http://www.w3.org/1999/xlink" version="1.1" preserveAspectRatio="xMidYMid meet">
  <g id="g8">
    <path id="path6" d="M584 263h95c212 0 212 321 0 321h-95v95c0 212-321 212-321 0v-95h-95c-213 0-213-321 0-321h95v-95c0-213 321-213 321 0v95zm-60-95v154h155c134 0 134 202 0 202H524v155c0 134-202 134-202 0V524H168c-134 0-134-202 0-202h154V168c0-134 202-134 202 0z" fill="rgba(0, 0, 0, 0.07)" stroke="none"/>
  </g>
</svg>
</g></svg></g></g>
<!-- /image 36574 -->

<!-- image 20296 -->
<g id="transformed-20296" data-image="20296" transform="translate(-3.9106155851226205, 207.61173051859672) rotate(8, 25.91061558512262, 32.38826948140329)"><g><svg version="1.1" width="51.82123117024524px" height="64.77653896280658px" viewBox="0 0 51.82123117024524 64.77653896280658"><g id="original-20296"><svg xmlns="http://www.w3.org/2000/svg" data-name="Layer 1" viewBox="0 0 100 125" xmlns:xlink="http://www.w3.org/1999/xlink" version="1.1" preserveAspectRatio="xMidYMid meet">
  <g data-name="Group">
    <path d="M33.3 39.6l17 48.9a3 3 0 0 0 2.6 2h.2a3 3 0 0 0 2.7-1.5l7.5-14.2 8.5 8.5a5 5 0 0 0 7.1 0l4.3-4.3a5 5 0 0 0 0-7.1l-8.5-8.5L89 55.8a3 3 0 0 0-.4-5.5l-48.9-17a5 5 0 0 0-6.4 6.4zm46.8 14.1l-11.8 6.2a3 3 0 0 0-.7 4.8l10.7 10.7-2.9 2.9-10.7-10.7a3 3 0 0 0-4.8.7l-6.2 11.8-14.1-40.5z" data-name="Compound Path" fill="rgba(0, 0, 0, 0.07)" stroke="none"/>
    <path d="M26.1 21.8l-6.3-6.3a3 3 0 0 0-4.2 4.2l6.3 6.3a3 3 0 0 0 4.2-4.2z" data-name="Path" fill="rgba(0, 0, 0, 0.07)" stroke="none"/>
    <path d="M40.2 25h.6a3 3 0 0 0 2.4-3.5l-1.8-9.6a3 3 0 1 0-5.9 1.1l1.8 9.6a3 3 0 0 0 2.9 2.4z" data-name="Path" fill="rgba(0, 0, 0, 0.07)" stroke="none"/>
    <path d="M21.5 43.2h.5a3 3 0 0 0 .5-6L13 35.5a3 3 0 0 0-1.1 5.9z" data-name="Path" fill="rgba(0, 0, 0, 0.07)" stroke="none"/>
  </g>
</svg>
</g></svg></g></g>
<!-- /image 20296 -->

<!-- image 10613 -->
<g id="transformed-10613" data-image="10613" transform="translate(93, 126) rotate(251, 10, 9.999999999999998)"><g><svg version="1.1" width="20px" height="19.999999999999996px" viewBox="0 0 20 19.999999999999996"><g id="original-10613"><svg xmlns="http://www.w3.org/2000/svg" viewBox="0 0 80.334 80.33" xmlns:xlink="http://www.w3.org/1999/xlink" version="1.1" preserveAspectRatio="xMidYMid meet">
  <path d="M56.695 80.33h-33.06C10.601 80.33 0 69.725 0 56.691V23.639C0 10.597 10.601 0 23.635 0h33.06c13.034 0 23.639 10.597 23.639 23.639v33.053c0 13.033-10.605 23.638-23.639 23.638zM23.635 7.088c-9.124 0-16.547 7.427-16.547 16.55v33.053c0 9.123 7.423 16.55 16.547 16.55h33.06c9.124 0 16.55-7.427 16.55-16.55V23.639c0-9.124-7.426-16.55-16.55-16.55h-33.06zm13.003 53.196V43.588H20.066v-6.977h16.571V20.039h7.061v16.572h16.574v6.977H43.698v16.696z" fill="rgba(0, 0, 0, 0.07)" stroke="none"/>
</svg>
</g></svg></g></g>
<!-- /image 10613 -->

<!-- image 49895 -->
<g id="transformed-49895" data-image="49895" transform="translate(177.8399936497603, 193.5463759529263) rotate(318, 12.160006350239698, 13.45362404707371)"><g><svg version="1.1" width="24.320012700479396px" height="26.90724809414742px" viewBox="0 0 24.320012700479396 26.90724809414742"><g id="original-49895"><svg xmlns="http://www.w3.org/2000/svg" viewBox="0 0 83.78 94.257" xmlns:xlink="http://www.w3.org/1999/xlink" version="1.1" preserveAspectRatio="xMidYMid meet">
  <path d="M79.78 20.617L45.89 1.058c-2.43-1.41-5.57-1.41-8 0L4 20.617c-2.47 1.43-4 4.08-4 6.93v39.14c0 2.85 1.53 5.5 4 6.93l33.89 19.56c1.21.71 2.6 1.08 4 1.08s2.79-.37 4-1.08l33.89-19.56c2.47-1.43 4-4.08 4-6.93v-39.14c0-2.85-1.53-5.5-4-6.93zm0 46.07c0 1.42-.76 2.75-2 3.46l-33.89 19.57c-1.21.7-2.79.7-4 0L6 70.148c-1.24-.71-2-2.04-2-3.46v-39.14c0-1.42.76-2.75 2-3.46l33.89-19.57c.61-.35 1.3-.54 2-.54s1.39.19 2 .54l33.89 19.57c1.24.71 2 2.04 2 3.46z" fill="rgba(0, 0, 0, 0.07)" stroke="none"/>
  <path d="M43.89 49.117v18h-4v-18h-18v-4h18v-18h4v18h18v4z" fill="rgba(0, 0, 0, 0.07)" stroke="none"/>
</svg>
</g></svg></g></g>
<!-- /image 49895 -->

<!-- image 80773 -->
<g id="transformed-80773" data-image="80773" transform="translate(178, 16.145161290322587) rotate(0, 19, 16.854838709677413)"><g><svg version="1.1" width="38px" height="33.709677419354826px" viewBox="0 0 38 33.709677419354826"><g id="original-80773"><svg xmlns="http://www.w3.org/2000/svg" viewBox="0 0 74.575 66.475" xmlns:xlink="http://www.w3.org/1999/xlink" version="1.1" preserveAspectRatio="xMidYMid meet">
  <path d="M74.5 63.375c.1-.2.1-.5 0-.8-.1-.1-.1-.2-.2-.3l-2.5-2.5c-.4-.4-1-.4-1.4 0-.4.4-.4 1 0 1.4l.8.8H4.5v-58.6l.8.8c.2.2.5.3.7.3.2 0 .5-.1.7-.3.4-.4.4-1 0-1.4L4.3.275c-.1-.1-.2-.2-.3-.2-.2-.1-.5-.1-.8 0-.1.1-.2.1-.3.2l-2.6 2.5c-.4.4-.4 1 0 1.4.4.4 1 .4 1.4 0l.8-.8v59.6c0 .6.4 1 1 1h67.6l-.8.8c-.4.4-.4 1 0 1.4.2.2.5.3.7.3.2 0 .5-.1.7-.3l2.5-2.5.3-.3z" fill="rgba(0, 0, 0, 0.07)" stroke="none"/>
  <path d="M17.5 55.975h6c.6 0 1-.4 1-1v-9c0-.6-.4-1-1-1h-6c-.6 0-1 .4-1 1v9c0 .6.5 1 1 1zm1-9h4v7h-4z" fill="rgba(0, 0, 0, 0.07)" stroke="none"/>
  <path d="M29 38.975c-.6 0-1 .4-1 1v15c0 .6.4 1 1 1h6c.6 0 1-.4 1-1v-15c0-.6-.4-1-1-1zm5 15h-4v-13h4z" fill="rgba(0, 0, 0, 0.07)" stroke="none"/>
  <path d="M40.5 31.975c-.6 0-1 .4-1 1v22c0 .6.4 1 1 1h6c.6 0 1-.4 1-1v-22c0-.6-.4-1-1-1zm5 22h-4v-20h4z" fill="rgba(0, 0, 0, 0.07)" stroke="none"/>
  <path d="M51.9 20.975c-.6 0-1 .4-1 1v33c0 .6.4 1 1 1h6c.6 0 1-.4 1-1v-33c0-.6-.4-1-1-1zm5 33h-4v-31h4z" fill="rgba(0, 0, 0, 0.07)" stroke="none"/>
  <path d="M17.5 37.375c.1 0 .2 0 .4-.1.3-.1 25.4-9.9 39.5-30.5l.7 3.8c.1.5.5.8 1 .8h.2c.5-.1.9-.6.8-1.2l-1.2-6.3c0-.1-.1-.1-.1-.2s0-.1-.1-.2c0-.1-.1-.1-.1-.1l-.1-.1s-.1 0-.2-.1c-.1 0-.1-.1-.2-.1h-.4l-6.3 1.2c-.5.1-.9.6-.8 1.2.1.6.6.9 1.2.8l4-.7c-13.7 20.2-38.4 29.8-38.6 29.9-.5.2-.8.8-.6 1.3.1.4.5.6.9.6z" fill="rgba(0, 0, 0, 0.07)" stroke="none"/>
</svg>
</g></svg></g></g>
<!-- /image 80773 -->

<!-- image 22073 -->
<g id="transformed-22073" data-image="22073" transform="translate(72.39788764189203, 45.59060017856075) rotate(19, 18.602112358107977, 23.40939982143925)"><g><svg version="1.1" width="37.204224716215954px" height="46.8187996428785px" viewBox="0 0 37.204224716215954 46.8187996428785"><g id="original-22073"><svg xmlns="http://www.w3.org/2000/svg" viewBox="0 0 100 125" xmlns:xlink="http://www.w3.org/1999/xlink" version="1.1" preserveAspectRatio="xMidYMid meet">
  <path d="M92 48c-3.8-7.6-9.8-13-16.4-14.8-4.6-1.1-8.9-.5-12.6 1.8-2.9 1-5.9 1.6-9 1.9v-6c0-1.8.4-6.1 4-6.1 3.7 0 8-1.5 8-8.5 0-1.1-.9-2-2-2s-2 .9-2 2c0 3.8-1.4 4.5-4 4.5-4.9 0-8 4-8 10.1V37c-4.2-.1-8.5-.9-12.5-2.5-3.7-2.4-8.1-3.1-12.7-1.8C18.1 34.5 12 40 8.1 47.8 1.4 61.1 3.6 77 12.9 83.2c2.6 1.7 5.4 2.6 8.5 2.6 1.4 0 2.9-.2 4.4-.6 6.5-1.7 12.5-7 16.5-14.4 5.2-2.2 11.1-2.2 16.3-.2 3.9 7.3 9.8 12.4 16.2 14.1 4.6 1.2 8.9.5 12.6-2 9-6 11.1-21.6 4.6-34.7zm-7 31.4c-2.7 1.8-6 2.3-9.4 1.4-5.4-1.4-10.5-6-13.8-12.4-.3-.6-.9-1.1-1.6-1.4l-.4-.1c-6.3-2.5-13.5-2.3-19.7.4-.6.3-1.1.8-1.5 1.4C35.2 75.2 30 80 24.5 81.4c-3.5.9-6.8.4-9.6-1.5-7.7-5.1-9.2-18.7-3.4-30.3 3.3-6.7 8.6-11.5 14.2-13 1.2-.3 2.3-.5 3.4-.5 2.3 0 4.4.6 6.3 1.9.1.1.2.1.4.2 9.2 3.6 19.2 3.8 28.5.6l.3-.1c.2-.1.3-.1.5-.2 2.8-1.8 6-2.3 9.5-1.4 5.4 1.4 10.6 6.2 13.9 12.7 5.6 11.3 4.1 24.6-3.5 29.6z" fill="rgba(0, 0, 0, 0.07)" stroke="none"/>
  <path d="M73 47.3c-5 0-9 4-9 9s4 9 9 9 9-4 9-9-4-9-9-9zm0 14c-2.8 0-5-2.2-5-5s2.2-5 5-5 5 2.2 5 5-2.2 5-5 5z" fill="rgba(0, 0, 0, 0.07)" stroke="none"/>
  <path d="M32 54.5h-4v-4c0-1.1-.9-2-2-2s-2 .9-2 2v4h-4c-1.1 0-2 .9-2 2s.9 2 2 2h4v4c0 1.1.9 2 2 2s2-.9 2-2v-4h4c1.1 0 2-.9 2-2s-.9-2-2-2z" fill="rgba(0, 0, 0, 0.07)" stroke="none"/>
</svg>
</g></svg></g></g>
<!-- /image 22073 -->

<!-- image 15741 -->
<g id="transformed-15741" data-image="15741" transform="translate(1.5, 151) rotate(0, 9.5, 10)"><g><svg version="1.1" width="19px" height="20px" viewBox="0 0 19 20"><g id="original-15741"><svg xmlns="http://www.w3.org/2000/svg" id="svg14" fill-rule="evenodd" viewBox="0 0 821 821" clip-rule="evenodd" image-rendering="optimizeQuality" shape-rendering="geometricPrecision" text-rendering="geometricPrecision" xmlns:xlink="http://www.w3.org/1999/xlink" version="1.1" preserveAspectRatio="xMidYMid meet">
  <g id="g8" transform="translate(-13 -13)">
    <path id="path6" d="M267 579H13V267h254V13h312v254h255v312H579v255H267zm59 196h195V521h254V326H521V72H326v254H72v195h254z" fill="rgba(0, 0, 0, 0.07)" stroke="none"/>
  </g>
</svg>
</g></svg></g></g>
<!-- /image 15741 -->

<!-- image 88676 -->
<g id="transformed-88676" data-image="88676" transform="translate(226.8754845034029, 79.8754845034029) rotate(352, 16.12451549659709, 16.1245154965971)"><g><svg version="1.1" width="32.24903099319418px" height="32.2490309931942px" viewBox="0 0 32.24903099319418 32.2490309931942"><g id="original-88676"><svg xmlns="http://www.w3.org/2000/svg" viewBox="0 0 88 88" xmlns:xlink="http://www.w3.org/1999/xlink" version="1.1" preserveAspectRatio="xMidYMid meet">
  <path d="M41.488 0C18.368 1.3 0 20.508 0 43.958 0 68.257 19.73 88 44.01 88 67.925 88 87.435 68.85 88 45.037c0-1.31-1.014-2.045-2.126-2.045-1.843.05-3.774.03-5.48-.058-1.325-5.39-6.203-9.393-11.974-9.393-.506 0-1.006.031-1.497.092a7.887 7.887 0 0 0-3.598-2.842c-.192-6.482-5.543-11.72-12.065-11.72-.545 0-1.084.036-1.614.107-.1-.146-.202-.292-.31-.434a8.613 8.613 0 0 0 .294-2.235c0-3.71-2.366-6.89-5.675-8.092a40.221 40.221 0 0 1-.365-5.388C43.59 1.294 43.14 0 41.488 0zm-1.881 4.17c.054 2.092.254 4.151.59 6.165.069.405.265.788.554 1.08.29.291.671.49 1.076.56a4.583 4.583 0 0 1 3.803 4.534c0 .67-.14 1.29-.387 1.849-.161.362-.211.773-.142 1.163.07.39.258.758.533 1.043.49.506.897 1.09 1.204 1.727a2.004 2.004 0 0 0 2.336 1.06 7.8 7.8 0 0 1 2.086-.277 8.046 8.046 0 0 1 8.07 8.075c0 1.54.384 2.711 1.665 3.145 1.414.379 2.522 1.105 3.042 2.344.403.802 1.414 1.412 2.345 1.162a8.087 8.087 0 0 1 2.038-.256 8.312 8.312 0 0 1 8.281 7.446c.048.447.251.876.567 1.196.316.32.742.528 1.188.58 1.694.2 3.412.295 5.145.295h.294C82.322 67.744 65.082 83.999 44.01 83.999 21.891 84 4 66.095 4 43.96 4 23.316 19.571 6.357 39.607 4.173z" style="text-indent:0;text-transform:none" overflow="visible" fill-rule="evenodd" color="#000000" fill="rgba(0, 0, 0, 0.07)" stroke="none"/>
  <path d="M29.49 19.12c-3.274 0-5.96 2.698-5.96 5.96 0 3.268 2.692 5.96 5.96 5.96s5.96-2.692 5.96-5.96c0-3.262-2.686-5.96-5.96-5.96zm0 4c1.106 0 1.96.863 1.96 1.96 0 1.112-.848 1.96-1.96 1.96s-1.96-.848-1.96-1.96c0-1.097.854-1.96 1.96-1.96z" style="text-indent:0;text-transform:none" overflow="visible" fill-rule="evenodd" color="#000000" fill="rgba(0, 0, 0, 0.07)" stroke="none"/>
  <path d="M45.76 42.03c-2.056 0-3.76 1.704-3.76 3.76s1.704 3.76 3.76 3.76 3.76-1.704 3.76-3.76-1.704-3.76-3.76-3.76zm0 3.52c.116 0 .24.124.24.24 0 .116-.124.24-.24.24-.116 0-.24-.124-.24-.24 0-.116.124-.24.24-.24z" style="text-indent:0;text-transform:none" overflow="visible" fill-rule="evenodd" color="#000000" fill="rgba(0, 0, 0, 0.07)" stroke="none"/>
  <path d="M20.14 45.96c-3.202 0-5.85 2.637-5.85 5.85 0 3.208 2.648 5.84 5.85 5.84 3.207 0 5.85-2.638 5.85-5.84 0-3.207-2.643-5.85-5.85-5.85zm0 4c1.053 0 1.85.797 1.85 1.85 0 1.038-.797 1.84-1.85 1.84a1.825 1.825 0 0 1-1.85-1.84c0-1.047.812-1.85 1.85-1.85z" style="text-indent:0;text-transform:none" overflow="visible" fill-rule="evenodd" color="#000000" fill="rgba(0, 0, 0, 0.07)" stroke="none"/>
  <path d="M41.47 64.21c-3.263 0-5.95 2.692-5.95 5.96s2.687 5.96 5.95 5.96c3.268 0 5.96-2.692 5.96-5.96s-2.692-5.96-5.96-5.96zm0 4c1.112 0 1.96.848 1.96 1.96s-.848 1.96-1.96 1.96c-1.097 0-1.95-.848-1.95-1.96s.853-1.96 1.95-1.96z" style="text-indent:0;text-transform:none" overflow="visible" fill-rule="evenodd" color="#000000" fill="rgba(0, 0, 0, 0.07)" stroke="none"/>
  <path d="M30.92 37.38c-2.056 0-3.76 1.704-3.76 3.76s1.704 3.76 3.76 3.76 3.76-1.704 3.76-3.76-1.704-3.76-3.76-3.76zm0 3.52c.116 0 .24.124.24.24 0 .116-.124.24-.24.24-.116 0-.24-.124-.24-.24 0-.116.124-.24.24-.24z" style="text-indent:0;text-transform:none" overflow="visible" fill-rule="evenodd" color="#000000" fill="rgba(0, 0, 0, 0.07)" stroke="none"/>
  <path d="M56.65 61.79c-2.056 0-3.76 1.704-3.76 3.76s1.704 3.76 3.76 3.76 3.76-1.704 3.76-3.76-1.704-3.76-3.76-3.76zm0 3.52c.116 0 .24.124.24.24 0 .116-.124.24-.24.24-.116 0-.24-.124-.24-.24 0-.116.124-.24.24-.24z" style="text-indent:0;text-transform:none" overflow="visible" fill-rule="evenodd" color="#000000" fill="rgba(0, 0, 0, 0.07)" stroke="none"/>
  <path d="M61.71 46.07c-3.207 0-5.85 2.643-5.85 5.85 0 3.202 2.637 5.85 5.85 5.85 3.208 0 5.85-2.642 5.85-5.85 0-3.213-2.648-5.85-5.85-5.85zm0 4c1.038 0 1.85.803 1.85 1.85 0 1.032-.818 1.85-1.85 1.85a1.824 1.824 0 0 1-1.85-1.85c0-1.053.797-1.85 1.85-1.85z" style="text-indent:0;text-transform:none" overflow="visible" fill-rule="evenodd" color="#000000" fill="rgba(0, 0, 0, 0.07)" stroke="none"/>
  <path d="M25.86 61.13c-2.056 0-3.76 1.704-3.76 3.76s1.704 3.76 3.76 3.76 3.76-1.704 3.76-3.76-1.704-3.76-3.76-3.76zm0 3.52c.116 0 .24.124.24.24 0 .116-.124.24-.24.24-.116 0-.24-.124-.24-.24 0-.116.124-.24.24-.24z" style="text-indent:0;text-transform:none" overflow="visible" fill-rule="evenodd" color="#000000" fill="rgba(0, 0, 0, 0.07)" stroke="none"/>
</svg>
</g></svg></g></g>
<!-- /image 88676 -->

<!-- image 47800 -->
<g id="transformed-47800" data-image="47800" transform="translate(14.142857142857142, 37) rotate(45, 7.8571428571428585, 10)"><g><svg version="1.1" width="15.714285714285717px" height="20px" viewBox="0 0 15.714285714285717 20"><g id="original-47800"><svg xmlns="http://www.w3.org/2000/svg" id="svg14" fill-rule="evenodd" viewBox="0 0 847 1058.75" clip-rule="evenodd" shape-rendering="geometricPrecision" text-rendering="geometricPrecision" image-rendering="optimizeQuality" xmlns:xlink="http://www.w3.org/1999/xlink" version="1.1" preserveAspectRatio="xMidYMid meet">
  <g id="g8">
    <path id="path6" d="M584 263h95c212 0 212 321 0 321h-95v95c0 212-321 212-321 0v-95h-95c-213 0-213-321 0-321h95v-95c0-213 321-213 321 0v95zm-60-95v154h155c134 0 134 202 0 202H524v155c0 134-202 134-202 0V524H168c-134 0-134-202 0-202h154V168c0-134 202-134 202 0z" fill="rgba(0, 0, 0, 0.07)" stroke="none"/>
  </g>
</svg>
</g></svg></g></g>
<!-- /image 47800 -->

<!-- image 51227 -->
<g id="transformed-51227" data-image="51227" transform="translate(150.60000000000002, 102) rotate(0, 26.399999999999984, 33)"><g><svg version="1.1" width="52.79999999999997px" height="66px" viewBox="0 0 52.79999999999997 66"><g id="original-51227"><svg xmlns="http://www.w3.org/2000/svg" viewBox="0 0 100 125" xmlns:xlink="http://www.w3.org/1999/xlink" version="1.1" preserveAspectRatio="xMidYMid meet">
  <path d="M43.499 21c-4.934 0-9 4.066-9 9v24.313c-1.487-1.989-3.104-3.509-5-4.032-2.6-.716-4.93.216-6.5 1.125-1.897 1.507-3.553 2.679-4.219 5.094-.625 2.279-.163 4.729.938 7.563 5.271 12.63 11.657 24.875 19.53 33.906A3.042 3.042 0 0 0 41.499 99h27a3.023 3.023 0 0 0 1.781-.594c3.132-2.32 5.471-6.08 7.438-10.5 1.966-4.419 3.448-9.538 4.218-14.53.77-4.994.828-9.932-.312-14-1.16-4.139-4.219-7.842-8.781-8.376-.773-.022-1.605.104-2.281.188-.588-1.13-1.379-2.038-2.25-2.657-1.713-1.215-3.404-1.555-4.875-1.53-1.056.017-2.015.376-2.938.874-.37-.44-.667-1.002-1.094-1.312C57.697 45.323 55.943 45 54.498 45c-.683 0-1.342.104-2 .25V30c0-4.934-4.065-9-9-9zm0 6c1.713 0 3 1.286 3 3v21c0 1.355 1.022 2.643 2.344 2.94 1.321.296 2.801-.431 3.374-1.659 1.091-1.415 2.226-1.383 3.656-.875.358.26.625.41.625 1.594 0 1.342 1.005 2.62 2.31 2.93 1.307.308 2.78-.384 3.378-1.586.78-1.62 1.288-1.422 2.656-.906.41.29.656.435.656 1.562.01 1.154.746 2.27 1.804 2.73 1.058.46 2.378.239 3.227-.542.033.066 1.336-.356 1.813-.188 1.859.282 2.768 1.342 3.53 4.031.791 2.787.841 7.002.157 11.438-.684 4.436-2.088 9.125-3.812 13-1.565 3.517-3.448 6.143-5 7.531H42.999C37.405 85.426 24.5 65.051 24.56 58.125c.811-1.333 2.074-2.198 3.344-2.062 1.591.803 1.986 1.627 2.938 3.343l3.968 7.938c.597 1.202 2.071 1.894 3.377 1.585 1.306-.308 2.315-1.587 2.31-2.929V30c0-1.714 1.287-3 3-3z" style="text-indent:0;text-transform:none;block-progression:tb" overflow="visible" color="#000000" fill="rgba(0, 0, 0, 0.07)" stroke="none"/>
  <path d="M43.499 1a3 3 0 0 0-3 3v12a3 3 0 0 0 6 0V4a3 3 0 0 0-3-3zM17.905 15.5a2.994 2.994 0 0 0 1.094 4.094l10.406 6a2.994 2.994 0 0 0 4.094-1.094 2.994 2.994 0 0 0-1.094-4.094l-10.406-6c-1.507-.749-3.279-.46-4.094 1.094zm47.094-1.094l-10.406 6a2.994 2.994 0 0 0-1.094 4.094 2.994 2.994 0 0 0 4.094 1.094l10.406-6a2.994 2.994 0 0 0 1.094-4.094c-1.21-1.68-2.56-1.82-4.094-1.094z" style="text-indent:0;text-transform:none;block-progression:tb" overflow="visible" color="#000000" fill="rgba(0, 0, 0, 0.07)" stroke="none"/>
</svg>
</g></svg></g></g>
<!-- /image 51227 -->

<!-- image 97061 -->
<g id="transformed-97061" data-image="97061" transform="translate(81, 192) rotate(90, 9.999999999999998, 10)"><g><svg version="1.1" width="19.999999999999996px" height="20px" viewBox="0 0 19.999999999999996 20"><g id="original-97061"><svg xmlns="http://www.w3.org/2000/svg" version="1.1" viewBox="0 0 90 90" xmlns:xlink="http://www.w3.org/1999/xlink" preserveAspectRatio="xMidYMid meet">
  <path d="M45 0C20.187 0 0 20.187 0 45s20.187 45 45 45 45-20.187 45-45S69.813 0 45 0zm0 85C22.944 85 5 67.056 5 45S22.944 5 45 5s40 17.944 40 40-17.944 40-40 40z" fill="rgba(0, 0, 0, 0.07)" stroke="none"/>
  <path d="M60 42.5H47.5V30a2.5 2.5 0 1 0-5 0v12.5H30a2.5 2.5 0 1 0 0 5h12.5V60a2.5 2.5 0 1 0 5 0V47.5H60a2.5 2.5 0 1 0 0-5z" fill="rgba(0, 0, 0, 0.07)" stroke="none"/>
</svg>
</g></svg></g></g>
<!-- /image 97061 -->
</defs><rect x="0" y="0" width="250" height="250" fill="rgba(255, 255, 255, 0)"></rect><use xlink:href="#transformed-39585" transform="translate(-250, -250)"></use><use xlink:href="#transformed-39585" transform="translate(0, -250)"></use><use xlink:href="#transformed-39585" transform="translate(250, -250)"></use><use xlink:href="#transformed-39585" transform="translate(-250, 0)"></use><use xlink:href="#transformed-39585" transform="translate(0, 0)"></use><use xlink:href="#transformed-39585" transform="translate(250, 0)"></use><use xlink:href="#transformed-39585" transform="translate(-250, 250)"></use><use xlink:href="#transformed-39585" transform="translate(0, 250)"></use><use xlink:href="#transformed-39585" transform="translate(250, 250)"></use><use xlink:href="#transformed-36574" transform="translate(-250, -250)"></use><use xlink:href="#transformed-36574" transform="translate(0, -250)"></use><use xlink:href="#transformed-36574" transform="translate(250, -250)"></use><use xlink:href="#transformed-36574" transform="translate(-250, 0)"></use><use xlink:href="#transformed-36574" transform="translate(0, 0)"></use><use xlink:href="#transformed-36574" transform="translate(250, 0)"></use><use xlink:href="#transformed-36574" transform="translate(-250, 250)"></use><use xlink:href="#transformed-36574" transform="translate(0, 250)"></use><use xlink:href="#transformed-36574" transform="translate(250, 250)"></use><use xlink:href="#transformed-20296" transform="translate(-250, -250)"></use><use xlink:href="#transformed-20296" transform="translate(0, -250)"></use><use xlink:href="#transformed-20296" transform="translate(250, -250)"></use><use xlink:href="#transformed-20296" transform="translate(-250, 0)"></use><use xlink:href="#transformed-20296" transform="translate(0, 0)"></use><use xlink:href="#transformed-20296" transform="translate(250, 0)"></use><use xlink:href="#transformed-20296" transform="translate(-250, 250)"></use><use xlink:href="#transformed-20296" transform="translate(0, 250)"></use><use xlink:href="#transformed-20296" transform="translate(250, 250)"></use><use xlink:href="#transformed-10613" transform="translate(-250, -250)"></use><use xlink:href="#transformed-10613" transform="translate(0, -250)"></use><use xlink:href="#transformed-10613" transform="translate(250, -250)"></use><use xlink:href="#transformed-10613" transform="translate(-250, 0)"></use><use xlink:href="#transformed-10613" transform="translate(0, 0)"></use><use xlink:href="#transformed-10613" transform="translate(250, 0)"></use><use xlink:href="#transformed-10613" transform="translate(-250, 250)"></use><use xlink:href="#transformed-10613" transform="translate(0, 250)"></use><use xlink:href="#transformed-10613" transform="translate(250, 250)"></use><use xlink:href="#transformed-49895" transform="translate(-250, -250)"></use><use xlink:href="#transformed-49895" transform="translate(0, -250)"></use><use xlink:href="#transformed-49895" transform="translate(250, -250)"></use><use xlink:href="#transformed-49895" transform="translate(-250, 0)"></use><use xlink:href="#transformed-49895" transform="translate(0, 0)"></use><use xlink:href="#transformed-49895" transform="translate(250, 0)"></use><use xlink:href="#transformed-49895" transform="translate(-250, 250)"></use><use xlink:href="#transformed-49895" transform="translate(0, 250)"></use><use xlink:href="#transformed-49895" transform="translate(250, 250)"></use><use xlink:href="#transformed-80773" transform="translate(-250, -250)"></use><use xlink:href="#transformed-80773" transform="translate(0, -250)"></use><use xlink:href="#transformed-80773" transform="translate(250, -250)"></use><use xlink:href="#transformed-80773" transform="translate(-250, 0)"></use><use xlink:href="#transformed-80773" transform="translate(0, 0)"></use><use xlink:href="#transformed-80773" transform="translate(250, 0)"></use><use xlink:href="#transformed-80773" transform="translate(-250, 250)"></use><use xlink:href="#transformed-80773" transform="translate(0, 250)"></use><use xlink:href="#transformed-80773" transform="translate(250, 250)"></use><use xlink:href="#transformed-22073" transform="translate(-250, -250)"></use><use xlink:href="#transformed-22073" transform="translate(0, -250)"></use><use xlink:href="#transformed-22073" transform="translate(250, -250)"></use><use xlink:href="#transformed-22073" transform="translate(-250, 0)"></use><use xlink:href="#transformed-22073" transform="translate(0, 0)"></use><use xlink:href="#transformed-22073" transform="translate(250, 0)"></use><use xlink:href="#transformed-22073" transform="translate(-250, 250)"></use><use xlink:href="#transformed-22073" transform="translate(0, 250)"></use><use xlink:href="#transformed-22073" transform="translate(250, 250)"></use><use xlink:href="#transformed-15741" transform="translate(-250, -250)"></use><use xlink:href="#transformed-15741" transform="translate(0, -250)"></use><use xlink:href="#transformed-15741" transform="translate(250, -250)"></use><use xlink:href="#transformed-15741" transform="translate(-250, 0)"></use><use xlink:href="#transformed-15741" transform="translate(0, 0)"></use><use xlink:href="#transformed-15741" transform="translate(250, 0)"></use><use xlink:href="#transformed-15741" transform="translate(-250, 250)"></use><use xlink:href="#transformed-15741" transform="translate(0, 250)"></use><use xlink:href="#transformed-15741" transform="translate(250, 250)"></use><use xlink:href="#transformed-88676" transform="translate(-250, -250)"></use><use xlink:href="#transformed-88676" transform="translate(0, -250)"></use><use xlink:href="#transformed-88676" transform="translate(250, -250)"></use><use xlink:href="#transformed-88676" transform="translate(-250, 0)"></use><use xlink:href="#transformed-88676" transform="translate(0, 0)"></use><use xlink:href="#transformed-88676" transform="translate(250, 0)"></use><use xlink:href="#transformed-88676" transform="translate(-250, 250)"></use><use xlink:href="#transformed-88676" transform="translate(0, 250)"></use><use xlink:href="#transformed-88676" transform="translate(250, 250)"></use><use xlink:href="#transformed-47800" transform="translate(-250, -250)"></use><use xlink:href="#transformed-47800" transform="translate(0, -250)"></use><use xlink:href="#transformed-47800" transform="translate(250, -250)"></use><use xlink:href="#transformed-47800" transform="translate(-250, 0)"></use><use xlink:href="#transformed-47800" transform="translate(0, 0)"></use><use xlink:href="#transformed-47800" transform="translate(250, 0)"></use><use xlink:href="#transformed-47800" transform="translate(-250, 250)"></use><use xlink:href="#transformed-47800" transform="translate(0, 250)"></use><use xlink:href="#transformed-47800" transform="translate(250, 250)"></use><use xlink:href="#transformed-51227" transform="translate(-250, -250)"></use><use xlink:href="#transformed-51227" transform="translate(0, -250)"></use><use xlink:href="#transformed-51227" transform="translate(250, -250)"></use><use xlink:href="#transformed-51227" transform="translate(-250, 0)"></use><use xlink:href="#transformed-51227" transform="translate(0, 0)"></use><use xlink:href="#transformed-51227" transform="translate(250, 0)"></use><use xlink:href="#transformed-51227" transform="translate(-250, 250)"></use><use xlink:href="#transformed-51227" transform="translate(0, 250)"></use><use xlink:href="#transformed-51227" transform="translate(250, 250)"></use><use xlink:href="#transformed-97061" transform="translate(-250, -250)"></use><use xlink:href="#transformed-97061" transform="translate(0, -250)"></use><use xlink:href="#transformed-97061" transform="translate(250, -250)"></use><use xlink:href="#transformed-97061" transform="translate(-250, 0)"></use><use xlink:href="#transformed-97061" transform="translate(0, 0)"></use><use xlink:href="#transformed-97061" transform="translate(250, 0)"></use><use xlink:href="#transformed-97061" transform="translate(-250, 250)"></use><use xlink:href="#transformed-97061" transform="translate(0, 250)"></use><use xlink:href="#transformed-97061" transform="translate(250, 250)"></use></svg>