<?xml version="1.0" ?><!DOCTYPE svg  PUBLIC '-//W3C//DTD SVG 1.1//EN'  'http://www.w3.org/Graphics/SVG/1.1/DTD/svg11.dtd'><svg height="100%" style="fill-rule:evenodd;clip-rule:evenodd;stroke-linejoin:round;stroke-miterlimit:1.41421;" version="1.1" viewBox="0 0 24 24" width="100%" xml:space="preserve" xmlns="http://www.w3.org/2000/svg" xmlns:serif="http://www.serif.com/" xmlns:xlink="http://www.w3.org/1999/xlink"><rect height="24" id="Artboard13" style="fill:none;" width="24" x="0" y="0"/><path d="M15.153,16.996l2.288,3.963c0,0 -4.952,0 -8.808,0c-2.758,0 -5.299,-1.499 -6.633,-3.913c0,-0.001 0,-0.001 0,-0.001l0.029,-0.049l13.124,0Zm-4.798,-13.955c0,0 0,0 0,0c2.781,0 5.357,1.463 6.782,3.852c1.172,1.965 2.593,4.349 3.764,6.312c1.418,2.378 1.467,5.33 0.128,7.753c0,0.001 0,0.001 0,0.001l-0.33,0l-10.344,-17.918Zm3.168,11.133l-9.811,0l4.985,-8.359l4.826,8.359Z" style="fill:#13aff0;"/></svg>