<?xml version="1.0" standalone="no"?>
<!DOCTYPE svg PUBLIC "-//W3C//DTD SVG 1.1//EN" "http://www.w3.org/Graphics/SVG/1.1/DTD/svg11.dtd" >
<svg xmlns="http://www.w3.org/2000/svg">
<metadata>Generated by IcoMoon</metadata>
<defs>
<font id="icomoon-TBRPG" horiz-adv-x="1024">
<font-face units-per-em="1024" ascent="960" descent="-64" />
<missing-glyph horiz-adv-x="1024" />
<glyph unicode="&#x20;" horiz-adv-x="512" d="" />
<glyph unicode="&#xe04f;" glyph-name="volume_off" d="M512 768.667v-180l-90 90zM182 810.667l714-714-54-54-88 88c-46-36-98-64-156-78v88c36 10 68 28 96 50l-182 182v-288l-214 214h-170v256h202l-202 202zM810 426.667c0 136-88 250-212 286v88c172-38 298-192 298-374 0-64-16-126-44-178l-64 66c14 34 22 72 22 112zM704 426.667c0-10 0-18-2-26l-104 104v94c64-32 106-96 106-172z" />
<glyph unicode="&#xe050;" glyph-name="volume_up" d="M598 800.667c172-38 298-192 298-374s-126-336-298-374v88c124 36 212 150 212 286s-88 250-212 286v88zM704 426.667c0-76-42-140-106-172v344c64-32 106-96 106-172zM128 554.667h170l214 214v-684l-214 214h-170v256z" />
<glyph unicode="&#xe0b7;" glyph-name="chat" d="M768 596.667v86h-512v-86h512zM598 340.667v86h-342v-86h342zM256 554.667v-86h512v86h-512zM854 852.667c46 0 84-38 84-84v-512c0-46-38-86-84-86h-598l-170-170v768c0 46 38 84 84 84h684z" />
<glyph unicode="&#xe0e0;" glyph-name="import_contacts" d="M896 148.667v492c-46 14-98 20-150 20-72 0-176-28-234-64v-490c58 36 162 64 234 64 52 0 104-8 150-22zM746 746.667c88.409 0 181.498-22.075 236-64v-622c0-10-12-22-22-22-4 0-6 0-10 2-60 32-134 44-204 44-72 0-176-28-234-64-62 46-150 64-234 64-62 0-146-18-204-46-4 0-6-2-10-2-10 0-22 10-22 20v626c62 46 152 64 236 64s172-18 234-64c62 46 150 64 234 64z" />
<glyph unicode="&#xe32a;" glyph-name="security" d="M512 896.667l384-172v-256c0-236-164-458-384-512-220 54-384 276-384 512v256zM512 426.667v-382c158 50 276 206 298 382h-298zM512 426.667v376l-298-132v-244h298z" />
<glyph unicode="&#xe3c7;" glyph-name="dehaze" d="M86 704.667h852v-86h-852v86zM86 490.667h852v-86h-852v86zM86 276.667h852v-84h-852v84z" />
<glyph unicode="&#xe3e7;" glyph-name="flash_on" d="M298 852.667h428l-172-340h172l-300-512v384h-128v468z" />
<glyph unicode="&#xe40a;" glyph-name="palette" d="M746 426.667c36 0 64 28 64 64s-28 64-64 64-64-28-64-64 28-64 64-64zM618 596.667c36 0 64 28 64 64s-28 64-64 64-64-28-64-64 28-64 64-64zM406 596.667c36 0 64 28 64 64s-28 64-64 64-64-28-64-64 28-64 64-64zM278 426.667c36 0 64 28 64 64s-28 64-64 64-64-28-64-64 28-64 64-64zM512 810.667c212 0 384-154 384-342 0-118-96-212-214-212h-74c-36 0-64-28-64-64 0-16 6-30 16-42s16-28 16-44c0-36-28-64-64-64-212 0-384 172-384 384s172 384 384 384z" />
<glyph unicode="&#xe429;" glyph-name="tune" d="M640 554.667v256h86v-86h170v-84h-170v-86h-86zM896 384.667h-426v84h426v-84zM298 554.667h86v-256h-86v86h-170v84h170v86zM554 42.667h-84v256h84v-86h342v-84h-342v-86zM128 724.667h426v-84h-426v84zM128 212.667h256v-84h-256v84z" />
<glyph unicode="&#xe536;" glyph-name="directions_walk" d="M418 558.667l-120-602h90l78 342 88-86v-256h86v320l-90 86 26 128c56-64 140-106 234-106v84c-82 0-148 44-182 104l-44 68c-18 26-42 42-72 42-12 0-22-4-34-4l-222-94v-200h86v144l76 30zM576 704.667c-46 0-86 38-86 84s40 86 86 86 86-40 86-86-40-84-86-84z" />
<glyph unicode="&#xe55c;" glyph-name="my_location" d="M512 128.667c166 0 298 132 298 298s-132 298-298 298-298-132-298-298 132-298 298-298zM894 468.667h88v-84h-88c-20-178-162-320-340-340v-88h-84v88c-178 20-320 162-340 340h-88v84h88c20 178 162 320 340 340v88h84v-88c178-20 320-162 340-340zM512 596.667c94 0 170-76 170-170s-76-170-170-170-170 76-170 170 76 170 170 170z" />
<glyph unicode="&#xe566;" glyph-name="directions_run" d="M422 112.667l-298 58 16 86 210-42 68 346-78-30v-146h-84v200l222 94c12 0 22 4 34 4 30 0 54-16 72-42l42-68c34-60 102-102 184-102v-86c-94 0-178 42-234 106l-26-128 90-84v-320h-86v256l-90 84zM576 704.667c-46 0-86 40-86 86s40 84 86 84 84-38 84-84-38-86-84-86z" />
<glyph unicode="&#xe56a;" glyph-name="person_pin_circle" d="M512 340.667c72 0 134 36 170 92 0 56-114 88-170 88s-170-32-170-88c36-56 98-92 170-92zM512 768.667c-46 0-86-40-86-86 0-48 40-86 86-86s86 38 86 86c0 46-40 86-86 86zM512 852.667c164 0 298-134 298-298 0-224-298-554-298-554s-298 330-298 554c0 164 134 298 298 298z" />
<glyph unicode="&#xe5d2;" glyph-name="menu" d="M128 682.667h768v-86h-768v86zM128 384.667v84h768v-84h-768zM128 170.667v86h768v-86h-768z" />
<glyph unicode="&#xe5d6;" glyph-name="unfold_less" d="M708 708.667l-196-196-196 196 60 60 136-136 136 136zM316 144.667l196 196 196-196-60-60-136 136-136-136z" />
<glyph unicode="&#xe5d7;" glyph-name="unfold_more" d="M512 162.667l136 136 60-60-196-196-196 196 60 60zM512 690.667l-136-136-60 60 196 196 196-196-60-60z" />
<glyph unicode="&#xe600;" glyph-name="laurel-crown" d="M261.355 841.032c-36.174-11.665-64.479-24.473-99.355-50.065-4.521-4.329-8.954-8.712-13.295-13.225 0.495-1.169 1.259-2.612 2.389-4.645 2.098-3.782 5.713-8.306 10.261-12.779-7.131-11.429-13.618-22.858-19.613-34.321-7.564 6.276-14.353 13.26-19.807 21.099-15.725-19.623-29.884-40.626-42.195-62.844 0.815-3.378 3.214-7.061 7.804-11.995 5.483-5.89 14.049-11.974 24.002-17.164-4.179-12.629-7.763-25.195-10.707-37.739-15.36 6.978-29.409 16.037-40.452 27.547-12.263-28.499-21.622-58.674-27.677-90.129 2.756-5.025 7.668-9.627 15.096-14.518 10.471-6.895 25.517-12.544 41.873-15.808-0.093-13.289 0.516-26.471 1.676-39.482-23.55 3.454-46.255 10.835-64.774 23.032-0.103 0.070-0.219 0.124-0.322 0.194-2.705-32.186-1.8-63.917 2.257-94.774 4.769-7.185 12.75-12.298 24.644-16.388 15.29-5.256 36.071-6.904 57.228-4.773 4.129-12.639 8.826-25.043 14.059-37.161-28.841-4.331-58.296-3.349-83.805 5.419-0.696 0.239-1.373 0.52-2.065 0.774 8.213-31.979 19.943-62.699 34.775-91.677 7.335-5.789 17.239-8.704 30.39-9.612 19.2-1.33 43.652 3.572 66.969 13.095 7.663-10.853 15.752-21.347 24.258-31.484-30.080-13.863-62.679-22.039-93.033-20.129 20.546-30.146 44.672-57.732 71.936-82.065 8.795-2.985 19.2-3.025 31.74-0.578 19.819 3.867 43.055 15.286 64.062 30.968 0.017-0.010 0.054 0.010 0.066 0 10.641-8.213 21.628-16 32.838-23.226-24.725-20.459-52.903-36.534-81.61-43.809 24.060-16.268 49.854-30.286 77.095-41.674 10.193-0.873 21.244 1.982 33.742 8.064 15.839 7.711 32.578 21.165 47.546 37.739 35.171-14.004 71.705-23.164 108.517-26.643l3.675 38.452c-29.457 2.787-59.012 9.848-87.87 20.517 14.21 22.933 23.969 47.841 26.715 69.031 2.432 18.816 0.171 33.356-7.808 44.259-16.681 3.262-32.805 8.134-48.258 14.452-0.355-13.357-3.522-26.812-8.712-39.42-7.732-18.793-19.654-36.744-34.126-53.099-11.051 6.788-21.812 14.105-32.324 21.935 13.667 14.827 24.615 30.906 30.774 45.874 7.858 19.089 8.615 34.226 1.29 47.092-15.996 10.234-30.974 22.167-44.837 35.551-3.66-8.877-8.644-17.28-14.518-24.968-11.305-14.792-25.955-27.892-42.453-39.030-8.506 9.745-16.623 19.826-24.258 30.324 14.765 9.691 27.45 20.852 36.067 32.128 10.401 13.613 14.906 25.621 13.353 37.355-10.273 13.529-19.601 28.040-27.871 43.355-4.717-5.545-10.034-10.612-15.808-15.036-13.952-10.684-30.551-18.901-48.322-24.836-5.357 11.747-10.234 23.738-14.452 35.999 15.333 4.965 29.172 11.733 39.288 19.483 11.759 9.005 18.172 17.641 19.679 27.355-6.255 16.512-11.371 33.693-15.29 51.423-3.877-2.219-7.886-4.179-11.999-5.807-15.381-6.084-32.516-9.154-50.126-9.806-1.367 12.717-2.12 25.606-2.133 38.648 14.363 0.543 27.797 2.967 38.070 7.030 9.497 3.757 15.68 7.845 19.289 12.903-2.102 20.067-2.746 40.65-1.678 61.549-1.342-0.215-2.663-0.372-4.001-0.516-13.675-1.497-27.987-0.31-42.129 2.773 2.828 12.346 6.338 24.795 10.517 37.291 10.054-1.926 19.691-2.525 27.417-1.681 5.397 0.59 9.356 1.561 12.387 2.903 2.88 18.436 7.034 36.426 12.325 53.743-8.634 1.519-17.102 4.319-25.29 8 5.851 11.266 12.234 22.561 19.291 33.868 4.984-1.988 9.736-3.437 13.805-4.067 2.285-0.351 4.177-0.547 5.743-0.578 4.018 9.579 8.303 18.932 12.969 28.001 12.177 24.365 25.631 50.065 35.097 78.322zM765.871 841.032c9.462-28.255 22.916-53.956 35.097-78.324 4.666-9.069 9.014-18.422 13.027-27.999 1.553 0.033 3.427 0.233 5.677 0.578 4.088 0.632 8.869 2.065 13.874 4.067 7.057-11.307 13.44-22.602 19.291-33.87-8.209-3.687-16.714-6.483-25.352-8.002 5.291-17.321 9.441-35.303 12.319-53.739 3.043-1.358 7.028-2.312 12.455-2.907 7.725-0.846 17.363-0.248 27.417 1.678 4.183-12.517 7.622-24.989 10.453-37.357-14.115-3.070-28.412-4.203-42.065-2.711-1.354 0.149-2.7 0.299-4.061 0.516 1.067-20.901 0.487-41.48-1.614-61.547 3.613-5.058 9.796-9.146 19.293-12.903 10.254-4.057 23.663-6.483 37.999-7.032-0.012-13.039-0.764-25.93-2.126-38.648-17.59 0.661-34.7 3.733-50.065 9.806-4.117 1.631-8.12 3.592-12.001 5.81-3.912-17.703-9.049-34.87-15.29-51.355 1.476-9.745 7.835-18.399 19.613-27.421 10.124-7.748 23.959-14.514 39.294-19.481-4.22-12.263-9.094-24.252-14.452-36.001-17.751 5.935-34.321 14.167-48.258 24.836-5.789 4.435-11.148 9.48-15.872 15.036-8.279-15.323-17.59-29.82-27.871-43.355-1.569-11.731 2.952-23.746 13.357-37.357 8.605-11.266 21.291-22.441 36.061-32.13-7.633-10.498-15.752-20.575-24.258-30.322-16.495 11.14-31.145 24.237-42.451 39.032-5.859 7.67-10.806 16.058-14.452 24.906-13.853-13.374-28.854-25.261-44.841-35.485-7.323-12.868-6.565-28.005 1.292-47.096 6.163-14.968 17.111-31.044 30.778-45.874-10.519-7.835-21.333-15.141-32.388-21.933-14.458 16.355-26.331 34.306-34.065 53.099-5.188 12.606-8.355 26.060-8.712 39.416-15.478-6.326-31.614-11.186-48.32-14.452-7.996-10.901-10.24-25.443-7.804-44.257 2.74-21.19 12.552-46.101 26.771-69.033-28.85-10.669-58.411-17.728-87.87-20.515l3.613-38.452c36.831 3.483 73.385 12.627 108.581 26.645 14.968-16.574 31.707-30.028 47.546-37.739 12.503-6.084 23.552-8.939 33.745-8.064 27.252 11.39 53.025 25.398 77.093 41.676-28.689 7.267-56.902 23.315-81.61 43.747 11.235 7.234 22.173 15.057 32.838 23.288 21.017-15.699 44.296-27.099 64.128-30.968 12.503-2.44 22.895-2.446 31.678 0.516 27.276 24.337 51.448 51.968 72 82.126-30.359-1.91-63.021 6.266-93.099 20.129 8.506 10.143 16.652 20.625 24.32 31.484 23.319-9.517 47.769-14.423 66.973-13.093 13.147 0.908 23.052 3.823 30.383 9.612 14.829 28.978 26.564 59.7 34.775 91.677-0.692-0.254-1.369-0.537-2.065-0.774-25.507-8.768-54.964-9.751-83.807-5.419 5.236 12.119 9.937 24.522 14.066 37.161 21.132-2.12 41.889-0.475 57.162 4.775 11.902 4.088 19.923 9.197 24.708 16.386 4.057 30.856 4.897 62.592 2.197 94.774-0.089-0.058-0.169-0.134-0.258-0.194-18.519-12.197-41.228-19.578-64.776-23.032 1.162 13.011 1.767 26.193 1.676 39.484 16.351 3.266 31.401 8.913 41.868 15.808 7.418 4.885 12.276 9.505 15.036 14.518-6.057 31.451-15.422 61.63-27.681 90.126-11.039-11.499-25.049-20.563-40.386-27.549-2.946 12.548-6.528 25.115-10.711 37.743 9.92 5.188 18.461 11.281 23.936 17.162 4.567 4.905 7.023 8.568 7.872 11.933-12.325 22.243-26.455 43.262-42.199 62.906-5.454-7.837-12.243-14.823-19.803-21.099-5.997 11.464-12.484 22.895-19.613 34.325 4.558 4.472 8.161 9.001 10.257 12.779 1.111 2.003 1.899 3.419 2.387 4.579-4.348 4.527-8.826 8.948-13.353 13.289-34.876 25.592-63.18 38.4-99.355 50.065zM298.963 715.225l49.742-267.805h338.779l47.29 257.032-119.612-131.097-92.839 138.707-92.903-138.709-130.453 141.869zM355.867 408.838l7.356-39.674h309.871l7.294 39.676h-324.517z" />
<glyph unicode="&#xe601;" glyph-name="death-note" d="M593.524 863.346l-172.919-0.516-169.545-150.423 39.096-150.188 104.676 16.893-54.944-159.33 82.449 47.911 23.299-76.603 64.411 79.005 64.395-82.651 39.323 81.992 67.692-44.818-54.269 153.193 98.986-12.979 40.271 143.002-172.919 155.512zM404.371 732.97c28.399 0.238 60.283-19.159 76.603-57.498l-132.019-20.003c-4.482 51.733 23.229 77.231 55.418 77.502zM627.067 732.97c32.186-0.273 59.899-25.769 55.418-77.5l-132.023 20.003c16.324 38.339 48.205 57.738 76.605 57.498zM510.851 650.959l54.684-120.884h-102.168l47.488 120.886zM165.183 362.811l-89.428-62.293 441.865-154.895 441.861 155.644-87.361 61.546c-116.498-19.636-257.047 30.59-321.095-67.866h-66.949c-63.407 98.398-202.413 48.233-318.893 67.866zM28.237 274.803l-13.145-37.593 406.335-142.101v-37.967h195.11v39.831h-0.106l401.012 140.235-13.149 37.593-438.274-153.27 8.588-24.562h-116.678l8.584 24.564-438.276 153.268zM519.309 193.421c-0.767-6.749-1.415-13.731-1.903-21.030-0.469 6.975-1.087 13.647-1.803 20.118l1.598-2.823 2.11 3.734z" />
<glyph unicode="&#xe602;" glyph-name="qrcode" d="M320 896h-256v-256h256v256zM384 960v0-384h-384v384h384zM128 832h128v-128h-128zM960 896h-256v-256h256v256zM1024 960v0-384h-384v384h384zM768 832h128v-128h-128zM320 256h-256v-256h256v256zM384 320v0-384h-384v384h384zM128 192h128v-128h-128zM448 960h64v-64h-64zM512 896h64v-64h-64zM448 832h64v-64h-64zM512 768h64v-64h-64zM448 704h64v-64h-64zM512 640h64v-64h-64zM448 576h64v-64h-64zM448 448h64v-64h-64zM512 384h64v-64h-64zM448 320h64v-64h-64zM512 256h64v-64h-64zM448 192h64v-64h-64zM512 128h64v-64h-64zM448 64h64v-64h-64zM512 0h64v-64h-64zM960 448h64v-64h-64zM64 448h64v-64h-64zM128 512h64v-64h-64zM0 512h64v-64h-64zM256 512h64v-64h-64zM320 448h64v-64h-64zM384 512h64v-64h-64zM576 448h64v-64h-64zM640 512h64v-64h-64zM704 448h64v-64h-64zM768 512h64v-64h-64zM832 448h64v-64h-64zM896 512h64v-64h-64zM960 320h64v-64h-64zM576 320h64v-64h-64zM640 384h64v-64h-64zM704 320h64v-64h-64zM832 320h64v-64h-64zM896 384h64v-64h-64zM960 192h64v-64h-64zM576 192h64v-64h-64zM640 256h64v-64h-64zM768 256h64v-64h-64zM832 192h64v-64h-64zM896 256h64v-64h-64zM960 64h64v-64h-64zM640 128h64v-64h-64zM704 64h64v-64h-64zM768 128h64v-64h-64zM832 64h64v-64h-64zM640 0h64v-64h-64zM768 0h64v-64h-64zM896 0h64v-64h-64z" />
<glyph unicode="&#xe603;" glyph-name="envelop" d="M928 832h-832c-52.8 0-96-43.2-96-96v-640c0-52.8 43.2-96 96-96h832c52.8 0 96 43.2 96 96v640c0 52.8-43.2 96-96 96zM398.74 409.628l-270.74-210.892v501.642l270.74-290.75zM176.38 704h671.24l-335.62-252-335.62 252zM409.288 398.302l102.712-110.302 102.71 110.302 210.554-270.302h-626.528l210.552 270.302zM625.26 409.628l270.74 290.75v-501.642l-270.74 210.892z" />
<glyph unicode="&#xe604;" glyph-name="exit-fullscreen" horiz-adv-x="1512" d="M1039.754 342.875c0-50.696-41.102-91.798-91.813-91.798h-399.265c-50.712 0-91.813 41.102-91.813 91.798v226.005c0 50.696 41.102 91.798 91.813 91.798h399.265c50.712 0 91.813-41.102 91.813-91.798v-226.005zM441.108 613.415v179.184l-63.52-63.882-73.618 73.744-51.909-52.051 73.791-73.114-64.544-63.882zM1055.508 613.415h179.137l-63.835 63.52 73.712 73.618-52.066 51.909-73.098-73.728-63.85 64.528zM441.108 298.338h-179.184l63.882-63.567-73.744-73.539 52.098-51.94 73.082 73.807 63.866-64.575zM1055.508 282.585v-163.399l63.551 63.85 73.555-73.712 51.972 52.066-73.76 65.205 64.559 55.989zM1397.587-64h-1285.435c-63.283 0-112.152 56.777-112.152 120.092v780.461c0 63.267 48.868 123.447 112.152 123.447h1285.435c63.299 0 114.783-60.18 114.783-123.447v-780.461c0-63.315-51.484-120.092-114.783-120.092zM1465.108 843.878c0 38.030-30.83 68.86-68.86 68.86h-1280.126c-38.030 0-68.86-30.83-68.86-68.86v-791.757c0-38.030 30.83-68.86 68.86-68.86h1280.126c38.030 0 68.86 30.83 68.86 68.86v791.757z" />
<glyph unicode="&#xe605;" glyph-name="enter-fullscreen" horiz-adv-x="1512" d="M1039.754 342.875c0-50.696-41.102-91.798-91.813-91.798h-399.265c-50.712 0-91.813 41.102-91.813 91.798v226.005c0 50.696 41.102 91.798 91.813 91.798h399.265c50.712 0 91.813-41.102 91.813-91.798v-226.005zM431.86 802.462h-179.799v-179.184l63.52 63.882 73.618-73.744 51.909 52.051-73.791 73.114zM1244.522 622.616v179.846h-179.137l63.835-63.52-73.712-73.618 52.066-51.909 73.098 73.728zM252.062 289.107v-179.814h179.184l-63.882 63.567 73.744 73.539-52.098 51.94-73.082-73.807zM1064.708 109.324h179.877v163.399l-63.551-63.85-73.555 73.712-51.972-52.066 73.76-65.205zM1397.587-64h-1285.435c-63.283 0-112.152 56.777-112.152 120.092v780.461c0 63.267 48.868 123.447 112.152 123.447h1285.435c63.299 0 114.783-60.18 114.783-123.447v-780.461c0-63.315-51.484-120.092-114.783-120.092zM1465.108 843.878c0 38.030-30.83 68.86-68.86 68.86h-1280.126c-38.030 0-68.86-30.83-68.86-68.86v-791.757c0-38.030 30.83-68.86 68.86-68.86h1280.126c38.030 0 68.86 30.83 68.86 68.86v791.757z" />
<glyph unicode="&#xe606;" glyph-name="conversation" d="M422.626 917.812c-103.552 0-197.508-24.504-267-65.436-69.494-40.936-115.878-99.936-115.878-167.756 0-67.080 45.384-125.62 113.626-166.5l-57.062-212.308 193.94 159.688c41.3-9.16 85.848-14.126 132.372-14.126 103.552 0 197.572 24.504 267.064 65.44 69.492 40.932 115.874 99.994 115.874 167.81s-46.38 126.82-115.872 167.75c-69.492 40.934-163.512 65.44-267.060 65.44zM422.626 880.438c97.6 0 185.732-23.54 248.060-60.252 62.33-36.714 97.5-84.894 97.5-135.56 0-50.676-35.17-98.914-97.5-135.628-62.328-36.714-150.46-60.25-248.060-60.25s-185.736 23.538-248.066 60.252c-62.326 36.714-97.436 84.952-97.436 135.626 0 50.672 35.11 98.848 97.44 135.56 62.326 36.714 150.456 60.254 248.056 60.254zM193.060 780.124v-37.376h186.252v37.378h-186.252zM416.688 780.124v-37.376h56.188v37.378h-56.188zM510.248 780.124v-37.376h143.94v37.378h-143.94zM193.064 700.312v-37.44h59.314v37.44h-59.318zM289.754 700.312v-37.44h131.876v37.44h-131.876zM459.066 700.312v-37.44h76.19v37.44h-76.196zM572.63 700.312v-37.44h81.564v37.44h-81.56zM193.064 626.44v-37.38h141.748v37.38h-141.752zM372.188 626.44v-37.38h114.060v37.38h-114.060zM523.628 626.44l-0.004-37.38h130.564v37.38h-130.56zM708.312 445.94c-149.76 0-271.188-83.524-271.188-186.566 0-103.040 121.432-186.56 271.188-186.56 36.46 0 71.246 4.96 103 13.936l137.060-102.312-49.746 142.060c49.894 33.836 80.874 80.864 80.874 132.876 0 103.036-121.428 186.56-271.188 186.56zM567.624 361.25h65.814v-37.376h-65.818v37.376zM670.812 361.25h180.688v-37.376h-180.688v37.376zM512.872 277.75h156.628v-37.376h-156.626v37.376zM706.876 277.75h41.936v-37.376h-41.94l0.004 37.376zM786.188 277.75h102v-37.376h-102v37.376zM567.628 199.75h158.12v-37.376h-158.124v37.376zM763.124 199.75h88.376v-37.376h-88.376v37.376z" />
<glyph unicode="&#xe607;" glyph-name="crossed-swords" d="M39.5 931.124c119.076-224.58 285.020-404.7 464.56-585.436l7.252-7.5 0.126 0.124c43.654-43.86 88.080-87.846 132.81-132.5-37.712-29.626-77.948-56.4-119.876-80.624l57.064-57.060 137.434 137.434c84.674-55.272 152.572-127.292 208.188-211.62l56.128 56.12c-84.94 54.986-159.48 120.412-212.060 207.752l137.872 137.876-57.060 57.060c-22.23-43.706-48.826-84.030-78.94-121.186-87.704 87.6-172.924 171.684-260.25 250.94-0.448 0.406-0.864 0.844-1.312 1.25-144.188 130.746-294.406 248.426-471.936 347.372zM983.25 931.126c-86.74-163.6-198.336-303.6-321.94-437.44l-49.188 46.372 112.876 112.88-26.44 26.374-113.62-113.624-45.628 43.124c135.696 120.752 277.864 229.752 443.94 322.312zM324.19 679.312l401.12-401.060c-8.72-8.886-17.68-17.586-26.81-26.064l-400.75 400.752 26.44 26.372zM170.812 452.752c22.24-43.734 48.864-84.076 79-121.25 37.112 37.068 73.756 73.476 110.316 109.188l49.060-50.748-111.688-111.688c8.72-8.884 17.618-17.648 26.748-26.124l110.94 110.934 49.686-51.31c-35.094-35.074-70.584-70.28-106.314-105.94 37.714-29.626 77.95-56.4 119.874-80.626l-57.060-57.060-137.436 137.434c-84.672-55.272-152.574-127.292-208.188-211.62l-56.126 56.12c84.94 54.986 159.42 120.468 212 207.814l-137.814 137.812 57 57.064z" />
<glyph unicode="&#xe608;" glyph-name="user" d="M576 253.388v52.78c70.498 39.728 128 138.772 128 237.832 0 159.058 0 288-192 288s-192-128.942-192-288c0-99.060 57.502-198.104 128-237.832v-52.78c-217.102-17.748-384-124.42-384-253.388h896c0 128.968-166.898 235.64-384 253.388z" />
<glyph unicode="&#xe609;" glyph-name="users" horiz-adv-x="1152" d="M768 189.388v52.78c70.498 39.728 128 138.772 128 237.832 0 159.058 0 288-192 288s-192-128.942-192-288c0-99.060 57.502-198.104 128-237.832v-52.78c-217.102-17.748-384-124.42-384-253.388h896c0 128.968-166.898 235.64-384 253.388zM327.196 164.672c55.31 36.15 124.080 63.636 199.788 80.414-15.054 17.784-28.708 37.622-40.492 59.020-30.414 55.234-46.492 116.058-46.492 175.894 0 86.042 0 167.31 30.6 233.762 29.706 64.504 83.128 104.496 159.222 119.488-16.914 76.48-61.94 126.75-181.822 126.75-192 0-192-128.942-192-288 0-99.060 57.502-198.104 128-237.832v-52.78c-217.102-17.748-384-124.42-384-253.388h279.006c14.518 12.91 30.596 25.172 48.19 36.672z" />
<glyph unicode="&#xe60a;" glyph-name="user-plus" d="M384 224c0 151.234 95.874 280.486 230.032 330.2 16.28 36.538 25.968 77.164 25.968 117.8 0 159.058 0 288-192 288s-192-128.942-192-288c0-99.060 57.502-198.104 128-237.832v-52.78c-217.102-17.748-384-124.42-384-253.388h397.306c-8.664 30.53-13.306 62.732-13.306 96zM736 512c-159.058 0-288-128.942-288-288s128.942-288 288-288c159.056 0 288 128.942 288 288s-128.942 288-288 288zM896 192h-128v-128h-64v128h-128v64h128v128h64v-128h128v-64z" />
<glyph unicode="&#xe60b;" glyph-name="user-minus" d="M384 224c0 151.234 95.874 280.486 230.032 330.2 16.28 36.538 25.968 77.164 25.968 117.8 0 159.058 0 288-192 288s-192-128.942-192-288c0-99.060 57.502-198.104 128-237.832v-52.78c-217.102-17.748-384-124.42-384-253.388h397.306c-8.664 30.53-13.306 62.732-13.306 96zM736 512c-159.058 0-288-128.942-288-288s128.942-288 288-288c159.056 0 288 128.942 288 288s-128.942 288-288 288zM896 192h-320v64h320v-64z" />
<glyph unicode="&#xe60c;" glyph-name="spinner4" d="M192 448c0 12.18 0.704 24.196 2.030 36.022l-184.98 60.104c-5.916-31.14-9.050-63.264-9.050-96.126 0-147.23 62.166-279.922 161.654-373.324l114.284 157.296c-52.124 56.926-83.938 132.758-83.938 216.028zM832 448c0-83.268-31.812-159.102-83.938-216.028l114.284-157.296c99.488 93.402 161.654 226.094 161.654 373.324 0 32.862-3.132 64.986-9.048 96.126l-184.98-60.104c1.324-11.828 2.028-23.842 2.028-36.022zM576 761.592c91.934-18.662 169.544-76.742 214.45-155.826l184.978 60.102c-73.196 155.42-222.24 268.060-399.428 290.156v-194.432zM233.55 605.768c44.906 79.084 122.516 137.164 214.45 155.826v194.43c-177.188-22.096-326.23-134.736-399.426-290.154l184.976-60.102zM644.556 156.672c-40.39-18.408-85.272-28.672-132.556-28.672s-92.166 10.264-132.554 28.67l-114.292-157.31c73.206-40.366 157.336-63.36 246.846-63.36s173.64 22.994 246.848 63.36l-114.292 157.312z" />
<glyph unicode="&#xe60d;" glyph-name="box-add" d="M832 896h-640l-192-192v-672c0-17.674 14.326-32 32-32h960c17.672 0 32 14.326 32 32v672l-192 192zM512 128l-320 256h192v192h256v-192h192l-320-256zM154.51 768l64 64h586.978l64-64h-714.978z" />
<glyph unicode="&#xe60e;" glyph-name="music" d="M960 960h64v-736c0-88.366-100.29-160-224-160s-224 71.634-224 160c0 88.368 100.29 160 224 160 62.684 0 119.342-18.4 160-48.040v368.040l-512-113.778v-494.222c0-88.366-100.288-160-224-160s-224 71.634-224 160c0 88.368 100.288 160 224 160 62.684 0 119.342-18.4 160-48.040v624.040l576 128z" />
<glyph unicode="&#xe60f;" glyph-name="equalizer2" d="M896 512h16c26.4 0 48 21.6 48 48v160c0 26.4-21.6 48-48 48h-16v192h-128v-192h-16c-26.4 0-48-21.6-48-48v-160c0-26.4 21.6-48 48-48h16v-576h128v576zM768 704h128v-128h-128v128zM592 128c26.4 0 48 21.6 48 48v160c0 26.4-21.6 48-48 48h-16v576h-128v-576h-16c-26.4 0-48-21.6-48-48v-160c0-26.4 21.6-48 48-48h16v-192h128v192h16zM448 320h128v-128h-128v128zM272 512c26.4 0 48 21.6 48 48v160c0 26.4-21.6 48-48 48h-16v192h-128v-192h-16c-26.4 0-48-21.6-48-48v-160c0-26.4 21.6-48 48-48h16v-576h128v576h16zM128 704h128v-128h-128v128z" />
<glyph unicode="&#xe610;" glyph-name="cog" d="M933.79 349.75c-53.726 93.054-21.416 212.304 72.152 266.488l-100.626 174.292c-28.75-16.854-62.176-26.518-97.846-26.518-107.536 0-194.708 87.746-194.708 195.99h-201.258c0.266-33.41-8.074-67.282-25.958-98.252-53.724-93.056-173.156-124.702-266.862-70.758l-100.624-174.292c28.97-16.472 54.050-40.588 71.886-71.478 53.638-92.908 21.512-211.92-71.708-266.224l100.626-174.292c28.65 16.696 61.916 26.254 97.4 26.254 107.196 0 194.144-87.192 194.7-194.958h201.254c-0.086 33.074 8.272 66.57 25.966 97.218 53.636 92.906 172.776 124.594 266.414 71.012l100.626 174.29c-28.78 16.466-53.692 40.498-71.434 71.228zM512 240.668c-114.508 0-207.336 92.824-207.336 207.334 0 114.508 92.826 207.334 207.336 207.334 114.508 0 207.332-92.826 207.332-207.334-0.002-114.51-92.824-207.334-207.332-207.334z" />
<glyph unicode="&#xe611;" glyph-name="floppy-disk" d="M896 960h-896v-1024h1024v896l-128 128zM512 832h128v-256h-128v256zM896 64h-768v768h64v-320h576v320h74.978l53.022-53.018v-714.982z" />
<glyph unicode="&#xe612;" glyph-name="gift" d="M771.516 640c18.126 12.88 35.512 27.216 51.444 43.148 33.402 33.402 55.746 74.5 62.912 115.722 7.858 45.186-3.672 87.14-31.63 115.1-22.3 22.298-52.51 34.086-87.364 34.086-49.632 0-101.922-23.824-143.46-65.362-66.476-66.476-105.226-158.238-126.076-223.722-15.44 65.802-46.206 154.644-106.018 214.458-32.094 32.092-73.114 48.57-111.846 48.57-31.654 0-61.78-11.004-84.26-33.486-49.986-49.988-43.232-137.786 15.086-196.104 20.792-20.792 45.098-38.062 70.72-52.412h-217.024v-256h64v-448h768v448.002h64v256h-188.484zM674.326 831.782c27.724 27.724 62.322 44.274 92.55 44.274 10.7 0 25.708-2.254 36.45-12.998 26.030-26.028 11.412-86.308-31.28-128.998-43.946-43.946-103.060-74.168-154.432-94.060h-50.672c18.568 57.548 52.058 136.456 107.384 191.782zM233.934 799.11c-0.702 9.12-0.050 26.248 12.196 38.494 10.244 10.244 23.788 12.396 33.348 12.396v0c21.258 0 43.468-10.016 60.932-27.48 33.872-33.872 61.766-87.772 80.668-155.876 0.51-1.84 1.008-3.67 1.496-5.486-1.816 0.486-3.646 0.984-5.486 1.496-68.104 18.904-122.002 46.798-155.874 80.67-15.828 15.826-25.77 36.16-27.28 55.786zM448 0h-256v416h256v-416zM448 448h-320v128h320v-128zM832 0h-256v416h256v-416zM896 448h-320v128h320v-128z" />
<glyph unicode="&#xe613;" glyph-name="cloud-download" d="M891.004 599.94c-3.242 128.698-108.458 232.060-237.862 232.060-75.792 0-143.266-35.494-186.854-90.732-24.442 31.598-62.69 51.96-105.708 51.96-73.81 0-133.642-59.876-133.642-133.722 0-6.436 0.48-12.76 1.364-18.954-11.222 2.024-22.766 3.138-34.57 3.138-106.998 0.002-193.732-86.786-193.732-193.842 0-107.062 86.734-193.848 193.73-193.848h91.76l226.51-234.51 226.51 234.51 111.482 0.012c96.138 0.184 174.008 78.21 174.008 174.446 0 82.090-56.678 150.9-132.996 169.482zM512 128l-192 192h128v192h128v-192h128l-192-192z" />
<glyph unicode="&#xe614;" glyph-name="cloud-upload" d="M892.268 573.51c2.444 11.11 3.732 22.648 3.732 34.49 0 88.366-71.634 160-160 160-14.222 0-28.014-1.868-41.132-5.352-24.798 77.352-97.29 133.352-182.868 133.352-87.348 0-161.054-58.336-184.326-138.17-22.742 6.622-46.792 10.17-71.674 10.17-141.384 0-256-114.616-256-256 0-141.388 114.616-256 256-256h128v-192h256v192h224c88.366 0 160 71.632 160 160 0 78.72-56.854 144.162-131.732 157.51zM576 320v-192h-128v192h-160l224 224 224-224h-160z" />
<glyph unicode="&#xe615;" glyph-name="cloud-check" d="M892.268 445.51c2.442 11.108 3.732 22.646 3.732 34.49 0 88.366-71.634 160-160 160-14.224 0-28.014-1.868-41.134-5.352-24.796 77.352-97.288 133.352-182.866 133.352-87.348 0-161.054-58.336-184.326-138.17-22.742 6.62-46.792 10.17-71.674 10.17-141.384 0-256-114.616-256-256 0-141.382 114.616-256 256-256h608c88.366 0 160 71.632 160 160 0 78.718-56.854 144.16-131.732 157.51zM416 192l-160 160 64 64 96-96 224 224 64-64-288-288z" />
<glyph unicode="&#xe616;" glyph-name="spinner11" d="M1024 576h-384l143.53 143.53c-72.53 72.526-168.96 112.47-271.53 112.47s-199-39.944-271.53-112.47c-72.526-72.53-112.47-168.96-112.47-271.53s39.944-199 112.47-271.53c72.53-72.526 168.96-112.47 271.53-112.47s199 39.944 271.528 112.472c6.056 6.054 11.86 12.292 17.456 18.668l96.32-84.282c-93.846-107.166-231.664-174.858-385.304-174.858-282.77 0-512 229.23-512 512s229.23 512 512 512c141.386 0 269.368-57.326 362.016-149.984l149.984 149.984v-384z" />
<glyph unicode="&#xe617;" glyph-name="aid-kit" d="M896 704h-192v128c0 35.2-28.8 64-64 64h-256c-35.2 0-64-28.8-64-64v-128h-192c-70.4 0-128-57.6-128-128v-512c0-70.4 57.6-128 128-128h768c70.4 0 128 57.6 128 128v512c0 70.4-57.6 128-128 128zM384 832h256v-128h-256v128zM768 256h-192v-192h-128v192h-192v128h192v192h128v-192h192v-128z" />
<glyph unicode="&#xe618;" glyph-name="star-full" d="M1024 562.95l-353.78 51.408-158.22 320.582-158.216-320.582-353.784-51.408 256-249.538-60.432-352.352 316.432 166.358 316.432-166.358-60.434 352.352 256.002 249.538z" />
<glyph unicode="&#xe619;" glyph-name="switch" d="M640 813.412v-135.958c36.206-15.804 69.5-38.408 98.274-67.18 60.442-60.44 93.726-140.8 93.726-226.274s-33.286-165.834-93.726-226.274c-60.44-60.44-140.798-93.726-226.274-93.726s-165.834 33.286-226.274 93.726c-60.44 60.44-93.726 140.8-93.726 226.274s33.286 165.834 93.726 226.274c28.774 28.774 62.068 51.378 98.274 67.182v135.956c-185.048-55.080-320-226.472-320-429.412 0-247.424 200.578-448 448-448 247.424 0 448 200.576 448 448 0 202.94-134.95 374.332-320 429.412zM448 960h128v-512h-128z" />
<glyph unicode="&#xe61a;" glyph-name="blocked" d="M874.040 810.040c-96.706 96.702-225.28 149.96-362.040 149.96s-265.334-53.258-362.040-149.96c-96.702-96.706-149.96-225.28-149.96-362.040s53.258-265.334 149.96-362.040c96.706-96.702 225.28-149.96 362.040-149.96s265.334 53.258 362.040 149.96c96.702 96.706 149.96 225.28 149.96 362.040s-53.258 265.334-149.96 362.040zM896 448c0-82.814-26.354-159.588-71.112-222.38l-535.266 535.268c62.792 44.758 139.564 71.112 222.378 71.112 211.738 0 384-172.262 384-384zM128 448c0 82.814 26.354 159.586 71.112 222.378l535.27-535.268c-62.794-44.756-139.568-71.11-222.382-71.11-211.738 0-384 172.262-384 384z" />
<glyph unicode="&#xe61b;" glyph-name="terminal" d="M0 896v-896h1024v896h-1024zM960 64h-896v768h896v-768zM896 768h-768v-640h768v640zM448 448h-64v-64h-64v-64h-64v64h64v64h64v64h-64v64h-64v64h64v-64h64v-64h64v-64zM704 320h-192v64h192v-64z" />
<glyph unicode="&#xe61c;" glyph-name="warning" d="M512 867.226l429.102-855.226h-858.206l429.104 855.226zM512 960c-22.070 0-44.14-14.882-60.884-44.648l-437.074-871.112c-33.486-59.532-5-108.24 63.304-108.24h869.308c68.3 0 96.792 48.708 63.3 108.24h0.002l-437.074 871.112c-16.742 29.766-38.812 44.648-60.882 44.648v0zM576 128c0-35.346-28.654-64-64-64s-64 28.654-64 64c0 35.346 28.654 64 64 64s64-28.654 64-64zM512 256c-35.346 0-64 28.654-64 64v192c0 35.346 28.654 64 64 64s64-28.654 64-64v-192c0-35.346-28.654-64-64-64z" />
<glyph unicode="&#xe61d;" glyph-name="volume-high" horiz-adv-x="1088" d="M890.040 37.96c-12.286 0-24.566 4.686-33.942 14.056-18.744 18.746-18.744 49.136 0 67.882 87.638 87.642 135.904 204.16 135.904 328.1 0 123.938-48.266 240.458-135.904 328.098-18.744 18.746-18.744 49.138 0 67.882s49.138 18.744 67.882 0c105.77-105.772 164.022-246.4 164.022-395.98s-58.252-290.208-164.022-395.98c-9.372-9.372-21.656-14.058-33.94-14.058zM719.53 128.47c-12.286 0-24.566 4.686-33.942 14.056-18.744 18.744-18.744 49.136 0 67.882 131.006 131.006 131.006 344.17 0 475.176-18.744 18.746-18.744 49.138 0 67.882 18.744 18.742 49.138 18.744 67.882 0 81.594-81.59 126.53-190.074 126.53-305.466 0-115.39-44.936-223.876-126.53-305.47-9.372-9.374-21.656-14.060-33.94-14.060v0zM549.020 218.98c-12.286 0-24.568 4.686-33.942 14.058-18.746 18.746-18.746 49.134 0 67.88 81.1 81.1 81.1 213.058 0 294.156-18.746 18.746-18.746 49.138 0 67.882s49.136 18.744 67.882 0c118.53-118.53 118.53-311.392 0-429.922-9.372-9.368-21.656-14.054-33.94-14.054zM416.006 0c-8.328 0-16.512 3.25-22.634 9.374l-246.626 246.626h-114.746c-17.672 0-32 14.326-32 32v320c0 17.672 14.328 32 32 32h114.746l246.626 246.628c9.154 9.154 22.916 11.89 34.874 6.936 11.958-4.952 19.754-16.622 19.754-29.564v-832c0-12.944-7.796-24.612-19.754-29.564-3.958-1.64-8.118-2.436-12.24-2.436z" />
<glyph unicode="&#xe61e;" glyph-name="volume-mute2" d="M960 340.852v-84.852h-84.852l-107.148 107.148-107.148-107.148h-84.852v84.852l107.148 107.148-107.148 107.148v84.852h84.852l107.148-107.148 107.148 107.148h84.852v-84.852l-107.148-107.148 107.148-107.148zM416.006 0c-8.328 0-16.512 3.25-22.634 9.374l-246.626 246.626h-114.746c-17.672 0-32 14.326-32 32v320c0 17.672 14.328 32 32 32h114.746l246.626 246.628c9.154 9.154 22.916 11.89 34.874 6.936 11.958-4.952 19.754-16.622 19.754-29.564v-832c0-12.944-7.796-24.612-19.754-29.564-3.958-1.64-8.118-2.436-12.24-2.436z" />
<glyph unicode="&#xe61f;" glyph-name="github" d="M512.008 947.358c-282.738 0-512.008-229.218-512.008-511.998 0-226.214 146.704-418.132 350.136-485.836 25.586-4.738 34.992 11.11 34.992 24.632 0 12.204-0.48 52.542-0.696 95.324-142.448-30.976-172.504 60.41-172.504 60.41-23.282 59.176-56.848 74.916-56.848 74.916-46.452 31.778 3.51 31.124 3.51 31.124 51.4-3.61 78.476-52.766 78.476-52.766 45.672-78.27 119.776-55.64 149.004-42.558 4.588 33.086 17.852 55.68 32.506 68.464-113.73 12.942-233.276 56.85-233.276 253.032 0 55.898 20.004 101.574 52.76 137.428-5.316 12.9-22.854 64.972 4.952 135.5 0 0 43.006 13.752 140.84-52.49 40.836 11.348 84.636 17.036 128.154 17.234 43.502-0.198 87.336-5.886 128.256-17.234 97.734 66.244 140.656 52.49 140.656 52.49 27.872-70.528 10.35-122.6 5.036-135.5 32.82-35.856 52.694-81.532 52.694-137.428 0-196.654-119.778-239.95-233.79-252.624 18.364-15.89 34.724-47.046 34.724-94.812 0-68.508-0.596-123.644-0.596-140.508 0-13.628 9.222-29.594 35.172-24.566 203.322 67.776 349.842 259.626 349.842 485.768 0 282.78-229.234 511.998-511.992 511.998z" />
<glyph unicode="&#xe620;" glyph-name="eagle-emblem" d="M70.62 915.4c-15.624-40.932-26.344-84.686-30.62-130.156l207.41-55.58-9.676-36.104-199.746 53.526c-0.024-1.908-0.070-3.81-0.070-5.72 0-28.11 2.392-55.66 6.96-82.46h188.292v-37.374h-180.384c6.736-26.648 15.66-52.414 26.58-77.094l158.368 42.432 9.676-36.1-151.28-40.54c11.988-22.192 25.634-43.34 40.792-63.272l123.866 71.512 18.686-32.366-118.44-68.384c15.564-17.456 32.36-33.77 50.264-48.8l89.46 89.452 26.428-26.43-86.11-86.104c17.926-12.812 36.748-24.43 56.372-34.714l57.468 99.544 32.372-18.692-55.974-96.944c25.090-10.734 51.26-19.394 78.312-25.74 1.98-7.132 4.16-14.206 6.5-21.186-24.72-19.986-48.326-40.98-70.24-63.456-8.916 4.32-18.92 6.746-29.5 6.746-37.414 0-67.748-30.328-67.748-67.746 0-3.43 0.26-6.804 0.754-10.1 4.040 23.028 24.12 40.53 48.306 40.53 6.206 0 12.136-1.164 17.6-3.266-20.206-24.204-38.386-50.16-53.812-78.46 27.794 15.088 55.368 31.51 82.3 49.528 1.92-5.26 2.97-10.936 2.97-16.86 0-24.244-17.592-44.368-40.704-48.336 3.37-0.516 6.824-0.786 10.336-0.786 37.42 0 67.746 30.336 67.746 67.75 0 8.34-1.514 16.32-4.268 23.696 20.066 14.934 39.646 30.86 58.52 47.968 5.956-11.41 12.406-22.068 19.3-31.636l-87.060-174.34c96.534-44.94 231.4-45.52 315.744 0l-84.26 168.72c7.444 9.62 14.42 20.5 20.852 32.28 17.154-15.234 34.856-29.54 52.966-43.016-2.75-7.37-4.26-15.34-4.26-23.672 0-37.414 30.33-67.746 67.748-67.746 3.516 0 6.972 0.264 10.344 0.78-23.12 3.966-40.71 24.090-40.71 48.336 0 5.928 1.050 11.61 2.98 16.87 26.928-18.012 54.494-34.446 82.286-49.534-15.42 28.296-33.56 54.272-53.754 78.476 5.452 2.090 11.364 3.246 17.55 3.246 24.18 0 44.26-17.5 48.3-40.524 0.492 3.294 0.754 6.664 0.754 10.094 0 37.42-30.332 67.746-67.75 67.746-10.55 0-20.536-2.41-29.44-6.71-20.014 20.54-41.48 39.816-63.892 58.24 3.876 11.040 7.316 22.36 10.264 33.772 15.82 4.736 31.3 10.28 46.4 16.566l-56.994 98.712 32.372 18.692 58.68-101.632c19.96 10.22 39.11 21.8 57.344 34.616l-88.292 88.294 26.43 26.432 91.852-91.844c18.29 15.114 35.44 31.57 51.332 49.2l-121.9 70.38 18.686 32.364 127.496-73.608c15.52 20.174 29.492 41.614 41.74 64.14l-155.86 41.766 9.674 36.1 163.068-43.694c11.176 25.066 20.314 51.25 27.168 78.356h-185.672v37.374h193.554c4.564 26.8 6.96 54.348 6.96 82.46 0 2.38-0.050 4.752-0.088 7.126l-204.994-54.936-9.672 36.108 212.548 56.952c-4.36 44.98-15.040 88.26-30.508 128.78h-0.008c-53.034-83.020-167.184-147.868-309.528-174.040 25.34-31.206 40.884-71.040 40.884-114.466 0-62.392-31.446-117.436-79.208-150-42.54 24.814-85.814 57.756-91.040 87.628l35.306 7.62-4.47 20.704c31.34 22.67 67.872 18.276 106.866 0.020l-36.604 80.828-83.806-18.080-5.692 26.376v0.010l-161.74-34.906 40.916-60.532c-17.19-39.356-5.434-83.36 10.9-117.12-54.408 31.14-91.184 89.996-91.184 157.46 0 43.426 15.544 83.26 40.88 114.464-142.336 26.166-256.484 91.014-309.52 174.034zM503.52 650.266c10.488 0.112 19.96-7.146 22.26-17.8 2.624-12.17-5.114-24.168-17.288-26.794s-24.17 5.112-26.796 17.286c-2.628 12.17 5.112 24.172 17.284 26.8 1.52 0.326 3.040 0.49 4.54 0.506z" />
<glyph unicode="&#xe621;" glyph-name="treasure-map" d="M485.126 904.688c-20.124-0.066-40.252-0.41-60.376-1l12.188-131.188-122.19 125.126c-62.512-5.14-124.988-13.31-187.5-25.064l68.5-56.81-96.126 1.126c70.316-200.336 13.872-365.15-0.624-584l191.5-211.688c20 2.652 39.712 4.846 59.126 6.688l43.060 84.312 37.064-57.688 83 67.188 1.626-86.188c165.886 0.484 315.468-18.196 471.374-15.626-56.3 146.020-62.26 287.124-63.75 418.314l-66.5 38.25 65.376 67.748c-0.86 42.666-2.684 84.012-7.25 123.874l-114.876-1.436 100.5 83.314c-7.686 30.954-18.104 60.8-32.25 89.436l-59.060 47.812c-107.6 10.976-215.214 17.848-322.816 17.5zM602.562 830.748l63.378-148.498 44.872 62.876 14.626-24.752 81.31-138.248-32.25-18.94-66.75 113.376-84.876-118.81-30.374 21.75 48 67.188-43.94 102.812-49.12-80.126 23.934-45.25-33.060-17.5-36.5 69-49.69-116.374-34.374 14.688 80.44 188.432 28.936-54.684 56.5 92.25 18.936 30.81zM212.878 718.248h0.186l0.252-0.060 0.188-0.060 9.56-2.252 0.19-0.064 0.25-0.060 9.562-2.5 8.564-2.5 0.252-0.064 0.248-0.060 8.188-2.628 0.25-0.060 0.252-0.128 0.44-0.124-11.69-33.060-0.686-2.19h-0.060l-0.44 0.12-7.124 2.314-0.5 0.126-7.626 2.25-0.5 0.126-8.124 2.124-0.44 0.126-8.686 2-0.186 0.060-0.25 0.064 2.31 9.812 5.626 26.69zM288.626 691.5l5.314-3.060 0.372-0.19 0.312-0.25 5.314-3.312 0.31-0.25 0.376-0.252 4.874-3.376 0.376-0.25 0.374-0.31 4.56-3.5 0.38-0.25 0.31-0.312 4.25-3.56 0.312-0.316 0.38-0.312 3.872-3.688 0.376-0.312 0.312-0.376 1.688-1.75-27.060-25.75-0.94 1-0.75 0.688-2.44 2.312-0.188 0.188-0.5 0.44-2.81 2.368-0.312 0.25-0.376 0.314-3.124 2.44-0.376 0.248-0.312 0.25-3.56 2.436-0.628 0.38-0.060 0.060-4.564 2.876-4.688 2.686 18.626 32.44zM346 626.75l0.5-1.688 0.126-0.5 0.186-0.5 1-4.12 0.126-0.44 0.060-0.5 0.812-4.126 0.060-0.5 0.128-0.5 0.56-4.124 0.064-0.44v-0.5l0.376-4.12 0.060-0.44v-0.44l0.19-4.12v-5.44l-0.060-0.376-0.19-4.124v-0.44l-0.060-0.372-0.38-4.128v-0.312l-0.060-0.376-0.312-2.312-37.060 4.812 0.248 1.564 0.060 0.688 0.252 2.686v0.128l0.060 0.624 0.128 3.376v3.374l-0.126 2.38-0.25 3.186-0.56 4.124-0.628 3.126-0.75 2.812-0.060 0.312-0.25 0.688 35.75 11.060zM303.5 555.31l34.56-14.12-2.186-5.314-0.124-0.314-0.126-0.31-3.25-7.25-0.124-0.25-0.126-0.25-3.374-6.94-0.060-0.186-0.128-0.186-3.372-6.688-0.126-0.126-0.060-0.124-3.376-6.312-0.060-0.128-0.064-0.124-0.626-1.126-32.686 18.128 0.5 0.874 0.124 0.252 3.060 5.75 0.19 0.314 3.064 5.94 0.188 0.436 2.94 6.060 0.248 0.5 2.812 6.19 0.25 0.626 1.94 4.686zM270.56 487.124l35.38-12.060-0.314-0.814-0.064-0.126-2.060-7-1.812-6.874-0.060-0.44-0.128-0.372-1.312-6.628-0.876-5.374-0.060-0.44-0.064-0.5-0.376-3.812-37.188 4 0.564 4.75v0.5l0.060 0.436 1.19 7.186 0.060 0.44 0.060 0.376 1.564 7.436 0.064 0.44 0.124 0.372 1.94 7.688 0.060 0.376 0.126 0.374 2.372 7.88 0.126 0.372 0.12 0.376 0.5 1.44zM686.25 452.374l1.75-0.186h0.44l0.372-0.060 3.812-0.5 0.44-0.066 0.374-0.060 3.748-0.688 0.374-0.060 0.44-0.064 3.626-0.812 0.436-0.126 0.38-0.126 3.56-0.936 0.44-0.126 0.372-0.12 3.44-1.128 0.876-0.25 3.31-1.248 0.434-0.188 0.376-0.186 3.69-1.564 0.372-0.188 3.188-1.5 0.376-0.25 0.436-0.19 3.060-1.688 0.38-0.184 0.374-0.25 2.436-1.5-19.5-31.876-2.248 1.376-0.188 0.124-1.5 0.812-0.812 0.38-1.5 0.81-0.374 0.126-0.44 0.25-2.5 1-1.688 0.624-2.56 0.876-0.564 0.124-0.312 0.126-1.876 0.5-0.688 0.124-0.124 0.060-2 0.44-2.94 0.56-0.436 0.066-0.374 0.060-2.88 0.376h-0.12l-1 0.066 3.31 37.25zM643.81 449.374l4.752-23.75 2.94-12.874-0.376-0.060-4-0.88-0.312-0.060-0.188-0.060-4-1.066-5.064-1.436-4.31-1.376-0.44-0.124-4.434-1.5-0.44-0.188-4.624-1.688-0.374-0.124-4.316-1.688-13.624 34.812 4.688 1.812 0.188 0.126 0.25 0.060 5.374 1.94 0.188 0.126 0.25 0.060 5.248 1.752 0.25 0.124 0.184 0.060 5.188 1.628 0.25 0.060 0.19 0.066 5.126 1.436 0.186 0.066 0.252 0.060 5 1.314 0.25 0.060 0.252 0.064 4.876 1.064 0.25 0.060 0.248 0.064 0.124 0.060zM568 417.688l21.94-30.312-3.44-2.44-0.188-0.186-0.188-0.126-6.5-4.436-0.25-0.126-6.814-4.436-6.56-4-0.188-0.124-0.25-0.126-6.62-3.812-0.19-0.12-0.25-0.128-2.126-1.188-17.874 32.814 1.75 1 0.376 0.184 6.314 3.626 5.748 3.5 0.374 0.25 5.628 3.688 0.44 0.25 5.872 4.060 3 2.188zM300.94 412.248l0.248-0.874 0.124-0.56 0.94-2.752 0.12-0.248 1.816-4.374 0.124-0.38 1.188-2.372 0.25-0.44 1.688-3 0.248-0.374 1.94-2.874 0.184-0.25 2.19-2.81 0.188-0.19 2.56-2.812-27.62-25.19-2.752 3-0.44 0.44-0.374 0.5-3.248 4.060-0.374 0.5-0.38 0.56-2.936 4.316-0.374 0.5-0.312 0.56-2.69 4.564-0.312 0.56-0.314 0.566-2.376 4.75-0.25 0.624-0.25 0.56-2.060 5-0.252 0.628-0.19 0.62-1.75 5.19-0.188 0.626-0.188 0.624-0.374 1.44 36.188 9.31zM761.56 405.624l1.69-2.624 0.126-0.312 0.186-0.25 1.94-3.38 0.126-0.248 0.186-0.25 1.876-3.5 0.124-0.248 0.126-0.312 1.81-3.56 0.126-0.252 0.124-0.25 1.688-3.752 0.124-0.25 0.126-0.19 1.62-3.876 0.066-0.25 0.124-0.186 1.56-3.94 0.066-0.25 0.124-0.25 1.5-4.060 0.060-0.19 0.066-0.188 1.436-4.184 0.066-0.188 0.060-0.25 0.314-1-35.626-11.252-0.186 0.624-0.188 0.44-1.126 3.31-0.124 0.44-1.188 3.188-0.184 0.44-1.188 3.060-0.188 0.44-1.25 2.872-0.188 0.5-1.248 2.75-0.25 0.5-1.56 3.126-1.312 2.436-0.312 0.5-1.314 2.312-0.372 0.564-1.312 2.124 31.686 19.812zM506.75 383.812l13.94-34.688-6-2.436-0.19-0.060-0.188-0.066-7.188-2.684-0.186-0.126-0.252-0.060-7.376-2.566-0.25-0.060-7.622-2.502-7.314-2.184-0.188-0.064-0.19-0.060-0.376-0.064-9.936 36 0.372 0.124 6.5 1.94 0.376 0.124 6.44 2.060 0.434 0.126 6.814 2.44v-0.060l6.376 2.434 0.44 0.188 5.56 2.252zM339.25 371.5l0.5-0.25 0.126-0.060 4.436-1.752 0.75-0.252 3.94-1.376 0.5-0.124 0.312-0.126 4.188-1.184 0.25-0.064 0.44-0.124 5.12-1.25 4.628-1 0.372-0.066 0.312-0.060 5.5-0.876-2.936-17.44-0.188-1-2.44-18.56-0.372 0.060-0.312 0.060-6.814 1.19-6.372 1.31-0.376 0.066-5.874 1.436-0.314 0.128-0.376 0.124-5.688 1.626-0.372 0.12-0.44 0.128-5.872 2.002-0.44 0.188-5.31 2.060-0.376 0.188-1.75 0.748 15.25 34.128zM439.126 364.44l5.686-36.94-6.688-1-0.25-0.060h-0.25l-7.124-0.94h-0.25l-0.188-0.060-7.12-0.69-0.252-0.060h-0.25l-7-0.566h-0.502l-6.94-0.374h-0.5l-2.312-0.060-0.812 37.372 1.812 0.066h0.5l5.94 0.312 6.5 0.434v0.064l6.62 0.62 0.38 0.066h0.12l6.19 0.812 0.248 0.060h0.188l6.25 0.94zM788.126 328.44l0.75-4.752 0.060-0.25v-0.316l1.44-10.436v-0.25l0.060-0.252 1.126-10.812v-0.438l0.94-11.128-37.25-3-0.876 10.688-0.060 0.44-1 9.81v0.126l-0.064 0.436-1.25 9.312-0.060 0.564-0.752 4.25 36.94 6zM653 266.81c37.786-6.92 89.826-32.374 137.75-67.75 14.92 19.67 28.85 40.8 42.626 62.19l60.124-25.94c-9.372-24.42-29.98-51.036-57.126-74.372 34.034-32.332 61.74-69.030 74-105.88-27.612 36.216-62.14 63.46-100.56 85.628-46.774-31.692-105.364-51.86-159.252-40.876 45.83 8.766 81.288 33.12 111.628 65.188-32.924 15.008-67.596 27.754-102.5 40.188l-6.688 61.624z" />
<glyph unicode="&#xe622;" glyph-name="battle-gear" d="M524.812 925.624c51.034-17.798 111.976-55.048 145.94-111.064-28.71-95.792-28.706-114.518 0-210.312-36.528-29.464-73.712-47.16-111-53.69 4.21 51.14 4.478 102.304-2.75 153.44 26.728 4.116 43.772 13.442 70.5 26.436v64.44c-73.946-37.554-125.894-38.192-197.626 0v-64.436c27.252-15.758 46.75-24.782 74-27.748-9.51-51.12-6.376-102.254-2.25-153.38-40.956 5.42-81.724 24.014-121.564 54.94 35.088 95.794 35.088 114.518 0 210.314 36.716 55.036 90.31 93.416 144.75 111.060zM265.626 909.186c54.326-214.384 49.498-430.64 49.334-660.52 37.682 3.816 75.214 11.036 112.194 20.92v-57.11h-137.808c-14.73-70.050-12.646-140.104 1.744-210.156h-56.26c15.016 70.052 19.502 140.106 2.072 210.156h-138.132v57.108c36.89-12 74.374-19.166 112.054-22.24 0.1 231.184 2.988 441.016 54.8 661.844zM444.56 504.44h480.88c0-235.188-32.2-473.872-240.566-515.942-189.276 49.256-240.31 281.4-240.31 515.94z" />
<glyph unicode="&#xe623;" glyph-name="home3" d="M1024 352l-192 192v288h-128v-160l-192 192-512-512v-32h128v-320h320v192h128v-192h320v320h128z" />
<glyph unicode="&#xe624;" glyph-name="language-choice" horiz-adv-x="1149" d="M445.057 238.965l-114.189 293.454h-33.665l-117.391-293.454c-5.455-1.239-11.007-2.977-16.607-5.23-5.616-2.285-10.846-4.956-15.69-7.966v-17.299h112.387v17.299c-12.455 6.968-25.635 11.377-39.586 13.195l26.841 72.334h101.010l26.375-72.334c-6.067-1.239-12.423-3.041-19.101-5.471-6.694-2.414-12.922-4.989-18.651-7.724v-17.299h142.382v17.299c-4.538 3.009-9.848 5.68-15.899 7.966-6.083 2.253-12.149 3.991-18.216 5.23zM258.068 340.875l31.396 85.98 10.009 40.037h0.901l8.641-39.12 29.577-86.897h-80.524zM1103.913 960h-563.221c-24.846 0-45.058-20.212-45.058-45.058v-225.707h-473.106c-12.439 0-22.529-10.074-22.529-22.529v-585.331c0-12.455 10.090-22.529 22.529-22.529h202.76v-100.318c0-8.609 4.908-16.462 12.632-20.244 3.138-1.545 6.517-2.285 9.897-2.285 4.924 0 9.816 1.609 13.855 4.747l151.603 118.099h217.548c12.439 0 22.529 10.074 22.529 22.529v247.817h48.888c7.258 0 20.437-4.602 26.133-9.124l118.647-94.38c7.306-5.809 15.352-8.867 23.269-8.867 15.352 0 30.897 12.037 30.897 35.032v77.354h202.76c24.846 0 45.058 20.212 45.058 45.058v540.692c-0.032 24.814-20.244 45.042-45.090 45.042zM608.279 103.904h-202.76c-5.021 0-9.897-1.674-13.855-4.747l-121.318-94.508v76.743c0 12.455-10.090 22.529-22.529 22.529h-202.76v540.258h450.577v-269.928c0-24.846 20.212-45.058 45.058-45.058h67.587v-225.288zM1103.913 374.25h-202.76c-24.846 0-45.058-20.212-45.058-45.058l-0.016-53.168-99.674 79.285c-13.775 10.975-36.561 18.94-54.182 18.94h-161.532v540.692h563.221v-540.692zM639.98 443.285h25.264v20.115h98.435v125.824h-123.683v-145.939zM665.228 564.844h72.752v-77.049h-72.752v77.049zM620.283 767.266h157.090v-24.396h-157.090v24.396zM642.973 825.036h118.115v-23.543h-118.115v23.543zM812.47 442.432h27.389v19.697h124.971v-17.122h27.823v153.212h-180.182v-155.787zM839.859 572.102h124.971v-83.453h-124.971v83.453zM1022.6 659.835h-42.789v90.308h-97.566l7.258 47.938h117.279v25.683h-212.737v-25.683h67.635c-2.575-14.982-5.133-31.685-7.708-47.938h-51.366v-25.683h47.085c-4.264-23.543-8.561-45.798-12.407-64.642h-58.639v-26.085h243.939v26.101zM951.988 659.835h-86.044c3.878 18.828 8.143 41.517 11.989 64.642h74.056v-64.642zM640.414 707.355h121.978v-23.543h-121.978v23.543zM640.414 648.281h121.978v-23.543h-121.978v23.543z" />
<glyph unicode="&#xe625;" glyph-name="bubbles4" horiz-adv-x="1152" d="M480 832c-50.666 0-99.582-7.95-145.386-23.628-42.924-14.694-81.114-35.436-113.502-61.646-60.044-48.59-93.112-110.802-93.112-175.174 0-35.99 10.066-70.948 29.92-103.898 20.686-34.34 51.898-65.794 90.26-90.958 30.44-19.968 50.936-51.952 56.362-87.95 0.902-5.99 1.63-12.006 2.18-18.032 2.722 2.52 5.424 5.114 8.114 7.794 24.138 24.040 56.688 37.312 90.322 37.312 5.348 0 10.718-0.336 16.094-1.018 19.36-2.452 39.124-3.696 58.748-3.696 50.666 0 99.58 7.948 145.384 23.628 42.926 14.692 81.116 35.434 113.504 61.644 60.046 48.59 93.112 110.802 93.112 175.174s-33.066 126.582-93.112 175.174c-32.388 26.212-70.578 46.952-113.504 61.646-45.804 15.678-94.718 23.628-145.384 23.628zM480 960v0c265.096 0 480-173.914 480-388.448s-214.904-388.448-480-388.448c-25.458 0-50.446 1.62-74.834 4.71-103.106-102.694-222.172-121.108-341.166-123.814v25.134c64.252 31.354 116 88.466 116 153.734 0 9.106-0.712 18.048-2.030 26.794-108.558 71.214-177.97 179.988-177.97 301.89 0 214.534 214.904 388.448 480 388.448zM996 89.314c0-55.942 36.314-104.898 92-131.772v-21.542c-103.126 2.318-197.786 18.102-287.142 106.126-21.14-2.65-42.794-4.040-64.858-4.040-95.47 0-183.408 25.758-253.614 69.040 144.674 0.506 281.26 46.854 384.834 130.672 52.208 42.252 93.394 91.826 122.414 147.348 30.766 58.866 46.366 121.582 46.366 186.406 0 10.448-0.45 20.836-1.258 31.168 72.57-59.934 117.258-141.622 117.258-231.676 0-104.488-60.158-197.722-154.24-258.764-1.142-7.496-1.76-15.16-1.76-22.966z" />
<glyph unicode="&#xe626;" glyph-name="trophy" d="M832 768v128h-640v-128h-192v-128c0-106.038 85.958-192 192-192 20.076 0 39.43 3.086 57.62 8.802 46.174-66.008 116.608-113.796 198.38-130.396v-198.406h-64c-70.694 0-128-57.306-128-128h512c0 70.694-57.306 128-128 128h-64v198.406c81.772 16.6 152.206 64.386 198.38 130.396 18.19-5.716 37.544-8.802 57.62-8.802 106.042 0 192 85.962 192 192v128h-192zM192 524c-63.962 0-116 52.038-116 116v64h116v-64c0-40.186 7.43-78.632 20.954-114.068-6.802-1.246-13.798-1.932-20.954-1.932zM948 640c0-63.962-52.038-116-116-116-7.156 0-14.152 0.686-20.954 1.932 13.524 35.436 20.954 73.882 20.954 114.068v64h116v-64z" />
<glyph unicode="&#xe627;" glyph-name="download2" d="M896 448h-160l-224-224-224 224h-160l-128-256v-64h1024v64l-128 256zM0 64h1024v-64h-1024v64zM576 640v256h-128v-256h-224l288-288 288 288h-224z" />
<glyph unicode="&#xe628;" glyph-name="upload2" d="M0 64h1024v-64h-1024zM1024 192v-64h-1024v64l128 256h256v-128h256v128h256zM224 640l288 288 288-288h-224v-256h-128v256z" />
<glyph unicode="&#xe629;" glyph-name="cross" d="M1014.662 137.34c-0.004 0.004-0.008 0.008-0.012 0.010l-310.644 310.65 310.644 310.65c0.004 0.004 0.008 0.006 0.012 0.010 3.344 3.346 5.762 7.254 7.312 11.416 4.246 11.376 1.824 24.682-7.324 33.83l-146.746 146.746c-9.148 9.146-22.45 11.566-33.828 7.32-4.16-1.55-8.070-3.968-11.418-7.31 0-0.004-0.004-0.006-0.008-0.010l-310.648-310.652-310.648 310.65c-0.004 0.004-0.006 0.006-0.010 0.010-3.346 3.342-7.254 5.76-11.414 7.31-11.38 4.248-24.682 1.826-33.83-7.32l-146.748-146.748c-9.148-9.148-11.568-22.452-7.322-33.828 1.552-4.16 3.97-8.072 7.312-11.416 0.004-0.002 0.006-0.006 0.010-0.010l310.65-310.648-310.65-310.652c-0.002-0.004-0.006-0.006-0.008-0.010-3.342-3.346-5.76-7.254-7.314-11.414-4.248-11.376-1.826-24.682 7.322-33.83l146.748-146.746c9.15-9.148 22.452-11.568 33.83-7.322 4.16 1.552 8.070 3.97 11.416 7.312 0.002 0.004 0.006 0.006 0.010 0.010l310.648 310.65 310.648-310.65c0.004-0.002 0.008-0.006 0.012-0.008 3.348-3.344 7.254-5.762 11.414-7.314 11.378-4.246 24.684-1.826 33.828 7.322l146.746 146.748c9.148 9.148 11.57 22.454 7.324 33.83-1.552 4.16-3.97 8.068-7.314 11.414z" />
<glyph unicode="&#xe62a;" glyph-name="volume-low" d="M549.020 218.98c-12.286 0-24.566 4.686-33.942 14.058-18.746 18.746-18.746 49.134 0 67.88 81.1 81.1 81.1 213.058 0 294.156-18.746 18.746-18.746 49.138 0 67.882s49.136 18.744 67.882 0c118.53-118.53 118.53-311.392 0-429.922-9.372-9.368-21.656-14.054-33.94-14.054zM416.006 0c-8.328 0-16.512 3.25-22.634 9.374l-246.626 246.626h-114.746c-17.672 0-32 14.326-32 32v320c0 17.672 14.328 32 32 32h114.746l246.626 246.628c9.154 9.154 22.916 11.89 34.874 6.936 11.958-4.952 19.754-16.622 19.754-29.564v-832c0-12.944-7.796-24.612-19.754-29.564-3.958-1.64-8.118-2.436-12.24-2.436z" />
<glyph unicode="&#xe62b;" glyph-name="facebook2" d="M853.35 960h-682.702c-94.25 0-170.648-76.42-170.648-170.686v-682.63c0-94.266 76.398-170.684 170.648-170.684h341.352v448h-128v128h128v96c0 88.366 71.634 160 160 160h160v-128h-160c-17.674 0-32-14.328-32-32v-96h176l-32-128h-144v-448h213.35c94.25 0 170.65 76.418 170.65 170.684v682.63c0 94.266-76.4 170.686-170.65 170.686z" />
<glyph unicode="&#xe62c;" glyph-name="book" d="M896 832v-832h-672c-53.026 0-96 42.98-96 96s42.974 96 96 96h608v768h-640c-70.398 0-128-57.6-128-128v-768c0-70.4 57.602-128 128-128h768v896h-64zM224.056 128v0c-0.018-0.002-0.038 0-0.056 0-17.672 0-32-14.326-32-32s14.328-32 32-32c0.018 0 0.038 0.002 0.056 0.002v-0.002h607.89v64h-607.89z" />
<glyph unicode="&#xe62d;" glyph-name="twitter2" d="M853.342 960h-682.656c-93.874 0-170.686-76.81-170.686-170.69v-682.624c0-93.936 76.812-170.686 170.686-170.686h682.656c93.876 0 170.658 76.75 170.658 170.69v682.62c0 93.88-76.782 170.69-170.658 170.69zM766.478 578.52c0.252-5.632 0.38-11.296 0.38-16.988 0-173.51-132.070-373.588-373.584-373.588-74.15 0-143.168 21.738-201.276 58.996 10.272-1.218 20.724-1.84 31.322-1.84 61.518 0 118.134 20.992 163.072 56.21-57.458 1.054-105.948 39.020-122.658 91.184 8.018-1.532 16.244-2.36 24.704-2.36 11.976 0 23.578 1.61 34.592 4.61-60.064 12.066-105.326 65.132-105.326 128.75 0 0.554 0 1.104 0.012 1.652 17.7-9.834 37.948-15.742 59.47-16.424-35.232 23.546-58.414 63.736-58.414 109.292 0 24.064 6.476 46.62 17.78 66.010 64.76-79.44 161.51-131.712 270.634-137.19-2.238 9.612-3.4 19.632-3.4 29.924 0 72.512 58.792 131.298 131.304 131.298 37.766 0 71.892-15.944 95.842-41.462 29.908 5.886 58.008 16.814 83.38 31.862-9.804-30.662-30.624-56.394-57.732-72.644 26.56 3.174 51.866 10.232 75.412 20.674-17.594-26.328-39.854-49.454-65.514-67.966z" />
<glyph unicode="&#xe62e;" glyph-name="stats-dots" d="M128 64h896v-128h-1024v1024h128zM288 128c-53.020 0-96 42.98-96 96s42.98 96 96 96c2.828 0 5.622-0.148 8.388-0.386l103.192 171.986c-9.84 15.070-15.58 33.062-15.58 52.402 0 53.020 42.98 96 96 96s96-42.98 96-96c0-19.342-5.74-37.332-15.58-52.402l103.192-171.986c2.766 0.238 5.56 0.386 8.388 0.386 2.136 0 4.248-0.094 6.35-0.23l170.356 298.122c-10.536 15.408-16.706 34.036-16.706 54.11 0 53.020 42.98 96 96 96s96-42.98 96-96c0-53.020-42.98-96-96-96-2.14 0-4.248 0.094-6.35 0.232l-170.356-298.124c10.536-15.406 16.706-34.036 16.706-54.11 0-53.020-42.98-96-96-96s-96 42.98-96 96c0 19.34 5.74 37.332 15.578 52.402l-103.19 171.984c-2.766-0.238-5.56-0.386-8.388-0.386s-5.622 0.146-8.388 0.386l-103.192-171.986c9.84-15.068 15.58-33.060 15.58-52.4 0-53.020-42.98-96-96-96z" />
<glyph unicode="&#xe62f;" glyph-name="apple" d="M791.498 415.908c-1.294 129.682 105.758 191.876 110.542 194.966-60.152 88.020-153.85 100.078-187.242 101.472-79.742 8.074-155.596-46.948-196.066-46.948-40.368 0-102.818 45.754-168.952 44.552-86.916-1.292-167.058-50.538-211.812-128.38-90.304-156.698-23.126-388.84 64.89-515.926 43.008-62.204 94.292-132.076 161.626-129.58 64.842 2.588 89.362 41.958 167.756 41.958s100.428-41.958 169.050-40.67c69.774 1.296 113.982 63.398 156.692 125.796 49.39 72.168 69.726 142.038 70.924 145.626-1.548 0.706-136.060 52.236-137.408 207.134zM662.562 796.478c35.738 43.358 59.86 103.512 53.28 163.522-51.478-2.096-113.878-34.29-150.81-77.55-33.142-38.376-62.148-99.626-54.374-158.436 57.466-4.484 116.128 29.204 151.904 72.464z" />
<glyph unicode="&#xe630;" glyph-name="android" d="M896 576c-35.2 0-64-28.8-64-64v-256c0-35.2 28.8-64 64-64s64 28.8 64 64v256c0 35.2-28.8 64-64 64zM128 576c-35.2 0-64-28.8-64-64v-256c0-35.2 28.8-64 64-64s64 28.8 64 64v256c0 35.2-28.802 64-64 64zM224 224c0-53.020 42.98-96 96-96v0-128c0-35.2 28.8-64 64-64s64 28.8 64 64v128h128v-128c0-35.2 28.8-64 64-64s64 28.8 64 64v128c53.020 0 96 42.98 96 96v352h-576v-352zM798.216 639.998c-9.716 87.884-59.004 163.792-129.62 209.646l32.024 64.046c7.904 15.806 1.496 35.028-14.31 42.932s-35.030 1.496-42.932-14.312l-32.142-64.286-8.35 3.316c-28.568 9.502-59.122 14.66-90.886 14.66-31.762 0-62.316-5.158-90.888-14.656l-8.348-3.316-32.142 64.282c-7.904 15.808-27.128 22.212-42.932 14.312-15.808-7.904-22.214-27.126-14.312-42.932l32.022-64.046c-70.616-45.852-119.904-121.762-129.622-209.644v-32h574.222v31.998h-1.784zM416 704c-17.674 0-32 14.328-32 32 0 17.648 14.288 31.958 31.93 31.996 0.032 0 0.062-0.002 0.094-0.002 0.018 0 0.036 0.002 0.052 0.002 17.638-0.042 31.924-14.35 31.924-31.996 0-17.672-14.326-32-32-32zM608 704c-17.674 0-32 14.328-32 32 0 17.646 14.286 31.954 31.924 31.996 0.016 0 0.034-0.002 0.050-0.002 0.032 0 0.064 0.002 0.096 0.002 17.64-0.038 31.93-14.348 31.93-31.996 0-17.672-14.326-32-32-32z" />
<glyph unicode="&#xe631;" glyph-name="bug" d="M1024 384v64h-193.29c-5.862 72.686-31.786 139.026-71.67 192.25h161.944l70.060 280.24-62.090 15.522-57.94-231.76h-174.68c-0.892 0.694-1.796 1.374-2.698 2.056 6.71 19.502 10.362 40.422 10.362 62.194 0.002 105.76-85.958 191.498-191.998 191.498s-192-85.738-192-191.5c0-21.772 3.65-42.692 10.362-62.194-0.9-0.684-1.804-1.362-2.698-2.056h-174.68l-57.94 231.76-62.090-15.522 70.060-280.24h161.944c-39.884-53.222-65.806-119.562-71.668-192.248h-193.29v-64h193.37c3.802-45.664 15.508-88.812 33.638-127.75h-123.992l-70.060-280.238 62.090-15.524 57.94 231.762h112.354c58.692-78.032 147.396-127.75 246.66-127.75s187.966 49.718 246.662 127.75h112.354l57.94-231.762 62.090 15.524-70.060 280.238h-123.992c18.13 38.938 29.836 82.086 33.636 127.75h193.37z" />
<glyph unicode="&#xe632;" glyph-name="lifebuoy" d="M512 960c-282.77 0-512-229.23-512-512s229.23-512 512-512 512 229.23 512 512-229.23 512-512 512zM320 448c0 106.040 85.96 192 192 192s192-85.96 192-192-85.96-192-192-192-192 85.96-192 192zM925.98 276.524v0l-177.42 73.49c12.518 30.184 19.44 63.276 19.44 97.986s-6.922 67.802-19.44 97.986l177.42 73.49c21.908-52.822 34.020-110.73 34.020-171.476s-12.114-118.654-34.020-171.476v0zM683.478 861.98v0 0l-73.49-177.42c-30.184 12.518-63.276 19.44-97.988 19.44s-67.802-6.922-97.986-19.44l-73.49 177.422c52.822 21.904 110.732 34.018 171.476 34.018 60.746 0 118.654-12.114 171.478-34.020zM98.020 619.476l177.422-73.49c-12.518-30.184-19.442-63.276-19.442-97.986s6.922-67.802 19.44-97.986l-177.42-73.49c-21.906 52.822-34.020 110.73-34.020 171.476s12.114 118.654 34.020 171.476zM340.524 34.020l73.49 177.42c30.184-12.518 63.276-19.44 97.986-19.44s67.802 6.922 97.986 19.44l73.49-177.42c-52.822-21.904-110.73-34.020-171.476-34.020-60.744 0-118.654 12.114-171.476 34.020z" />
<glyph unicode="&#xe633;" glyph-name="undo2" d="M761.862-64c113.726 206.032 132.888 520.306-313.862 509.824v-253.824l-384 384 384 384v-248.372c534.962 13.942 594.57-472.214 313.862-775.628z" />
<glyph unicode="&#xe634;" glyph-name="chrome" d="M258.278 513.458l-146.532 253.802c93.818 117.464 238.234 192.74 400.254 192.74 187.432 0 351.31-100.736 440.532-251h-417.77c-7.504 0.65-15.092 1-22.762 1-121.874 0-224.578-83.644-253.722-196.542zM695.306 635h293.46c22.74-57.93 35.234-121.004 35.234-187 0-280.826-226.1-508.804-506.186-511.926l209.394 362.678c29.48 42.378 46.792 93.826 46.792 149.248 0 73.17-30.164 139.42-78.694 187zM326 448c0 102.56 83.44 186 186 186s186-83.44 186-186c0-102.56-83.44-186-186-186s-186 83.44-186 186zM582.182 195.558l-146.578-253.878c-246.532 36.884-435.604 249.516-435.604 506.32 0 91.218 23.884 176.846 65.696 251.024l209.030-362.054c41.868-89.112 132.476-150.97 237.274-150.97 24.3 0 47.836 3.34 70.182 9.558z" />
<glyph unicode="&#xe635;" glyph-name="wrench" d="M1002.934 142.124l-460.552 394.76c21.448 40.298 33.618 86.282 33.618 135.116 0 159.058-128.942 288-288 288-29.094 0-57.172-4.332-83.646-12.354l166.39-166.39c24.89-24.89 24.89-65.62 0-90.51l-101.49-101.49c-24.89-24.89-65.62-24.89-90.51 0l-166.39 166.39c-8.022-26.474-12.354-54.552-12.354-83.646 0-159.058 128.942-288 288-288 48.834 0 94.818 12.17 135.116 33.62l394.76-460.552c22.908-26.724 62.016-28.226 86.904-3.338l101.492 101.492c24.888 24.888 23.386 63.994-3.338 86.902z" />
<glyph unicode="&#xe636;" glyph-name="fire" d="M321.008-64c-68.246 142.008-31.902 223.378 20.55 300.044 57.44 83.956 72.244 167.066 72.244 167.066s45.154-58.7 27.092-150.508c79.772 88.8 94.824 230.28 82.782 284.464 180.314-126.012 257.376-398.856 153.522-601.066 552.372 312.532 137.398 780.172 65.154 832.85 24.082-52.676 28.648-141.85-20-185.126-82.352 312.276-285.972 376.276-285.972 376.276 24.082-161.044-87.296-337.144-194.696-468.73-3.774 64.216-7.782 108.528-41.55 169.98-7.58-116.656-96.732-211.748-120.874-328.628-32.702-158.286 24.496-274.18 241.748-396.622z" />
<glyph unicode="&#xe637;" glyph-name="shield" d="M960 960l-448-128-448 128c0 0-4.5-51.698 0-128l448-140.090 448 140.090c4.498 76.302 0 128 0 128zM72.19 764.894c23.986-250.696 113.49-672.234 439.81-828.894 326.32 156.66 415.824 578.198 439.81 828.894l-439.81-165.358-439.81 165.358z" />
<glyph unicode="&#xe638;" glyph-name="power" d="M384 960l-384-512h384l-256-512 896 640h-512l384 384z" />
<glyph unicode="&#xe639;" glyph-name="point-up" d="M960 352v160c0 52.934-43.066 96-96 96-17.104 0-33.176-4.494-47.098-12.368-17.076 26.664-46.958 44.368-80.902 44.368-24.564 0-47.004-9.274-64-24.504-16.996 15.23-39.436 24.504-64 24.504-11.214 0-21.986-1.934-32-5.484v229.484c0 52.934-43.066 96-96 96s-96-43.066-96-96v-394.676l-176.018 93.836c-14.536 8.4-31.126 12.84-47.982 12.84-52.934 0-96-43.066-96-96 0-26.368 10.472-50.954 29.49-69.226 0.248-0.238 0.496-0.47 0.75-0.7l239.17-218.074h-45.41c-17.672 0-32-14.326-32-32v-192c0-17.674 14.328-32 32-32h640c17.674 0 32 14.326 32 32v192c0 17.674-14.326 32-32 32h-44.222l72.844 145.69c2.222 4.442 3.378 9.342 3.378 14.31zM896 96c0-17.674-14.326-32-32-32s-32 14.326-32 32 14.326 32 32 32 32-14.326 32-32zM896 359.554l-83.776-167.554h-383.826l-290.818 265.166c-6.18 6.070-9.58 14.164-9.58 22.834 0 17.644 14.356 32 32 32 5.46 0 10.612-1.31 15.324-3.894 0.53-0.324 1.070-0.632 1.622-0.926l224-119.416c9.92-5.288 21.884-4.986 31.52 0.8 9.638 5.782 15.534 16.196 15.534 27.436v448c0 17.644 14.356 32 32 32s32-14.356 32-32v-320c0-17.672 14.326-32 32-32s32 14.328 32 32c0 17.644 14.356 32 32 32s32-14.356 32-32c0-17.672 14.326-32 32-32s32 14.328 32 32c0 17.644 14.356 32 32 32s32-14.356 32-32v-32c0-17.672 14.326-32 32-32s32 14.328 32 32c0 17.644 14.356 32 32 32s32-14.356 32-32v-152.446z" />
<glyph unicode="&#xe63a;" glyph-name="point-right" d="M416 0h160c52.934 0 96 43.066 96 96 0 17.104-4.494 33.176-12.368 47.098 26.664 17.076 44.368 46.958 44.368 80.902 0 24.564-9.276 47.004-24.504 64 15.228 16.996 24.504 39.436 24.504 64 0 11.214-1.934 21.986-5.484 32h229.484c52.934 0 96 43.066 96 96s-43.066 96-96 96h-394.676l93.836 176.018c8.4 14.536 12.84 31.126 12.84 47.982 0 52.934-43.066 96-96 96-26.368 0-50.954-10.472-69.226-29.49-0.238-0.248-0.47-0.496-0.7-0.75l-218.074-239.17v45.41c0 17.672-14.326 32-32 32h-192c-17.674 0-32-14.328-32-32v-640c0-17.674 14.326-32 32-32h192c17.674 0 32 14.326 32 32v44.222l145.69-72.844c4.444-2.222 9.342-3.378 14.31-3.378zM160 64c-17.674 0-32 14.326-32 32s14.326 32 32 32 32-14.326 32-32-14.326-32-32-32zM423.556 64l-167.556 83.778v383.824l265.168 290.818c6.066 6.18 14.162 9.58 22.832 9.58 17.644 0 32-14.356 32-32 0-5.46-1.308-10.612-3.894-15.324-0.324-0.53-0.632-1.070-0.926-1.622l-119.418-224c-5.288-9.92-4.986-21.884 0.8-31.52 5.784-9.638 16.198-15.534 27.438-15.534h448c17.644 0 32-14.356 32-32s-14.356-32-32-32h-320c-17.672 0-32-14.326-32-32s14.328-32 32-32c17.644 0 32-14.356 32-32s-14.356-32-32-32c-17.674 0-32-14.326-32-32s14.326-32 32-32c17.644 0 32-14.356 32-32s-14.356-32-32-32h-32c-17.674 0-32-14.326-32-32s14.326-32 32-32c17.644 0 32-14.356 32-32s-14.356-32-32-32h-152.444z" />
<glyph unicode="&#xe63b;" glyph-name="point-down" d="M960 544v-160c0-52.934-43.066-96-96-96-17.104 0-33.176 4.494-47.098 12.368-17.076-26.662-46.96-44.368-80.902-44.368-24.564 0-47.004 9.276-64 24.504-16.996-15.228-39.436-24.504-64-24.504-11.214 0-21.986 1.934-32 5.484v-229.484c0-52.934-43.066-96-96-96-52.936 0-96 43.066-96 96v394.676l-176.018-93.836c-14.538-8.398-31.126-12.84-47.982-12.84-52.936 0-96 43.066-96 96 0 26.368 10.472 50.952 29.488 69.226 0.248 0.238 0.496 0.47 0.75 0.7l239.17 218.074h-45.408c-17.674 0-32 14.326-32 32v192c0 17.674 14.326 32 32 32h640c17.674 0 32-14.326 32-32v-192c0-17.674-14.326-32-32-32h-44.222l72.842-145.69c2.224-4.442 3.38-9.342 3.38-14.31zM896 800c0 17.674-14.326 32-32 32s-32-14.326-32-32 14.326-32 32-32 32 14.326 32 32zM896 536.446l-83.778 167.554h-383.824l-290.82-265.168c-6.18-6.066-9.578-14.162-9.578-22.832 0-17.644 14.356-32 32-32 5.458 0 10.612 1.308 15.324 3.894 0.53 0.324 1.070 0.632 1.622 0.926l224 119.416c9.92 5.288 21.884 4.986 31.52-0.8 9.638-5.782 15.534-16.196 15.534-27.436v-448c0-17.644 14.356-32 32-32s32 14.356 32 32v320c0 17.672 14.326 32 32 32s32-14.328 32-32c0-17.644 14.356-32 32-32s32 14.356 32 32c0 17.674 14.326 32 32 32s32-14.326 32-32c0-17.644 14.356-32 32-32s32 14.356 32 32v32c0 17.674 14.326 32 32 32s32-14.326 32-32c0-17.644 14.356-32 32-32s32 14.356 32 32v152.446z" />
<glyph unicode="&#xe63c;" glyph-name="point-left" d="M608 0h-160c-52.934 0-96 43.066-96 96 0 17.104 4.494 33.176 12.368 47.098-26.662 17.076-44.368 46.958-44.368 80.902 0 24.564 9.276 47.004 24.504 64-15.228 16.996-24.504 39.436-24.504 64 0 11.214 1.934 21.986 5.484 32h-229.484c-52.934 0-96 43.066-96 96 0 52.936 43.066 96 96 96h394.676l-93.836 176.018c-8.398 14.536-12.84 31.126-12.84 47.982 0 52.936 43.066 96 96 96 26.368 0 50.952-10.472 69.224-29.488 0.238-0.248 0.472-0.496 0.7-0.75l218.076-239.17v45.408c0 17.674 14.326 32 32 32h192c17.674 0 32-14.326 32-32v-640c0-17.674-14.326-32-32-32h-192c-17.674 0-32 14.326-32 32v44.222l-145.69-72.844c-4.442-2.222-9.34-3.378-14.31-3.378zM864 64c17.674 0 32 14.326 32 32s-14.326 32-32 32-32-14.326-32-32 14.326-32 32-32zM600.446 64l167.554 83.778v383.824l-265.168 290.82c-6.066 6.18-14.162 9.578-22.832 9.578-17.644 0-32-14.356-32-32 0-5.458 1.308-10.612 3.894-15.324 0.324-0.53 0.632-1.070 0.926-1.622l119.416-224c5.29-9.92 4.988-21.884-0.798-31.52-5.784-9.638-16.198-15.534-27.438-15.534h-448c-17.644 0-32-14.356-32-32s14.356-32 32-32h320c17.672 0 32-14.326 32-32s-14.328-32-32-32c-17.644 0-32-14.356-32-32s14.356-32 32-32c17.674 0 32-14.326 32-32s-14.326-32-32-32c-17.644 0-32-14.356-32-32s14.356-32 32-32h32c17.674 0 32-14.326 32-32s-14.326-32-32-32c-17.644 0-32-14.356-32-32s14.356-32 32-32h152.446z" />
<glyph unicode="&#xe63d;" glyph-name="star-empty" d="M1024 562.95l-353.78 51.408-158.22 320.582-158.216-320.582-353.784-51.408 256-249.538-60.432-352.352 316.432 166.358 316.432-166.358-60.434 352.352 256.002 249.538zM512 206.502l-223.462-117.48 42.676 248.83-180.786 176.222 249.84 36.304 111.732 226.396 111.736-226.396 249.836-36.304-180.788-176.222 42.678-248.83-223.462 117.48z" />
<glyph unicode="&#xe63e;" glyph-name="star-half" d="M1024 562.95l-353.78 51.408-158.22 320.582-158.216-320.582-353.784-51.408 256-249.538-60.432-352.352 316.432 166.358 316.432-166.358-60.434 352.352 256.002 249.538zM512 206.502l-0.942-0.496 0.942 570.768 111.736-226.396 249.836-36.304-180.788-176.222 42.678-248.83-223.462 117.48z" />
<glyph unicode="&#xe63f;" glyph-name="sms_failed" d="M554 512.667v170h-84v-170h84zM554 340.667v86h-84v-86h84zM854 852.667c46 0 84-38 84-84v-512c0-46-38-86-84-86h-598l-170-170v768c0 46 38 84 84 84h684z" />
<glyph unicode="&#xe869;" glyph-name="build" d="M968 128.667c18-12 18-42-4-60l-98-98c-18-18-42-18-60 0l-388 388c-98-38-212-18-294 64-86 86-108 214-56 316l188-184 128 128-184 184c102 46 230 30 316-56 82-82 102-196 64-294z" />
<glyph unicode="&#xe88a;" glyph-name="home" d="M426 84.667h-212v342h-128l426 384 426-384h-128v-342h-212v256h-172v-256z" />
<glyph unicode="&#xe8af;" glyph-name="question_answer" d="M726 426.667c0-24-20-42-44-42h-426l-170-172v598c0 24 18 42 42 42h554c24 0 44-18 44-42v-384zM896 682.667c24 0 42-18 42-42v-640l-170 170h-470c-24 0-42 18-42 42v86h554v384h86z" />
<glyph unicode="&#xe8b4;" glyph-name="room" d="M512 448.667c58 0 106 48 106 106s-48 106-106 106-106-48-106-106 48-106 106-106zM512 852.667c166 0 298-132 298-298 0-224-298-554-298-554s-298 330-298 554c0 166 132 298 298 298z" />
<glyph unicode="&#xe8b8;" glyph-name="settings" d="M512 276.667c82 0 150 68 150 150s-68 150-150 150-150-68-150-150 68-150 150-150zM830 384.667l90-70c8-6 10-18 4-28l-86-148c-6-10-16-12-26-8l-106 42c-22-16-46-32-72-42l-16-112c-2-10-10-18-20-18h-172c-10 0-18 8-20 18l-16 112c-26 10-50 24-72 42l-106-42c-10-4-20-2-26 8l-86 148c-6 10-4 22 4 28l90 70c-2 14-2 28-2 42s0 28 2 42l-90 70c-8 6-10 18-4 28l86 148c6 10 16 12 26 8l106-42c22 16 46 32 72 42l16 112c2 10 10 18 20 18h172c10 0 18-8 20-18l16-112c26-10 50-24 72-42l106 42c10 4 20 2 26-8l86-148c6-10 4-22-4-28l-90-70c2-14 2-28 2-42s0-28-2-42z" />
<glyph unicode="&#xe8db;" glyph-name="thumb_down" d="M810 810.667h172v-512h-172v512zM640 810.667c46 0 86-40 86-86v-426c0-24-10-44-26-60l-280-282-46 46c-12 12-18 26-18 44v14l42 196h-270c-46 0-86 38-86 84l2 4h-2v82c0 12 2 22 6 32l130 300c12 30 42 52 78 52h384z" />
<glyph unicode="&#xe8dc;" glyph-name="thumb_up" d="M982 512.667l-2-4h2v-82c0-12-2-22-6-32l-130-300c-12-30-42-52-78-52h-384c-46 0-86 40-86 86v426c0 24 10 44 26 60l280 282 46-46c12-12 18-26 18-44v-14l-42-196h270c46 0 86-38 86-84zM42 42.667v512h172v-512h-172z" />
<glyph unicode="&#xe900;" glyph-name="sword-spade" d="M282.253 839.951l-149.045-150.865 9.135-10.662c16.987-19.845 48.882-38.984 83.721-50.614 17.412-5.815 35.466-9.518 52.874-8.971 8.834 0.274 17.669 1.74 25.921 4.774 132.085-130.589 260.763-266.345 389.428-402.127-25.742-23.972-52.279-44.864-76.821-59.576 92.509-92.509 206.543-129.071 267.906-90.038 37.641 61.688 1.793 176.075-90.038 267.91-15.989-24.615-36.318-50.565-58.735-75.334l-394.503 394.505c10.2 20.629 12.089 45.468 7.195 70.289-6.766 34.315-26.109 69.793-56.177 99.863l-10.852 10.85zM845.782 838.922c-53.362-77.625-115.756-146.228-190.044-202.932l-60.687 60.687c10.29 26.505 5.070 57.543-16.317 78.932-7.003 7.001-15.115 12.169-23.716 15.807 10.907-26.918 5.217-59.605-16.603-81.419s-53.709-26.717-80.635-15.807c3.636-8.594 8.814-16.717 15.811-23.716h0.004c21.971-21.973 53.684-27.348 80.424-16.125l34.764-34.764c-25.533-29.588-51.7-58.090-78.417-85.745l32.806-32.806 79.891 79.889 21.579-21.579-79.893-79.891 30.621-30.621c27.561 26.46 56.012 52.524 85.731 78.429l35.77-35.77c-9.769-26.276-4.41-56.796 16.709-77.915 7.003-7.001 15.121-12.173 23.72-15.807-10.907 26.918-5.217 59.603 16.603 81.419s53.709 26.717 80.635 15.807c-3.634 8.594-8.812 16.717-15.807 23.716h-0.006c-22.246 22.246-54.458 27.457-81.402 15.692l-61.071 61.073c55.456 75.542 125.888 136.111 204.038 188.952l-54.497 54.503zM300.6 770.289c9.453-15.807 15.786-31.908 18.747-46.963 5.378-27.279 0.229-49.891-14.269-64.391-5.998-5.998-14.827-9.216-27.097-9.598-12.266-0.384-27.277 2.409-42.251 7.411-11.619 3.883-23.226 9.233-33.682 14.998l98.556 98.552zM429.744 454.239c-83.427-78.752-171.063-151.55-260.603-224.010l-46.036-167.619 170.303 45.099c74.562 95.32 145.281 179.857 220.541 259.182-10.068 10.515-20.152 21.033-30.237 31.514l-274.754-274.758-21.579 21.579 275.156 275.16c-10.915 11.307-21.846 22.599-32.787 33.859z" />
<glyph unicode="&#xe901;" glyph-name="breastplate" d="M629.718 773.112c-76.606-33.266-156.795-44.703-235.38-3.337v-68.091c78.994-38.742 155.858-36.214 235.38 0.483v70.945zM301.381 761.104c-11.73-0.063-23.165-0.651-34.236-1.72-5.382-41.442 10.534-89.728 42.418-127.082 12.451 8.498 23.681 17.704 33.642 27.079-10.592 33.708-17.73 67.033-20.023 101.14-3.685 0.162-7.45 0.463-11.091 0.54-3.584 0.066-7.175 0.070-10.708 0.053zM723.966 761.104c-3.54 0.022-7.124 0.020-10.711-0.053-3.627-0.070-7.357-0.373-11.034-0.542-2.289-34.105-9.431-67.432-20.023-101.14 9.963-9.368 21.184-18.574 33.644-27.079 31.876 37.35 47.8 85.641 42.418 127.082-11.099 1.073-22.539 1.664-34.293 1.72zM234.258 754.488c-23.595-4.93-44.824-12.69-62.706-23.413-0.33-50.412 22.42-103.265 57.107-133.006l-2.104-2.418c19.961 4.583 38.261 11.533 54.904 20.021-33.036 40.423-50.801 90.88-47.203 138.816zM791.144 754.488c3.591-47.936-14.172-98.391-47.205-138.814 16.645-8.493 34.947-15.443 54.902-20.023l-2.098 2.418c34.699 29.751 57.406 82.632 57.058 133.059-17.875 10.708-39.074 18.44-62.656 23.36zM140.653 706.261c-22.94-24.868-35.964-59.266-35.362-107.491 30.811-8.074 59.36-10.379 85.582-8.5-27.681 31.194-45.463 72.841-50.22 115.998zM884.745 706.261c-4.757-43.153-22.535-84.804-50.22-115.996 26.222-1.879 54.773 0.426 85.586 8.502 0.602 48.23-12.426 82.626-35.366 107.492zM654.419 677.999l-1.501-0.753c-41.377-20.391-83.408-32.326-125.577-34.932v-368.767c126.754 44.803 211.536 139.594 211.536 248.46 0 22.58-3.685 44.59-10.608 65.719-30.426 15.53-55.923 35.309-75.785 55.229l-7.052 7.052 3.173 9.421c2.074 6.238 3.996 12.432 5.812 18.571zM371.191 677.251c1.756-5.892 3.607-11.836 5.597-17.818l3.122-9.421-6.999-7.052c-21.397-21.454-49.295-42.785-82.894-58.779-6.277-20.047-9.579-40.859-9.579-62.169 0-109.21 86.9-204.471 214.713-249.058v369.195c-41.505 2.158-82.993 13.575-123.962 35.092zM341.478 326.188c-10.221-8.295-19.628-16.924-28.422-25.835 37.948-30.119 87.105-61.264 136.936-74.708 8.69 9.851 18.273 19.227 28.905 28.097l-137.419 72.446zM682.358 326.188l-137.419-72.444c10.932-9.13 20.77-18.795 29.655-28.959 49.962 12.709 99.445 43.583 137.9 73.795-9.276 9.535-19.253 18.772-30.142 27.608zM291.418 276.4c-10.764-12.981-20.572-26.457-29.712-40.261 40.009-31.771 92.493-64.685 145.113-76.812 6.338 13.417 13.609 26.447 22.017 38.916-52.464 16.725-100.244 48.369-137.421 78.157zM734.035 274.52c-37.598-29.851-85.703-61.197-138.333-77.295 8.275-12.391 15.443-25.331 21.695-38.644 52.685 11.19 105.451 43.723 146.026 75.568-9.057 13.822-18.731 27.356-29.387 40.371zM244.539 208.691c-10.082-16.92-19.624-34.224-29.229-51.727 48.632-46.824 102.062-72.851 164.114-78.855 4.016 17.354 8.895 34.437 14.913 51.080-56.967 14.293-109.28 47.589-149.799 79.502zM780.538 206.588c-40.992-31.935-93.605-64.736-150.714-78.212 5.885-16.387 10.645-33.206 14.588-50.275 62.052 6.004 115.482 32.031 164.114 78.855-9.208 16.79-18.367 33.38-27.992 49.63z" />
<glyph unicode="&#xe902;" glyph-name="spider-alt" d="M511.848 919.1c-108.2 0-195.996-186.974-195.996-293.64 0-62 29.664-117.206 75.75-152.58 11.724 13.78 24.4 25.63 37.97 35.334l0.004 0.004c25.574 18.27 53.592 28.1 82.274 28.1 28.654 0 56.666-9.832 82.266-28.1 13.58-9.69 26.26-21.54 37.994-35.33 46.080 35.372 75.74 90.574 75.74 152.568 0 106.666-87.8 293.64-196 293.64zM985.58 890.56l-147-346.72-180.12-107.8c6.28-10.39 12.026-21.272 17.204-32.504l192.054 114.94 117.86 277.992v94.092zM38.152 890.55v-94.086l117.868-278.004 192.2-114.526c5.192 11.226 10.948 22.1 17.24 32.48l-180.32 107.446-146.988 346.69zM1.426 883.38l-0.106-0.044 0.106-0.25v0.292zM1022.3 883.38v-0.294l0.106 0.25-0.106 0.040zM511.848 504.32c-21.496 0-42.57-7.066-63.664-22.136l-0.008-0.004c-18.84-13.476-36.5-32.608-52.136-57.164-29.89-46.944-48.086-108.776-48.086-162.95 0-53.273 16.908-94.49 47.972-122.012l0.004-0.004c28.086-24.87 67.73-38.628 115.92-38.628 48.219 0 87.83 13.76 115.92 38.634 31.066 27.52 47.972 68.74 47.972 122.012 0 54.14-18.192 116.008-48.084 162.95l-0.004 0.004c-15.64 24.588-33.294 43.716-52.124 57.156-21.136 15.080-42.22 22.144-63.68 22.144zM38.152 483.008v-46.886l128.856-102.256 153.164-21.3c1.964 12.040 4.59 24.074 7.848 35.98l-146.028 20.314-143.84 114.152zM985.578 483.008l-143.846-114.156-146.034-20.4c3.254-11.908 5.876-23.946 7.836-35.984l153.186 21.4 128.86 102.256v46.884zM707.444 249.72c-0.594-12.66-2.096-24.892-4.512-36.606l138.156-30.106 144.488-116.26v47.14l-128.212 103.16-149.92 32.67zM316.256 249.57l-149.892-32.516-128.216-103.164v-47.14l144.48 116.25 138.16 29.976c-2.42 11.71-3.934 23.94-4.534 36.594zM404.984 236.402c11.159 0 20.212-8.988 20.212-20.114 0-11.094-9.053-20.114-20.212-20.114s-20.21 8.988-20.21 20.114 9.050 20.116 20.208 20.116zM619.214 236.402c11.156 0 20.21-8.988 20.21-20.114 0-11.094-9.053-20.114-20.212-20.114s-20.212 8.988-20.212 20.114 9.052 20.116 20.21 20.116zM469.568 213.736c18.682 0 33.824-15.046 33.824-33.632 0-18.584-15.144-33.632-33.826-33.632s-33.82 15.080-33.82 33.634c0 18.556 15.14 33.634 33.82 33.634zM554.622 213.736c18.682 0 33.826-15.046 33.826-33.632 0-18.584-15.144-33.632-33.826-33.632s-33.824 15.080-33.824 33.634c0 18.556 15.144 33.634 33.824 33.634zM683.362 159.244c-6.036-10.921-13.172-21.040-21.4-30.22l102.26-54.28 55.014-102.044h41.724l-69.686 129.268-107.912 57.28zM340.436 159.044l-107.98-57.060-69.694-129.284h41.72l55 102.030 102.408 54.114c-8.246 9.176-15.4 19.284-21.452 30.2zM400.896 108.411c-8.926-0.126-19.116-4.62-29.864-15.366-7.556-15.686-11.794-33.121-11.794-51.486 0-32.9 13.55-62.834 35.64-85.020-0.060 2.644-0.126 5.323-0.126 8 0 41.7 15.46 78.71 39.308 101.6 0 21.72-13.526 42.552-33.16 42.272zM622.956 108.411c-19.634 0.28-33.168-20.554-33.168-42.274 23.846-22.888 39.31-59.9 39.31-101.596 0-2.68-0.064-5.36-0.128-8.004 22.094 22.188 35.64 52.124 35.64 85.020 0 18.366-4.236 35.8-11.792 51.488-10.75 10.748-20.934 15.24-29.86 15.366zM482.48 80.126c-3.2-0.040-6.852-1.652-10.706-5.506-2.712-5.612-4.244-11.89-4.244-18.46 0-11.794 4.846-22.536 12.786-30.506-0.032 0.956-0.029 1.912-0.029 2.868 0 14.952 5.546 28.244 14.088 36.44 0 7.78-4.854 15.26-11.896 15.166zM541.72 80.126c-7.040 0.096-11.896-7.386-11.896-15.166 8.544-8.194 14.090-21.486 14.090-36.44 0-0.954 0-1.91-0.034-2.866 7.94 7.97 12.786 18.712 12.786 30.508 0 6.568-1.532 12.846-4.24 18.46-3.86 3.852-7.508 5.46-10.71 5.506z" />
<glyph unicode="&#xe903;" glyph-name="locked-chest" d="M320.19 861.267c-22.032 0.065-42.649-5.027-65.526-16.559h0.008c-84.743-42.767-157.481-158.991-160.97-255.957l73.546-25.021c7.61 108.765 82.697 225.597 178.424 273.91h0.004c7.775 3.921 15.502 7.316 23.171 10.193l-39.123 13.094c-3.219 0.218-6.392 0.331-9.54 0.339zM424.476 825.786c-18.415 0.159-40.127-5.437-64.014-17.471l0.008 0.008c-84.762-42.774-157.508-159.067-160.885-255.592l275.009-93.565c6.792 109.348 82.24 227.359 178.575 275.976h0.004l0.004 0.006c7.563 3.811 15.086 7.125 22.549 9.96l-236.439 79.145c-4.66 0.951-9.593 1.491-14.81 1.536zM731.968 723.287c-18.411 0.159-40.123-5.435-64.006-17.47l-0.010-0.004c-85.37-43.086-158.561-160.756-160.954-257.679l81.203-27.625c6.876 109.291 82.289 227.188 178.567 275.774 7.945 4.013 15.889 7.48 23.777 10.385l-46.648 15.612c-3.803 0.616-7.775 0.967-11.925 1zM843.662 684.6c-18.042-0.165-38.826-5.894-62.094-17.632-82.878-41.825-154.26-153.928-160.562-249.113l306.757 129.567c-0.71 68.556-18.897 107.734-42.908 124.923-4.127 2.954-8.551 5.372-13.266 7.273l-0.020-0.061-8.322 2.783c-6.113 1.557-12.647 2.332-19.586 2.265zM93.562 554.111l-0.063-329.487 73.099-25.434v330.069l-73.040 24.85zM199.446 518.086v-330.326l274.652-95.552v332.436l-51.057 17.371v-209.887l-177.594 59.897v210.407l-46.001 15.647zM927.397 511.615l-305.678-129.112v-332.566l305.674 129.179v332.501zM278.295 491.259v-175.646l111.901-37.746v175.327l-111.899 38.067zM333.312 440.651c17.058 0 30.883-13.823 30.883-30.881 0-11.14-5.921-20.876-14.777-26.307v-50.137h-32.844v50.52c-8.5 5.502-14.143 15.045-14.143 25.931 0 17.058 13.823 30.881 30.881 30.881zM506.938 413.475v-332.688l81.94-28.506v333.315l-81.942 27.878z" />
<glyph unicode="&#xe904;" glyph-name="enlightenment" d="M504.471 881.119l-52.69-245.56-102.39 136.514 14.040-163.13-88.698 44.535 40.042-89.581-121.19 24.241 104.334-127.521-100.115 18.973 64.303-48.016c53.943-1.39 111.909 4.63 163.484-7.85 33.739-8.159 65.264-25.809 87.076-59.080 0.748-1.139 1.48-2.298 2.2-3.471 0.724 1.175 1.454 2.33 2.2 3.469 21.811 33.275 53.336 50.925 87.076 59.084 49.875 12.065 105.737 6.824 158.156 7.725l63.61 48.137-75.88-14.756 74.831 145.437-107.384-35.824 34.454 139.584-103.278-108.032 10.925 197.789-83.429-175.6-71.665 252.928zM216.482 401.466l-75.727-52.751 374.156-131.155 374.144 131.785-73.967 52.115c-76.865-12.955-166.090 9.995-227.405-18.67l-0.208-0.090-0.023-0.016c-9.432-4.275-17.978-9.776-25.725-16.929-13.648-12.223-24.934-28.961-33.13-51.778l-14.034-24.836-12.916 22.865c-9.808 28.571-24.276 47.82-42.088 60.699-0.284 0.208-0.572 0.395-0.854 0.599-1.135 0.807-2.285 1.592-3.449 2.349-60.57 39.289-156.325 11.91-238.763 25.805zM100.526 326.941l-11.127-31.836 344.070-120.313v-32.149h165.205v33.719h-0.1l339.565 118.743-11.131 31.834-371.116-129.776 7.27-20.799h-98.8l7.27 20.799-371.114 129.776z" />
<glyph unicode="&#xe905;" glyph-name="cash" d="M504.62 863.097c-1.377 0.016-2.745-0.006-4.132-0.053-19.399-0.689-39.278-9.066-57.066-31.4l-9.087-11.403-12.448 7.657c-24.092 14.87-54.549 20.388-80.199 15.421-25.65-4.963-45.879-18.891-55.247-44.725l-6.387-17.57-16.579 8.534c-28.629 14.699-43.568 14.927-55.961 9.368-9.882-4.435-20.193-15.080-31.89-30.627l145.304-112.311c22.774-7.349 56.034-7.199 89.453 1.43 33.399 8.628 66.738 25.45 90.993 48.309l54.86 135.554c-11.624 11.371-28.941 20.303-47.48 21.648-1.374 0.102-2.755 0.153-4.132 0.169zM527.865 685.457l-1.048-1.050c-29.61-29.081-68.812-48.713-108.183-58.881-12.135-3.14-24.299-5.422-36.241-6.725-6.489-10.775-11.858-21.612-16.196-32.558l0.938 0.059c2.469-42.616 20.863-75.755 47.151-107.304l-25.284-21.098c-14.613 17.535-27.738 36.596-37.51 57.837-1.623-40.938 7.443-83.229 22.529-127.297l-31.174-10.682c-27.521 80.407-36.914 162.835 1.762 240.375-13.020 1.036-25.429 3.456-36.847 7.492l-0.604 0.224c-7.511-7.194-14.719-14.748-21.595-22.691-55.769-64.479-86.419-150.349-70.394-217.24 8.585-35.825 24.030-69.646 46.103-98.483 6.438 0.526 12.79 0.861 18.998 0.934 20.419 0.241 39.48-1.929 56.462-6.385 5.359-1.407 10.539-3.132 15.533-5.068 13.19 1.405 26.871 2.149 40.931 2.149 50.186 0 95.713-9.334 130.158-25.503 13.373-6.273 25.45-13.834 35.254-22.582-0.080 1.309-0.112 2.629-0.112 3.968 0 8.051 1.497 15.696 4.295 22.913-15.755 14.776-25.613 32.689-25.613 53.206 0 28.411 18.945 51.727 46.217 68.739 0.024 8.149 1.576 15.898 4.458 23.19-17.915 15.388-29.355 34.469-29.355 56.568 0 13.956 4.572 26.69 12.448 38.064-7.876 11.371-12.448 24.106-12.448 38.064 0 6.723 1.056 13.141 3.034 19.279-17.074 15.162-27.876 33.81-27.876 55.302 0 21.339 10.673 39.826 27.542 54.913-10.473 8.108-21.559 14.994-33.325 20.27zM724.288 681.327c-45.869 0-87.261-9.578-115.78-23.906-28.517-14.328-41.918-31.835-41.918-47.151 0-15.309 13.394-32.875 41.918-47.204s69.917-23.851 115.78-23.851c19.777 0 38.741 1.793 56.183 4.961v30.016c24.434 3.646 44.786 10.4 57.833 19.002v-30.954c0.579 0.285 1.195 0.544 1.762 0.828 28.517 14.328 41.971 31.888 41.971 47.204s-13.451 32.823-41.971 47.151c-28.517 14.328-69.917 23.906-115.78 23.906zM894.377 562.128c-5.877-6.315-12.837-12.089-20.549-17.35l0.442-51.17c22.115 13.261 32.611 28.551 32.611 42.078 0 8.442-4.074 17.564-12.5 26.437zM591.485 534.863c0.467-15.115 13.904-32.303 41.918-46.376 28.521-14.328 69.919-23.851 115.78-23.851 28.761 0 55.761 3.756 78.931 10.078l1.103 48.085c-30.258-10.622-66.242-16.522-104.933-16.522-50.339 0-96.019 10.029-130.54 27.375-0.765 0.387-1.501 0.816-2.259 1.213zM594.956 473.503c-2.368-4.751-3.528-9.434-3.528-13.938 0-15.311 13.451-32.875 41.971-47.208 28.517-14.328 69.917-23.847 115.78-23.847 23.259 0 45.35 2.439 65.215 6.723v42.412c-20.368-3.899-42.306-5.951-65.215-5.951-50.339 0-96.076 10.029-130.597 27.371-8.508 4.278-16.461 9.115-23.631 14.434zM903.353 473.503c-7.168-5.326-15.123-10.161-23.625-14.434-2.435-1.221-4.947-2.37-7.492-3.524v-39.268c23.506 13.534 34.643 29.353 34.643 43.295 0 4.494-1.169 9.197-3.524 13.936zM916.574 408.732c-3.577-3.573-7.464-6.974-11.673-10.194v-57.229c18.178 12.344 26.881 26.033 26.881 38.334 0 9.279-4.964 19.377-15.203 29.081zM616.709 383.94c-0.232-1.438-0.39-2.888-0.39-4.293 0.004-15.315 13.453-32.823 41.972-47.151 28.517-14.328 69.917-23.908 115.78-23.908 26.357 0 51.226 3.13 73.039 8.54v52.659c-28.737-9.16-62.158-14.215-97.938-14.215-50.339 0-96.074 10.029-130.595 27.375-0.636 0.318-1.248 0.665-1.876 0.991zM592.748 346.373c-15.272-11.522-22.636-24.018-22.636-35.307 0-15.315 13.447-32.875 41.971-47.21 28.521-14.328 69.919-23.847 115.784-23.847 16.814 0 32.995 1.252 48.195 3.577v32.061c-0.663-0.006-1.319 0-1.984 0-50.339 0-96.074 10.025-130.595 27.371-21.96 11.036-40.295 25.658-50.728 43.35zM879.231 292.284c-13.977-4.927-29.198-8.822-45.336-11.62v-21.261c3.385 1.43 6.664 2.908 9.748 4.458 17.309 8.701 29.029 18.575 35.581 28.423zM895.368 260.284c-6.644-6.644-14.474-12.66-23.135-18.064v-50.565c23.506 13.536 34.643 29.355 34.643 43.295 0 8.088-3.768 16.813-11.513 25.338zM280.71 255.323c-17.872-0.202-37.404-2.49-57.506-7.158-40.195-9.34-74.844-26.449-97.382-45.279-22.538-18.826-31.266-37.701-28.696-51.334s16.555-26.145 43.68-33.27c27.122-7.121 64.958-7.407 105.153 1.929 16.196 3.768 31.472 8.758 45.442 14.654v36.357c25.609 11.432 44.886 25.338 53.542 38.609v-42.961c21.334 18.373 29.663 36.714 27.156 50.016-2.573 13.636-16.61 26.090-43.738 33.215-13.559 3.56-29.769 5.432-47.641 5.227zM394.673 246.126c4.776-6.866 8.128-14.593 9.748-23.194 1.99-10.545 1.117-20.886-1.986-30.9 17.313-4.511 33.158-10.704 46.984-18.455 7.737-4.339 14.931-9.283 21.373-14.705 15.902 3.815 29.212 9.079 38.668 15.307v-36.188c28.523 13.414 41.421 29.769 41.421 42.854 0 13.096-12.925 29.483-41.533 42.906-28.3 13.282-69.259 22.171-114.684 22.37zM591.597 237.421c-0.078-0.822-0.167-1.664-0.167-2.474 0-15.311 13.447-32.875 41.971-47.204 28.517-14.328 69.917-23.853 115.78-23.853 23.259 0 45.35 2.439 65.215 6.723v47.322c-26.033-7.048-55.398-10.91-86.533-10.91-50.339 0-96.077 10.082-130.599 27.432-1.913 0.962-3.819 1.954-5.677 2.975zM596.604 171.606c-3.454-5.743-5.176-11.428-5.176-16.858 0-15.311 13.451-32.875 41.971-47.204 28.517-14.328 69.917-23.853 115.78-23.853 23.259 0 45.35 2.439 65.215 6.723v46.488c-20.368-3.899-42.306-5.951-65.215-5.951-50.339 0-96.076 10.029-130.597 27.371-7.876 3.96-15.235 8.42-21.979 13.28zM901.757 171.606c-6.754-4.866-14.146-9.313-22.032-13.279-2.435-1.221-4.947-2.372-7.492-3.524v-43.35c23.506 13.536 34.643 29.355 34.643 43.295 0 5.426-1.682 11.118-5.12 16.858zM385.975 162.067c-6.114-7.723-13.345-15.070-21.485-21.863-27.603-23.056-66.381-41.672-111.046-52.053-16.11-3.746-31.922-6.118-47.151-7.272 5.639-9.374 15.567-18.582 30.073-26.718 24.143-13.534 59.382-22.636 98.485-22.636 17.76 0 34.691 1.909 50.183 5.227v36.739c24.426 3.646 44.786 10.406 57.829 19.004v-32.446c17.666 12.248 26.169 26.245 26.169 39.437 0 15.374-11.55 31.802-35.691 45.336-12.957 7.26-29.137 13.251-47.373 17.236z" />
<glyph unicode="&#xe906;" glyph-name="biceps" d="M423.664 881.88c-30.044-30.62-31.788-45.66-46.946-87.806 5.38-18.28 10.308-33.854 18.296-50.234 10.316-0.566 21.53-0.94 30.684-0.86-12.22 20.416-16.552 38.64-9.466 70.548 8.6-38.1 25.694-59.986 42.406-68.664 6.064 0.668 11.914 1.428 17.552 2.292-12.51 20.674-16.988 38.94-9.828 71.176 7.794-34.54 22.574-55.752 37.72-65.88 9.316 2.086 18.566 4.486 27.854 7.068-11.034 19.38-14.72 37.384-7.94 67.914 6.714-29.752 18.614-49.62 31.464-61.032 10.19 3.14 18.592 5.796 27.704 8.694-1.37 11.564-0.832 24.374 2.128 38.23l3.766 17.6 35.206-7.52-3.76-17.608c-7.272-34.016 2.648-48.84 14.612-57.332 11.96-8.488 29.38-6.92 32.060-5.2l15.152 9.72 19.44-30.3c-7.714-4.68-15.8-10.88-23.644-14.12 37.3-55.356 64.366-122.93 49.512-187.1-4.73-18.948-12.060-36.486-23.43-49.972 25.45-24.26 42.43-44.052 62.064-69-7.426 4.774-15.172 9.688-23.384 14.74-22.794 14.020-47.664 28.428-69.96 39.604-32.024 15.6-62.734 36.41-95.46 41.046-45.104 5.934-92.54-9.594-146.64-42.12 15.744-17.44 26.564-30.948 40.624-48.576-13.96 8.676-29.304 18.14-46.32 28.46-65.108 34.96-130.78 96.454-200.876 99.98-61.12 2.184-119.904-29.91-179.354-77.136l-8.9-7.078v-479.414h63.926c90.368 34.874 160.574 115.308 194.060 189.040l0.5 1.128 0.65 1.040c18.926 30.504 22.296 59.376 33.58 89.464 11.29 30.088 33.814 59.436 83.768 77.512 8.706 4.32 10.14 2.83 17.266-2.79 60.936-48.020 114.58-64.040 166.48-64.7 65.22 3.114 116.884 19.764 171.364 38.76-7.932-7.056-17.54-14.42-27.972-21.524-30.646-20.872-68.434-39.856-92.608-49.6-29.432-4.012-56.72-4.832-83.934-1.232-19.92-24.18-51.148-40.716-74.7-53.346 127.84-28.046 231.76-1.82 334.772 45.792-19.044 3.634-38.016 7.384-55.988 10.84 63.268 8.844 129.968 7.532 189.41 7.060 8.168 0.040 14.426 0.906 17.4 1.772 28.334 102.144-8.19 195.786-68.588 290.432-60.526 94.85-144.36 188.214-203.792 286.080-42.2 34.514-97.2 62.91-155.044 92.35-40.772-8.5-82.052-18.672-122.886-28.2zM594.434 740.9c-23.356-7.2-47.42-14.85-67.704-20.024 5.054-9.86 7.47-21.328 6.79-32.404 22.056-1.754 42.164 4.036 57.93 12.712 9.69 5.332 17.48 12.096 22.828 17.92-7.708 5.47-14.52 12.82-19.846 21.8zM486.008 711.504c-23.52-2.286-49.18-4.724-70.12-4.472 4.78-9.544 7.56-24.134 17.020-29.68 22.36-2.328 41.2-3.994 59.82 3.492 10.87 6.428 3.636 30.116-6.72 30.66zM416.048 292.84c-35.186-14.466-45.172-30.28-53.626-52.812-7.996-21.32-12.454-50.152-28.96-82.028 64.58 12.76 139.25 42.46 187.704 80.176-34.034 10.196-69.106 27.704-105.114 54.664zM434.684 150.070c-37.446-14.474-81.672-32.288-119.392-28.124-27.744-55.306-67.268-110.006-131.768-149.946h169.36c43.128 59.596 76.134 113.15 81.8 178.070z" />
<glyph unicode="&#xe907;" glyph-name="radio-checked" d="M512 960c-282.77 0-512-229.23-512-512s229.23-512 512-512 512 229.23 512 512-229.23 512-512 512zM512 64c-212.078 0-384 171.922-384 384s171.922 384 384 384c212.078 0 384-171.922 384-384s-171.922-384-384-384zM320 448c0 106.039 85.961 192 192 192s192-85.961 192-192c0-106.039-85.961-192-192-192s-192 85.961-192 192z" />
<glyph unicode="&#xe908;" glyph-name="radio-unchecked" d="M512 960c-282.77 0-512-229.23-512-512s229.23-512 512-512 512 229.23 512 512-229.23 512-512 512zM512 64c-212.078 0-384 171.922-384 384s171.922 384 384 384c212.078 0 384-171.922 384-384s-171.922-384-384-384z" />
<glyph unicode="&#xe913;" glyph-name="touch_app" d="M804 260.667c22-10 38-32 38-58v-8l-32-226c-4-32-30-54-62-54h-290c-18 0-32 6-44 18l-212 212 34 34c8 8 20 14 34 14 4 0 6-2 10-2l146-30v458c0 36 28 64 64 64s64-28 64-64v-256h34c8 0 14-2 22-4zM384 458.667c-52 34-86 94-86 160 0 106 86 192 192 192s192-86 192-192c0-66-32-126-84-160v160c0 58-50 106-108 106s-106-48-106-106v-160z" />
<glyph unicode="" glyph-name="touch_app" d="M804 260.667c22-10 38-32 38-58v-8l-32-226c-4-32-30-54-62-54h-290c-18 0-32 6-44 18l-212 212 34 34c8 8 20 14 34 14 4 0 6-2 10-2l146-30v458c0 36 28 64 64 64s64-28 64-64v-256h34c8 0 14-2 22-4zM384 458.667c-52 34-86 94-86 160 0 106 86 192 192 192s192-86 192-192c0-66-32-126-84-160v160c0 58-50 106-108 106s-106-48-106-106v-160z" />
<glyph unicode="wrench" glyph-name="wrench" d="M1002.934 142.124l-460.552 394.76c21.448 40.298 33.618 86.282 33.618 135.116 0 159.058-128.942 288-288 288-29.094 0-57.172-4.332-83.646-12.354l166.39-166.39c24.89-24.89 24.89-65.62 0-90.51l-101.49-101.49c-24.89-24.89-65.62-24.89-90.51 0l-166.39 166.39c-8.022-26.474-12.354-54.552-12.354-83.646 0-159.058 128.942-288 288-288 48.834 0 94.818 12.17 135.116 33.62l394.76-460.552c22.908-26.724 62.016-28.226 86.904-3.338l101.492 101.492c24.888 24.888 23.386 63.994-3.338 86.902z" />
<glyph unicode="warning" glyph-name="warning" d="M512 867.226l429.102-855.226h-858.206l429.104 855.226zM512 960c-22.070 0-44.14-14.882-60.884-44.648l-437.074-871.112c-33.486-59.532-5-108.24 63.304-108.24h869.308c68.3 0 96.792 48.708 63.3 108.24h0.002l-437.074 871.112c-16.742 29.766-38.812 44.648-60.882 44.648v0zM576 128c0-35.346-28.654-64-64-64s-64 28.654-64 64c0 35.346 28.654 64 64 64s64-28.654 64-64zM512 256c-35.346 0-64 28.654-64 64v192c0 35.346 28.654 64 64 64s64-28.654 64-64v-192c0-35.346-28.654-64-64-64z" />
<glyph unicode="volume_up" glyph-name="volume_up" d="M598 800.667c172-38 298-192 298-374s-126-336-298-374v88c124 36 212 150 212 286s-88 250-212 286v88zM704 426.667c0-76-42-140-106-172v344c64-32 106-96 106-172zM128 554.667h170l214 214v-684l-214 214h-170v256z" />
<glyph unicode="volume_off" glyph-name="volume_off" d="M512 768.667v-180l-90 90zM182 810.667l714-714-54-54-88 88c-46-36-98-64-156-78v88c36 10 68 28 96 50l-182 182v-288l-214 214h-170v256h202l-202 202zM810 426.667c0 136-88 250-212 286v88c172-38 298-192 298-374 0-64-16-126-44-178l-64 66c14 34 22 72 22 112zM704 426.667c0-10 0-18-2-26l-104 104v94c64-32 106-96 106-172z" />
<glyph unicode="volume5" glyph-name="volume-mute2" d="M960 340.852v-84.852h-84.852l-107.148 107.148-107.148-107.148h-84.852v84.852l107.148 107.148-107.148 107.148v84.852h84.852l107.148-107.148 107.148 107.148h84.852v-84.852l-107.148-107.148 107.148-107.148zM416.006 0c-8.328 0-16.512 3.25-22.634 9.374l-246.626 246.626h-114.746c-17.672 0-32 14.326-32 32v320c0 17.672 14.328 32 32 32h114.746l246.626 246.628c9.154 9.154 22.916 11.89 34.874 6.936 11.958-4.952 19.754-16.622 19.754-29.564v-832c0-12.944-7.796-24.612-19.754-29.564-3.958-1.64-8.118-2.436-12.24-2.436z" />
<glyph unicode="volume3" glyph-name="volume-low" d="M549.020 218.98c-12.286 0-24.566 4.686-33.942 14.058-18.746 18.746-18.746 49.134 0 67.88 81.1 81.1 81.1 213.058 0 294.156-18.746 18.746-18.746 49.138 0 67.882s49.136 18.744 67.882 0c118.53-118.53 118.53-311.392 0-429.922-9.372-9.368-21.656-14.054-33.94-14.054zM416.006 0c-8.328 0-16.512 3.25-22.634 9.374l-246.626 246.626h-114.746c-17.672 0-32 14.326-32 32v320c0 17.672 14.328 32 32 32h114.746l246.626 246.628c9.154 9.154 22.916 11.89 34.874 6.936 11.958-4.952 19.754-16.622 19.754-29.564v-832c0-12.944-7.796-24.612-19.754-29.564-3.958-1.64-8.118-2.436-12.24-2.436z" />
<glyph unicode="volume-mute2" glyph-name="volume-mute2" d="M960 340.852v-84.852h-84.852l-107.148 107.148-107.148-107.148h-84.852v84.852l107.148 107.148-107.148 107.148v84.852h84.852l107.148-107.148 107.148 107.148h84.852v-84.852l-107.148-107.148 107.148-107.148zM416.006 0c-8.328 0-16.512 3.25-22.634 9.374l-246.626 246.626h-114.746c-17.672 0-32 14.326-32 32v320c0 17.672 14.328 32 32 32h114.746l246.626 246.628c9.154 9.154 22.916 11.89 34.874 6.936 11.958-4.952 19.754-16.622 19.754-29.564v-832c0-12.944-7.796-24.612-19.754-29.564-3.958-1.64-8.118-2.436-12.24-2.436z" />
<glyph unicode="volume-low" glyph-name="volume-low" d="M549.020 218.98c-12.286 0-24.566 4.686-33.942 14.058-18.746 18.746-18.746 49.134 0 67.88 81.1 81.1 81.1 213.058 0 294.156-18.746 18.746-18.746 49.138 0 67.882s49.136 18.744 67.882 0c118.53-118.53 118.53-311.392 0-429.922-9.372-9.368-21.656-14.054-33.94-14.054zM416.006 0c-8.328 0-16.512 3.25-22.634 9.374l-246.626 246.626h-114.746c-17.672 0-32 14.326-32 32v320c0 17.672 14.328 32 32 32h114.746l246.626 246.628c9.154 9.154 22.916 11.89 34.874 6.936 11.958-4.952 19.754-16.622 19.754-29.564v-832c0-12.944-7.796-24.612-19.754-29.564-3.958-1.64-8.118-2.436-12.24-2.436z" />
<glyph unicode="volume-high" glyph-name="volume-high" horiz-adv-x="1088" d="M890.040 37.96c-12.286 0-24.566 4.686-33.942 14.056-18.744 18.746-18.744 49.136 0 67.882 87.638 87.642 135.904 204.16 135.904 328.1 0 123.938-48.266 240.458-135.904 328.098-18.744 18.746-18.744 49.138 0 67.882s49.138 18.744 67.882 0c105.77-105.772 164.022-246.4 164.022-395.98s-58.252-290.208-164.022-395.98c-9.372-9.372-21.656-14.058-33.94-14.058zM719.53 128.47c-12.286 0-24.566 4.686-33.942 14.056-18.744 18.744-18.744 49.136 0 67.882 131.006 131.006 131.006 344.17 0 475.176-18.744 18.746-18.744 49.138 0 67.882 18.744 18.742 49.138 18.744 67.882 0 81.594-81.59 126.53-190.074 126.53-305.466 0-115.39-44.936-223.876-126.53-305.47-9.372-9.374-21.656-14.060-33.94-14.060v0zM549.020 218.98c-12.286 0-24.568 4.686-33.942 14.058-18.746 18.746-18.746 49.134 0 67.88 81.1 81.1 81.1 213.058 0 294.156-18.746 18.746-18.746 49.138 0 67.882s49.136 18.744 67.882 0c118.53-118.53 118.53-311.392 0-429.922-9.372-9.368-21.656-14.054-33.94-14.054zM416.006 0c-8.328 0-16.512 3.25-22.634 9.374l-246.626 246.626h-114.746c-17.672 0-32 14.326-32 32v320c0 17.672 14.328 32 32 32h114.746l246.626 246.628c9.154 9.154 22.916 11.89 34.874 6.936 11.958-4.952 19.754-16.622 19.754-29.564v-832c0-12.944-7.796-24.612-19.754-29.564-3.958-1.64-8.118-2.436-12.24-2.436z" />
<glyph unicode="volume" glyph-name="volume-high" horiz-adv-x="1088" d="M890.040 37.96c-12.286 0-24.566 4.686-33.942 14.056-18.744 18.746-18.744 49.136 0 67.882 87.638 87.642 135.904 204.16 135.904 328.1 0 123.938-48.266 240.458-135.904 328.098-18.744 18.746-18.744 49.138 0 67.882s49.138 18.744 67.882 0c105.77-105.772 164.022-246.4 164.022-395.98s-58.252-290.208-164.022-395.98c-9.372-9.372-21.656-14.058-33.94-14.058zM719.53 128.47c-12.286 0-24.566 4.686-33.942 14.056-18.744 18.744-18.744 49.136 0 67.882 131.006 131.006 131.006 344.17 0 475.176-18.744 18.746-18.744 49.138 0 67.882 18.744 18.742 49.138 18.744 67.882 0 81.594-81.59 126.53-190.074 126.53-305.466 0-115.39-44.936-223.876-126.53-305.47-9.372-9.374-21.656-14.060-33.94-14.060v0zM549.020 218.98c-12.286 0-24.568 4.686-33.942 14.058-18.746 18.746-18.746 49.134 0 67.88 81.1 81.1 81.1 213.058 0 294.156-18.746 18.746-18.746 49.138 0 67.882s49.136 18.744 67.882 0c118.53-118.53 118.53-311.392 0-429.922-9.372-9.368-21.656-14.054-33.94-14.054zM416.006 0c-8.328 0-16.512 3.25-22.634 9.374l-246.626 246.626h-114.746c-17.672 0-32 14.326-32 32v320c0 17.672 14.328 32 32 32h114.746l246.626 246.628c9.154 9.154 22.916 11.89 34.874 6.936 11.958-4.952 19.754-16.622 19.754-29.564v-832c0-12.944-7.796-24.612-19.754-29.564-3.958-1.64-8.118-2.436-12.24-2.436z" />
<glyph unicode="virus" glyph-name="bug" d="M1024 384v64h-193.29c-5.862 72.686-31.786 139.026-71.67 192.25h161.944l70.060 280.24-62.090 15.522-57.94-231.76h-174.68c-0.892 0.694-1.796 1.374-2.698 2.056 6.71 19.502 10.362 40.422 10.362 62.194 0.002 105.76-85.958 191.498-191.998 191.498s-192-85.738-192-191.5c0-21.772 3.65-42.692 10.362-62.194-0.9-0.684-1.804-1.362-2.698-2.056h-174.68l-57.94 231.76-62.090-15.522 70.060-280.24h161.944c-39.884-53.222-65.806-119.562-71.668-192.248h-193.29v-64h193.37c3.802-45.664 15.508-88.812 33.638-127.75h-123.992l-70.060-280.238 62.090-15.524 57.94 231.762h112.354c58.692-78.032 147.396-127.75 246.66-127.75s187.966 49.718 246.662 127.75h112.354l57.94-231.762 62.090 15.524-70.060 280.238h-123.992c18.13 38.938 29.836 82.086 33.636 127.75h193.37z" />
<glyph unicode="users" glyph-name="users" horiz-adv-x="1152" d="M768 189.388v52.78c70.498 39.728 128 138.772 128 237.832 0 159.058 0 288-192 288s-192-128.942-192-288c0-99.060 57.502-198.104 128-237.832v-52.78c-217.102-17.748-384-124.42-384-253.388h896c0 128.968-166.898 235.64-384 253.388zM327.196 164.672c55.31 36.15 124.080 63.636 199.788 80.414-15.054 17.784-28.708 37.622-40.492 59.020-30.414 55.234-46.492 116.058-46.492 175.894 0 86.042 0 167.31 30.6 233.762 29.706 64.504 83.128 104.496 159.222 119.488-16.914 76.48-61.94 126.75-181.822 126.75-192 0-192-128.942-192-288 0-99.060 57.502-198.104 128-237.832v-52.78c-217.102-17.748-384-124.42-384-253.388h279.006c14.518 12.91 30.596 25.172 48.19 36.672z" />
<glyph unicode="user3" glyph-name="user-minus" d="M384 224c0 151.234 95.874 280.486 230.032 330.2 16.28 36.538 25.968 77.164 25.968 117.8 0 159.058 0 288-192 288s-192-128.942-192-288c0-99.060 57.502-198.104 128-237.832v-52.78c-217.102-17.748-384-124.42-384-253.388h397.306c-8.664 30.53-13.306 62.732-13.306 96zM736 512c-159.058 0-288-128.942-288-288s128.942-288 288-288c159.056 0 288 128.942 288 288s-128.942 288-288 288zM896 192h-320v64h320v-64z" />
<glyph unicode="user2" glyph-name="user-plus" d="M384 224c0 151.234 95.874 280.486 230.032 330.2 16.28 36.538 25.968 77.164 25.968 117.8 0 159.058 0 288-192 288s-192-128.942-192-288c0-99.060 57.502-198.104 128-237.832v-52.78c-217.102-17.748-384-124.42-384-253.388h397.306c-8.664 30.53-13.306 62.732-13.306 96zM736 512c-159.058 0-288-128.942-288-288s128.942-288 288-288c159.056 0 288 128.942 288 288s-128.942 288-288 288zM896 192h-128v-128h-64v128h-128v64h128v128h64v-128h128v-64z" />
<glyph unicode="user-plus" glyph-name="user-plus" d="M384 224c0 151.234 95.874 280.486 230.032 330.2 16.28 36.538 25.968 77.164 25.968 117.8 0 159.058 0 288-192 288s-192-128.942-192-288c0-99.060 57.502-198.104 128-237.832v-52.78c-217.102-17.748-384-124.42-384-253.388h397.306c-8.664 30.53-13.306 62.732-13.306 96zM736 512c-159.058 0-288-128.942-288-288s128.942-288 288-288c159.056 0 288 128.942 288 288s-128.942 288-288 288zM896 192h-128v-128h-64v128h-128v64h128v128h64v-128h128v-64z" />
<glyph unicode="user-minus" glyph-name="user-minus" d="M384 224c0 151.234 95.874 280.486 230.032 330.2 16.28 36.538 25.968 77.164 25.968 117.8 0 159.058 0 288-192 288s-192-128.942-192-288c0-99.060 57.502-198.104 128-237.832v-52.78c-217.102-17.748-384-124.42-384-253.388h397.306c-8.664 30.53-13.306 62.732-13.306 96zM736 512c-159.058 0-288-128.942-288-288s128.942-288 288-288c159.056 0 288 128.942 288 288s-128.942 288-288 288zM896 192h-320v64h320v-64z" />
<glyph unicode="user" glyph-name="user" d="M576 253.388v52.78c70.498 39.728 128 138.772 128 237.832 0 159.058 0 288-192 288s-192-128.942-192-288c0-99.060 57.502-198.104 128-237.832v-52.78c-217.102-17.748-384-124.42-384-253.388h896c0 128.968-166.898 235.64-384 253.388z" />
<glyph unicode="upload2" glyph-name="upload2" d="M0 64h1024v-64h-1024zM1024 192v-64h-1024v64l128 256h256v-128h256v128h256zM224 640l288 288 288-288h-224v-256h-128v256z" />
<glyph unicode="unfold_more" glyph-name="unfold_more" d="M512 162.667l136 136 60-60-196-196-196 196 60 60zM512 690.667l-136-136-60 60 196 196 196-196-60-60z" />
<glyph unicode="unfold_less" glyph-name="unfold_less" d="M708 708.667l-196-196-196 196 60 60 136-136 136 136zM316 144.667l196 196 196-196-60-60-136 136-136-136z" />
<glyph unicode="undo2" glyph-name="undo2" d="M761.862-64c113.726 206.032 132.888 520.306-313.862 509.824v-253.824l-384 384 384 384v-248.372c534.962 13.942 594.57-472.214 313.862-775.628z" />
</font>
</defs>
</svg>
