<?xml version="1.0" encoding="UTF-8" standalone="no"?>
<!-- Designed by Vexels.com - 2016 All Rights Reserved - https://vexels.com/terms-and-conditions/  -->

<svg
   xmlns:dc="http://purl.org/dc/elements/1.1/"
   xmlns:cc="http://creativecommons.org/ns#"
   xmlns:rdf="http://www.w3.org/1999/02/22-rdf-syntax-ns#"
   xmlns:svg="http://www.w3.org/2000/svg"
   xmlns="http://www.w3.org/2000/svg"
   xmlns:sodipodi="http://sodipodi.sourceforge.net/DTD/sodipodi-0.dtd"
   xmlns:inkscape="http://www.inkscape.org/namespaces/inkscape"
   version="1.1"
   id="Layer_1"
   x="0px"
   y="0px"
   width="1100.0012"
   height="82.170891"
   viewBox="0 0 1100.0012 82.170891"
   enable-background="new 0 0 1200 1200"
   xml:space="preserve"
   sodipodi:docname="simple-decorative-lines-divider-by-Vexels.svg"
   inkscape:version="0.92.2 5c3e80d, 2017-08-06"
   inkscape:export-filename="/Users/yyy/simple-decorative-lines-divider-by-Vexels.png"
   inkscape:export-xdpi="71.999924"
   inkscape:export-ydpi="71.999924"><metadata
     id="metadata9"><rdf:RDF><cc:Work
         rdf:about=""><dc:format>image/svg+xml</dc:format><dc:type
           rdf:resource="http://purl.org/dc/dcmitype/StillImage" /><dc:title></dc:title></cc:Work></rdf:RDF></metadata><defs
     id="defs7" /><sodipodi:namedview
     pagecolor="#ffffff"
     bordercolor="#666666"
     borderopacity="1"
     objecttolerance="10"
     gridtolerance="10"
     guidetolerance="10"
     inkscape:pageopacity="0"
     inkscape:pageshadow="2"
     inkscape:window-width="1331"
     inkscape:window-height="912"
     id="namedview5"
     showgrid="false"
     fit-margin-top="0"
     fit-margin-left="0"
     fit-margin-right="0"
     fit-margin-bottom="0"
     inkscape:zoom="1.1125147"
     inkscape:cx="439.37409"
     inkscape:cy="-79.157912"
     inkscape:window-x="115"
     inkscape:window-y="7"
     inkscape:window-maximized="0"
     inkscape:current-layer="Layer_1" /><path
     d="m 1099.9742,40.153888 c 0,-0.051 0.025,-0.122 0.01,-0.189 0,-0.066 -0.035,-0.132 -0.046,-0.203 -0.041,-0.132 -0.071,-0.27 -0.137,-0.407 -0.056,-0.122 -0.107,-0.229 -0.178,-0.33 -0.071,-0.117 -0.163,-0.214 -0.249,-0.301 -0.107,-0.102 -0.203,-0.193 -0.326,-0.269 -0.096,-0.056 -0.193,-0.112 -0.305,-0.163 -0.142,-0.066 -0.28,-0.096 -0.442,-0.137 -0.066,-0.005 -0.127,-0.036 -0.184,-0.046 l -166.406,-14.599 c -0.056,-0.01 -0.092,0.01 -0.143,0.01 -0.045,0 -0.102,-0.02 -0.147,-0.02 l -24.877,1.252 -9.444,-9.093 c -0.046,-0.041 -0.107,-0.061 -0.153,-0.097 -0.122,-0.092 -0.234,-0.157 -0.361,-0.224 -0.117,-0.051 -0.219,-0.102 -0.351,-0.143 -0.117,-0.03 -0.259,-0.056 -0.397,-0.071 -0.137,0 -0.265,0 -0.402,0.005 -0.061,0 -0.117,-0.005 -0.183,0 l -65.798,13.454 -81.867,4.07 -89.943,-18.384 16.609,-5.4439997 -1.287,-3.939 -23.514,7.7089997 -23.066,-4.7119997 c -0.046,-0.01 -0.086,0 -0.132,0 -0.117,-0.031 -0.249,-0.01 -0.371,-0.01 -0.153,0.01 -0.305,0.01 -0.448,0.061 -0.036,0 -0.066,0 -0.096,0 l -54.548,17.6209997 -12.991,-3.577 10.264,-2.824 c 0.967,-0.26 2.666,-1.227 3.027,-2.204 0.402,-1.079 -0.142,-2.264 -1.211,-2.666 l -13.973,-5.2309997 c 0,0 0.712,-0.254 0.773,-0.295 0.102,-0.031 0.193,-0.122 0.285,-0.183 0.163,-0.092 0.3,-0.183 0.427,-0.315 0.026,-0.031 0.066,-0.036 0.092,-0.062 0.056,-0.076 0.081,-0.173 0.132,-0.254 0.071,-0.117 0.142,-0.219 0.188,-0.351 0.051,-0.132 0.077,-0.265 0.097,-0.396 0.026,-0.132 0.041,-0.25 0.041,-0.382 0,-0.142 -0.041,-0.285 -0.071,-0.432 -0.015,-0.081 -0.005,-0.163 -0.035,-0.259 -0.015,-0.026 -0.041,-0.041 -0.061,-0.081 -0.056,-0.127 -0.138,-0.244 -0.219,-0.366 -0.082,-0.102 -0.153,-0.224 -0.255,-0.316 -0.035,-0.02 -0.051,-0.066 -0.066,-0.092 l -5.694,-4.78799999 c -0.672,-0.55 -1.567,-0.621 -2.29,-0.25 -0.346,0.056 -0.697,0.178 -0.992,0.423 l -5.49,4.61499999 c -0.026,0.026 -0.051,0.077 -0.081,0.092 -0.092,0.092 -0.163,0.214 -0.229,0.311 -0.096,0.127 -0.183,0.244 -0.229,0.372 -0.02,0.026 -0.056,0.056 -0.071,0.081 -0.031,0.097 -0.02,0.188 -0.031,0.275 -0.041,0.132 -0.071,0.275 -0.071,0.417 0,0.132 0.015,0.259 0.041,0.387 0.02,0.127 0.041,0.259 0.092,0.382 0.051,0.142 0.122,0.249 0.198,0.372 0.046,0.081 0.077,0.168 0.128,0.229 0.02,0.041 0.061,0.041 0.091,0.061 0.112,0.143 0.27,0.239 0.428,0.336 0.091,0.061 0.183,0.148 0.346,0.219 l 0.712,0.254 -13.978,5.2309997 c -1.063,0.402 -1.613,1.588 -1.216,2.666 0.478,1.247 1.827,1.873 3.033,2.204 l 10.268,2.824 -12.701,3.496 -54.843,-17.5399997 c -0.03,0 -0.056,0 -0.102,0 -0.132,-0.051 -0.285,-0.051 -0.448,-0.061 -0.122,0 -0.254,-0.02 -0.366,0.01 -0.046,0 -0.081,-0.01 -0.122,0 l -28.566,5.8359997 -28.368,-8.8329997 c -1.094,-0.351 -2.244,0.254 -2.585,1.354 -0.341,1.089 0.27,2.244 1.359,2.595 l 21.183,6.5999997 -84.228,17.219 -81.867,-4.07 -65.803,-13.454 c -0.056,-0.005 -0.107,0 -0.168,0 -0.142,-0.02 -0.285,-0.005 -0.432,-0.005 -0.137,0.016 -0.254,0.041 -0.381,0.071 -0.122,0.031 -0.234,0.081 -0.346,0.143 -0.132,0.066 -0.244,0.132 -0.356,0.224 -0.051,0.036 -0.117,0.056 -0.168,0.097 l -9.439,9.093 -24.882,-1.252 c -0.051,0 -0.092,0.02 -0.143,0.02 -0.051,0 -0.091,-0.01 -0.132,-0.01 l -166.416,14.593 c -0.061,0.01 -0.112,0.041 -0.178,0.046 -0.168,0.041 -0.331,0.076 -0.484,0.153 -0.092,0.035 -0.163,0.086 -0.25,0.137 -0.137,0.086 -0.264,0.178 -0.381,0.305 -0.066,0.077 -0.132,0.158 -0.198,0.25 -0.087,0.122 -0.148,0.234 -0.208,0.376 -0.051,0.117 -0.092,0.244 -0.112,0.382 -0.02,0.071 -0.061,0.142 -0.066,0.208 -0.015,0.077 0.015,0.138 0.015,0.193 0,0.071 -0.03,0.138 -0.015,0.199 0.005,0.077 0.035,0.143 0.056,0.219 0.031,0.122 0.061,0.254 0.112,0.351 0.051,0.132 0.112,0.26 0.183,0.377 0.066,0.096 0.137,0.183 0.214,0.28 0.102,0.096 0.214,0.183 0.326,0.254 0.096,0.071 0.183,0.138 0.295,0.188 0.132,0.066 0.285,0.097 0.438,0.132 0.081,0.02 0.143,0.066 0.234,0.071 l 168.146,16.354 c 0.082,0.01 0.138,0.015 0.209,0.015 0.03,0 0.071,0 0.102,-0.005 l 23.804,-1.191 8.721,9.057 c 0.026,0.03 0.061,0.035 0.092,0.066 0.132,0.122 0.285,0.219 0.458,0.315 0.061,0.026 0.132,0.081 0.193,0.107 0.234,0.092 0.488,0.148 0.743,0.148 0.142,0 0.275,-0.01 0.412,-0.051 l 65.803,-13.438 81.867,-4.076 88.294,18.038 -25.269,8.167 1.272,3.953 32.26,-10.421 24.648,5.028 c 0.127,0.035 0.275,0.046 0.443,0.041 0.198,0 0.412,-0.02 0.61,-0.097 l 54.095,-17.723 13.433,3.689 -10.268,2.824 c -1.221,0.336 -2.544,0.911 -3.033,2.208 -0.397,1.069 0.153,2.259 1.216,2.661 l 13.978,5.226 -0.712,0.269 c -0.041,0.01 -0.061,0.036 -0.107,0.056 -0.117,0.056 -0.229,0.137 -0.336,0.214 -0.122,0.086 -0.234,0.163 -0.331,0.27 -0.03,0.03 -0.071,0.035 -0.091,0.061 -0.051,0.066 -0.082,0.153 -0.128,0.229 -0.076,0.117 -0.147,0.244 -0.198,0.382 -0.051,0.117 -0.071,0.244 -0.092,0.371 -0.025,0.132 -0.041,0.26 -0.041,0.387 0,0.153 0.03,0.295 0.071,0.427 0.01,0.081 0,0.173 0.031,0.27 0.015,0.035 0.051,0.071 0.071,0.107 0.03,0.071 0.076,0.153 0.122,0.229 0.092,0.143 0.204,0.29 0.32,0.412 0.041,0.031 0.061,0.081 0.097,0.102 l 5.669,4.773 c 0.392,0.33 0.865,0.488 1.333,0.488 0.153,0 0.305,-0.071 0.458,-0.092 0.026,0 0.056,0 0.097,0 0.463,0 0.936,-0.157 1.328,-0.478 l 5.582,-4.692 c 0.026,-0.02 0.046,-0.071 0.077,-0.102 0.122,-0.122 0.239,-0.26 0.336,-0.412 0.045,-0.076 0.091,-0.158 0.122,-0.229 0.01,-0.046 0.051,-0.071 0.066,-0.107 0.03,-0.086 0.02,-0.173 0.035,-0.265 0.031,-0.138 0.071,-0.28 0.071,-0.432 0,-0.127 -0.015,-0.244 -0.041,-0.382 -0.02,-0.132 -0.046,-0.259 -0.097,-0.376 -0.046,-0.138 -0.117,-0.255 -0.203,-0.372 -0.046,-0.077 -0.066,-0.173 -0.117,-0.239 -0.026,-0.026 -0.066,-0.051 -0.097,-0.066 -0.091,-0.102 -0.198,-0.178 -0.32,-0.265 -0.117,-0.077 -0.223,-0.158 -0.356,-0.214 -0.031,-0.02 -0.056,-0.046 -0.092,-0.056 l -0.712,-0.269 13.973,-5.226 c 1.069,-0.402 1.613,-1.592 1.211,-2.661 -0.346,-0.946 -2.111,-1.949 -3.027,-2.208 l -10.264,-2.824 11.948,-3.282 55.606,17.331 c 0.193,0.061 0.397,0.081 0.621,0.086 0.132,0 0.28,-0.01 0.412,-0.046 l 25.743,-5.251 33.278,10.645 c 0.214,0.062 0.422,0.092 0.631,0.092 0.875,0 1.694,-0.554 1.974,-1.435 0.351,-1.094 -0.265,-2.259 -1.343,-2.61 l -26.241,-8.391 87.16,-17.814 81.867,4.076 65.798,13.438 c 0.132,0.041 0.27,0.051 0.417,0.051 0.254,0 0.504,-0.056 0.748,-0.148 0.066,-0.026 0.117,-0.081 0.188,-0.107 0.168,-0.092 0.326,-0.193 0.458,-0.315 0.02,-0.031 0.061,-0.036 0.092,-0.066 l 8.716,-9.057 23.814,1.191 c 0.026,0.005 0.061,0.005 0.097,0.005 0.071,0 0.132,-0.005 0.199,-0.015 l 168.151,-16.354 c 0.092,-0.005 0.153,-0.051 0.229,-0.071 0.163,-0.035 0.305,-0.066 0.453,-0.132 0.102,-0.051 0.183,-0.117 0.28,-0.178 0.122,-0.081 0.234,-0.168 0.331,-0.264 0.081,-0.097 0.142,-0.183 0.208,-0.28 0.082,-0.117 0.143,-0.244 0.199,-0.377 0.046,-0.097 0.071,-0.219 0.107,-0.351 0.016,-0.076 0.046,-0.142 0.061,-0.219 0,-0.075 -0.027,-0.132 -0.027,-0.202 z m -204.961,-20.751 5.847,5.618 -44.076,2.198 z m -92.385,14.665 -24.084,4.905 -14.645,-2.982 z m -152.927,-17.194 81.262,16.603 -111.258,5.541 -20.415,-5.628 z m -38.036,24.215 -17.916,4.931 -16.695,-5.338 15.122,-4.946 z m 14.426,-29.034 15.413,3.139 -49.439,16.211 -13.993,-3.846 z m -55.2,17.825 14.044,3.857 -14.614,4.793 -13.179,-4.208 z m -7.281,10.854 -15.54,5.088 -13.515,-4.208 15.825,-5.114 z m -13.611,-36.1229997 1.847,1.552 -1.847,0.687 -1.847,-0.687 z m -13.19,11.5859997 13.189,-4.92 13.184,4.92 -13.183,3.628 z m 13.19,7.928 13.621,3.75 -13.25,4.285 -13.657,-4.381 z m -6.386,10.217 -15.917,5.134 -15.703,-4.895 17.408,-4.798 z m -22.756,7.338 -13.963,4.513 -18.563,-5.104 16.263,-4.473 z m -46.95,-29.625 48.284,15.423 -17.519,4.824 -51.434,-16.033 z m -29.081,5.928 52.451,16.359 -16.99,4.676 -111.258,-5.541 z m -108.734,18.008 -14.644,2.982 -24.068,-4.905 z m -131.102,-16.588 38.229,7.816 -44.076,-2.198 z m -34.734,35.044 -145.711,-14.166 143.961,-12.634 20.842,1.033 -10.38,9.994 c -0.423,0.392 -0.631,0.926 -0.641,1.455 -0.015,0.534 0.178,1.073 0.58,1.481 l 11.408,11.835 z m 34.774,8.324 -5.424,-5.628 43.613,-2.173 z m 65.01,-13.296 -74.235,3.709 -12.482,-12.955 11.724,-11.256 75.003,3.72 41.053,8.396 z m 27.335,-1.353 24.073,-4.916 14.644,2.987 z m 34.407,-7.033 20.934,-4.269 86.004,4.269 -86.004,4.285 z m 116.937,23.901 -79.679,-16.283 111.248,-5.536 19.412,5.353 z m 25.183,5.145 -16.924,-3.455 50.014,-16.161 14.543,4.005 z m 54.761,-17.948 -14.492,-3.984 13.55,-4.371 13.56,4.224 z m 21.336,25.396 -1.847,-1.562 1.847,-0.687 1.847,0.687 z m 13.184,-11.596 -13.184,4.936 -13.189,-4.935 13.189,-3.634 z m -13.184,-7.927 -14.11,-3.878 12.212,-4.01 14.329,4.468 z m 4.885,-10.106 15.453,-5.063 16.099,5.15 -16.613,4.564 z m 71.192,22.19 -48.935,-15.265 16.506,-4.534 50.421,16.115 z m 26.286,-5.383 -51.403,-16.42 18.745,-5.169 111.258,5.536 z m 94.909,-19.387 -85.994,-4.285 85.994,-4.269 20.939,4.269 z m 16.629,0.819 14.645,-2.987 24.084,4.916 z m 131.062,16.578 -38.179,-7.801 43.607,2.173 z m 9.235,-9.586 -74.24,-3.709 -41.064,-8.386 41.064,-8.396 75.008,-3.72 11.703,11.256 z m 25.534,1.262 -20.048,-1.003 11.413,-11.835 v 0 0 c 0.565,-0.596 0.702,-1.445 0.427,-2.163 -0.015,-0.035 -0.015,-0.066 -0.015,-0.086 -0.061,-0.138 -0.168,-0.239 -0.254,-0.361 -0.071,-0.117 -0.122,-0.229 -0.224,-0.326 v 0 0 l -10.391,-9.994 20.853,-1.033 143.956,12.634 z"
     id="path2"
     inkscape:connector-curvature="0"
     style="fill:#786b61" /></svg>
