<?xml version="1.0" encoding="UTF-8" standalone="no"?>
<svg
   xmlns:osb="http://www.openswatchbook.org/uri/2009/osb"
   xmlns:dc="http://purl.org/dc/elements/1.1/"
   xmlns:cc="http://creativecommons.org/ns#"
   xmlns:rdf="http://www.w3.org/1999/02/22-rdf-syntax-ns#"
   xmlns:svg="http://www.w3.org/2000/svg"
   xmlns="http://www.w3.org/2000/svg"
   xmlns:sodipodi="http://sodipodi.sourceforge.net/DTD/sodipodi-0.dtd"
   xmlns:inkscape="http://www.inkscape.org/namespaces/inkscape"
   inkscape:export-ydpi="16.879999"
   inkscape:export-xdpi="16.879999"
   inkscape:export-filename="/Users/yjutard/work/src/off/offirmo-monorepo/A-apps/the-boring-rpg/client-browser/src/favicons/favicon-180x180.png"
   width="1024"
   height="1024"
   id="svg2"
   version="1.1"
   inkscape:version="1.0 (4035a4f, 2020-05-01)"
   sodipodi:docname="favicon.svg">
  <defs
     id="defs4">
    <linearGradient
       id="linearGradient4022"
       osb:paint="solid">
      <stop
         style="stop-color:#0032a8;stop-opacity:1;"
         offset="0"
         id="stop4024" />
    </linearGradient>
    <linearGradient
       id="linearGradient3878"
       osb:paint="gradient">
      <stop
         style="stop-color:#ffffff;stop-opacity:1;"
         offset="0"
         id="stop3880" />
      <stop
         style="stop-color:#ffffff;stop-opacity:0;"
         offset="1"
         id="stop3882" />
    </linearGradient>
  </defs>
  <sodipodi:namedview
     id="base"
     pagecolor="#c6c6c6"
     bordercolor="#666666"
     borderopacity="1.0"
     inkscape:pageopacity="0.09803922"
     inkscape:pageshadow="2"
     inkscape:zoom="0.087440506"
     inkscape:cx="-2043.766"
     inkscape:cy="-497.81827"
     inkscape:document-units="px"
     inkscape:current-layer="layer1"
     showgrid="true"
     inkscape:window-width="1680"
     inkscape:window-height="1028"
     inkscape:window-x="1938"
     inkscape:window-y="82"
     inkscape:window-maximized="0"
     inkscape:showpageshadow="false"
     inkscape:snap-grids="true"
     inkscape:snap-page="true"
     showguides="true"
     guidetolerance="20"
     inkscape:snap-bbox="true"
     showborder="false"
     inkscape:pagecheckerboard="true"
     inkscape:document-rotation="0"
     fit-margin-top="0"
     fit-margin-left="0"
     fit-margin-right="0"
     fit-margin-bottom="0">
    <inkscape:grid
       type="xygrid"
       id="grid3756"
       empspacing="1"
       visible="true"
       enabled="true"
       snapvisiblegridlinesonly="true"
       dotted="false"
       spacingx="12"
       spacingy="12"
       units="px"
       originx="-684"
       originy="-84" />
  </sodipodi:namedview>
  <metadata
     id="metadata7">
    <rdf:RDF>
      <cc:Work
         rdf:about="">
        <dc:format>image/svg+xml</dc:format>
        <dc:type
           rdf:resource="http://purl.org/dc/dcmitype/StillImage" />
        <dc:title />
      </cc:Work>
    </rdf:RDF>
  </metadata>
  <g
     inkscape:label="Base"
     inkscape:groupmode="layer"
     id="layer1"
     transform="translate(-684,-56.362168)"
     style="display:inline" />
  <g
     inkscape:groupmode="layer"
     id="layer10"
     inkscape:label="Logos"
     style="display:inline"
     transform="translate(-684,-84)">
    <rect
       y="120"
       x="720"
       height="952"
       width="952"
       id="rect942"
       style="display:inline;fill:#543d46;fill-opacity:1;stroke:#ffebbc;stroke-width:72;stroke-linecap:butt;stroke-linejoin:round;stroke-miterlimit:4;stroke-dasharray:none;stroke-opacity:1;paint-order:normal"
       inkscape:export-xdpi="96"
       inkscape:export-ydpi="96" />
    <path
       id="path4"
       d="m 1218.2004,207.86424 c -43.7014,14.1636 -86.7236,44.97289 -116.1971,89.15266 28.1667,76.89959 28.1667,91.93015 0,168.82813 31.9813,24.82564 64.7075,39.75185 97.5847,44.10272 -3.3121,-41.04105 -5.8279,-82.08852 1.8061,-123.12476 -21.8747,-2.38093 -37.5266,-9.62489 -59.4029,-22.27451 v -51.72557 c 57.5823,30.65837 99.2832,30.14622 158.6429,0 v 51.72878 c -21.4557,10.43084 -35.1377,17.91722 -56.5934,21.22132 5.8022,41.04907 5.5871,82.12063 2.2075,123.17291 29.9327,-5.24191 59.7819,-19.44725 89.1045,-43.09928 -23.0435,-76.89798 -23.0467,-91.93015 0,-168.82653 -27.2643,-44.96646 -76.1851,-74.86865 -117.1523,-89.15587 z m -208.0614,13.19389 c -41.59177,177.26817 -43.91008,345.70938 -43.99037,531.29077 -30.2473,-2.46763 -60.33731,-8.22009 -89.95051,-17.85301 v 45.84306 h 110.8845 c 13.99178,56.23216 10.39071,112.46753 -1.6633,168.7013 h 45.16228 c -11.5514,-56.23377 -13.2244,-112.46914 -1.3999,-168.7013 h 110.6244 v -45.84467 c -29.6855,7.93432 -59.814,13.73012 -90.063,16.79339 0.1317,-184.53461 4.0073,-358.13264 -39.6025,-530.22794 z m 143.6428,324.91031 c 0,188.27539 40.9672,374.62741 192.9074,414.16732 167.2644,-33.7714 193.1127,-225.37336 193.1127,-414.16893 h -386.0233 z"
       inkscape:connector-curvature="0"
       style="display:inline;fill:#ffebbc;fill-rule:evenodd;stroke-width:48;stroke-miterlimit:4;stroke-dasharray:none"
       inkscape:export-xdpi="96"
       inkscape:export-ydpi="96" />
  </g>
  <rect
     style="fill:#ffffff;fill-opacity:1;stroke:none"
     id="rect5559"
     width="0"
     height="0"
     x="-684"
     y="-84" />
</svg>
