<svg xmlns="http://www.w3.org/2000/svg" xmlns:xlink="http://www.w3.org/1999/xlink" version="1.1" x="0px" y="0px" viewBox="0 0 100 125" enable-background="new 0 0 100 100" xml:space="preserve"><path d="M68.143,71.782c-0.127,0.017-1.229,0.161-2.563,0.161c-1.117,0-2.063-0.103-2.416-0.146v7.419h-42.5V20.781h42.5V28.2  c0.354-0.043,1.301-0.145,2.416-0.145c1.338,0,2.44,0.147,2.563,0.164c0.114,0.016,0.221,0.053,0.332,0.078V12.813  c0-2.934-2.377-5.313-5.313-5.313h-42.5c-2.938,0-5.313,2.379-5.313,5.313v74.375c0,2.938,2.375,5.313,5.313,5.313h42.5  c2.937,0,5.313-2.376,5.313-5.313V71.704C68.361,71.729,68.256,71.768,68.143,71.782z M53.441,12.742  c0.729,0,1.328,0.594,1.328,1.328c0,0.732-0.599,1.327-1.328,1.327c-0.734,0-1.328-0.595-1.328-1.327  C52.113,13.336,52.707,12.742,53.441,12.742z M36.056,12.813h11.709c0.737,0,1.329,0.594,1.329,1.328s-0.592,1.328-1.329,1.328  H36.056c-0.737,0-1.329-0.594-1.329-1.328S35.318,12.813,36.056,12.813z M41.91,89.844c-2.2,0-3.985-1.785-3.985-3.984  c0-2.197,1.785-3.98,3.985-3.98c2.2,0,3.985,1.783,3.985,3.98C45.896,88.059,44.11,89.844,41.91,89.844z"/><path d="M65.282,29.999c-11.048,0-20.001,8.955-20.001,20.001s8.956,20,20.001,20c11.045,0,20.002-8.954,20.002-20  S76.329,29.999,65.282,29.999z M65.282,65.333c-8.47,0-15.333-6.864-15.333-15.333s6.863-15.333,15.333-15.333  c8.469,0,15.334,6.865,15.334,15.333S73.752,65.333,65.282,65.333z"/><g><path d="M59.623,59.627h11.655c1.15,0,2.083-0.933,2.083-2.084v-8.182c0-1.11-0.867-2.014-1.961-2.078v-3.285   c0-3.281-2.669-5.95-5.949-5.95c-3.281,0-5.951,2.669-5.951,5.95v3.285c-1.093,0.063-1.961,0.968-1.961,2.078v8.182   C57.539,58.694,58.472,59.627,59.623,59.627z M67.354,55.725c-0.061,0.093-0.163,0.147-0.274,0.147H63.82   c-0.11,0-0.213-0.055-0.274-0.147c-0.062-0.092-0.071-0.208-0.029-0.31l0.788-1.867c-0.415-0.341-0.663-0.854-0.663-1.397   c0-0.998,0.812-1.809,1.808-1.809c0.998,0,1.81,0.811,1.81,1.809c0,0.544-0.248,1.057-0.663,1.397l0.787,1.867   C67.426,55.517,67.415,55.633,67.354,55.725z M62.453,43.998c0-1.653,1.345-2.998,2.998-2.998c1.651,0,2.997,1.345,2.997,2.998   v3.279h-5.995V43.998z"/></g><text x="0" y="115" fill="#000000" font-size="5px" font-weight="bold" font-family="'Helvetica Neue', Helvetica, Arial-Unicode, Arial, Sans-serif">Created by Adriano Emerick</text><text x="0" y="120" fill="#000000" font-size="5px" font-weight="bold" font-family="'Helvetica Neue', Helvetica, Arial-Unicode, Arial, Sans-serif">from the Noun Project</text></svg>