<?xml version="1.0" encoding="UTF-8" standalone="no"?>
<svg
   xmlns:dc="http://purl.org/dc/elements/1.1/"
   xmlns:cc="http://creativecommons.org/ns#"
   xmlns:rdf="http://www.w3.org/1999/02/22-rdf-syntax-ns#"
   xmlns:svg="http://www.w3.org/2000/svg"
   xmlns="http://www.w3.org/2000/svg"
   xmlns:sodipodi="http://sodipodi.sourceforge.net/DTD/sodipodi-0.dtd"
   xmlns:inkscape="http://www.inkscape.org/namespaces/inkscape"
   version="1.1"
   viewBox="0 0 630 630"
   id="svg1031"
   sodipodi:docname="ts.svg"
   inkscape:version="0.92.2 5c3e80d, 2017-08-06">
  <metadata
     id="metadata1037">
    <rdf:RDF>
      <cc:Work
         rdf:about="">
        <dc:format>image/svg+xml</dc:format>
        <dc:type
           rdf:resource="http://purl.org/dc/dcmitype/StillImage" />
      </cc:Work>
    </rdf:RDF>
  </metadata>
  <defs
     id="defs1035" />
  <sodipodi:namedview
     pagecolor="#ffffff"
     bordercolor="#666666"
     borderopacity="1"
     objecttolerance="10"
     gridtolerance="10"
     guidetolerance="10"
     inkscape:pageopacity="0"
     inkscape:pageshadow="2"
     inkscape:window-width="1142"
     inkscape:window-height="881"
     id="namedview1033"
     showgrid="false"
     inkscape:zoom="0.37460317"
     inkscape:cx="315"
     inkscape:cy="315"
     inkscape:window-x="0"
     inkscape:window-y="0"
     inkscape:window-maximized="0"
     inkscape:current-layer="svg1031" />
  <rect
     style="fill:#ffffff;fill-opacity:1;stroke:none;stroke-width:3.11970472;stroke-linecap:butt;stroke-linejoin:bevel;stroke-miterlimit:4;stroke-dasharray:none;stroke-opacity:1;paint-order:normal"
     id="rect1582"
     width="496.52542"
     height="451.14404"
     x="114.78815"
     y="154.83049" />
  <!--
The MIT License (MIT)

Copyright (c) 2015 Remo H. Jansen <remo.jansen@wolksoftware.com>

Permission is hereby granted, free of charge, to any person obtaining a copy
of this software and associated documentation files (the "Software"), to deal
in the Software without restriction, including without limitation the rights
to use, copy, modify, merge, publish, distribute, sublicense, and/or sell
copies of the Software, and to permit persons to whom the Software is
furnished to do so, subject to the following conditions:

The above copyright notice and this permission notice shall be included in
all copies or substantial portions of the Software.

THE SOFTWARE IS PROVIDED "AS IS", WITHOUT WARRANTY OF ANY KIND, EXPRESS OR
IMPLIED, INCLUDING BUT NOT LIMITED TO THE WARRANTIES OF MERCHANTABILITY,
FITNESS FOR A PARTICULAR PURPOSE AND NONINFRINGEMENT. IN NO EVENT SHALL THE
AUTHORS OR COPYRIGHT HOLDERS BE LIABLE FOR ANY CLAIM, DAMAGES OR OTHER
LIABILITY, WHETHER IN AN ACTION OF CONTRACT, TORT OR OTHERWISE, ARISING FROM,
OUT OF OR IN CONNECTION WITH THE SOFTWARE OR THE USE OR OTHER DEALINGS IN
THE SOFTWARE.
-->
  <g
     transform="translate(0.000000,630.000000) scale(0.100000,-0.100000)"
     fill="#007ACC"
     stroke="none"
     id="g1029">
    <path
       d="M0 3150 l0 -3150 3150 0 3150 0 0 3150 0 3150 -3150 0 -3150 0 0 -3150z m5077 251 c160 -40 282 -111 394 -227 58 -62 144 -175 151 -202 2 -8 -272 -192 -438 -295 -6 -4 -30 22 -57 62 -81 118 -166 169 -296 178 -191 13 -314 -87 -313 -254 0 -49 7 -78 27 -118 42 -87 120 -139 365 -245 451 -194 644 -322 764 -504 134 -203 164 -527 73 -768 -100 -262 -348 -440 -697 -499 -108 -19 -364 -16 -480 5 -253 45 -493 170 -641 334 -58 64 -171 231 -164 243 3 4 29 20 58 37 28 16 134 77 234 135 l181 105 38 -56 c53 -81 169 -192 239 -229 201 -106 477 -91 613 31 58 53 82 108 82 189 0 73 -9 105 -47 160 -49 70 -149 129 -433 252 -325 140 -465 227 -593 365 -74 80 -144 208 -173 315 -24 89 -30 312 -11 402 67 314 304 533 646 598 111 21 369 13 478 -14z m-1479 -263 l2 -258 -410 0 -410 0 0 -1165 0 -1165 -290 0 -290 0 0 1165 0 1165 -410 0 -410 0 0 253 c0 140 3 257 7 260 3 4 502 6 1107 5 l1101 -3 3 -257z"
       id="path1027" />
  </g>
</svg>
