<?xml version="1.0" standalone="no"?>
<!DOCTYPE svg PUBLIC "-//W3C//DTD SVG 20010904//EN"
 "http://www.w3.org/TR/2001/REC-SVG-20010904/DTD/svg10.dtd">
<svg version="1.0" xmlns="http://www.w3.org/2000/svg"
 width="260.000000pt" height="260.000000pt" viewBox="0 0 260.000000 260.000000"
 preserveAspectRatio="xMidYMid meet">
<metadata>
Created by potrace 1.14, written by Peter Selinger 2001-2017
</metadata>
<g transform="translate(0.000000,260.000000) scale(0.100000,-0.100000)"
fill="#000000" stroke="none">
<path d="M1660 2400 c-68 -6 -111 -15 -152 -33 -32 -14 -58 -28 -58 -31 0 -3
21 4 46 14 53 23 54 23 54 10 0 -5 -8 -10 -19 -10 -10 0 -24 -7 -31 -15 -11
-13 -9 -13 21 -1 19 7 50 17 69 21 19 4 44 15 54 24 18 15 18 15 5 -9 -8 -14
-19 -32 -26 -40 -7 -9 -19 -33 -28 -53 -16 -38 -15 -38 5 -27 21 11 44 55 36
69 -3 3 4 18 14 31 l19 25 -9 -40 c-15 -63 -12 -107 10 -143 24 -39 24 -42 5
-42 -9 0 -20 17 -27 45 -7 25 -15 45 -18 45 -10 0 -65 -63 -72 -82 -4 -10 1
-23 13 -34 18 -16 20 -16 42 2 12 10 25 23 28 28 12 16 20 -14 9 -35 -8 -14
-18 -19 -31 -16 -20 5 -26 -7 -9 -18 13 -8 70 -106 70 -120 0 -5 -12 10 -26
35 -46 81 -165 183 -194 165 -5 -3 -10 -1 -10 4 0 6 -8 11 -17 11 -10 0 -31 8
-48 18 -44 27 -82 32 -165 21 -115 -14 -231 -81 -266 -152 -32 -66 -39 -77
-56 -83 -27 -8 -68 -100 -75 -167 -6 -57 -5 -59 13 -49 15 9 21 7 30 -10 10
-18 13 -10 22 51 12 80 40 138 65 133 11 -2 19 7 23 24 5 17 9 22 14 13 18
-28 73 -16 139 28 35 24 61 37 58 29 -5 -13 1 -12 31 4 l37 20 8 -25 c5 -14
14 -25 20 -25 5 0 7 -3 4 -6 -9 -10 34 -45 45 -38 6 4 8 21 5 38 l-6 31 14
-30 c8 -18 9 -32 3 -36 -5 -4 -4 -29 5 -67 8 -34 13 -80 11 -102 -2 -21 0 -41
4 -44 12 -7 100 51 112 74 6 11 12 34 13 50 1 19 6 28 15 25 6 -2 12 1 12 6 0
7 9 9 21 6 17 -5 18 -3 7 11 -10 12 -10 14 0 8 15 -9 15 -5 2 28 -6 17 -6 26
0 26 6 0 10 -5 10 -11 0 -6 7 -9 15 -5 8 3 15 1 15 -4 0 -6 -4 -10 -9 -10 -5
0 -9 -16 -9 -35 0 -19 4 -32 9 -29 5 3 16 -2 25 -11 15 -15 15 -17 0 -34 -9
-10 -16 -21 -16 -24 0 -7 35 -2 70 10 8 2 43 6 78 8 91 6 172 25 172 42 0 8
-4 12 -9 8 -5 -3 -13 0 -17 6 -5 8 -3 9 6 4 9 -6 10 -2 5 16 -7 21 -6 22 7 11
10 -8 5 10 -12 45 -78 159 -105 211 -126 242 -13 19 -21 38 -18 43 3 5 -1 17
-11 27 -15 18 -14 20 10 40 15 11 43 23 64 27 20 3 41 7 46 8 16 5 -58 46 -80
45 -11 -1 -63 -5 -115 -9z m-60 -24 c0 -7 -40 -14 -44 -7 -3 4 6 8 20 9 13 1
24 0 24 -2z m88 -85 c-13 -15 -25 -27 -26 -25 -6 4 32 53 41 54 5 0 -2 -13
-15 -29z m-76 -23 c-7 -7 -12 -8 -12 -2 0 6 3 14 7 17 3 4 9 5 12 2 2 -3 -1
-11 -7 -17z m197 -268 l-1 -25 -8 25 c-4 14 -8 32 -9 40 -1 13 0 13 9 0 5 -8
9 -26 9 -40z m-117 -92 c-7 -7 -12 -8 -12 -2 0 6 3 14 7 17 3 4 9 5 12 2 2 -3
-1 -11 -7 -17z m-242 -48 c0 -5 -4 -10 -10 -10 -5 0 -10 5 -10 10 0 6 5 10 10
10 6 0 10 -4 10 -10z"/>
<path d="M1420 2288 l-20 -28 37 26 c49 33 49 33 24 31 -11 -1 -30 -14 -41
-29z"/>
<path d="M1330 2260 c-8 -15 -8 -18 3 -14 8 3 14 11 14 19 0 20 -4 19 -17 -5z"/>
<path d="M1766 2240 c12 -14 29 -40 38 -57 9 -18 19 -33 21 -33 11 0 -34 76
-56 95 l-24 20 21 -25z"/>
<path d="M1340 1844 c0 -14 4 -23 9 -20 5 3 7 15 4 26 -7 28 -13 25 -13 -6z"/>
<path d="M1951 1860 c0 -8 4 -22 9 -30 12 -18 12 -2 0 25 -6 13 -9 15 -9 5z"/>
<path d="M1775 1833 c-99 -16 -178 -40 -170 -53 3 -4 -6 -11 -20 -14 -14 -4
-25 -10 -25 -15 0 -6 12 -6 30 -1 26 7 33 4 59 -25 41 -48 48 -104 22 -179
-11 -32 -28 -70 -38 -85 l-18 -26 -6 65 c-6 59 -15 96 -51 217 -11 40 -14 43
-45 40 -18 -1 -33 -7 -33 -12 0 -10 -67 -41 -81 -38 -3 1 -3 -17 2 -40 4 -25
3 -44 -2 -48 -6 -3 -4 -11 4 -18 19 -16 31 -140 22 -237 -6 -65 -12 -81 -37
-110 -21 -24 -26 -34 -15 -34 8 0 17 6 20 13 2 6 7 9 11 6 3 -3 -3 -52 -15
-108 -20 -98 -50 -171 -71 -171 -5 0 -6 5 -2 11 8 13 -49 -15 -96 -48 -19 -13
-3 6 35 43 56 54 61 61 26 36 -24 -17 -49 -29 -54 -25 -6 3 -7 2 -4 -4 3 -5
-9 -25 -28 -43 -33 -32 -35 -32 -35 -12 0 24 -32 42 -76 42 -22 0 -23 -2 -14
-20 10 -19 9 -20 -8 -9 -17 11 -24 8 -52 -24 -18 -20 -37 -37 -42 -37 -6 0 7
19 27 42 l38 41 -23 19 c-12 10 -33 18 -46 18 -34 0 -30 26 6 45 16 8 33 15
36 14 3 -1 25 17 48 40 30 29 48 40 64 36 12 -2 22 1 22 6 0 7 -19 9 -47 7
-46 -3 -48 -2 -65 32 -9 19 -33 78 -53 130 -20 52 -45 116 -56 142 -10 26 -19
69 -19 97 0 27 -3 52 -7 54 -5 2 -26 -1 -48 -7 l-40 -12 -11 -74 -11 -75 -2
63 c0 34 -4 62 -9 62 -10 0 -62 -81 -62 -97 0 -7 -5 -13 -10 -13 -6 0 -10 6
-9 13 4 32 -1 40 -16 27 -9 -7 -18 -10 -22 -6 -10 9 -43 -25 -58 -59 -7 -17
-25 -51 -41 -76 -16 -24 -28 -47 -29 -51 0 -4 -7 -13 -15 -20 -12 -11 -12 -10
0 7 14 18 14 19 -2 6 -22 -17 -22 -18 0 -30 14 -8 26 -3 55 24 29 26 37 30 38
17 0 -13 3 -12 11 6 6 12 15 22 20 22 5 0 6 6 2 13 -5 9 -4 9 5 1 9 -9 6 -24
-13 -67 -28 -64 -75 -214 -81 -257 -2 -16 -22 -60 -45 -99 -69 -116 -102 -228
-83 -280 7 -17 9 -7 9 41 0 107 60 211 217 382 18 20 27 24 23 13 -5 -17 -3
-16 24 3 16 11 40 35 54 52 l25 32 6 -27 c6 -21 0 -40 -26 -82 -18 -30 -36
-55 -40 -55 -4 0 -10 -8 -13 -17 -5 -13 1 -11 20 7 22 21 25 21 16 5 -13 -24
-46 -66 -36 -45 4 9 3 12 -2 7 -5 -5 -10 -13 -10 -18 -1 -5 -2 -13 -3 -18 0
-4 -15 -25 -31 -46 -29 -36 -41 -73 -20 -60 6 4 7 11 4 17 -4 6 -2 8 4 4 6 -3
19 4 29 17 10 13 32 31 48 41 17 10 23 12 14 5 -9 -8 -34 -35 -57 -62 -23 -26
-43 -46 -46 -45 -7 5 -46 -35 -41 -43 3 -4 1 -10 -5 -14 -14 -8 -53 -86 -47
-92 3 -2 12 8 19 24 8 15 19 27 26 26 7 -2 9 4 5 15 -3 9 -3 14 2 10 4 -4 21
14 38 40 17 26 59 77 94 115 47 51 63 75 63 96 0 16 3 37 6 45 5 13 2 15 -12
9 -18 -6 -18 -5 1 17 11 13 14 20 8 16 -15 -8 -18 10 -4 18 5 3 12 33 16 67 8
69 39 166 49 151 7 -11 -1 -239 -9 -252 -3 -4 -12 -81 -20 -171 -8 -90 -19
-193 -24 -229 l-8 -65 -2 61 c0 33 4 86 10 117 6 30 8 68 4 84 -6 25 -10 18
-32 -57 -27 -94 -75 -201 -98 -220 -13 -11 -14 -10 -10 3 12 29 -17 29 -48 -1
-18 -16 -45 -37 -62 -46 -16 -10 -22 -15 -12 -12 15 5 17 2 12 -14 -5 -15 -3
-18 9 -14 27 11 17 -5 -13 -21 -50 -25 -251 -20 -251 7 0 6 7 8 15 5 8 -4 17
-1 21 5 5 7 2 8 -7 4 -8 -4 -6 -1 4 7 18 15 18 15 -1 22 -11 3 -32 3 -46 -1
-35 -8 -79 3 -70 19 4 7 3 8 -1 4 -5 -4 -17 7 -27 25 -12 24 -17 28 -18 14 0
-29 47 -84 86 -101 19 -8 34 -18 34 -22 0 -5 -15 -17 -34 -27 -18 -9 -49 -39
-69 -64 -35 -47 -159 -271 -172 -312 -6 -20 -5 -21 15 -10 12 7 60 36 106 66
79 51 86 54 110 41 l25 -13 -43 -19 c-24 -10 -77 -34 -118 -54 l-75 -36 210
-3 c115 -1 214 -1 220 2 6 2 19 37 29 77 21 82 82 219 97 219 6 0 7 -6 3 -12
-4 -7 6 1 22 19 33 37 125 113 136 113 5 0 8 -9 8 -21 0 -15 5 -19 15 -15 9 3
18 -1 22 -9 4 -12 9 -13 19 -4 8 6 11 16 8 21 -7 11 24 48 41 48 12 0 30 -28
27 -42 -1 -4 6 -4 15 -1 12 5 14 3 8 -7 -4 -7 -4 -11 1 -9 17 8 76 44 133 80
48 31 68 37 134 43 54 5 77 4 72 -4 -3 -5 -2 -10 2 -10 13 0 46 67 39 79 -8
12 17 54 27 45 9 -10 84 70 100 107 9 18 16 28 16 21 2 -24 -50 -134 -96 -203
-25 -38 -48 -69 -50 -69 -2 0 -1 12 2 28 5 19 3 22 -3 12 -5 -8 -12 -30 -16
-49 l-6 -33 45 50 c48 54 51 55 187 68 60 6 65 8 52 21 -19 20 -10 50 28 88
27 28 30 29 39 12 10 -17 13 -17 34 -3 20 13 25 13 35 1 7 -8 20 -15 29 -15
11 0 1 -14 -27 -41 -33 -31 -37 -39 -20 -33 41 13 222 53 225 50 2 -2 -16 -25
-40 -52 -23 -27 -61 -74 -82 -104 -22 -30 -64 -83 -93 -119 -30 -36 -60 -81
-68 -101 -14 -33 -53 -160 -68 -223 l-7 -28 126 2 c118 2 125 3 125 22 0 18 1
19 18 4 13 -11 19 -12 27 -3 17 20 17 37 0 65 -9 14 7 0 37 -32 l53 -58 148 1
148 0 24 28 c14 15 22 33 20 40 -9 25 14 11 44 -26 l30 -38 82 -2 c88 -1 123
12 135 51 3 12 17 36 30 54 20 27 24 43 24 106 0 51 -4 77 -12 80 -10 4 -10 7
0 18 8 9 12 50 12 132 l0 118 -31 -18 c-17 -10 -53 -38 -80 -61 -33 -29 -49
-39 -49 -28 0 18 93 94 133 108 16 6 27 17 27 29 0 27 -22 24 -80 -12 -46 -28
-56 -31 -98 -24 -26 4 -66 8 -89 9 -40 0 -41 1 -20 13 12 7 41 12 64 13 23 0
45 5 49 11 4 6 23 9 48 6 25 -3 57 2 83 12 45 17 56 31 26 31 -17 1 -17 1 0
14 22 17 22 42 0 55 -17 10 -17 10 0 11 16 0 17 23 17 350 0 349 0 351 -20
340 -32 -17 -131 -118 -189 -192 -49 -63 -81 -88 -67 -53 15 39 -39 -7 -64
-53 -6 -13 -9 -26 -6 -29 2 -3 1 -17 -5 -32 -8 -24 -7 -23 22 9 24 27 28 29
19 10 -35 -69 -125 -167 -201 -220 -82 -56 -126 -76 -201 -90 -76 -14 -107 -9
-65 10 31 15 35 28 10 37 -14 6 -9 10 22 20 l40 13 -37 -5 c-44 -7 -90 14
-113 49 -28 43 -17 124 23 170 16 18 16 18 -5 5 -28 -17 -62 -1 -86 41 -15 24
-15 29 -2 40 18 15 19 31 3 65 -7 17 -17 24 -28 20 -12 -4 -16 2 -18 27 -1 18
3 40 8 48 7 11 10 5 10 -24 0 -31 3 -37 12 -28 18 18 28 15 28 -8 0 -11 7 -23
15 -26 8 -4 15 -10 15 -16 0 -5 -4 -6 -10 -3 -18 11 -10 -4 15 -29 14 -14 25
-22 25 -19 0 4 5 2 12 -5 7 -7 16 -12 20 -12 9 0 61 100 55 106 -2 2 -14 -19
-27 -46 -13 -28 -27 -50 -31 -50 -19 0 -18 23 1 48 12 15 38 50 57 77 l35 50
-5 -40 c-4 -40 -22 -83 -66 -159 -12 -21 -20 -41 -17 -43 3 -3 1 -14 -5 -25
-13 -23 -1 -68 12 -47 5 8 9 10 9 5 0 -6 7 -1 16 10 15 18 15 17 1 -6 -20 -35
-31 -90 -18 -90 6 0 11 8 11 18 0 11 9 27 21 38 20 18 20 18 14 -9 -12 -45 15
-74 75 -82 43 -6 59 -3 105 19 63 31 158 113 148 128 -3 6 -2 8 4 5 10 -6 41
30 62 73 12 24 12 24 -4 5 -9 -11 -22 -27 -28 -35 -33 -44 -145 -63 -227 -40
-61 17 -64 23 -45 64 27 56 66 90 129 111 53 18 57 22 70 64 l12 44 22 -51
c12 -28 22 -58 22 -66 0 -9 4 -16 10 -16 11 0 -12 68 -42 121 -23 42 -31 43
-90 12 -29 -14 -39 -26 -14 -17 11 4 14 -1 12 -20 -2 -19 -16 -35 -47 -55 -40
-26 -113 -95 -80 -76 10 5 12 4 7 -4 -4 -6 -12 -8 -18 -5 -5 3 -30 -13 -55
-37 -25 -24 -42 -37 -37 -29 5 8 7 23 5 34 -1 10 10 32 26 49 17 20 19 24 6
13 -32 -27 -28 -11 7 34 25 31 72 71 138 116 7 4 -47 200 -72 263 -14 36 -26
71 -26 78 0 31 21 6 77 -94 83 -147 93 -169 85 -178 -4 -5 -2 -5 4 -2 7 4 15
0 18 -9 4 -9 9 -14 12 -11 3 3 -2 19 -10 35 -9 17 -13 39 -10 49 4 13 3 14 -3
5 -7 -9 -31 23 -84 115 -41 70 -74 135 -75 143 0 8 -4 39 -8 68 -9 60 -2 59
-151 35z m55 -249 c-17 -82 -24 -58 -9 28 8 40 15 63 17 50 2 -12 -2 -47 -8
-78z m52 -105 c2 -61 -35 -177 -59 -186 -7 -3 -13 -10 -13 -17 0 -6 -14 -29
-32 -50 l-32 -39 -12 28 c-10 24 -8 33 12 62 12 19 28 51 35 71 6 20 18 46 25
57 8 11 14 28 14 39 0 12 8 56 17 100 l17 80 13 -44 c7 -25 14 -70 15 -101z
m-1117 -66 c-4 -10 -17 -52 -30 -94 -28 -91 -81 -195 -137 -267 -23 -29 -42
-51 -44 -49 -1 1 10 38 26 82 35 99 102 230 117 230 16 0 23 9 28 36 7 38 27
79 37 79 6 0 7 -8 3 -17z m-142 -18 c-3 -9 -8 -14 -10 -11 -3 3 -2 9 2 15 9
16 15 13 8 -4z m905 -162 c-5 -65 -4 -66 7 -28 l12 40 7 -30 c6 -25 3 -33 -18
-52 -15 -12 -31 -33 -36 -45 -9 -20 -10 -19 -4 7 3 17 8 48 10 70 8 72 15 105
21 105 3 0 4 -30 1 -67z m452 -37 c0 -2 -8 -10 -17 -17 -16 -13 -17 -12 -4 4
13 16 21 21 21 13z m-930 -99 c0 -2 -10 -12 -22 -23 l-23 -19 19 23 c18 21 26
27 26 19z m1340 -46 c8 -17 7 -20 -10 -18 -12 1 -20 8 -20 19 0 24 17 23 30
-1z m-660 -37 c0 -7 -71 -36 -76 -31 -3 2 10 12 28 20 35 17 48 21 48 11z
m-279 -83 c-12 -16 -21 -37 -21 -48 0 -10 -5 -25 -10 -33 -7 -11 -8 -5 -4 20
4 19 11 40 15 46 5 6 6 14 2 17 -3 4 -2 7 4 7 6 0 14 10 18 23 4 13 8 17 11
10 3 -7 -4 -26 -15 -42z m140 -14 c-6 -35 -42 -87 -60 -87 -6 0 -11 -7 -11
-14 0 -23 -61 -109 -71 -99 -10 10 11 88 29 105 11 11 12 10 7 -3 -4 -10 0
-16 9 -16 8 0 13 3 11 7 -2 4 9 19 24 34 19 18 27 34 24 47 -7 26 -20 24 -54
-10 -18 -19 -29 -24 -29 -15 0 14 95 83 116 83 7 1 9 -11 5 -32z m623 9 c-6
-16 -24 -23 -24 -8 0 10 22 33 27 28 2 -2 1 -11 -3 -20z m276 9 c13 -16 10
-46 -5 -46 -5 1 -10 5 -10 10 0 5 -3 13 -7 17 -11 10 -10 34 1 34 5 0 14 -7
21 -15z m-84 -53 c-9 -8 -26 10 -26 26 1 15 2 15 15 -2 8 -11 13 -21 11 -24z
m-145 7 c54 -18 109 -76 123 -129 7 -24 7 -25 -10 -5 -16 20 -16 19 -9 -5 7
-21 6 -23 -6 -13 -11 9 -20 8 -39 -7 l-24 -18 -34 38 c-38 45 -87 63 -134 49
-37 -10 -43 -7 -33 18 5 10 8 21 7 25 -3 14 73 58 99 58 14 0 41 -5 60 -11z
m-634 -31 c-3 -7 -5 -2 -5 12 0 14 2 19 5 13 2 -7 2 -19 0 -25z m-467 8 c0 -2
-7 -7 -16 -10 -8 -3 -12 -2 -9 4 6 10 25 14 25 6z m159 -98 c-7 -23 -16 -45
-20 -48 -3 -3 -12 -29 -19 -59 -11 -46 -17 -55 -46 -67 -43 -18 -53 -18 -28 0
15 11 19 26 19 68 0 29 4 59 9 67 19 29 -32 3 -170 -89 -76 -51 -140 -93 -141
-94 -1 -1 -5 -29 -9 -64 l-7 -63 89 56 c48 30 92 55 98 55 6 0 -34 -28 -88
-61 l-98 -62 -41 41 -41 41 27 67 c14 37 24 72 20 78 -3 6 9 -3 27 -21 l33
-32 61 31 c34 17 81 45 106 63 61 45 224 145 228 140 2 -1 -2 -23 -9 -47z
m-699 -7 c0 -5 -7 -12 -16 -15 -14 -5 -15 -4 -4 9 14 17 20 19 20 6z m1020
-10 c0 -5 -26 -35 -57 -68 -74 -74 -228 -155 -162 -84 14 14 27 20 40 16 14
-5 33 7 74 47 103 101 105 102 105 89z m331 -23 c-8 -22 -8 -51 3 -163 2 -16
4 -38 4 -49 2 -13 7 -16 20 -11 14 5 15 4 5 -6 -27 -27 -53 44 -53 142 0 63
14 128 26 117 2 -3 0 -16 -5 -30z m172 13 c-4 -3 -19 -23 -33 -43 -29 -44 -40
-48 -40 -14 0 27 55 80 72 70 6 -4 6 -9 1 -13z m64 3 c4 -14 -26 -49 -34 -39
-5 4 -3 10 3 12 7 2 9 13 6 25 -3 14 -1 19 8 16 8 -2 15 -8 17 -14z m-370 -48
c1 -1 -14 -6 -33 -12 -29 -9 -34 -9 -30 2 8 21 -8 17 -22 -6 -7 -12 -17 -18
-23 -15 -5 4 1 15 13 25 16 13 33 16 58 13 19 -3 36 -6 37 -7z m349 -21 c24
-12 25 -15 10 -21 -14 -5 -15 -9 -4 -15 9 -6 7 -9 -9 -9 -12 0 -26 -8 -32 -17
-8 -14 -14 -16 -27 -7 -10 6 -20 16 -22 24 -3 8 0 10 7 6 16 -10 41 12 41 35
0 23 0 23 36 4z m-195 -18 c-10 -9 -11 -8 -5 6 3 10 9 15 12 12 3 -3 0 -11 -7
-18z m-78 -52 c-3 -9 -8 -14 -10 -11 -3 3 -2 9 2 15 9 16 15 13 8 -4z m-903
-30 c-9 -11 -9 -15 -1 -15 7 0 9 -5 5 -11 -4 -8 -10 -6 -17 6 -7 12 -5 20 4
26 20 13 23 11 9 -6z m1050 -18 c0 -7 -10 -18 -22 -26 -18 -10 -20 -11 -10 0
6 7 12 21 12 32 0 10 5 15 10 12 6 -3 10 -12 10 -18z m-1070 -12 c0 -8 -4 -15
-10 -15 -5 0 -10 7 -10 15 0 8 5 15 10 15 6 0 10 -7 10 -15z m-274 -89 c-8
-20 -20 -36 -25 -36 -20 0 -12 63 12 88 21 23 22 23 25 4 2 -11 -4 -36 -12
-56z m1455 64 c21 -12 25 -35 8 -46 -7 -4 -10 -1 -7 7 2 7 -5 21 -16 31 -23
19 -15 24 15 8z m-1355 -44 c-5 -51 -13 -69 -27 -60 -7 4 -7 10 0 18 5 6 9 21
7 31 -2 16 12 55 21 55 1 0 1 -20 -1 -44z m1249 14 c3 -5 1 -10 -4 -10 -6 0
-11 5 -11 10 0 6 2 10 4 10 3 0 8 -4 11 -10z m73 -25 c-3 -3 -9 2 -12 12 -6
14 -5 15 5 6 7 -7 10 -15 7 -18z m-187 -12 c13 -16 12 -17 -3 -4 -17 13 -22
21 -14 21 2 0 10 -8 17 -17z m277 -24 c15 0 22 -3 15 -5 -7 -3 -9 -12 -6 -20
8 -21 -8 -16 -42 12 -18 16 -23 24 -12 20 10 -3 31 -6 45 -7z m-1740 -24 c10
-4 10 -8 0 -25 -10 -15 -23 -20 -58 -20 -25 0 -55 -7 -66 -15 -12 -8 -24 -12
-27 -9 -3 3 -11 2 -18 -2 -7 -4 -23 -9 -36 -10 -19 -2 -21 0 -14 14 11 20 49
56 74 69 17 9 115 7 145 -2z m1742 -35 c0 -5 -4 -10 -10 -10 -5 0 -10 5 -10
10 0 6 5 10 10 10 6 0 10 -4 10 -10z m70 0 c0 -5 -5 -10 -11 -10 -5 0 -7 5 -4
10 3 6 8 10 11 10 2 0 4 -4 4 -10z m-1860 -40 c0 -5 -4 -10 -10 -10 -5 0 -10
5 -10 10 0 6 5 10 10 10 6 0 10 -4 10 -10z m1307 -32 c-3 -7 -5 -2 -5 12 0 14
2 19 5 13 2 -7 2 -19 0 -25z m-1447 12 c0 -5 -4 -10 -10 -10 -5 0 -10 5 -10
10 0 6 5 10 10 10 6 0 10 -4 10 -10z m200 -16 c0 -8 -5 -12 -10 -9 -6 4 -8 11
-5 16 9 14 15 11 15 -7z m-55 -14 c-3 -5 -1 -19 5 -30 15 -28 -5 -26 -25 2
-14 21 -14 23 2 30 25 9 25 9 18 -2z m1312 -37 c-3 -10 -5 -4 -5 12 0 17 2 24
5 18 2 -7 2 -21 0 -30z m793 -107 c0 -2 -8 -10 -17 -17 -16 -13 -17 -12 -4 4
13 16 21 21 21 13z m-463 -122 c-3 -3 -12 -4 -19 -1 -8 3 -5 6 6 6 11 1 17 -2
13 -5z"/>
<path d="M1802 1345 c0 -16 2 -22 5 -12 2 9 2 23 0 30 -3 6 -5 -1 -5 -18z"/>
<path d="M686 1295 c-9 -26 -7 -32 5 -12 6 10 9 21 6 23 -2 3 -7 -2 -11 -11z"/>
<path d="M2151 866 c-13 -14 -21 -31 -18 -38 4 -10 6 -10 6 1 1 8 11 25 23 38
12 13 19 23 16 23 -2 0 -15 -11 -27 -24z"/>
<path d="M1185 1803 c-11 -3 -33 -16 -48 -29 -16 -13 -37 -24 -48 -24 -16 0
-18 -2 -7 -14 7 -7 19 -11 25 -9 7 3 13 0 13 -6 0 -14 51 -10 67 5 7 7 18 14
25 17 7 2 10 8 6 12 -10 11 -61 -12 -54 -24 4 -5 -3 -7 -14 -4 -19 5 -18 7 10
24 17 11 33 19 36 19 7 0 34 27 34 34 0 7 -15 6 -45 -1z"/>
<path d="M1981 1795 c0 -5 6 -21 14 -35 8 -14 14 -20 14 -15 0 6 -6 21 -14 35
-8 14 -14 21 -14 15z"/>
<path d="M1961 1730 c0 -14 4 -34 9 -45 8 -18 9 -18 10 5 l1 25 15 -27 c8 -16
17 -28 20 -28 6 0 -20 49 -40 75 -15 20 -15 19 -15 -5z"/>
<path d="M928 1713 c-27 -7 -22 -23 7 -23 14 0 25 -4 25 -10 0 -5 -4 -10 -10
-10 -5 0 -10 -4 -10 -9 0 -4 11 -6 24 -4 29 6 40 -10 26 -37 -6 -11 -7 -20 -2
-20 11 0 32 45 32 70 0 47 -28 60 -92 43z"/>
<path d="M2013 1626 c6 -12 10 -25 9 -29 -1 -5 2 -6 8 -2 8 5 8 11 0 20 -7 8
-9 18 -6 23 3 5 -1 9 -9 9 -11 0 -12 -4 -2 -21z"/>
<path d="M2052 1600 c0 -8 8 -37 19 -65 14 -37 18 -42 15 -19 -6 36 -34 107
-34 84z"/>
<path d="M2036 1567 c3 -10 9 -15 12 -12 3 3 0 11 -7 18 -10 9 -11 8 -5 -6z"/>
<path d="M994 1495 c3 -21 9 -41 14 -44 5 -3 11 -13 14 -21 4 -11 9 -7 18 13
7 15 17 27 22 27 4 0 8 9 8 20 0 11 7 20 16 20 8 0 12 5 9 10 -3 6 -15 10 -27
10 -15 0 -19 -5 -15 -19 4 -18 3 -18 -29 1 l-34 20 4 -37z"/>
<path d="M548 1402 c-36 -26 -43 -42 -21 -49 11 -4 69 64 62 71 -2 2 -21 -8
-41 -22z"/>
<path d="M1087 1414 c-4 -4 -17 -8 -29 -9 -13 -1 -26 -3 -30 -4 -5 0 -8 -11
-8 -24 0 -13 -5 -28 -12 -35 -9 -9 -9 -12 1 -12 8 0 20 -8 28 -17 12 -16 13
-15 7 10 -4 15 -2 27 2 26 5 -1 22 3 37 9 16 7 48 12 72 12 24 0 47 5 51 12 5
8 2 9 -10 5 -10 -4 -34 2 -56 13 -44 22 -44 22 -53 14z"/>
<path d="M1071 1300 l-23 -20 27 0 c33 0 68 18 60 31 -10 15 -38 10 -64 -11z"/>
<path d="M429 1223 c-13 -16 -12 -17 4 -4 9 7 17 15 17 17 0 8 -8 3 -21 -13z"/>
<path d="M476 1228 c3 -5 10 -6 15 -3 13 9 11 12 -6 12 -8 0 -12 -4 -9 -9z"/>
<path d="M822 1185 c0 -16 2 -22 5 -12 2 9 2 23 0 30 -3 6 -5 -1 -5 -18z"/>
<path d="M2235 1079 c-4 -6 -5 -12 -2 -15 2 -3 7 2 10 11 7 17 1 20 -8 4z"/>
<path d="M1339 1043 c-13 -16 -12 -17 4 -4 16 13 21 21 13 21 -2 0 -10 -8 -17
-17z"/>
<path d="M803 1005 c0 -22 2 -30 4 -17 2 12 2 30 0 40 -3 9 -5 -1 -4 -23z"/>
<path d="M1230 998 c0 -4 4 -8 9 -8 6 0 12 4 15 8 3 5 -1 9 -9 9 -8 0 -15 -4
-15 -9z"/>
<path d="M1770 919 c0 -9 7 -22 15 -29 19 -16 19 0 0 26 -12 16 -14 16 -15 3z"/>
<path d="M549 753 c-13 -16 -12 -17 4 -4 9 7 17 15 17 17 0 8 -8 3 -21 -13z"/>
<path d="M513 698 c-15 -20 -25 -38 -20 -38 3 0 12 11 21 25 17 26 16 35 -1
13z"/>
<path d="M605 631 c-93 -36 -133 -58 -173 -92 l-33 -29 38 0 c78 1 126 19 176
68 40 38 77 85 65 81 -2 -1 -34 -13 -73 -28z"/>
<path d="M655 591 c-3 -5 -1 -12 4 -15 5 -3 11 1 15 9 6 16 -9 21 -19 6z"/>
<path d="M1411 299 c-13 -11 -21 -22 -18 -25 8 -8 47 19 47 33 0 16 0 16 -29
-8z"/>
<path d="M830 263 c-7 -26 -14 -56 -17 -67 -4 -15 -7 -16 -14 -5 -4 7 -11 10
-15 6 -4 -3 -1 -13 6 -22 9 -11 11 -37 6 -95 -4 -52 -3 -80 4 -80 5 0 10 21
10 46 0 25 4 43 9 40 5 -3 6 13 4 37 -3 23 2 73 11 111 19 78 15 102 -4 29z"/>
<path d="M754 157 c3 -10 6 -25 6 -33 0 -21 16 -9 23 16 3 12 1 18 -5 14 -6
-4 -15 0 -20 7 -8 11 -8 10 -4 -4z"/>
</g>
</svg>
