<svg xmlns="http://www.w3.org/2000/svg" xmlns:xlink="http://www.w3.org/1999/xlink" version="1.1" x="0px" y="0px" viewBox="0 0 100 125" enable-background="new 0 0 100 100" xml:space="preserve"><g><path fill-rule="evenodd" clip-rule="evenodd" d="M81.344,34H57.001l-0.246-1.28c5.815-2.598,9.883-8.384,9.883-15.152   c0-9.177-7.467-16.623-16.645-16.623c-9.177,0-16.643,7.476-16.643,16.653c0,6.769,4.068,12.52,9.882,15.118L42.987,34H18.642   L3.986,99H96L81.344,34z M40.138,17.608c0-5.443,4.413-9.856,9.855-9.856c5.445,0,9.856,4.414,9.856,9.856   c0,3.452-1.777,6.486-4.465,8.246c-0.989-1.215-3.02-2.057-5.392-2.057c-2.37,0-4.401,0.842-5.39,2.057   C41.916,24.093,40.138,21.06,40.138,17.608z"/></g><text x="0" y="115" fill="#000000" font-size="5px" font-weight="bold" font-family="'Helvetica Neue', Helvetica, Arial-Unicode, Arial, Sans-serif">Created by José Hernandez</text><text x="0" y="120" fill="#000000" font-size="5px" font-weight="bold" font-family="'Helvetica Neue', Helvetica, Arial-Unicode, Arial, Sans-serif">from the Noun Project</text></svg>