<?xml version="1.0" encoding="UTF-8" standalone="no"?>
<svg
   xmlns:osb="http://www.openswatchbook.org/uri/2009/osb"
   xmlns:dc="http://purl.org/dc/elements/1.1/"
   xmlns:cc="http://creativecommons.org/ns#"
   xmlns:rdf="http://www.w3.org/1999/02/22-rdf-syntax-ns#"
   xmlns:svg="http://www.w3.org/2000/svg"
   xmlns="http://www.w3.org/2000/svg"
   xmlns:xlink="http://www.w3.org/1999/xlink"
   xmlns:sodipodi="http://sodipodi.sourceforge.net/DTD/sodipodi-0.dtd"
   xmlns:inkscape="http://www.inkscape.org/namespaces/inkscape"
   sodipodi:docname="favicon.svg"
   inkscape:version="1.0 (4035a4f, 2020-05-01)"
   version="1.1"
   id="svg2"
   height="1024"
   width="1024"
   inkscape:export-filename="/Users/offirmo/work/src/off/offirmo-monorepo/C-apps--clients/the-boring-rpg/client--browser/src/favicons/favicon-180x180.png"
   inkscape:export-xdpi="16.879999"
   inkscape:export-ydpi="16.879999">
  <defs
     id="defs4">
    <linearGradient
       osb:paint="solid"
       id="linearGradient4022">
      <stop
         id="stop4024"
         offset="0"
         style="stop-color:#0032a8;stop-opacity:1;" />
    </linearGradient>
    <linearGradient
       osb:paint="gradient"
       id="linearGradient3878">
      <stop
         id="stop3880"
         offset="0"
         style="stop-color:#ffffff;stop-opacity:1;" />
      <stop
         id="stop3882"
         offset="1"
         style="stop-color:#ffffff;stop-opacity:0;" />
    </linearGradient>
  </defs>
  <sodipodi:namedview
     fit-margin-bottom="0"
     fit-margin-right="0"
     fit-margin-left="0"
     fit-margin-top="0"
     inkscape:document-rotation="0"
     inkscape:pagecheckerboard="true"
     showborder="false"
     inkscape:snap-bbox="true"
     guidetolerance="20"
     showguides="true"
     inkscape:snap-page="true"
     inkscape:snap-grids="true"
     inkscape:showpageshadow="false"
     inkscape:window-maximized="0"
     inkscape:window-y="0"
     inkscape:window-x="1680"
     inkscape:window-height="1058"
     inkscape:window-width="1920"
     showgrid="true"
     inkscape:current-layer="layer10"
     inkscape:document-units="px"
     inkscape:cy="512"
     inkscape:cx="512"
     inkscape:zoom="0.68111408"
     inkscape:pageshadow="2"
     inkscape:pageopacity="0.09803922"
     borderopacity="1.0"
     bordercolor="#666666"
     pagecolor="#c6c6c6"
     id="base">
    <inkscape:grid
       originy="0"
       originx="0"
       units="px"
       spacingy="10"
       spacingx="10"
       dotted="false"
       snapvisiblegridlinesonly="true"
       enabled="true"
       visible="true"
       empspacing="1"
       id="grid3756"
       type="xygrid" />
  </sodipodi:namedview>
  <metadata
     id="metadata7">
    <rdf:RDF>
      <cc:Work
         rdf:about="">
        <dc:format>image/svg+xml</dc:format>
        <dc:type
           rdf:resource="http://purl.org/dc/dcmitype/StillImage" />
        <dc:title />
      </cc:Work>
    </rdf:RDF>
  </metadata>
  <g
     style="display:none"
     inkscape:label="ios icon"
     id="layer2"
     inkscape:groupmode="layer">
    <image
       sodipodi:absref="/Users/offirmo/Dropbox/- cc/iosicon.jpg"
       xlink:href="../../../../../../../../Dropbox/-%20cc/iosicon.jpg"
       style="display:inline"
       y="-3314.781"
       x="-220"
       width="6500"
       height="3300.781"
       preserveAspectRatio="none"
       id="image882" />
  </g>
  <g
     style="display:inline"
     transform="translate(-684,-56.362168)"
     id="layer1"
     inkscape:groupmode="layer"
     inkscape:label="Base" />
  <g
     transform="translate(-684,-84)"
     style="display:inline"
     inkscape:label="Logos"
     id="layer10"
     inkscape:groupmode="layer">
    <rect
       inkscape:export-filename="/Users/offirmo/work/src/off/offirmo-monorepo/C-apps--clients/the-boring-rpg/client--browser/src/favicons/android-chrome-512x512.png"
       inkscape:export-ydpi="48"
       inkscape:export-xdpi="48"
       style="display:inline;fill:#543d46;fill-opacity:1;stroke:#ffebbc;stroke-width:72;stroke-linecap:square;stroke-linejoin:miter;stroke-miterlimit:4;stroke-dasharray:none;stroke-opacity:1;paint-order:normal"
       id="rect942"
       width="952"
       height="952"
       x="720"
       y="120" />
    <path
       inkscape:export-filename="/Users/offirmo/work/src/off/offirmo-monorepo/C-apps--clients/the-boring-rpg/client--browser/src/favicons/android-chrome-512x512.png"
       inkscape:export-ydpi="48"
       inkscape:export-xdpi="48"
       style="display:inline;fill:#ffebbc;fill-rule:evenodd;stroke-width:48;stroke-miterlimit:4;stroke-dasharray:none"
       inkscape:connector-curvature="0"
       d="m 1218.2004,207.86424 c -43.7014,14.1636 -86.7236,44.97289 -116.1971,89.15266 28.1667,76.89959 28.1667,91.93015 0,168.82813 31.9813,24.82564 64.7075,39.75185 97.5847,44.10272 -3.3121,-41.04105 -5.8279,-82.08852 1.8061,-123.12476 -21.8747,-2.38093 -37.5266,-9.62489 -59.4029,-22.27451 v -51.72557 c 57.5823,30.65837 99.2832,30.14622 158.6429,0 v 51.72878 c -21.4557,10.43084 -35.1377,17.91722 -56.5934,21.22132 5.8022,41.04907 5.5871,82.12063 2.2075,123.17291 29.9327,-5.24191 59.7819,-19.44725 89.1045,-43.09928 -23.0435,-76.89798 -23.0467,-91.93015 0,-168.82653 -27.2643,-44.96646 -76.1851,-74.86865 -117.1523,-89.15587 z m -208.0614,13.19389 c -41.59177,177.26817 -43.91008,345.70938 -43.99037,531.29077 -30.2473,-2.46763 -60.33731,-8.22009 -89.95051,-17.85301 v 45.84306 h 110.8845 c 13.99178,56.23216 10.39071,112.46753 -1.6633,168.7013 h 45.16228 c -11.5514,-56.23377 -13.2244,-112.46914 -1.3999,-168.7013 h 110.6244 v -45.84467 c -29.6855,7.93432 -59.814,13.73012 -90.063,16.79339 0.1317,-184.53461 4.0073,-358.13264 -39.6025,-530.22794 z m 143.6428,324.91031 c 0,188.27539 40.9672,374.62741 192.9074,414.16732 167.2644,-33.7714 193.1127,-225.37336 193.1127,-414.16893 h -386.0233 z"
       id="path4" />
    <rect
       inkscape:export-filename="/Users/offirmo/work/src/off/offirmo-monorepo/C-apps--clients/the-boring-rpg/client--browser/src/favicons/Icon-76.png"
       ry="184"
       y="-1086"
       x="844"
       height="952"
       width="952"
       id="rect848"
       style="display:inline;fill:#543d46;fill-opacity:1;stroke:#ffebbc;stroke-width:64;stroke-linecap:square;stroke-linejoin:round;stroke-miterlimit:4;stroke-dasharray:none;stroke-opacity:1;paint-order:normal"
       inkscape:export-xdpi="7.1799998"
       inkscape:export-ydpi="7.1799998" />
    <path
       inkscape:export-filename="/Users/offirmo/work/src/off/offirmo-monorepo/C-apps--clients/the-boring-rpg/client--browser/src/favicons/Icon-76.png"
       id="path850"
       d="m 1334.2004,-980.13576 c -43.7014,14.1636 -86.7236,44.97289 -116.1971,89.15266 28.1667,76.89959 28.1667,91.93015 0,168.82813 31.9813,24.82564 64.7075,39.75185 97.5847,44.10272 -3.3121,-41.04105 -5.8279,-82.08852 1.8061,-123.12476 -21.8747,-2.38093 -37.5266,-9.62489 -59.4029,-22.27451 v -51.72557 c 57.5823,30.65837 99.2832,30.14622 158.6429,0 v 51.72878 c -21.4557,10.43084 -35.1377,17.91722 -56.5934,21.22132 5.8022,41.04907 5.5871,82.12063 2.2075,123.17291 29.9327,-5.24191 59.7819,-19.44725 89.1045,-43.09928 -23.0435,-76.89798 -23.0467,-91.93015 0,-168.82653 -27.2643,-44.96646 -76.1851,-74.86865 -117.1523,-89.15587 z m -208.0614,13.19389 c -41.5918,177.26817 -43.9101,345.70938 -43.9904,531.29077 -30.2473,-2.46763 -60.3373,-8.22009 -89.95049,-17.85301 v 45.84306 h 110.88449 c 13.9918,56.23216 10.3907,112.46753 -1.6633,168.7013 h 45.1623 c -11.5514,-56.23377 -13.2244,-112.46914 -1.3999,-168.7013 h 110.6244 v -45.84467 c -29.6855,7.93432 -59.814,13.73012 -90.063,16.79339 0.1317,-184.53461 4.0073,-358.13264 -39.6025,-530.22794 z m 143.6428,324.91031 c 0,188.27539 40.9672,374.62741 192.9074,414.16732 167.2644,-33.7714 193.1127,-225.37336 193.1127,-414.16893 h -386.0233 z"
       inkscape:connector-curvature="0"
       style="display:inline;fill:#ffebbc;fill-rule:evenodd;stroke-width:48;stroke-miterlimit:4;stroke-dasharray:none"
       inkscape:export-xdpi="7.1799998"
       inkscape:export-ydpi="7.1799998" />
    <text
       inkscape:export-ydpi="7.1799998"
       inkscape:export-xdpi="7.1799998"
       inkscape:export-filename="/Users/offirmo/work/src/off/offirmo-monorepo/C-apps--clients/the-boring-rpg/client--browser/src/favicons/Icon-76.png"
       transform="scale(0.78395208,1.2755882)"
       id="text854"
       y="-701.45264"
       x="1183.8751"
       style="font-style:normal;font-weight:normal;font-size:106.454px;line-height:1.25;font-family:sans-serif;fill:#000000;fill-opacity:1;stroke:none;stroke-width:2.66134"
       xml:space="preserve"><tspan
         style="fill:#ff5555;stroke-width:2.66134"
         y="-701.45264"
         x="1183.8751"
         id="tspan852"
         sodipodi:role="line">76</tspan></text>
    <text
       xml:space="preserve"
       style="font-style:normal;font-weight:normal;font-size:106.454px;line-height:1.25;font-family:sans-serif;display:inline;fill:#000000;fill-opacity:1;stroke:none;stroke-width:2.66134"
       x="1005.4379"
       y="222.27846"
       id="text854-9"
       transform="scale(0.78395207,1.2755882)"
       inkscape:export-filename="/Users/offirmo/work/src/off/offirmo-monorepo/C-apps--clients/the-boring-rpg/client--browser/src/favicons/android-chrome-512x512.png"
       inkscape:export-xdpi="48"
       inkscape:export-ydpi="48"><tspan
         sodipodi:role="line"
         id="tspan852-0"
         x="1005.4379"
         y="222.27846"
         style="fill:#ff5555;stroke-width:2.66134">512</tspan></text>
  </g>
  <rect
     y="-84"
     x="-684"
     height="0"
     width="0"
     id="rect5559"
     style="fill:#ffffff;fill-opacity:1;stroke:none" />
</svg>
