<?xml version="1.0" encoding="UTF-8"?>
<svg width="1024" height="1024" version="1.1" xmlns="http://www.w3.org/2000/svg" xmlns:osb="http://www.openswatchbook.org/uri/2009/osb">
 <g transform="translate(-684,-84)">
  <rect x="720" y="120" width="952" height="952" fill="#543d46" stroke="#ffebbc" stroke-linejoin="round" stroke-width="72" style="paint-order:normal"/>
  <path d="m1218.2 207.86c-43.701 14.164-86.724 44.973-116.2 89.153 28.167 76.9 28.167 91.93 0 168.83 31.981 24.826 64.708 39.752 97.585 44.103-3.3121-41.041-5.8279-82.089 1.8061-123.12-21.875-2.3809-37.527-9.6249-59.403-22.275v-51.726c57.582 30.658 99.283 30.146 158.64 0v51.729c-21.456 10.431-35.138 17.917-56.593 21.221 5.8022 41.049 5.5871 82.121 2.2075 123.17 29.933-5.2419 59.782-19.447 89.104-43.099-23.044-76.898-23.047-91.93 0-168.83-27.264-44.966-76.185-74.869-117.15-89.156zm-208.06 13.194c-41.592 177.27-43.91 345.71-43.99 531.29-30.247-2.4676-60.337-8.2201-89.951-17.853v45.843h110.88c13.992 56.232 10.391 112.47-1.6633 168.7h45.162c-11.551-56.234-13.224-112.47-1.3999-168.7h110.62v-45.845c-29.686 7.9343-59.814 13.73-90.063 16.793 0.1317-184.53 4.0073-358.13-39.602-530.23zm143.64 324.91c0 188.28 40.967 374.63 192.91 414.17 167.26-33.771 193.11-225.37 193.11-414.17h-386.02z" fill="#ffebbc" fill-rule="evenodd" stroke-width="48"/>
 </g>
 <rect x="-684" y="-84" width="0" height="0" fill="#fff"/>
</svg>
