<?xml version="1.0" encoding="UTF-8" standalone="no"?>
<!-- Created with Inkscape (http://www.inkscape.org/) -->

<svg
   version="1.1"
   id="svg140"
   xml:space="preserve"
   width="666.66669"
   height="666.664"
   viewBox="0 0 666.66669 666.664"
   sodipodi:docname="01.svg"
   inkscape:version="1.1.1 (c3084ef, 2021-09-22)"
   xmlns:inkscape="http://www.inkscape.org/namespaces/inkscape"
   xmlns:sodipodi="http://sodipodi.sourceforge.net/DTD/sodipodi-0.dtd"
   xmlns="http://www.w3.org/2000/svg"
   xmlns:svg="http://www.w3.org/2000/svg"><defs
     id="defs144"><clipPath
       clipPathUnits="userSpaceOnUse"
       id="clipPath156"><path
         d="M 0,499.998 H 500 V 0 H 0 Z"
         id="path154" /></clipPath><clipPath
       clipPathUnits="userSpaceOnUse"
       id="clipPath292"><path
         d="M 0,499.998 H 500 V 0 H 0 Z"
         id="path290" /></clipPath><clipPath
       clipPathUnits="userSpaceOnUse"
       id="clipPath300"><path
         d="M 392.625,75.3457 H 402 V 62.5156 h -9.375 z"
         id="path298" /></clipPath><clipPath
       clipPathUnits="userSpaceOnUse"
       id="clipPath320"><path
         d="M 0,499.998 H 500 V 0 H 0 Z"
         id="path318" /></clipPath><clipPath
       clipPathUnits="userSpaceOnUse"
       id="clipPath328"><path
         d="m 97.9995,75.3457 h 9.3755 V 62.5156 h -9.3755 z"
         id="path326" /></clipPath><clipPath
       clipPathUnits="userSpaceOnUse"
       id="clipPath358"><path
         d="M 0,499.998 H 500 V 0 H 0 Z"
         id="path356" /></clipPath><clipPath
       clipPathUnits="userSpaceOnUse"
       id="clipPath406"><path
         d="m 77.6836,208.963 h 26.2504 v -45 H 77.6836 Z"
         id="path404" /></clipPath><clipPath
       clipPathUnits="userSpaceOnUse"
       id="clipPath424"><path
         d="m 127.684,208.963 h 26.25 v -45 h -26.25 z"
         id="path422" /></clipPath><clipPath
       clipPathUnits="userSpaceOnUse"
       id="clipPath442"><path
         d="m 177.684,208.963 h 26.249 v -45 h -26.249 z"
         id="path440" /></clipPath><clipPath
       clipPathUnits="userSpaceOnUse"
       id="clipPath464"><path
         d="M 225.184,214.588 V 158.339 H 424.66 c 14.031,0 21.059,16.964 11.137,26.886 v 0 l -18.821,18.819 c -6.75,6.751 -15.905,10.544 -25.454,10.544 v 0 z"
         id="path462" /></clipPath><clipPath
       clipPathUnits="userSpaceOnUse"
       id="clipPath482"><path
         d="M 0,499.998 H 500 V 0 H 0 Z"
         id="path480" /></clipPath><clipPath
       clipPathUnits="userSpaceOnUse"
       id="clipPath522"><path
         d="m 252.685,208.963 h 26.249 v -45 h -26.249 z"
         id="path520" /></clipPath><clipPath
       clipPathUnits="userSpaceOnUse"
       id="clipPath540"><path
         d="m 302.685,208.963 h 26.249 v -45 h -26.249 z"
         id="path538" /></clipPath><clipPath
       clipPathUnits="userSpaceOnUse"
       id="clipPath712"><path
         d="m 225.184,322.91 v -56.249 h 204.631 c 5.868,0 10.626,4.757 10.626,10.625 v 0 c 0,1.24 -0.218,2.47 -0.64,3.635 v 0 l -9.895,27.185 c -3.235,8.888 -11.685,14.804 -21.143,14.804 v 0 z"
         id="path710" /></clipPath><clipPath
       clipPathUnits="userSpaceOnUse"
       id="clipPath728"><path
         d="M 0,499.998 H 500 V 0 H 0 Z"
         id="path726" /></clipPath><clipPath
       clipPathUnits="userSpaceOnUse"
       id="clipPath736"><path
         d="m 302.685,317.285 h 21.562 V 272.91 h -21.562 z"
         id="path734" /></clipPath></defs><sodipodi:namedview
     id="namedview142"
     pagecolor="#ffffff"
     bordercolor="#666666"
     borderopacity="1.0"
     inkscape:pageshadow="2"
     inkscape:pageopacity="0.0"
     inkscape:pagecheckerboard="0"
     showgrid="false"
     inkscape:zoom="1.3080052"
     inkscape:cx="333.332"
     inkscape:cy="333.332"
     inkscape:window-width="1379"
     inkscape:window-height="1052"
     inkscape:window-x="2091"
     inkscape:window-y="0"
     inkscape:window-maximized="0"
     inkscape:current-layer="g146" /><g
     id="g146"
     inkscape:groupmode="layer"
     inkscape:label="117028-OPRQPO-158"
     transform="matrix(1.3333333,0,0,-1.3333333,0,666.664)"><path
       d="M 0,0 H 500 V 499.998 H 0 Z"
       style="fill:#97d2d0;fill-opacity:1;fill-rule:nonzero;stroke:none"
       id="path148" /><g
       id="g150"><g
         id="g152"
         clip-path="url(#clipPath156)"><g
           id="g158"
           transform="translate(168.3584,23.2715)"><path
             d="m 0,0 c 0,-0.492 0.075,-0.91 0.229,-1.256 0.152,-0.348 0.362,-0.607 0.628,-0.781 0.265,-0.177 0.557,-0.264 0.871,-0.264 0.319,0 0.611,0.083 0.875,0.25 0.263,0.164 0.474,0.421 0.632,0.763 C 3.392,-0.943 3.47,-0.514 3.47,0 3.47,0.485 3.392,0.9 3.235,1.248 3.077,1.595 2.865,1.861 2.597,2.046 2.328,2.229 2.034,2.321 1.715,2.321 1.382,2.321 1.086,2.227 0.824,2.039 0.563,1.851 0.36,1.581 0.216,1.228 0.07,0.874 0,0.466 0,0 m 3.57,-2.666 v 0.18 C 3.326,-2.767 3.086,-2.993 2.849,-3.167 2.611,-3.344 2.354,-3.477 2.078,-3.567 1.8,-3.659 1.498,-3.703 1.169,-3.703 c -0.435,0 -0.837,0.091 -1.207,0.276 -0.37,0.183 -0.691,0.446 -0.96,0.786 -0.272,0.343 -0.476,0.743 -0.615,1.204 -0.141,0.461 -0.211,0.96 -0.211,1.497 0,1.135 0.279,2.02 0.832,2.654 0.553,0.634 1.284,0.951 2.188,0.951 C 1.72,3.665 2.16,3.574 2.519,3.396 2.879,3.215 3.228,2.938 3.57,2.567 v 2.679 c 0,0.374 0.074,0.655 0.222,0.845 0.148,0.19 0.361,0.286 0.637,0.286 0.274,0 0.485,-0.087 0.633,-0.262 0.15,-0.177 0.224,-0.433 0.224,-0.774 v -8.007 c 0,-0.347 -0.08,-0.605 -0.24,-0.778 -0.16,-0.172 -0.365,-0.259 -0.617,-0.259 -0.249,0 -0.454,0.089 -0.616,0.268 -0.162,0.181 -0.243,0.436 -0.243,0.769"
             style="fill:#ffffff;fill-opacity:1;fill-rule:nonzero;stroke:none"
             id="path160" /></g><g
           id="g162"
           transform="translate(176.3828,23.8438)"><path
             d="M 0,0 H 3.292 C 3.249,0.621 3.079,1.086 2.79,1.393 2.499,1.701 2.117,1.854 1.644,1.854 1.191,1.854 0.818,1.699 0.529,1.387 0.239,1.074 0.063,0.612 0,0 M 3.551,-1.031 H 0 c 0.004,-0.413 0.086,-0.776 0.25,-1.09 0.162,-0.317 0.377,-0.554 0.645,-0.714 0.269,-0.158 0.564,-0.237 0.888,-0.237 0.217,0 0.416,0.024 0.594,0.076 0.182,0.051 0.354,0.13 0.523,0.239 0.169,0.108 0.323,0.226 0.466,0.349 0.141,0.126 0.325,0.293 0.551,0.507 0.093,0.079 0.227,0.119 0.4,0.119 0.186,0 0.335,-0.051 0.451,-0.154 0.115,-0.102 0.174,-0.245 0.174,-0.432 0,-0.163 -0.065,-0.354 -0.193,-0.575 C 4.619,-3.162 4.425,-3.373 4.167,-3.575 3.907,-3.776 3.582,-3.942 3.189,-4.076 2.796,-4.21 2.346,-4.275 1.835,-4.275 c -1.166,0 -2.072,0.333 -2.718,0.997 -0.648,0.665 -0.972,1.567 -0.972,2.706 0,0.537 0.08,1.035 0.239,1.491 0.16,0.461 0.393,0.853 0.699,1.183 0.306,0.328 0.682,0.58 1.13,0.753 0.448,0.176 0.945,0.263 1.49,0.263 0.709,0 1.318,-0.149 1.825,-0.45 C 4.036,2.371 4.417,1.981 4.668,1.511 4.92,1.034 5.048,0.55 5.048,0.061 5.048,-0.397 4.917,-0.693 4.656,-0.828 4.395,-0.963 4.024,-1.031 3.551,-1.031"
             style="fill:#ffffff;fill-opacity:1;fill-rule:nonzero;stroke:none"
             id="path164" /></g><g
           id="g166"
           transform="translate(188.2056,21.9424)"><path
             d="m 0,0 c 0,-0.501 -0.121,-0.931 -0.366,-1.286 -0.243,-0.359 -0.603,-0.629 -1.081,-0.812 -0.475,-0.185 -1.054,-0.276 -1.738,-0.276 -0.651,0 -1.21,0.1 -1.676,0.299 -0.465,0.198 -0.809,0.448 -1.03,0.747 -0.222,0.301 -0.334,0.6 -0.334,0.902 0,0.2 0.072,0.37 0.214,0.511 0.142,0.142 0.322,0.213 0.539,0.213 0.19,0 0.337,-0.047 0.438,-0.14 0.102,-0.092 0.201,-0.224 0.293,-0.391 0.187,-0.326 0.41,-0.564 0.669,-0.727 0.259,-0.158 0.613,-0.238 1.061,-0.238 0.363,0 0.66,0.082 0.895,0.243 0.232,0.162 0.349,0.348 0.349,0.556 0,0.32 -0.121,0.551 -0.364,0.697 -0.242,0.146 -0.64,0.287 -1.194,0.419 -0.625,0.155 -1.133,0.318 -1.526,0.49 -0.392,0.17 -0.706,0.396 -0.941,0.673 -0.235,0.281 -0.352,0.624 -0.352,1.032 0,0.362 0.109,0.707 0.325,1.031 0.218,0.323 0.538,0.58 0.962,0.773 0.422,0.195 0.933,0.291 1.532,0.291 0.47,0 0.894,-0.049 1.267,-0.147 0.376,-0.095 0.688,-0.229 0.938,-0.393 0.251,-0.163 0.441,-0.345 0.572,-0.544 0.131,-0.199 0.195,-0.394 0.195,-0.586 0,-0.209 -0.07,-0.379 -0.208,-0.511 -0.14,-0.132 -0.338,-0.2 -0.596,-0.2 -0.186,0 -0.344,0.054 -0.475,0.159 -0.131,0.109 -0.281,0.267 -0.449,0.48 -0.137,0.175 -0.298,0.319 -0.484,0.424 -0.187,0.109 -0.441,0.162 -0.76,0.162 -0.328,0 -0.601,-0.072 -0.817,-0.211 C -4.359,3.501 -4.468,3.327 -4.468,3.119 -4.468,2.928 -4.388,2.771 -4.23,2.65 -4.068,2.526 -3.855,2.426 -3.584,2.347 -3.313,2.268 -2.942,2.17 -2.465,2.054 -1.904,1.916 -1.444,1.752 -1.086,1.562 -0.731,1.372 -0.459,1.147 -0.275,0.888 -0.091,0.627 0,0.332 0,0"
             style="fill:#ffffff;fill-opacity:1;fill-rule:nonzero;stroke:none"
             id="path168" /></g><g
           id="g170"
           transform="translate(190.9585,25.918)"><path
             d="m 0,0 v -5.246 c 0,-0.362 -0.086,-0.639 -0.26,-0.825 -0.172,-0.187 -0.392,-0.279 -0.658,-0.279 -0.267,0 -0.482,0.096 -0.648,0.286 -0.166,0.19 -0.249,0.464 -0.249,0.818 v 5.193 c 0,0.359 0.083,0.629 0.249,0.811 0.166,0.181 0.381,0.273 0.648,0.273 0.266,0 0.486,-0.092 0.658,-0.273 C -0.086,0.576 0,0.323 0,0 m -0.899,1.875 c -0.251,0 -0.467,0.078 -0.646,0.233 -0.18,0.156 -0.27,0.375 -0.27,0.66 0,0.256 0.091,0.467 0.276,0.634 0.184,0.168 0.397,0.249 0.64,0.249 0.236,0 0.444,-0.075 0.627,-0.226 C -0.091,3.273 0,3.056 0,2.768 0,2.486 -0.089,2.27 -0.266,2.111 -0.443,1.954 -0.654,1.875 -0.899,1.875"
             style="fill:#ffffff;fill-opacity:1;fill-rule:nonzero;stroke:none"
             id="path172" /></g><g
           id="g174"
           transform="translate(193.6514,23.3184)"><path
             d="m 0,0 c 0,-0.736 0.16,-1.294 0.482,-1.669 0.321,-0.379 0.737,-0.565 1.247,-0.565 0.301,0 0.585,0.081 0.854,0.243 0.268,0.16 0.486,0.405 0.655,0.731 0.169,0.325 0.253,0.72 0.253,1.186 0,0.74 -0.162,1.317 -0.49,1.729 C 2.676,2.065 2.247,2.274 1.714,2.274 1.196,2.274 0.781,2.076 0.469,1.682 0.156,1.287 0,0.727 0,0 M 5.26,2.3 V -2.973 C 5.26,-3.575 5.195,-4.094 5.065,-4.529 4.939,-4.963 4.732,-5.323 4.448,-5.606 4.165,-5.89 3.793,-6.101 3.335,-6.237 2.875,-6.375 2.306,-6.443 1.622,-6.443 c -0.625,0 -1.184,0.087 -1.676,0.262 -0.492,0.175 -0.87,0.402 -1.138,0.677 -0.265,0.277 -0.398,0.563 -0.398,0.855 0,0.222 0.074,0.403 0.226,0.542 0.152,0.14 0.334,0.211 0.546,0.211 0.265,0 0.498,-0.118 0.698,-0.352 0.097,-0.12 0.198,-0.242 0.302,-0.363 0.105,-0.123 0.22,-0.228 0.345,-0.314 0.126,-0.086 0.28,-0.149 0.457,-0.192 0.177,-0.041 0.382,-0.063 0.611,-0.063 0.47,0 0.835,0.065 1.095,0.195 0.259,0.131 0.44,0.315 0.544,0.549 0.106,0.235 0.167,0.486 0.184,0.755 0.018,0.269 0.031,0.7 0.04,1.293 C 3.177,-2.778 2.856,-3.075 2.49,-3.279 2.124,-3.482 1.689,-3.584 1.183,-3.584 c -0.607,0 -1.138,0.153 -1.593,0.465 -0.453,0.311 -0.802,0.744 -1.047,1.304 -0.244,0.558 -0.364,1.204 -0.364,1.935 0,0.545 0.073,1.037 0.22,1.476 0.151,0.44 0.362,0.807 0.637,1.111 0.275,0.302 0.591,0.528 0.949,0.682 0.36,0.152 0.754,0.229 1.184,0.229 0.514,0 0.961,-0.099 1.338,-0.296 0.376,-0.199 0.726,-0.508 1.05,-0.929 v 0.245 c 0,0.317 0.077,0.56 0.233,0.734 0.155,0.171 0.354,0.259 0.599,0.259 0.349,0 0.583,-0.115 0.697,-0.343 C 5.202,3.061 5.26,2.73 5.26,2.3"
             style="fill:#ffffff;fill-opacity:1;fill-rule:nonzero;stroke:none"
             id="path176" /></g><g
           id="g178"
           transform="translate(201.7969,25.9453)"><path
             d="M 0,0 V -0.22 C 0.319,0.201 0.668,0.51 1.047,0.708 1.426,0.906 1.861,1.004 2.354,1.004 2.832,1.004 3.261,0.899 3.637,0.69 4.014,0.481 4.296,0.187 4.481,-0.192 4.602,-0.414 4.679,-0.654 4.713,-0.911 4.75,-1.169 4.768,-1.496 4.768,-1.896 v -3.377 c 0,-0.363 -0.085,-0.639 -0.251,-0.826 -0.166,-0.186 -0.38,-0.278 -0.647,-0.278 -0.271,0 -0.49,0.096 -0.659,0.285 -0.169,0.191 -0.252,0.465 -0.252,0.819 v 3.026 c 0,0.598 -0.084,1.055 -0.25,1.372 -0.167,0.317 -0.497,0.477 -0.994,0.477 -0.323,0 -0.618,-0.097 -0.884,-0.289 C 0.565,-0.882 0.369,-1.147 0.246,-1.484 0.158,-1.755 0.113,-2.259 0.113,-2.999 v -2.274 c 0,-0.369 -0.087,-0.645 -0.256,-0.828 -0.171,-0.185 -0.392,-0.276 -0.662,-0.276 -0.261,0 -0.477,0.096 -0.644,0.285 -0.17,0.191 -0.254,0.465 -0.254,0.819 v 5.246 c 0,0.346 0.075,0.603 0.226,0.774 0.151,0.171 0.357,0.257 0.618,0.257 0.161,0 0.304,-0.037 0.435,-0.113 0.126,-0.077 0.23,-0.19 0.306,-0.338 C -0.039,0.401 0,0.217 0,0"
             style="fill:#ffffff;fill-opacity:1;fill-rule:nonzero;stroke:none"
             id="path180" /></g><g
           id="g182"
           transform="translate(209.2905,23.8438)"><path
             d="M 0,0 H 3.292 C 3.248,0.621 3.08,1.086 2.79,1.393 2.499,1.701 2.116,1.854 1.642,1.854 1.189,1.854 0.818,1.699 0.528,1.387 0.237,1.074 0.061,0.612 0,0 M 3.55,-1.031 H 0 c 0.005,-0.413 0.088,-0.776 0.25,-1.09 0.16,-0.317 0.375,-0.554 0.644,-0.714 0.269,-0.158 0.564,-0.237 0.889,-0.237 0.216,0 0.414,0.024 0.594,0.076 0.179,0.051 0.353,0.13 0.522,0.239 0.169,0.108 0.324,0.226 0.467,0.349 0.14,0.126 0.324,0.293 0.55,0.507 0.093,0.079 0.226,0.119 0.399,0.119 0.186,0 0.337,-0.051 0.454,-0.154 C 4.883,-2.038 4.94,-2.181 4.94,-2.368 4.94,-2.531 4.877,-2.722 4.748,-2.943 4.618,-3.162 4.424,-3.373 4.166,-3.575 3.905,-3.776 3.582,-3.942 3.188,-4.076 2.797,-4.21 2.344,-4.275 1.835,-4.275 c -1.167,0 -2.073,0.333 -2.721,0.997 -0.646,0.665 -0.969,1.567 -0.969,2.706 0,0.537 0.079,1.035 0.238,1.491 0.16,0.461 0.393,0.853 0.699,1.183 0.305,0.328 0.682,0.58 1.13,0.753 0.447,0.176 0.946,0.263 1.491,0.263 0.708,0 1.316,-0.149 1.824,-0.45 C 4.034,2.371 4.416,1.981 4.667,1.511 4.919,1.034 5.048,0.55 5.048,0.061 5.048,-0.397 4.916,-0.693 4.655,-0.828 4.394,-0.963 4.026,-1.031 3.55,-1.031"
             style="fill:#ffffff;fill-opacity:1;fill-rule:nonzero;stroke:none"
             id="path184" /></g><g
           id="g186"
           transform="translate(216.6709,23.2715)"><path
             d="m 0,0 c 0,-0.492 0.075,-0.91 0.228,-1.256 0.154,-0.348 0.366,-0.607 0.63,-0.781 0.267,-0.177 0.555,-0.264 0.871,-0.264 0.318,0 0.61,0.083 0.873,0.25 0.265,0.164 0.476,0.421 0.633,0.763 C 3.393,-0.943 3.47,-0.514 3.47,0 3.47,0.485 3.393,0.9 3.235,1.248 3.078,1.595 2.865,1.861 2.597,2.046 2.328,2.229 2.035,2.321 1.715,2.321 1.383,2.321 1.085,2.227 0.824,2.039 0.563,1.851 0.359,1.581 0.216,1.228 0.071,0.874 0,0.466 0,0 m 3.571,-2.666 v 0.18 C 3.327,-2.767 3.086,-2.993 2.848,-3.167 2.611,-3.344 2.355,-3.477 2.078,-3.567 1.802,-3.659 1.499,-3.703 1.171,-3.703 c -0.436,0 -0.838,0.091 -1.207,0.276 -0.372,0.183 -0.692,0.446 -0.961,0.786 -0.271,0.343 -0.476,0.743 -0.615,1.204 -0.141,0.461 -0.209,0.96 -0.209,1.497 0,1.135 0.275,2.02 0.83,2.654 0.554,0.634 1.283,0.951 2.188,0.951 C 1.72,3.665 2.161,3.574 2.52,3.396 2.878,3.215 3.23,2.938 3.571,2.567 v 2.679 c 0,0.374 0.075,0.655 0.223,0.845 0.148,0.19 0.36,0.286 0.635,0.286 0.275,0 0.485,-0.087 0.634,-0.262 C 5.211,5.938 5.287,5.682 5.287,5.341 v -8.007 c 0,-0.347 -0.079,-0.605 -0.24,-0.778 -0.16,-0.172 -0.366,-0.259 -0.618,-0.259 -0.249,0 -0.454,0.089 -0.616,0.268 -0.162,0.181 -0.242,0.436 -0.242,0.769"
             style="fill:#ffffff;fill-opacity:1;fill-rule:nonzero;stroke:none"
             id="path188" /></g><g
           id="g190"
           transform="translate(227.748,23.2178)"><path
             d="m 0,0 c 0,-0.723 0.165,-1.276 0.496,-1.664 0.329,-0.389 0.762,-0.583 1.298,-0.583 0.458,0 0.851,0.197 1.182,0.595 0.33,0.397 0.495,0.965 0.495,1.706 0,0.478 -0.068,0.891 -0.204,1.237 C 3.127,1.637 2.933,1.904 2.681,2.093 2.428,2.28 2.132,2.375 1.794,2.375 1.45,2.375 1.141,2.28 0.871,2.093 0.602,1.904 0.388,1.631 0.233,1.274 0.076,0.919 0,0.493 0,0 M -0.087,5.395 V 2.621 c 0.342,0.354 0.69,0.626 1.045,0.815 0.354,0.187 0.793,0.281 1.317,0.281 0.602,0 1.13,-0.142 1.586,-0.427 C 4.315,3.004 4.667,2.588 4.918,2.046 5.168,1.505 5.294,0.858 5.294,0.113 5.294,-0.437 5.223,-0.939 5.085,-1.398 4.943,-1.858 4.742,-2.256 4.476,-2.593 4.21,-2.93 3.887,-3.19 3.508,-3.373 3.129,-3.559 2.711,-3.649 2.254,-3.649 c -0.279,0 -0.543,0.032 -0.787,0.099 -0.247,0.067 -0.458,0.153 -0.629,0.263 -0.172,0.107 -0.319,0.22 -0.443,0.336 -0.121,0.114 -0.282,0.288 -0.482,0.518 v -0.179 c 0,-0.342 -0.081,-0.601 -0.246,-0.777 -0.164,-0.174 -0.372,-0.26 -0.625,-0.26 -0.257,0 -0.462,0.086 -0.614,0.26 -0.155,0.176 -0.23,0.435 -0.23,0.777 v 7.927 c 0,0.367 0.074,0.646 0.221,0.834 0.15,0.187 0.358,0.282 0.623,0.282 0.28,0 0.494,-0.089 0.645,-0.269 0.15,-0.181 0.226,-0.435 0.226,-0.767"
             style="fill:#ffffff;fill-opacity:1;fill-rule:nonzero;stroke:none"
             id="path192" /></g><g
           id="g194"
           transform="translate(235.395,19.3418)"><path
             d="m 0,0 0.167,0.405 -2.236,5.626 c -0.137,0.323 -0.206,0.558 -0.206,0.705 0,0.156 0.042,0.299 0.121,0.432 0.08,0.134 0.188,0.239 0.328,0.318 0.14,0.081 0.286,0.121 0.436,0.121 0.261,0 0.458,-0.083 0.592,-0.25 0.134,-0.166 0.25,-0.404 0.351,-0.713 L 1.09,2.175 2.548,6.331 c 0.115,0.336 0.218,0.601 0.311,0.791 0.095,0.191 0.192,0.319 0.295,0.385 0.106,0.066 0.253,0.1 0.443,0.1 0.137,0 0.27,-0.036 0.396,-0.11 C 4.121,7.424 4.217,7.325 4.286,7.201 4.354,7.078 4.389,6.947 4.389,6.809 4.371,6.726 4.343,6.605 4.302,6.451 4.262,6.296 4.214,6.137 4.156,5.979 L 1.789,-0.219 C 1.585,-0.765 1.385,-1.192 1.19,-1.503 0.994,-1.812 0.738,-2.052 0.416,-2.218 0.094,-2.385 -0.339,-2.467 -0.885,-2.467 c -0.531,0 -0.931,0.058 -1.196,0.172 -0.268,0.117 -0.399,0.326 -0.399,0.632 0,0.208 0.063,0.369 0.189,0.481 0.126,0.114 0.314,0.171 0.562,0.171 0.098,0 0.193,-0.012 0.287,-0.04 0.114,-0.027 0.214,-0.04 0.297,-0.04 0.209,0 0.374,0.03 0.494,0.095 0.119,0.06 0.226,0.167 0.321,0.321 C -0.236,-0.521 -0.124,-0.297 0,0"
             style="fill:#ffffff;fill-opacity:1;fill-rule:nonzero;stroke:none"
             id="path196" /></g><g
           id="g198"
           transform="translate(261.6943,26.792)"><path
             d="m 0,0 h 0.432 v 0.546 c 0,0.569 0.071,1.018 0.216,1.356 0.143,0.334 0.387,0.578 0.733,0.731 0.344,0.15 0.814,0.228 1.412,0.228 1.064,0 1.591,-0.257 1.591,-0.78 C 4.384,1.914 4.329,1.77 4.217,1.65 4.108,1.532 3.975,1.471 3.826,1.471 3.756,1.471 3.629,1.484 3.456,1.514 3.29,1.536 3.139,1.553 3.019,1.553 2.692,1.553 2.483,1.454 2.387,1.262 2.297,1.069 2.25,0.794 2.25,0.433 V 0 H 2.692 C 3.386,0 3.729,-0.208 3.729,-0.627 3.729,-0.92 3.64,-1.11 3.455,-1.189 3.271,-1.271 3.016,-1.31 2.692,-1.31 H 2.25 v -4.812 c 0,-0.357 -0.084,-0.63 -0.259,-0.816 -0.169,-0.19 -0.388,-0.285 -0.66,-0.285 -0.256,0 -0.47,0.095 -0.644,0.285 -0.17,0.186 -0.255,0.459 -0.255,0.816 v 4.812 h -0.499 c -0.272,0 -0.477,0.058 -0.626,0.183 -0.147,0.12 -0.219,0.28 -0.219,0.473 C -0.912,-0.215 -0.608,0 0,0"
             style="fill:#ffffff;fill-opacity:1;fill-rule:nonzero;stroke:none"
             id="path200" /></g><g
           id="g202"
           transform="translate(267.6392,22.1895)"><path
             d="M 0,0 V -1.52 C 0,-1.885 -0.095,-2.161 -0.262,-2.344 -0.436,-2.53 -0.653,-2.62 -0.919,-2.62 c -0.268,0 -0.481,0.091 -0.648,0.28 -0.166,0.185 -0.253,0.46 -0.253,0.82 v 5.059 c 0,0.815 0.294,1.226 0.883,1.226 0.304,0 0.52,-0.097 0.654,-0.287 0.132,-0.192 0.206,-0.472 0.222,-0.847 0.215,0.375 0.437,0.655 0.663,0.847 0.233,0.19 0.535,0.287 0.918,0.287 0.383,0 0.749,-0.097 1.109,-0.287 C 2.991,4.286 3.169,4.032 3.169,3.718 3.169,3.498 3.091,3.312 2.94,3.171 2.787,3.024 2.624,2.953 2.447,2.953 2.376,2.953 2.214,2.996 1.961,3.079 1.706,3.158 1.479,3.2 1.288,3.2 1.022,3.2 0.803,3.128 0.635,2.991 0.466,2.847 0.332,2.643 0.241,2.37 0.15,2.095 0.087,1.764 0.049,1.388 0.015,1.007 0,0.545 0,0"
             style="fill:#ffffff;fill-opacity:1;fill-rule:nonzero;stroke:none"
             id="path204" /></g><g
           id="g206"
           transform="translate(272.4326,23.8467)"><path
             d="M 0,0 H 3.291 C 3.248,0.62 3.083,1.085 2.792,1.39 2.499,1.7 2.119,1.852 1.644,1.852 1.191,1.852 0.819,1.699 0.529,1.385 0.239,1.071 0.059,0.611 0,0 M 3.553,-1.033 H 0 c 0.006,-0.411 0.087,-0.777 0.247,-1.091 0.166,-0.313 0.38,-0.549 0.648,-0.712 0.269,-0.158 0.563,-0.238 0.889,-0.238 0.216,0 0.415,0.023 0.594,0.078 0.179,0.049 0.354,0.132 0.522,0.238 0.169,0.109 0.322,0.224 0.464,0.351 0.141,0.123 0.328,0.292 0.555,0.504 0.092,0.079 0.227,0.121 0.397,0.121 0.189,0 0.336,-0.052 0.454,-0.155 C 4.887,-2.04 4.941,-2.183 4.941,-2.37 4.941,-2.534 4.879,-2.725 4.753,-2.942 4.622,-3.165 4.43,-3.374 4.169,-3.577 3.907,-3.778 3.582,-3.946 3.19,-4.077 c -0.393,-0.134 -0.844,-0.2 -1.353,-0.2 -1.169,0 -2.075,0.331 -2.721,0.996 -0.648,0.667 -0.974,1.569 -0.974,2.707 0,0.538 0.082,1.036 0.244,1.496 0.157,0.459 0.39,0.849 0.699,1.18 0.305,0.33 0.678,0.58 1.129,0.755 0.447,0.175 0.942,0.262 1.49,0.262 0.707,0 1.316,-0.15 1.823,-0.451 C 4.035,2.37 4.42,1.983 4.669,1.509 4.922,1.032 5.048,0.552 5.048,0.058 5.048,-0.396 4.916,-0.692 4.655,-0.829 4.393,-0.965 4.027,-1.033 3.553,-1.033"
             style="fill:#ffffff;fill-opacity:1;fill-rule:nonzero;stroke:none"
             id="path208" /></g><g
           id="g210"
           transform="translate(279.9854,23.8467)"><path
             d="M 0,0 H 3.292 C 3.246,0.62 3.079,1.085 2.792,1.39 2.496,1.7 2.118,1.852 1.641,1.852 1.189,1.852 0.817,1.699 0.526,1.385 0.236,1.071 0.059,0.611 0,0 M 3.552,-1.033 H 0 c 0.004,-0.411 0.088,-0.777 0.248,-1.091 0.162,-0.313 0.377,-0.549 0.646,-0.712 0.267,-0.158 0.564,-0.238 0.89,-0.238 0.215,0 0.414,0.023 0.59,0.078 0.182,0.049 0.354,0.132 0.526,0.238 0.169,0.109 0.322,0.224 0.464,0.351 0.14,0.123 0.326,0.292 0.552,0.504 0.095,0.079 0.23,0.121 0.398,0.121 0.189,0 0.338,-0.052 0.456,-0.155 0.115,-0.103 0.168,-0.246 0.168,-0.433 0,-0.164 -0.061,-0.355 -0.192,-0.572 -0.123,-0.223 -0.318,-0.432 -0.581,-0.635 -0.259,-0.201 -0.588,-0.369 -0.977,-0.5 -0.392,-0.134 -0.845,-0.2 -1.354,-0.2 -1.167,0 -2.072,0.331 -2.722,0.996 -0.646,0.667 -0.972,1.569 -0.972,2.707 0,0.538 0.081,1.036 0.241,1.496 0.161,0.459 0.393,0.849 0.699,1.18 0.306,0.33 0.682,0.58 1.131,0.755 0.446,0.175 0.946,0.262 1.491,0.262 0.705,0 1.314,-0.15 1.83,-0.451 C 4.036,2.37 4.417,1.983 4.667,1.509 4.918,1.032 5.047,0.552 5.047,0.058 5.047,-0.396 4.912,-0.692 4.654,-0.829 4.392,-0.965 4.024,-1.033 3.552,-1.033"
             style="fill:#ffffff;fill-opacity:1;fill-rule:nonzero;stroke:none"
             id="path212" /></g><g
           id="g214"
           transform="translate(291.0737,23.2939)"><path
             d="m 0,0 c 0,0.479 -0.075,0.891 -0.221,1.233 -0.146,0.345 -0.35,0.607 -0.607,0.79 -0.256,0.185 -0.547,0.278 -0.861,0.278 -0.5,0 -0.925,-0.199 -1.269,-0.591 -0.342,-0.397 -0.516,-0.977 -0.516,-1.745 0,-0.719 0.171,-1.283 0.515,-1.686 0.341,-0.399 0.76,-0.599 1.27,-0.599 0.299,0 0.581,0.088 0.836,0.259 0.26,0.177 0.468,0.44 0.62,0.79 C -0.078,-0.92 0,-0.496 0,0 M -3.559,2.637 V 2.421 c 0.339,0.419 0.696,0.727 1.066,0.926 0.363,0.198 0.784,0.299 1.248,0.299 0.557,0 1.076,-0.146 1.546,-0.432 0.47,-0.291 0.839,-0.711 1.112,-1.265 0.274,-0.557 0.41,-1.213 0.41,-1.97 0,-0.557 -0.078,-1.072 -0.236,-1.541 -0.156,-0.467 -0.376,-0.859 -0.649,-1.176 -0.276,-0.315 -0.6,-0.563 -0.972,-0.733 -0.381,-0.168 -0.779,-0.254 -1.211,-0.254 -0.516,0 -0.955,0.104 -1.306,0.314 -0.354,0.204 -0.688,0.514 -1.008,0.913 v -2.725 c 0,-0.795 -0.292,-1.197 -0.872,-1.197 -0.343,0 -0.566,0.103 -0.68,0.307 -0.106,0.21 -0.163,0.507 -0.163,0.906 v 7.836 c 0,0.347 0.074,0.602 0.223,0.775 0.152,0.167 0.36,0.256 0.62,0.256 0.259,0 0.467,-0.089 0.628,-0.264 0.165,-0.175 0.244,-0.427 0.244,-0.759"
             style="fill:#ffffff;fill-opacity:1;fill-rule:nonzero;stroke:none"
             id="path216" /></g><g
           id="g218"
           transform="translate(295.625,25.9229)"><path
             d="m 0,0 v -5.253 c 0,-0.36 -0.087,-0.636 -0.26,-0.82 -0.175,-0.19 -0.392,-0.281 -0.659,-0.281 -0.268,0 -0.479,0.092 -0.649,0.285 -0.164,0.193 -0.249,0.465 -0.249,0.816 v 5.2 c 0,0.357 0.085,0.627 0.249,0.809 0.17,0.185 0.381,0.275 0.649,0.275 0.267,0 0.484,-0.09 0.659,-0.275 C -0.087,0.574 0,0.319 0,0 m -0.899,1.876 c -0.254,0 -0.47,0.08 -0.646,0.233 -0.184,0.157 -0.272,0.372 -0.272,0.657 0,0.256 0.092,0.468 0.276,0.636 0.185,0.165 0.397,0.249 0.642,0.249 0.237,0 0.445,-0.074 0.626,-0.223 C -0.092,3.275 0,3.054 0,2.766 0,2.485 -0.089,2.268 -0.265,2.11 -0.443,1.956 -0.653,1.876 -0.899,1.876"
             style="fill:#ffffff;fill-opacity:1;fill-rule:nonzero;stroke:none"
             id="path220" /></g><g
           id="g222"
           transform="translate(301.4771,20.3984)"><path
             d="M 0,0 -1.599,2.637 -2.585,1.704 V 0.26 c 0,-0.349 -0.093,-0.616 -0.278,-0.805 -0.179,-0.189 -0.396,-0.284 -0.635,-0.284 -0.28,0 -0.5,0.091 -0.658,0.28 -0.158,0.184 -0.24,0.46 -0.24,0.82 v 7.75 c 0,0.399 0.08,0.705 0.231,0.917 0.156,0.213 0.382,0.317 0.667,0.317 0.28,0 0.5,-0.095 0.665,-0.288 0.164,-0.19 0.248,-0.471 0.248,-0.842 V 3.719 l 2.042,2.144 c 0.254,0.265 0.44,0.449 0.579,0.546 C 0.168,6.506 0.33,6.556 0.519,6.556 0.747,6.556 0.934,6.481 1.09,6.338 1.238,6.195 1.313,6.013 1.313,5.797 1.313,5.532 1.064,5.174 0.575,4.731 L -0.388,3.847 1.472,0.919 C 1.609,0.699 1.71,0.537 1.77,0.424 1.828,0.313 1.86,0.201 1.86,0.102 1.86,-0.188 1.781,-0.413 1.622,-0.582 1.465,-0.748 1.256,-0.829 1.002,-0.829 0.78,-0.829 0.608,-0.773 0.488,-0.649 0.37,-0.528 0.204,-0.312 0,0"
             style="fill:#ffffff;fill-opacity:1;fill-rule:nonzero;stroke:none"
             id="path224" /></g><g
           id="g226"
           transform="translate(305.4238,19.5693)"><path
             d="m 0,0 c -0.275,0 -0.511,0.088 -0.71,0.267 -0.2,0.173 -0.301,0.423 -0.301,0.745 0,0.269 0.096,0.503 0.288,0.697 0.192,0.195 0.424,0.293 0.706,0.293 0.278,0 0.514,-0.098 0.715,-0.288 C 0.893,1.521 0.993,1.283 0.993,1.012 0.993,0.695 0.893,0.447 0.698,0.27 0.497,0.088 0.265,0 0,0"
             style="fill:#ffffff;fill-opacity:1;fill-rule:nonzero;stroke:none"
             id="path228" /></g><g
           id="g230"
           transform="translate(314.4541,21.8164)"><path
             d="m 0,0 c 0,-0.225 -0.068,-0.468 -0.204,-0.725 -0.135,-0.258 -0.343,-0.502 -0.62,-0.734 -0.277,-0.233 -0.625,-0.422 -1.047,-0.562 -0.42,-0.142 -0.896,-0.215 -1.421,-0.215 -1.125,0 -2.002,0.328 -2.632,0.981 -0.626,0.654 -0.941,1.532 -0.941,2.632 0,0.747 0.14,1.405 0.433,1.977 0.285,0.571 0.703,1.013 1.246,1.327 0.546,0.313 1.202,0.468 1.957,0.468 0.471,0 0.901,-0.068 1.297,-0.207 0.393,-0.136 0.723,-0.316 0.998,-0.531 0.27,-0.219 0.48,-0.45 0.623,-0.693 0.145,-0.247 0.214,-0.477 0.214,-0.692 0,-0.215 -0.078,-0.4 -0.239,-0.552 -0.164,-0.15 -0.361,-0.227 -0.587,-0.227 -0.155,0 -0.28,0.041 -0.379,0.116 -0.1,0.079 -0.213,0.203 -0.335,0.38 -0.223,0.335 -0.453,0.589 -0.698,0.755 -0.239,0.171 -0.546,0.255 -0.919,0.255 -0.534,0 -0.971,-0.21 -1.298,-0.629 -0.328,-0.416 -0.492,-0.993 -0.492,-1.719 0,-0.341 0.043,-0.657 0.127,-0.942 0.083,-0.286 0.203,-0.529 0.365,-0.732 0.161,-0.201 0.353,-0.354 0.578,-0.458 0.227,-0.107 0.477,-0.159 0.745,-0.159 0.366,0 0.677,0.086 0.937,0.253 0.262,0.169 0.49,0.425 0.689,0.773 0.111,0.203 0.23,0.362 0.357,0.477 0.127,0.115 0.287,0.175 0.471,0.175 0.223,0 0.407,-0.086 0.551,-0.253 C -0.074,0.372 0,0.188 0,0"
             style="fill:#ffffff;fill-opacity:1;fill-rule:nonzero;stroke:none"
             id="path232" /></g><g
           id="g234"
           transform="translate(320.4663,23.2598)"><path
             d="M 0,0 C 0,0.74 -0.165,1.316 -0.49,1.728 -0.813,2.145 -1.252,2.35 -1.802,2.35 -2.157,2.35 -2.47,2.257 -2.742,2.074 -3.011,1.891 -3.218,1.618 -3.364,1.26 -3.511,0.898 -3.585,0.479 -3.585,0 c 0,-0.475 0.071,-0.889 0.217,-1.242 0.145,-0.358 0.352,-0.628 0.62,-0.817 0.269,-0.187 0.583,-0.283 0.946,-0.283 0.55,0 0.989,0.207 1.312,0.625 C -0.165,-1.304 0,-0.729 0,0 m 1.824,0 c 0,-0.54 -0.087,-1.04 -0.25,-1.498 C 1.4,-1.955 1.16,-2.348 0.838,-2.674 0.52,-3.001 0.136,-3.254 -0.304,-3.43 c -0.448,-0.174 -0.945,-0.261 -1.498,-0.261 -0.55,0 -1.045,0.087 -1.485,0.267 -0.435,0.174 -0.819,0.431 -1.138,0.758 -0.323,0.333 -0.565,0.724 -0.737,1.174 -0.161,0.45 -0.245,0.948 -0.245,1.492 0,0.551 0.087,1.054 0.252,1.511 0.168,0.457 0.411,0.847 0.727,1.171 0.315,0.323 0.695,0.573 1.141,0.749 0.452,0.174 0.946,0.263 1.485,0.263 0.55,0 1.05,-0.089 1.498,-0.267 C 0.143,3.25 0.523,2.995 0.847,2.67 1.168,2.338 1.408,1.949 1.575,1.499 1.738,1.043 1.824,0.548 1.824,0"
             style="fill:#ffffff;fill-opacity:1;fill-rule:nonzero;stroke:none"
             id="path236" /></g><g
           id="g238"
           transform="translate(329.2148,23.126)"><path
             d="m 0,0 v -2.413 c 0,-0.383 -0.084,-0.666 -0.259,-0.859 -0.176,-0.19 -0.4,-0.286 -0.684,-0.286 -0.275,0 -0.501,0.096 -0.667,0.286 -0.172,0.193 -0.26,0.476 -0.26,0.859 v 2.892 c 0,0.458 -0.015,0.814 -0.044,1.068 -0.033,0.248 -0.119,0.459 -0.254,0.618 -0.138,0.165 -0.357,0.246 -0.651,0.246 -0.597,0 -0.987,-0.203 -1.175,-0.616 -0.187,-0.404 -0.284,-0.99 -0.284,-1.756 v -2.452 c 0,-0.377 -0.086,-0.662 -0.253,-0.857 -0.175,-0.191 -0.397,-0.288 -0.675,-0.288 -0.277,0 -0.502,0.097 -0.678,0.288 -0.175,0.195 -0.262,0.48 -0.262,0.857 v 5.194 c 0,0.343 0.077,0.603 0.233,0.78 0.161,0.178 0.37,0.267 0.623,0.267 0.249,0 0.457,-0.088 0.624,-0.25 0.167,-0.167 0.249,-0.396 0.249,-0.689 V 2.718 c 0.318,0.373 0.655,0.65 1.012,0.825 0.361,0.184 0.757,0.27 1.199,0.27 0.456,0 0.848,-0.091 1.174,-0.272 0.329,-0.183 0.597,-0.459 0.812,-0.823 0.308,0.37 0.637,0.645 0.987,0.825 0.351,0.18 0.737,0.27 1.164,0.27 0.495,0 0.925,-0.1 1.283,-0.292 C 3.573,3.325 3.839,3.045 4.019,2.684 4.172,2.353 4.25,1.837 4.25,1.132 v -3.545 c 0,-0.383 -0.085,-0.666 -0.257,-0.859 -0.172,-0.19 -0.404,-0.286 -0.686,-0.286 -0.276,0 -0.501,0.097 -0.675,0.288 -0.175,0.195 -0.263,0.48 -0.263,0.857 v 3.055 c 0,0.389 -0.016,0.701 -0.05,0.935 C 2.286,1.813 2.196,2.012 2.052,2.171 1.902,2.33 1.681,2.411 1.384,2.411 1.146,2.411 0.918,2.336 0.702,2.195 0.488,2.057 0.319,1.861 0.199,1.626 0.068,1.32 0,0.778 0,0"
             style="fill:#ffffff;fill-opacity:1;fill-rule:nonzero;stroke:none"
             id="path240" /></g><g
           id="g242"
           transform="translate(244.7036,23.6992)"><path
             d="M 0,0 -0.002,0.007 Z"
             style="fill:#ffffff;fill-opacity:1;fill-rule:nonzero;stroke:none"
             id="path244" /></g><g
           id="g246"
           transform="translate(244.7959,23.1182)"><path
             d="M 0,0 H 0.001 C -0.034,0.166 -0.061,0.331 -0.083,0.492 -0.061,0.328 -0.034,0.163 0,0"
             style="fill:#ffffff;fill-opacity:1;fill-rule:nonzero;stroke:none"
             id="path248" /></g><g
           id="g250"
           transform="translate(245.3955,21.4336)"><path
             d="M 0,0 C -0.004,0.007 -0.006,0.015 -0.011,0.024 -0.006,0.015 -0.004,0.007 0,0"
             style="fill:#ffffff;fill-opacity:1;fill-rule:nonzero;stroke:none"
             id="path252" /></g><g
           id="g254"
           transform="translate(245.3379,21.5459)"><path
             d="M 0,0 C -0.015,0.031 -0.029,0.062 -0.045,0.094 -0.029,0.061 -0.015,0.031 0,0"
             style="fill:#ffffff;fill-opacity:1;fill-rule:nonzero;stroke:none"
             id="path256" /></g><g
           id="g258"
           transform="translate(244.9634,22.4697)"><path
             d="M 0,0 C 0.089,-0.28 0.196,-0.552 0.319,-0.811 0.194,-0.546 0.089,-0.275 0.004,0 Z"
             style="fill:#ffffff;fill-opacity:1;fill-rule:nonzero;stroke:none"
             id="path260" /></g><g
           id="g262"
           transform="translate(251.731,30.6553)"><path
             d="M 0,0 C 0.352,0 0.611,-0.027 0.907,-0.078 L 0.99,0.457 c 0,0 -0.818,0.252 -1.897,0.163 l -0.084,0.291 c 0.335,0.07 0.587,0.369 0.587,0.725 0,0.406 -0.332,0.738 -0.741,0.738 -0.408,0 -0.739,-0.332 -0.739,-0.738 0,-0.356 0.25,-0.655 0.585,-0.725 L -1.205,0.587 C -2.349,0.43 -3.261,-0.017 -3.261,-0.017 l 0.162,-0.494 c 0.693,0.232 1.293,0.371 1.838,0.431 C -0.729,-0.024 -0.326,0 0,0"
             style="fill:#ffffff;fill-opacity:1;fill-rule:nonzero;stroke:none"
             id="path264" /></g><g
           id="g266"
           transform="translate(245.3818,27.9541)"><path
             d="m 0,0 0.004,0.006 c 0.028,0.034 0.053,0.067 0.079,0.1 l -0.218,0.158 -0.343,0.249 c -0.019,-0.026 -0.556,-0.52 -0.98,-1.433 -0.018,0.027 -0.04,0.056 -0.063,0.082 -0.126,0.14 -0.304,0.211 -0.531,0.206 h -0.01 c -0.14,0 -0.236,0.047 -0.3,0.103 0.064,0.081 0.101,0.179 0.101,0.29 0,0.258 -0.209,0.468 -0.468,0.468 -0.259,0 -0.468,-0.21 -0.468,-0.468 0,-0.259 0.209,-0.467 0.468,-0.467 0.04,0 0.08,0.005 0.117,0.013 0.116,-0.127 0.298,-0.24 0.565,-0.234 0.138,0.001 0.239,-0.034 0.306,-0.11 0.078,-0.083 0.104,-0.206 0.112,-0.298 v -0.003 c -0.307,-0.833 -0.219,-1.87 -0.219,-1.87 l 0.739,-0.029 c 0.016,0.378 0.07,1.037 0.261,1.561 C -0.479,-0.66 -0.018,-0.026 0,0"
             style="fill:#ffffff;fill-opacity:1;fill-rule:nonzero;stroke:none"
             id="path268" /></g><g
           id="g270"
           transform="translate(258.1729,30.0361)"><path
             d="m 0,0 c -0.258,0 -0.469,-0.208 -0.469,-0.467 0,-0.041 0.007,-0.079 0.015,-0.116 -0.127,-0.116 -0.238,-0.299 -0.234,-0.567 10e-4,-0.138 -0.035,-0.239 -0.108,-0.306 -0.06,-0.053 -0.134,-0.08 -0.207,-0.099 -0.551,0.774 -1.232,1.243 -1.232,1.243 l -0.529,-0.569 c 0.402,-0.364 0.811,-0.822 1.21,-1.394 0.276,-0.394 0.558,-0.904 0.796,-1.41 l 0.716,0.34 c 0,0 -0.327,0.809 -0.789,1.535 0.081,0.028 0.161,0.071 0.233,0.133 0.14,0.129 0.21,0.307 0.205,0.532 -0.002,0.145 0.046,0.243 0.104,0.309 0.08,-0.06 0.181,-0.1 0.289,-0.1 0.26,0 0.469,0.21 0.469,0.469 C 0.469,-0.208 0.26,0 0,0"
             style="fill:#ffffff;fill-opacity:1;fill-rule:nonzero;stroke:none"
             id="path272" /></g><g
           id="g274"
           transform="translate(256.3125,23.5938)"><path
             d="m 0,0 c -0.989,-0.479 -2.612,-1.116 -4.75,-1.413 -0.837,-0.116 -1.652,-0.159 -2.398,-0.159 -0.976,0 -1.835,0.072 -2.496,0.155 -0.753,0.095 -1.342,0.211 -1.701,0.293 0.085,-0.275 0.19,-0.546 0.317,-0.811 0.002,-0.007 0.005,-0.015 0.008,-0.019 0.016,-0.032 0.03,-0.063 0.047,-0.094 0.015,-0.03 0.029,-0.061 0.045,-0.088 0.005,-0.009 0.007,-0.017 0.012,-0.024 0.211,-0.4 0.467,-0.766 0.756,-1.085 1.008,-1.103 2.035,-1.276 2.046,-1.277 l 0.015,-0.002 0.016,-0.006 c 0.009,-0.003 0.919,-0.298 2.304,-0.298 1.362,0 2.698,0.274 3.972,0.817 0.944,0.483 1.836,1.215 2.278,1.868 0.343,0.507 0.59,1.046 0.736,1.608 C 1.286,-0.237 1.345,0.239 1.31,0.742 1.033,0.556 0.593,0.289 0,0"
             style="fill:#ffffff;fill-opacity:1;fill-rule:nonzero;stroke:none"
             id="path276" /></g><g
           id="g278"
           transform="translate(248.519,28.2354)"><path
             d="M 0,0 C 1.09,0 1.973,-0.883 1.973,-1.973 1.973,-3.061 1.09,-3.942 0,-3.942 c -1.089,0 -1.971,0.881 -1.971,1.969 C -1.971,-0.883 -1.089,0 0,0 m 5.771,-0.048 c 0.673,0 1.22,-0.546 1.22,-1.22 0,-0.673 -0.547,-1.222 -1.22,-1.222 -0.673,0 -1.22,0.549 -1.22,1.222 0,0.674 0.547,1.22 1.22,1.22 m -8.59,-0.466 C -2.85,-0.556 -3.277,-1.163 -3.615,-2.091 -3.869,-2.788 -3.857,-3.803 -3.857,-3.815 v -10e-4 c 0,-0.238 0.013,-0.474 0.04,-0.708 l 0.002,-0.012 c 0.002,-0.03 0.007,-0.06 0.01,-0.089 0.021,-0.161 0.048,-0.326 0.083,-0.493 0.491,-0.123 3.416,-0.807 6.686,-0.351 2.049,0.285 3.605,0.892 4.549,1.35 0.785,0.382 1.291,0.724 1.485,0.867 -0.194,0.72 -0.728,1.849 -1.22,2.553 C 6.374,1.307 4.86,1.822 4.083,1.948 3.785,1.998 3.549,2.025 3.212,2.025 2.9,2.025 2.51,2 1.992,1.946 1.47,1.892 0.891,1.755 0.219,1.529 -0.725,1.211 -1.579,0.716 -2.25,0.095 L -2.274,0.073 C -2.373,-0.018 -2.581,-0.21 -2.819,-0.514"
             style="fill:#ffffff;fill-opacity:1;fill-rule:nonzero;stroke:none"
             id="path280" /></g></g></g><g
       id="g282"
       transform="translate(425.4375,103.1406)"><path
         d="M 0,0 H -32.812 V -40.625 H 0 l -9.375,20.313 z"
         style="fill:#4b7b79;fill-opacity:1;fill-rule:nonzero;stroke:none"
         id="path284" /></g><g
       id="g286"><g
         id="g288"
         clip-path="url(#clipPath292)"><g
           id="g294"><g
             id="g296" /><g
             id="g308"><g
               clip-path="url(#clipPath300)"
               opacity="0.399994"
               id="g306"><g
                 transform="translate(392.6255,75.3457)"
                 id="g304"><path
                   d="m 0,0 v -12.83 l 9.375,9.375 z"
                   style="fill:#4b7b79;fill-opacity:1;fill-rule:nonzero;stroke:none"
                   id="path302" /></g></g></g></g></g></g><g
       id="g310"
       transform="translate(74.562,103.1406)"><path
         d="M 0,0 H 32.813 V -40.625 H 0 l 9.375,20.313 z"
         style="fill:#4b7b79;fill-opacity:1;fill-rule:nonzero;stroke:none"
         id="path312" /></g><g
       id="g314"><g
         id="g316"
         clip-path="url(#clipPath320)"><g
           id="g322"><g
             id="g324" /><g
             id="g336"><g
               clip-path="url(#clipPath328)"
               opacity="0.399994"
               id="g334"><g
                 transform="translate(107.3745,75.3457)"
                 id="g332"><path
                   d="m 0,0 v -12.83 l -9.375,9.375 z"
                   style="fill:#4b7b79;fill-opacity:1;fill-rule:nonzero;stroke:none"
                   id="path330" /></g></g></g></g></g></g><path
       d="M 402,71.891 H 98 v 40.625 h 304 z"
       style="fill:#538684;fill-opacity:1;fill-rule:nonzero;stroke:none"
       id="path338" /><text
       transform="matrix(1,0,0,-1,133.4141,84.2471)"
       style="font-variant:normal;font-weight:bold;font-stretch:normal;font-size:23.7499px;font-family:'Galano Grotesque DEMO';-inkscape-font-specification:GalanoGrotesqueDEMO-Bold;writing-mode:lr-tb;fill:#ffffff;fill-opacity:1;fill-rule:nonzero;stroke:none"
       id="text342"><tspan
         x="0 15.152436 31.444868 48.758545 55.432266 73.410942 78.920921 97.065842 115.68576 129.62695 143.56815 158.17433 175.67801 190.83044 197.50417 216.12408"
         y="0"
         sodipodi:role="line"
         id="tspan340">TRAIN COLLECTION</tspan></text><path
       d="m 228.308,211.463 h -9.375 v -50 h 9.375 z"
       style="fill:#3c3c3b;fill-opacity:1;fill-rule:nonzero;stroke:none"
       id="path344" /><path
       d="m 222.059,214.588 h -162.5 v -56.25 h 162.5 z"
       style="fill:#ffffff;fill-opacity:1;fill-rule:nonzero;stroke:none"
       id="path346" /><path
       d="m 222.059,170.838 h -162.5 v -12.5 h 162.5 z"
       style="fill:#ec5250;fill-opacity:1;fill-rule:nonzero;stroke:none"
       id="path348" /><path
       d="m 222.059,205.213 h -162.5 v -18.75 h 162.5 z"
       style="fill:#c6c6c5;fill-opacity:1;fill-rule:nonzero;stroke:none"
       id="path350" /><g
       id="g352"><g
         id="g354"
         clip-path="url(#clipPath358)"><g
           id="g360"
           transform="translate(87.4463,202.0879)"><path
             d="m 0,0 h -4.212 c -0.995,0 -1.8,-0.806 -1.8,-1.8 v -8.9 c 0,-0.994 0.805,-1.8 1.8,-1.8 H 0 c 0.994,0 1.8,0.806 1.8,1.8 v 8.9 C 1.8,-0.806 0.994,0 0,0"
             style="fill:#538684;fill-opacity:1;fill-rule:nonzero;stroke:none"
             id="path362" /></g><g
           id="g364"
           transform="translate(92.3716,200.2876)"><path
             d="M 0,0 V -8.899 C 0,-9.894 0.806,-10.7 1.8,-10.7 h 4.212 c 0.994,0 1.8,0.806 1.8,1.801 V 0 c 0,0.995 -0.806,1.8 -1.8,1.8 H 1.8 C 0.806,1.8 0,0.995 0,0"
             style="fill:#538684;fill-opacity:1;fill-rule:nonzero;stroke:none"
             id="path366" /></g><g
           id="g368"
           transform="translate(123.3838,202.0879)"><path
             d="m 0,0 h -15.15 c -0.995,0 -1.8,-0.806 -1.8,-1.8 v -8.9 c 0,-0.994 0.805,-1.8 1.8,-1.8 H 0 c 0.994,0 1.8,0.806 1.8,1.8 v 8.9 C 1.8,-0.806 0.994,0 0,0"
             style="fill:#538684;fill-opacity:1;fill-rule:nonzero;stroke:none"
             id="path370" /></g><g
           id="g372"
           transform="translate(137.4463,202.0879)"><path
             d="m 0,0 h -4.212 c -0.995,0 -1.801,-0.806 -1.801,-1.8 v -8.9 c 0,-0.994 0.806,-1.8 1.801,-1.8 H 0 c 0.994,0 1.8,0.806 1.8,1.8 v 8.9 C 1.8,-0.806 0.994,0 0,0"
             style="fill:#538684;fill-opacity:1;fill-rule:nonzero;stroke:none"
             id="path374" /></g><g
           id="g376"
           transform="translate(142.3716,200.2876)"><path
             d="M 0,0 V -8.899 C 0,-9.894 0.806,-10.7 1.799,-10.7 h 4.213 c 0.993,0 1.8,0.806 1.8,1.801 V 0 c 0,0.995 -0.807,1.8 -1.8,1.8 H 1.799 C 0.806,1.8 0,0.995 0,0"
             style="fill:#538684;fill-opacity:1;fill-rule:nonzero;stroke:none"
             id="path378" /></g><g
           id="g380"
           transform="translate(173.3838,202.0879)"><path
             d="m 0,0 h -15.15 c -0.995,0 -1.8,-0.806 -1.8,-1.8 v -8.9 c 0,-0.994 0.805,-1.8 1.8,-1.8 H 0 c 0.993,0 1.8,0.806 1.8,1.8 v 8.9 C 1.8,-0.806 0.993,0 0,0"
             style="fill:#538684;fill-opacity:1;fill-rule:nonzero;stroke:none"
             id="path382" /></g><g
           id="g384"
           transform="translate(187.4458,202.0879)"><path
             d="m 0,0 h -4.212 c -0.995,0 -1.8,-0.806 -1.8,-1.8 v -8.9 c 0,-0.994 0.805,-1.8 1.8,-1.8 H 0 c 0.994,0 1.8,0.806 1.8,1.8 v 8.9 C 1.8,-0.806 0.994,0 0,0"
             style="fill:#538684;fill-opacity:1;fill-rule:nonzero;stroke:none"
             id="path386" /></g><g
           id="g388"
           transform="translate(192.3711,200.2876)"><path
             d="M 0,0 V -8.899 C 0,-9.894 0.806,-10.7 1.8,-10.7 h 4.212 c 0.994,0 1.8,0.806 1.8,1.801 V 0 c 0,0.995 -0.806,1.8 -1.8,1.8 H 1.8 C 0.806,1.8 0,0.995 0,0"
             style="fill:#538684;fill-opacity:1;fill-rule:nonzero;stroke:none"
             id="path390" /></g><g
           id="g392"
           transform="translate(73.3838,202.0879)"><path
             d="m 0,0 h -5.775 c -0.995,0 -1.8,-0.806 -1.8,-1.8 v -8.9 c 0,-0.994 0.805,-1.8 1.8,-1.8 H 0 c 0.995,0 1.8,0.806 1.8,1.8 v 8.9 C 1.8,-0.806 0.995,0 0,0"
             style="fill:#538684;fill-opacity:1;fill-rule:nonzero;stroke:none"
             id="path394" /></g><g
           id="g396"
           transform="translate(214.0088,202.0879)"><path
             d="m 0,0 h -5.775 c -0.995,0 -1.8,-0.806 -1.8,-1.8 v -8.9 c 0,-0.994 0.805,-1.8 1.8,-1.8 H 0 c 0.993,0 1.799,0.806 1.799,1.8 v 8.9 C 1.799,-0.806 0.993,0 0,0"
             style="fill:#538684;fill-opacity:1;fill-rule:nonzero;stroke:none"
             id="path398" /></g><g
           id="g400"><g
             id="g402" /><g
             id="g416"><g
               clip-path="url(#clipPath406)"
               id="g414"><g
                 transform="translate(78.9336,165.2129)"
                 id="g410"><path
                   d="m 0,0 h 23.75 v 39.525 c 0,1.641 -1.335,2.975 -2.975,2.975 H 2.975 C 1.334,42.5 0,41.166 0,39.525 Z M 25,-1.25 H -1.25 v 40.775 c 0,2.33 1.896,4.225 4.225,4.225 h 17.8 c 2.33,0 4.225,-1.895 4.225,-4.225 z"
                   style="fill:#c6c6c5;fill-opacity:1;fill-rule:nonzero;stroke:none"
                   id="path408" /></g><path
                 d="m 91.434,164.588 h -1.25 v 43.75 h 1.25 z"
                 style="fill:#c6c6c5;fill-opacity:1;fill-rule:nonzero;stroke:none"
                 id="path412" /></g></g></g><g
           id="g418"><g
             id="g420" /><g
             id="g434"><g
               clip-path="url(#clipPath424)"
               id="g432"><g
                 transform="translate(128.9336,165.2129)"
                 id="g428"><path
                   d="m 0,0 h 23.75 v 39.525 c 0,1.641 -1.335,2.975 -2.975,2.975 H 2.975 C 1.334,42.5 0,41.166 0,39.525 Z M 25,-1.25 H -1.25 v 40.775 c 0,2.33 1.896,4.225 4.225,4.225 h 17.8 c 2.33,0 4.225,-1.895 4.225,-4.225 z"
                   style="fill:#c6c6c5;fill-opacity:1;fill-rule:nonzero;stroke:none"
                   id="path426" /></g><path
                 d="m 141.434,164.588 h -1.25 v 43.75 h 1.25 z"
                 style="fill:#c6c6c5;fill-opacity:1;fill-rule:nonzero;stroke:none"
                 id="path430" /></g></g></g><g
           id="g436"><g
             id="g438" /><g
             id="g452"><g
               clip-path="url(#clipPath442)"
               id="g450"><g
                 transform="translate(178.9336,165.2129)"
                 id="g446"><path
                   d="m 0,0 h 23.75 v 39.525 c 0,1.641 -1.335,2.975 -2.975,2.975 H 2.975 C 1.334,42.5 0,41.166 0,39.525 Z M 25,-1.25 H -1.25 v 40.775 c 0,2.33 1.895,4.225 4.225,4.225 h 17.8 c 2.33,0 4.225,-1.895 4.225,-4.225 z"
                   style="fill:#c6c6c5;fill-opacity:1;fill-rule:nonzero;stroke:none"
                   id="path444" /></g><path
                 d="m 191.434,164.588 h -1.25 v 43.75 h 1.25 z"
                 style="fill:#c6c6c5;fill-opacity:1;fill-rule:nonzero;stroke:none"
                 id="path448" /></g></g></g><g
           id="g454"
           transform="translate(225.1841,214.5879)"><path
             d="m 0,0 v -56.25 h 199.475 c 14.031,0 21.06,16.965 11.138,26.888 l -18.821,18.818 C 185.042,-3.792 175.886,0 166.338,0 Z"
             style="fill:#ffffff;fill-opacity:1;fill-rule:nonzero;stroke:none"
             id="path456" /></g></g></g><g
       id="g458"><g
         id="g460"
         clip-path="url(#clipPath464)"><path
           d="M 440.441,170.838 H 225.184 v -12.5 h 215.257 z"
           style="fill:#ec5250;fill-opacity:1;fill-rule:nonzero;stroke:none"
           id="path466" /><g
           id="g468"
           transform="translate(440.4414,205.2129)"><path
             d="m 0,0 h -55.408 c -1.988,0 -3.599,-1.612 -3.599,-3.6 v -11.55 c 0,-1.989 1.611,-3.6 3.599,-3.6 H 0 Z"
             style="fill:#c6c6c5;fill-opacity:1;fill-rule:nonzero;stroke:none"
             id="path470" /></g><g
           id="g472"
           transform="translate(440.4414,202.0879)"><path
             d="m 0,0 h -46.508 c -3.452,0 -6.249,-2.798 -6.249,-6.25 0,-3.452 2.797,-6.25 6.249,-6.25 H 0 Z"
             style="fill:#538684;fill-opacity:1;fill-rule:nonzero;stroke:none"
             id="path474" /></g></g></g><g
       id="g476"><g
         id="g478"
         clip-path="url(#clipPath482)"><g
           id="g484"
           transform="translate(371.5845,205.2129)"><path
             d="M 0,0 H -146.4 V -18.75 H 0 c 1.987,0 3.6,1.611 3.6,3.6 V -3.6 C 3.6,-1.611 1.987,0 0,0"
             style="fill:#c6c6c5;fill-opacity:1;fill-rule:nonzero;stroke:none"
             id="path486" /></g><g
           id="g488"
           transform="translate(367.1338,202.0879)"><path
             d="m 0,0 h -33.9 c -0.994,0 -1.8,-0.806 -1.8,-1.8 v -8.9 c 0,-0.994 0.806,-1.8 1.8,-1.8 H 0 c 0.995,0 1.8,0.806 1.8,1.8 v 8.9 C 1.8,-0.806 0.995,0 0,0"
             style="fill:#538684;fill-opacity:1;fill-rule:nonzero;stroke:none"
             id="path490" /></g><g
           id="g492"
           transform="translate(248.3838,202.0879)"><path
             d="m 0,0 h -15.15 c -0.994,0 -1.8,-0.806 -1.8,-1.8 v -8.9 c 0,-0.994 0.806,-1.8 1.8,-1.8 H 0 c 0.995,0 1.8,0.806 1.8,1.8 v 8.9 C 1.8,-0.806 0.995,0 0,0"
             style="fill:#538684;fill-opacity:1;fill-rule:nonzero;stroke:none"
             id="path494" /></g><g
           id="g496"
           transform="translate(262.4463,202.0879)"><path
             d="m 0,0 h -4.212 c -0.995,0 -1.8,-0.806 -1.8,-1.8 v -8.9 c 0,-0.994 0.805,-1.8 1.8,-1.8 H 0 c 0.995,0 1.801,0.806 1.801,1.8 v 8.9 C 1.801,-0.806 0.995,0 0,0"
             style="fill:#538684;fill-opacity:1;fill-rule:nonzero;stroke:none"
             id="path498" /></g><g
           id="g500"
           transform="translate(267.3721,200.2876)"><path
             d="M 0,0 V -8.899 C 0,-9.894 0.806,-10.7 1.799,-10.7 h 4.213 c 0.995,0 1.8,0.806 1.8,1.801 V 0 c 0,0.995 -0.805,1.8 -1.8,1.8 H 1.799 C 0.806,1.8 0,0.995 0,0"
             style="fill:#538684;fill-opacity:1;fill-rule:nonzero;stroke:none"
             id="path502" /></g><g
           id="g504"
           transform="translate(298.3838,202.0879)"><path
             d="m 0,0 h -15.15 c -0.994,0 -1.8,-0.806 -1.8,-1.8 v -8.9 c 0,-0.994 0.806,-1.8 1.8,-1.8 H 0 c 0.995,0 1.801,0.806 1.801,1.8 v 8.9 C 1.801,-0.806 0.995,0 0,0"
             style="fill:#538684;fill-opacity:1;fill-rule:nonzero;stroke:none"
             id="path506" /></g><g
           id="g508"
           transform="translate(312.4458,202.0879)"><path
             d="m 0,0 h -4.212 c -0.994,0 -1.8,-0.806 -1.8,-1.8 v -8.9 c 0,-0.994 0.806,-1.8 1.8,-1.8 H 0 c 0.995,0 1.801,0.806 1.801,1.8 v 8.9 C 1.801,-0.806 0.995,0 0,0"
             style="fill:#538684;fill-opacity:1;fill-rule:nonzero;stroke:none"
             id="path510" /></g><g
           id="g512"
           transform="translate(317.3716,200.2876)"><path
             d="M 0,0 V -8.899 C 0,-9.894 0.806,-10.7 1.799,-10.7 h 4.213 c 0.995,0 1.8,0.806 1.8,1.801 V 0 c 0,0.995 -0.805,1.8 -1.8,1.8 H 1.799 C 0.806,1.8 0,0.995 0,0"
             style="fill:#538684;fill-opacity:1;fill-rule:nonzero;stroke:none"
             id="path514" /></g><g
           id="g516"><g
             id="g518" /><g
             id="g532"><g
               clip-path="url(#clipPath522)"
               id="g530"><g
                 transform="translate(253.9341,165.2129)"
                 id="g526"><path
                   d="m 0,0 h 23.75 v 39.525 c 0,1.641 -1.335,2.975 -2.975,2.975 H 2.976 C 1.334,42.5 0,41.166 0,39.525 Z M 25,-1.25 H -1.25 v 40.775 c 0,2.33 1.895,4.225 4.226,4.225 H 20.775 C 23.104,43.75 25,41.855 25,39.525 Z"
                   style="fill:#c6c6c5;fill-opacity:1;fill-rule:nonzero;stroke:none"
                   id="path524" /></g><path
                 d="m 266.434,164.588 h -1.25 v 43.75 h 1.25 z"
                 style="fill:#c6c6c5;fill-opacity:1;fill-rule:nonzero;stroke:none"
                 id="path528" /></g></g></g><g
           id="g534"><g
             id="g536" /><g
             id="g550"><g
               clip-path="url(#clipPath540)"
               id="g548"><g
                 transform="translate(303.9341,165.2129)"
                 id="g544"><path
                   d="m 0,0 h 23.75 v 39.525 c 0,1.641 -1.335,2.975 -2.975,2.975 H 2.975 C 1.334,42.5 0,41.166 0,39.525 Z M 25,-1.25 H -1.25 v 40.775 c 0,2.33 1.895,4.225 4.225,4.225 h 17.8 C 23.104,43.75 25,41.855 25,39.525 Z"
                   style="fill:#c6c6c5;fill-opacity:1;fill-rule:nonzero;stroke:none"
                   id="path542" /></g><path
                 d="m 316.434,164.588 h -1.25 v 43.75 h 1.25 z"
                 style="fill:#c6c6c5;fill-opacity:1;fill-rule:nonzero;stroke:none"
                 id="path546" /></g></g></g><path
           d="m 228.308,319.787 h -15.624 v -50.001 h 15.624 z"
           style="fill:#3c3c3b;fill-opacity:1;fill-rule:nonzero;stroke:none"
           id="path552" /><path
           d="m 225.184,319.787 h -1.339 v -50.001 h 1.339 z"
           style="fill:#575756;fill-opacity:1;fill-rule:nonzero;stroke:none"
           id="path554" /><path
           d="m 222.505,319.787 h -1.339 v -50.001 h 1.339 z"
           style="fill:#575756;fill-opacity:1;fill-rule:nonzero;stroke:none"
           id="path556" /><path
           d="m 219.827,319.787 h -1.339 v -50.001 h 1.339 z"
           style="fill:#575756;fill-opacity:1;fill-rule:nonzero;stroke:none"
           id="path558" /><path
           d="m 217.148,319.787 h -1.34 v -50.001 h 1.34 z"
           style="fill:#575756;fill-opacity:1;fill-rule:nonzero;stroke:none"
           id="path560" /><g
           id="g562"
           transform="translate(172.0586,263.5352)"><path
             d="m 0,0 v 0 c -3.452,0 -6.25,2.798 -6.25,6.25 0,3.451 2.798,6.25 6.25,6.25 3.452,0 6.25,-2.799 6.25,-6.25 C 6.25,2.798 3.452,0 0,0"
             style="fill:#3c3c3b;fill-opacity:1;fill-rule:nonzero;stroke:none"
             id="path564" /></g><g
           id="g566"
           transform="translate(172.0586,274.7852)"><path
             d="m 0,0 c 2.757,0 5,-2.243 5,-5 0,-2.757 -2.243,-5 -5,-5 -2.757,0 -5,2.243 -5,5 0,2.757 2.243,5 5,5"
             style="fill:#575756;fill-opacity:1;fill-rule:nonzero;stroke:none"
             id="path568" /></g><g
           id="g570"
           transform="translate(187.6836,263.5352)"><path
             d="m 0,0 v 0 c -3.452,0 -6.25,2.798 -6.25,6.25 0,3.451 2.798,6.25 6.25,6.25 3.452,0 6.25,-2.799 6.25,-6.25 C 6.25,2.798 3.452,0 0,0"
             style="fill:#3c3c3b;fill-opacity:1;fill-rule:nonzero;stroke:none"
             id="path572" /></g><g
           id="g574"
           transform="translate(187.6836,274.7852)"><path
             d="m 0,0 c 2.757,0 5,-2.243 5,-5 0,-2.757 -2.243,-5 -5,-5 -2.757,0 -5,2.243 -5,5 0,2.757 2.243,5 5,5"
             style="fill:#575756;fill-opacity:1;fill-rule:nonzero;stroke:none"
             id="path576" /></g><g
           id="g578"
           transform="translate(203.3081,263.5352)"><path
             d="m 0,0 v 0 c -3.451,0 -6.25,2.798 -6.25,6.25 0,3.451 2.799,6.25 6.25,6.25 3.452,0 6.25,-2.799 6.25,-6.25 C 6.25,2.798 3.452,0 0,0"
             style="fill:#3c3c3b;fill-opacity:1;fill-rule:nonzero;stroke:none"
             id="path580" /></g><g
           id="g582"
           transform="translate(203.3081,274.7852)"><path
             d="m 0,0 c 2.757,0 5,-2.243 5,-5 0,-2.757 -2.243,-5 -5,-5 -2.756,0 -5,2.243 -5,5 0,2.757 2.244,5 5,5"
             style="fill:#575756;fill-opacity:1;fill-rule:nonzero;stroke:none"
             id="path584" /></g><g
           id="g586"
           transform="translate(72.0591,263.5352)"><path
             d="m 0,0 v 0 c -3.452,0 -6.25,2.798 -6.25,6.25 0,3.451 2.798,6.25 6.25,6.25 3.452,0 6.25,-2.799 6.25,-6.25 C 6.25,2.798 3.452,0 0,0"
             style="fill:#3c3c3b;fill-opacity:1;fill-rule:nonzero;stroke:none"
             id="path588" /></g><g
           id="g590"
           transform="translate(72.0591,274.7852)"><path
             d="m 0,0 c 2.757,0 5,-2.243 5,-5 0,-2.757 -2.243,-5 -5,-5 -2.757,0 -5,2.243 -5,5 0,2.757 2.243,5 5,5"
             style="fill:#575756;fill-opacity:1;fill-rule:nonzero;stroke:none"
             id="path592" /></g><g
           id="g594"
           transform="translate(87.6841,263.5352)"><path
             d="m 0,0 v 0 c -3.452,0 -6.25,2.798 -6.25,6.25 0,3.451 2.798,6.25 6.25,6.25 3.452,0 6.25,-2.799 6.25,-6.25 C 6.25,2.798 3.452,0 0,0"
             style="fill:#3c3c3b;fill-opacity:1;fill-rule:nonzero;stroke:none"
             id="path596" /></g><g
           id="g598"
           transform="translate(87.6841,274.7852)"><path
             d="m 0,0 c 2.757,0 5,-2.243 5,-5 0,-2.757 -2.243,-5 -5,-5 -2.757,0 -5,2.243 -5,5 0,2.757 2.243,5 5,5"
             style="fill:#575756;fill-opacity:1;fill-rule:nonzero;stroke:none"
             id="path600" /></g><g
           id="g602"
           transform="translate(103.3086,263.5352)"><path
             d="m 0,0 v 0 c -3.451,0 -6.25,2.798 -6.25,6.25 0,3.451 2.799,6.25 6.25,6.25 3.452,0 6.25,-2.799 6.25,-6.25 C 6.25,2.798 3.452,0 0,0"
             style="fill:#3c3c3b;fill-opacity:1;fill-rule:nonzero;stroke:none"
             id="path604" /></g><g
           id="g606"
           transform="translate(103.3086,274.7852)"><path
             d="m 0,0 c 2.757,0 5,-2.243 5,-5 0,-2.757 -2.243,-5 -5,-5 -2.757,0 -5,2.243 -5,5 0,2.757 2.243,5 5,5"
             style="fill:#575756;fill-opacity:1;fill-rule:nonzero;stroke:none"
             id="path608" /></g><path
           d="M 215.808,322.91 H 59.559 v -56.25 h 156.249 z"
           style="fill:#ffffff;fill-opacity:1;fill-rule:nonzero;stroke:none"
           id="path610" /><g
           id="g612"
           transform="translate(94.3594,310.4102)"><path
             d="m 0,0 h -25.85 c -1.491,0 -2.7,-1.209 -2.7,-2.7 v -19.601 c 0,-1.491 1.209,-2.699 2.7,-2.699 H 0 c 1.491,0 2.7,1.208 2.7,2.699 V -2.7 C 2.7,-1.209 1.491,0 0,0"
             style="fill:#538684;fill-opacity:1;fill-rule:nonzero;stroke:none"
             id="path614" /></g><g
           id="g616"
           transform="translate(103.3086,307.71)"><path
             d="M 0,0 V -19.601 C 0,-21.091 1.209,-22.3 2.701,-22.3 H 28.55 c 1.491,0 2.7,1.209 2.7,2.699 V 0 c 0,1.491 -1.209,2.7 -2.7,2.7 H 2.701 C 1.209,2.7 0,1.491 0,0"
             style="fill:#538684;fill-opacity:1;fill-rule:nonzero;stroke:none"
             id="path618" /></g><g
           id="g620"
           transform="translate(178.3086,307.71)"><path
             d="m 0,0 v -19.601 c 0,-1.49 1.209,-2.699 2.7,-2.699 h 25.85 c 1.491,0 2.7,1.209 2.7,2.699 V 0 c 0,1.491 -1.209,2.7 -2.7,2.7 H 2.7 C 1.209,2.7 0,1.491 0,0"
             style="fill:#538684;fill-opacity:1;fill-rule:nonzero;stroke:none"
             id="path622" /></g><g
           id="g624"
           transform="translate(140.8086,288.1094)"><path
             d="m 0,0 v 19.601 c 0,1.49 1.209,2.7 2.701,2.7 H 28.55 c 1.491,0 2.7,-1.21 2.7,-2.7 V 0 c 0,-1.491 -1.209,-2.699 -2.7,-2.699 H 2.701 C 1.209,-2.699 0,-1.491 0,0"
             style="fill:#538684;fill-opacity:1;fill-rule:nonzero;stroke:none"
             id="path626" /></g><path
           d="M 215.808,322.91 H 59.559 v -6.25 h 156.249 z"
           style="fill:#ec5250;fill-opacity:1;fill-rule:nonzero;stroke:none"
           id="path628" /><path
           d="M 215.808,272.91 H 59.559 v -6.25 h 156.249 z"
           style="fill:#3c3c3b;fill-opacity:1;fill-rule:nonzero;stroke:none"
           id="path630" /><path
           d="M 215.808,279.786 H 59.559 v -1.25 h 156.249 z"
           style="fill:#ec5250;fill-opacity:1;fill-rule:nonzero;stroke:none"
           id="path632" /><g
           id="g634"
           transform="translate(357.9961,263.5352)"><path
             d="m 0,0 v 0 c -3.452,0 -6.25,2.798 -6.25,6.25 0,3.452 2.798,6.25 6.25,6.25 3.451,0 6.25,-2.798 6.25,-6.25 C 6.25,2.798 3.451,0 0,0"
             style="fill:#3c3c3b;fill-opacity:1;fill-rule:nonzero;stroke:none"
             id="path636" /></g><g
           id="g638"
           transform="translate(357.9961,274.7852)"><path
             d="m 0,0 c 2.757,0 5,-2.243 5,-5 0,-2.757 -2.243,-5 -5,-5 -2.757,0 -5,2.243 -5,5 0,2.757 2.243,5 5,5"
             style="fill:#575756;fill-opacity:1;fill-rule:nonzero;stroke:none"
             id="path640" /></g><g
           id="g642"
           transform="translate(373.6216,263.5352)"><path
             d="m 0,0 v 0 c -3.453,0 -6.25,2.798 -6.25,6.25 0,3.452 2.797,6.25 6.25,6.25 3.452,0 6.25,-2.798 6.25,-6.25 C 6.25,2.798 3.452,0 0,0"
             style="fill:#3c3c3b;fill-opacity:1;fill-rule:nonzero;stroke:none"
             id="path644" /></g><g
           id="g646"
           transform="translate(373.6216,274.7852)"><path
             d="m 0,0 c 2.756,0 5,-2.243 5,-5 0,-2.757 -2.244,-5 -5,-5 -2.757,0 -5,2.243 -5,5 0,2.757 2.243,5 5,5"
             style="fill:#575756;fill-opacity:1;fill-rule:nonzero;stroke:none"
             id="path648" /></g><g
           id="g650"
           transform="translate(389.2466,263.5352)"><path
             d="m 0,0 v 0 c -3.453,0 -6.25,2.798 -6.25,6.25 0,3.452 2.797,6.25 6.25,6.25 3.452,0 6.25,-2.798 6.25,-6.25 C 6.25,2.798 3.452,0 0,0"
             style="fill:#3c3c3b;fill-opacity:1;fill-rule:nonzero;stroke:none"
             id="path652" /></g><g
           id="g654"
           transform="translate(389.2466,274.7852)"><path
             d="m 0,0 c 2.756,0 5,-2.243 5,-5 0,-2.757 -2.244,-5 -5,-5 -2.757,0 -5,2.243 -5,5 0,2.757 2.243,5 5,5"
             style="fill:#575756;fill-opacity:1;fill-rule:nonzero;stroke:none"
             id="path656" /></g><g
           id="g658"
           transform="translate(237.6846,263.5352)"><path
             d="m 0,0 v 0 c -3.453,0 -6.25,2.798 -6.25,6.25 0,3.452 2.797,6.25 6.25,6.25 3.451,0 6.25,-2.798 6.25,-6.25 C 6.25,2.798 3.451,0 0,0"
             style="fill:#3c3c3b;fill-opacity:1;fill-rule:nonzero;stroke:none"
             id="path660" /></g><g
           id="g662"
           transform="translate(237.6846,274.7852)"><path
             d="m 0,0 c 2.756,0 5,-2.243 5,-5 0,-2.757 -2.244,-5 -5,-5 -2.758,0 -5,2.243 -5,5 0,2.757 2.242,5 5,5"
             style="fill:#575756;fill-opacity:1;fill-rule:nonzero;stroke:none"
             id="path664" /></g><g
           id="g666"
           transform="translate(253.3091,263.5352)"><path
             d="m 0,0 v 0 c -3.452,0 -6.25,2.798 -6.25,6.25 0,3.452 2.798,6.25 6.25,6.25 3.451,0 6.25,-2.798 6.25,-6.25 C 6.25,2.798 3.451,0 0,0"
             style="fill:#3c3c3b;fill-opacity:1;fill-rule:nonzero;stroke:none"
             id="path668" /></g><g
           id="g670"
           transform="translate(253.3091,274.7852)"><path
             d="m 0,0 c 2.757,0 5,-2.243 5,-5 0,-2.757 -2.243,-5 -5,-5 -2.757,0 -5,2.243 -5,5 0,2.757 2.243,5 5,5"
             style="fill:#575756;fill-opacity:1;fill-rule:nonzero;stroke:none"
             id="path672" /></g><g
           id="g674"
           transform="translate(268.9341,263.5352)"><path
             d="m 0,0 v 0 c -3.452,0 -6.25,2.798 -6.25,6.25 0,3.452 2.798,6.25 6.25,6.25 3.451,0 6.25,-2.798 6.25,-6.25 C 6.25,2.798 3.451,0 0,0"
             style="fill:#3c3c3b;fill-opacity:1;fill-rule:nonzero;stroke:none"
             id="path676" /></g><g
           id="g678"
           transform="translate(268.9341,274.7852)"><path
             d="m 0,0 c 2.756,0 5,-2.243 5,-5 0,-2.757 -2.244,-5 -5,-5 -2.757,0 -5,2.243 -5,5 0,2.757 2.243,5 5,5"
             style="fill:#575756;fill-opacity:1;fill-rule:nonzero;stroke:none"
             id="path680" /></g><g
           id="g682"
           transform="translate(225.1841,322.9102)"><path
             d="m 0,0 v -56.25 h 204.63 c 5.869,0 10.627,4.758 10.627,10.626 0,1.24 -0.217,2.47 -0.64,3.635 l -9.896,27.185 C 201.487,-5.916 193.037,0 183.579,0 Z"
             style="fill:#ffffff;fill-opacity:1;fill-rule:nonzero;stroke:none"
             id="path684" /></g><g
           id="g686"
           transform="translate(259.9839,310.4102)"><path
             d="m 0,0 h -25.85 c -1.491,0 -2.7,-1.209 -2.7,-2.7 v -19.6 c 0,-1.491 1.209,-2.7 2.7,-2.7 H 0 c 1.491,0 2.701,1.209 2.701,2.7 V -2.7 C 2.701,-1.209 1.491,0 0,0"
             style="fill:#538684;fill-opacity:1;fill-rule:nonzero;stroke:none"
             id="path688" /></g><g
           id="g690"
           transform="translate(268.9341,307.7104)"><path
             d="M 0,0 V -19.601 C 0,-21.091 1.209,-22.3 2.701,-22.3 H 28.55 c 1.491,0 2.7,1.209 2.7,2.699 V 0 c 0,1.491 -1.209,2.7 -2.7,2.7 H 2.701 C 1.209,2.7 0,1.491 0,0"
             style="fill:#538684;fill-opacity:1;fill-rule:nonzero;stroke:none"
             id="path692" /></g><g
           id="g694"
           transform="translate(355.2964,310.4102)"><path
             d="m 0,0 h -25.85 c -1.491,0 -2.7,-1.209 -2.7,-2.7 v -19.6 c 0,-1.491 1.209,-2.7 2.7,-2.7 H 0 c 1.491,0 2.7,1.209 2.7,2.7 V -2.7 C 2.7,-1.209 1.491,0 0,0"
             style="fill:#538684;fill-opacity:1;fill-rule:nonzero;stroke:none"
             id="path696" /></g><g
           id="g698"
           transform="translate(364.2466,307.7104)"><path
             d="m 0,0 v -19.601 c 0,-1.49 1.208,-2.699 2.7,-2.699 h 25.849 c 1.493,0 2.701,1.209 2.701,2.699 V 0 c 0,1.491 -1.208,2.7 -2.701,2.7 H 2.7 C 1.208,2.7 0,1.491 0,0"
             style="fill:#538684;fill-opacity:1;fill-rule:nonzero;stroke:none"
             id="path700" /></g><g
           id="g702"
           transform="translate(317.7964,310.4102)"><path
             d="m 0,0 h -8.662 c -1.491,0 -2.7,-1.209 -2.7,-2.7 v -19.6 c 0,-1.491 1.209,-2.7 2.7,-2.7 H 0 c 1.491,0 2.701,1.209 2.701,2.7 V -2.7 C 2.701,-1.209 1.491,0 0,0"
             style="fill:#538684;fill-opacity:1;fill-rule:nonzero;stroke:none"
             id="path704" /></g></g></g><g
       id="g706"><g
         id="g708"
         clip-path="url(#clipPath712)"><path
           d="M 440.441,322.91 H 225.184 v -6.25 h 215.257 z"
           style="fill:#ec5250;fill-opacity:1;fill-rule:nonzero;stroke:none"
           id="path714" /><g
           id="g716"
           transform="translate(440.4414,310.4102)"><path
             d="m 0,0 h -26.751 c -1.875,0 -3.178,-1.862 -2.537,-3.624 l 7.134,-19.599 C -21.767,-24.29 -20.752,-25 -19.617,-25 H 0 Z"
             style="fill:#538684;fill-opacity:1;fill-rule:nonzero;stroke:none"
             id="path718" /></g><path
           d="M 440.441,272.91 H 225.184 v -6.25 h 215.257 z"
           style="fill:#3c3c3b;fill-opacity:1;fill-rule:nonzero;stroke:none"
           id="path720" /></g></g><g
       id="g722"><g
         id="g724"
         clip-path="url(#clipPath728)"><g
           id="g730"><g
             id="g732" /><g
             id="g744"><g
               clip-path="url(#clipPath736)"
               id="g742"><g
                 transform="translate(303.9341,272.9102)"
                 id="g740"><path
                   d="m 0,0 v 40.15 c 0,1.641 1.334,2.975 2.975,2.975 h 13.112 c 1.64,0 2.975,-1.334 2.975,-2.975 V 0 h 1.25 v 40.15 c 0,2.329 -1.895,4.225 -4.225,4.225 H 2.975 c -2.33,0 -4.225,-1.896 -4.225,-4.225 L -1.25,0 Z"
                   style="fill:#c6c6c5;fill-opacity:1;fill-rule:nonzero;stroke:none"
                   id="path738" /></g></g></g></g><g
           id="g746"
           transform="translate(382.9326,279.7856)"><path
             d="M 0,0 H -157.749 V -1.25 H 0 c 6.61,0 12.901,-1.995 18.186,-5.625 H 20.31 C 14.546,-2.45 7.47,0 0,0"
             style="fill:#ec5250;fill-opacity:1;fill-rule:nonzero;stroke:none"
             id="path748" /></g><path
           d="m 365.44,382.796 h -18.267 v -3.125 h 18.267 z"
           style="fill:#3c3c3b;fill-opacity:1;fill-rule:nonzero;stroke:none"
           id="path750" /><path
           d="m 290.143,382.796 h -17.876 v -3.125 h 17.876 z"
           style="fill:#3c3c3b;fill-opacity:1;fill-rule:nonzero;stroke:none"
           id="path752" /><path
           d="m 215.234,382.796 h -17.877 v -3.125 h 17.877 z"
           style="fill:#3c3c3b;fill-opacity:1;fill-rule:nonzero;stroke:none"
           id="path754" /><path
           d="m 140.326,382.796 h -17.877 v -3.125 h 17.877 z"
           style="fill:#3c3c3b;fill-opacity:1;fill-rule:nonzero;stroke:none"
           id="path756" /><path
           d="m 349.908,390.607 h -62.5 v -12.5 h 62.5 z"
           style="fill:#575756;fill-opacity:1;fill-rule:nonzero;stroke:none"
           id="path758" /><g
           id="g760"
           transform="translate(340.9238,368.7329)"><path
             d="m 0,0 v 0 c -3.452,0 -6.25,2.797 -6.25,6.25 0,3.452 2.798,6.25 6.25,6.25 3.451,0 6.25,-2.798 6.25,-6.25 C 6.25,2.797 3.451,0 0,0"
             style="fill:#3c3c3b;fill-opacity:1;fill-rule:nonzero;stroke:none"
             id="path762" /></g><g
           id="g764"
           transform="translate(340.9238,379.3579)"><path
             d="M 0,0 C 2.412,0 4.375,-1.962 4.375,-4.375 4.375,-6.788 2.412,-8.75 0,-8.75 c -2.414,0 -4.375,1.962 -4.375,4.375 C -4.375,-1.962 -2.414,0 0,0"
             style="fill:#575756;fill-opacity:1;fill-rule:nonzero;stroke:none"
             id="path766" /></g><g
           id="g768"
           transform="translate(340.9238,376.2324)"><path
             d="M 0,0 C 0.688,0 1.25,-0.561 1.25,-1.25 1.25,-1.939 0.688,-2.5 0,-2.5 c -0.69,0 -1.25,0.561 -1.25,1.25 C -1.25,-0.561 -0.69,0 0,0"
             style="fill:#3c3c3b;fill-opacity:1;fill-rule:nonzero;stroke:none"
             id="path770" /></g><g
           id="g772"
           transform="translate(296.3931,368.7329)"><path
             d="m 0,0 v 0 c -3.452,0 -6.25,2.797 -6.25,6.25 0,3.452 2.798,6.25 6.25,6.25 3.451,0 6.25,-2.798 6.25,-6.25 C 6.25,2.797 3.451,0 0,0"
             style="fill:#3c3c3b;fill-opacity:1;fill-rule:nonzero;stroke:none"
             id="path774" /></g><g
           id="g776"
           transform="translate(296.3931,379.3579)"><path
             d="M 0,0 C 2.412,0 4.375,-1.962 4.375,-4.375 4.375,-6.788 2.412,-8.75 0,-8.75 c -2.414,0 -4.375,1.962 -4.375,4.375 C -4.375,-1.962 -2.414,0 0,0"
             style="fill:#575756;fill-opacity:1;fill-rule:nonzero;stroke:none"
             id="path778" /></g><g
           id="g780"
           transform="translate(296.3931,376.2324)"><path
             d="M 0,0 C 0.688,0 1.25,-0.561 1.25,-1.25 1.25,-1.939 0.688,-2.5 0,-2.5 c -0.69,0 -1.25,0.561 -1.25,1.25 C -1.25,-0.561 -0.69,0 0,0"
             style="fill:#3c3c3b;fill-opacity:1;fill-rule:nonzero;stroke:none"
             id="path782" /></g><path
           d="m 284.284,384.358 h 68.75 v 28.125 h -68.75 z"
           style="fill:#6f6f6e;fill-opacity:1;fill-rule:nonzero;stroke:none"
           id="path784" /><path
           d="m 354.596,415.607 h -71.875 v -6.25 h 71.875 z"
           style="fill:#868686;fill-opacity:1;fill-rule:nonzero;stroke:none"
           id="path786" /><path
           d="m 307.485,416.857 h -1.25 v -33.75 h 1.25 z"
           style="fill:#3c3c3b;fill-opacity:1;fill-rule:nonzero;stroke:none"
           id="path788" /><path
           d="m 297.018,416.857 h -1.25 v -33.75 h 1.25 z"
           style="fill:#3c3c3b;fill-opacity:1;fill-rule:nonzero;stroke:none"
           id="path790" /><path
           d="m 306.86,413.107 h -10.467 v -1.25 h 10.467 z"
           style="fill:#3c3c3b;fill-opacity:1;fill-rule:nonzero;stroke:none"
           id="path792" /><path
           d="m 306.86,409.358 h -10.467 v -1.25 h 10.467 z"
           style="fill:#3c3c3b;fill-opacity:1;fill-rule:nonzero;stroke:none"
           id="path794" /><path
           d="m 306.86,405.608 h -10.467 v -1.25 h 10.467 z"
           style="fill:#3c3c3b;fill-opacity:1;fill-rule:nonzero;stroke:none"
           id="path796" /><path
           d="m 306.86,401.857 h -10.467 v -1.25 h 10.467 z"
           style="fill:#3c3c3b;fill-opacity:1;fill-rule:nonzero;stroke:none"
           id="path798" /><path
           d="m 306.86,398.107 h -10.467 v -1.25 h 10.467 z"
           style="fill:#3c3c3b;fill-opacity:1;fill-rule:nonzero;stroke:none"
           id="path800" /><path
           d="m 306.86,394.358 h -10.467 v -1.25 h 10.467 z"
           style="fill:#3c3c3b;fill-opacity:1;fill-rule:nonzero;stroke:none"
           id="path802" /><path
           d="m 306.86,390.607 h -10.467 v -1.25 h 10.467 z"
           style="fill:#3c3c3b;fill-opacity:1;fill-rule:nonzero;stroke:none"
           id="path804" /><path
           d="m 306.86,386.857 h -10.467 v -1.25 h 10.467 z"
           style="fill:#3c3c3b;fill-opacity:1;fill-rule:nonzero;stroke:none"
           id="path806" /><g
           id="g808"
           transform="translate(434.1914,390.6074)"><path
             d="M 0,0 6.25,10.938 0,21.875 -3.125,18.75 V 3.125 Z"
             style="fill:#b1b1b1;fill-opacity:1;fill-rule:nonzero;stroke:none"
             id="path810" /></g><g
           id="g812"
           transform="translate(420.6025,414.0454)"><path
             d="m 0,0 2.479,14.062 v 3.125 H -12.178 V 14.062 L -9.698,0 Z"
             style="fill:#d9d9d9;fill-opacity:1;fill-rule:nonzero;stroke:none"
             id="path814" /></g><g
           id="g816"
           transform="translate(424.8164,409.3579)"><path
             d="m 0,0 v 4.45 c 0,0.993 -0.807,1.8 -1.801,1.8 h -14.524 c -0.994,0 -1.801,-0.807 -1.801,-1.8 l 0,-4.45 z"
             style="fill:#b1b1b1;fill-opacity:1;fill-rule:nonzero;stroke:none"
             id="path818" /></g><g
           id="g820"
           transform="translate(424.6436,428.1074)"><path
             d="M 0,0 -3.411,9.375 H -14.369 L -17.781,0 Z"
             style="fill:#b1b1b1;fill-opacity:1;fill-rule:nonzero;stroke:none"
             id="path822" /></g><path
           d="m 362.315,378.108 h 68.751 v 17.187 h -68.751 z"
           style="fill:#2d2d2c;fill-opacity:1;fill-rule:nonzero;stroke:none"
           id="path824" /><g
           id="g826"
           transform="translate(392.3945,412.4824)"><path
             d="m 0,0 v 10.938 h -33.205 v -39.063 h 25.002 v 6.25 h 50 V 0 Z"
             style="fill:#d9d9d9;fill-opacity:1;fill-rule:nonzero;stroke:none"
             id="path828" /></g><path
           d="m 427.941,378.108 h 6.25 v 9.375 h -6.25 z"
           style="fill:#2d2d2c;fill-opacity:1;fill-rule:nonzero;stroke:none"
           id="path830" /><g
           id="g832"
           transform="translate(434.1914,387.4824)"><path
             d="M 0,0 V -15.312 H 12.5 Z"
             style="fill:#ec5250;fill-opacity:1;fill-rule:nonzero;stroke:none"
             id="path834" /></g><g
           id="g836"
           transform="translate(424.8164,368.7329)"><path
             d="m 0,0 v 0 c -3.452,0 -6.25,2.797 -6.25,6.25 0,3.452 2.798,6.25 6.25,6.25 3.45,0 6.25,-2.798 6.25,-6.25 C 6.25,2.797 3.45,0 0,0"
             style="fill:#3c3c3b;fill-opacity:1;fill-rule:nonzero;stroke:none"
             id="path838" /></g><g
           id="g840"
           transform="translate(424.8164,379.3579)"><path
             d="M 0,0 C 2.412,0 4.375,-1.962 4.375,-4.375 4.375,-6.788 2.412,-8.75 0,-8.75 c -2.414,0 -4.375,1.962 -4.375,4.375 C -4.375,-1.962 -2.414,0 0,0"
             style="fill:#575756;fill-opacity:1;fill-rule:nonzero;stroke:none"
             id="path842" /></g><g
           id="g844"
           transform="translate(424.8164,376.2324)"><path
             d="M 0,0 C 0.688,0 1.25,-0.561 1.25,-1.25 1.25,-1.939 0.688,-2.5 0,-2.5 c -0.69,0 -1.25,0.561 -1.25,1.25 C -1.25,-0.561 -0.69,0 0,0"
             style="fill:#3c3c3b;fill-opacity:1;fill-rule:nonzero;stroke:none"
             id="path846" /></g><g
           id="g848"
           transform="translate(410.7539,368.7329)"><path
             d="m 0,0 v 0 c -3.452,0 -6.25,2.797 -6.25,6.25 0,3.452 2.798,6.25 6.25,6.25 3.451,0 6.25,-2.798 6.25,-6.25 C 6.25,2.797 3.451,0 0,0"
             style="fill:#3c3c3b;fill-opacity:1;fill-rule:nonzero;stroke:none"
             id="path850" /></g><g
           id="g852"
           transform="translate(410.7539,379.3579)"><path
             d="M 0,0 C 2.412,0 4.375,-1.962 4.375,-4.375 4.375,-6.788 2.412,-8.75 0,-8.75 c -2.413,0 -4.375,1.962 -4.375,4.375 C -4.375,-1.962 -2.413,0 0,0"
             style="fill:#575756;fill-opacity:1;fill-rule:nonzero;stroke:none"
             id="path854" /></g><g
           id="g856"
           transform="translate(410.7539,376.2324)"><path
             d="M 0,0 C 0.688,0 1.25,-0.561 1.25,-1.25 1.25,-1.939 0.688,-2.5 0,-2.5 c -0.689,0 -1.25,0.561 -1.25,1.25 C -1.25,-0.561 -0.689,0 0,0"
             style="fill:#3c3c3b;fill-opacity:1;fill-rule:nonzero;stroke:none"
             id="path858" /></g><g
           id="g860"
           transform="translate(396.6914,368.7329)"><path
             d="m 0,0 v 0 c -3.452,0 -6.25,2.797 -6.25,6.25 0,3.452 2.798,6.25 6.25,6.25 3.451,0 6.25,-2.798 6.25,-6.25 C 6.25,2.797 3.451,0 0,0"
             style="fill:#3c3c3b;fill-opacity:1;fill-rule:nonzero;stroke:none"
             id="path862" /></g><g
           id="g864"
           transform="translate(396.6914,379.3579)"><path
             d="M 0,0 C 2.412,0 4.375,-1.962 4.375,-4.375 4.375,-6.788 2.412,-8.75 0,-8.75 c -2.414,0 -4.375,1.962 -4.375,4.375 C -4.375,-1.962 -2.414,0 0,0"
             style="fill:#575756;fill-opacity:1;fill-rule:nonzero;stroke:none"
             id="path866" /></g><g
           id="g868"
           transform="translate(396.6914,376.2324)"><path
             d="M 0,0 C 0.688,0 1.25,-0.561 1.25,-1.25 1.25,-1.939 0.688,-2.5 0,-2.5 c -0.69,0 -1.25,0.561 -1.25,1.25 C -1.25,-0.561 -0.69,0 0,0"
             style="fill:#3c3c3b;fill-opacity:1;fill-rule:nonzero;stroke:none"
             id="path870" /></g><g
           id="g872"
           transform="translate(377.9414,368.7329)"><path
             d="M 0,0 V 0 C -6.904,0 -12.501,5.595 -12.501,12.5 -12.501,19.403 -6.904,25 0,25 6.903,25 12.5,19.403 12.5,12.5 12.5,5.595 6.903,0 0,0"
             style="fill:#3c3c3b;fill-opacity:1;fill-rule:nonzero;stroke:none"
             id="path874" /></g><g
           id="g876"
           transform="translate(377.9414,391.2334)"><path
             d="m 0,0 c 5.514,0 10,-4.486 10,-10 0,-5.515 -4.486,-10 -10,-10 -5.515,0 -10.001,4.485 -10.001,10 0,5.514 4.486,10 10.001,10"
             style="fill:#575756;fill-opacity:1;fill-rule:nonzero;stroke:none"
             id="path878" /></g><g
           id="g880"
           transform="translate(377.9414,382.4829)"><path
             d="M 0,0 C 0.688,0 1.25,-0.561 1.25,-1.25 1.25,-1.939 0.688,-2.5 0,-2.5 c -0.689,0 -1.25,0.561 -1.25,1.25 C -1.25,-0.561 -0.689,0 0,0"
             style="fill:#3c3c3b;fill-opacity:1;fill-rule:nonzero;stroke:none"
             id="path882" /></g><g
           id="g884"
           transform="translate(417.7852,385.9204)"><path
             d="m 0,0 h -20.171 l -20.299,-8.881 1.252,-2.863 19.7,8.619 H 0 Z"
             style="fill:#6f6f6e;fill-opacity:1;fill-rule:nonzero;stroke:none"
             id="path886" /></g><g
           id="g888"
           transform="translate(377.9414,378.1079)"><path
             d="M 0,0 C -1.379,0 -2.5,-1.122 -2.5,-2.5 -2.5,-3.879 -1.379,-5 0,-5 1.378,-5 2.5,-3.879 2.5,-2.5 2.5,-1.122 1.378,0 0,0"
             style="fill:#b1b1b1;fill-opacity:1;fill-rule:nonzero;stroke:none"
             id="path890" /></g><g
           id="g892"
           transform="translate(377.9414,376.8574)"><path
             d="M 0,0 C 0.688,0 1.25,-0.561 1.25,-1.25 1.25,-1.939 0.688,-2.5 0,-2.5 c -0.689,0 -1.25,0.561 -1.25,1.25 C -1.25,-0.561 -0.689,0 0,0"
             style="fill:#3c3c3b;fill-opacity:1;fill-rule:nonzero;stroke:none"
             id="path894" /></g><g
           id="g896"
           transform="translate(397.9419,386.8574)"><path
             d="M 0,0 C -1.38,0 -2.5,-1.121 -2.5,-2.5 -2.5,-3.878 -1.38,-5 0,-5 1.377,-5 2.5,-3.878 2.5,-2.5 2.5,-1.121 1.377,0 0,0"
             style="fill:#b1b1b1;fill-opacity:1;fill-rule:nonzero;stroke:none"
             id="path898" /></g><g
           id="g900"
           transform="translate(397.9419,385.6074)"><path
             d="M 0,0 C 0.688,0 1.25,-0.561 1.25,-1.25 1.25,-1.939 0.688,-2.5 0,-2.5 c -0.69,0 -1.25,0.561 -1.25,1.25 C -1.25,-0.561 -0.69,0 0,0"
             style="fill:#3c3c3b;fill-opacity:1;fill-rule:nonzero;stroke:none"
             id="path902" /></g><g
           id="g904"
           transform="translate(423.0156,379.6699)"><path
             d="m 0,0 c 0.994,0 1.801,0.807 1.801,1.8 v 5.775 c 0,0.994 -0.807,1.8 -1.801,1.8 h -10.463 c -0.993,0 -1.799,-0.806 -1.799,-1.8 V 1.8 c 0,-0.993 0.806,-1.8 1.799,-1.8 z"
             style="fill:#b1b1b1;fill-opacity:1;fill-rule:nonzero;stroke:none"
             id="path906" /></g><g
           id="g908"
           transform="translate(372.4302,415.6074)"><path
             d="M 0,0 H -5.189 C -6.183,0 -6.99,-0.806 -6.99,-1.799 V -10.7 c 0,-0.994 0.807,-1.8 1.801,-1.8 H 0 c 0.994,0 1.799,0.806 1.799,1.8 v 8.901 C 1.799,-0.806 0.994,0 0,0"
             style="fill:#538684;fill-opacity:1;fill-rule:nonzero;stroke:none"
             id="path910" /></g><g
           id="g912"
           transform="translate(384.3442,415.6074)"><path
             d="m 0,0 h -5.189 c -0.994,0 -1.8,-0.806 -1.8,-1.799 V -10.7 c 0,-0.994 0.806,-1.8 1.8,-1.8 H 0 c 0.993,0 1.8,0.806 1.8,1.8 v 8.901 C 1.8,-0.806 0.993,0 0,0"
             style="fill:#538684;fill-opacity:1;fill-rule:nonzero;stroke:none"
             id="path914" /></g><path
           d="m 393.957,424.982 h -36.329 v -3.125 h 36.329 z"
           style="fill:#ec5250;fill-opacity:1;fill-rule:nonzero;stroke:none"
           id="path916" /><path
           d="M 434.191,396.858 H 359.19 v -1.25 h 75.001 z"
           style="fill:#ec5250;fill-opacity:1;fill-rule:nonzero;stroke:none"
           id="path918" /><path
           d="m 125.184,390.607 h -62.5 v -12.5 h 62.5 z"
           style="fill:#575756;fill-opacity:1;fill-rule:nonzero;stroke:none"
           id="path920" /><g
           id="g922"
           transform="translate(116.1997,368.7329)"><path
             d="m 0,0 v 0 c -3.452,0 -6.25,2.797 -6.25,6.25 0,3.452 2.798,6.25 6.25,6.25 3.451,0 6.25,-2.798 6.25,-6.25 C 6.25,2.797 3.451,0 0,0"
             style="fill:#3c3c3b;fill-opacity:1;fill-rule:nonzero;stroke:none"
             id="path924" /></g><g
           id="g926"
           transform="translate(116.1997,379.3579)"><path
             d="M 0,0 C 2.412,0 4.375,-1.962 4.375,-4.375 4.375,-6.788 2.412,-8.75 0,-8.75 c -2.413,0 -4.375,1.962 -4.375,4.375 C -4.375,-1.962 -2.413,0 0,0"
             style="fill:#575756;fill-opacity:1;fill-rule:nonzero;stroke:none"
             id="path928" /></g><g
           id="g930"
           transform="translate(116.1997,376.2324)"><path
             d="M 0,0 C 0.689,0 1.25,-0.561 1.25,-1.25 1.25,-1.939 0.689,-2.5 0,-2.5 c -0.69,0 -1.25,0.561 -1.25,1.25 C -1.25,-0.561 -0.69,0 0,0"
             style="fill:#3c3c3b;fill-opacity:1;fill-rule:nonzero;stroke:none"
             id="path932" /></g><g
           id="g934"
           transform="translate(71.6685,368.7329)"><path
             d="m 0,0 v 0 c -3.452,0 -6.25,2.797 -6.25,6.25 0,3.452 2.798,6.25 6.25,6.25 3.452,0 6.25,-2.798 6.25,-6.25 C 6.25,2.797 3.452,0 0,0"
             style="fill:#3c3c3b;fill-opacity:1;fill-rule:nonzero;stroke:none"
             id="path936" /></g><g
           id="g938"
           transform="translate(71.6685,379.3579)"><path
             d="M 0,0 C 2.413,0 4.375,-1.962 4.375,-4.375 4.375,-6.788 2.413,-8.75 0,-8.75 c -2.413,0 -4.375,1.962 -4.375,4.375 C -4.375,-1.962 -2.413,0 0,0"
             style="fill:#575756;fill-opacity:1;fill-rule:nonzero;stroke:none"
             id="path940" /></g><g
           id="g942"
           transform="translate(71.6685,376.2324)"><path
             d="M 0,0 C 0.689,0 1.25,-0.561 1.25,-1.25 1.25,-1.939 0.689,-2.5 0,-2.5 c -0.689,0 -1.25,0.561 -1.25,1.25 C -1.25,-0.561 -0.689,0 0,0"
             style="fill:#3c3c3b;fill-opacity:1;fill-rule:nonzero;stroke:none"
             id="path944" /></g><path
           d="m 59.559,384.358 h 68.75 v 39.062 h -68.75 z"
           style="fill:#d9d9d9;fill-opacity:1;fill-rule:nonzero;stroke:none"
           id="path946" /><path
           d="M 129.872,424.982 H 57.997 v -3.125 h 71.875 z"
           style="fill:#ec5250;fill-opacity:1;fill-rule:nonzero;stroke:none"
           id="path948" /><g
           id="g950"
           transform="translate(105.4155,415.6074)"><path
             d="M 0,0 H -8.119 C -9.113,0 -9.918,-0.806 -9.918,-1.799 V -10.7 c 0,-0.994 0.805,-1.8 1.799,-1.8 H 0 c 0.994,0 1.8,0.806 1.8,1.8 v 8.901 C 1.8,-0.806 0.994,0 0,0"
             style="fill:#538684;fill-opacity:1;fill-rule:nonzero;stroke:none"
             id="path952" /></g><g
           id="g954"
           transform="translate(82.4526,403.1074)"><path
             d="m 0,0 h 8.119 c 0.994,0 1.8,0.806 1.8,1.8 v 8.901 c 0,0.993 -0.806,1.799 -1.8,1.799 H 0 c -0.994,0 -1.8,-0.806 -1.8,-1.799 V 1.8 C -1.8,0.806 -0.994,0 0,0"
             style="fill:#538684;fill-opacity:1;fill-rule:nonzero;stroke:none"
             id="path956" /></g><g
           id="g958"
           transform="translate(110.3408,413.8081)"><path
             d="m 0,0 v -8.9 c 0,-0.995 0.806,-1.801 1.799,-1.801 h 8.119 c 0.994,0 1.8,0.806 1.8,1.801 V 0 c 0,0.993 -0.806,1.799 -1.8,1.799 H 1.799 C 0.806,1.799 0,0.993 0,0"
             style="fill:#538684;fill-opacity:1;fill-rule:nonzero;stroke:none"
             id="path960" /></g><g
           id="g962"
           transform="translate(75.7275,415.6074)"><path
             d="M 0,0 H -8.119 C -9.113,0 -9.918,-0.806 -9.918,-1.799 V -10.7 c 0,-0.994 0.805,-1.8 1.799,-1.8 H 0 c 0.995,0 1.8,0.806 1.8,1.8 v 8.901 C 1.8,-0.806 0.995,0 0,0"
             style="fill:#538684;fill-opacity:1;fill-rule:nonzero;stroke:none"
             id="path964" /></g><path
           d="m 128.309,396.858 h -68.75 v -1.25 h 68.75 z"
           style="fill:#ec5250;fill-opacity:1;fill-rule:nonzero;stroke:none"
           id="path966" /><path
           d="m 275,390.607 h -62.5 v -12.5 H 275 Z"
           style="fill:#575756;fill-opacity:1;fill-rule:nonzero;stroke:none"
           id="path968" /><g
           id="g970"
           transform="translate(266.0156,368.7329)"><path
             d="m 0,0 v 0 c -3.452,0 -6.25,2.797 -6.25,6.25 0,3.452 2.798,6.25 6.25,6.25 3.452,0 6.25,-2.798 6.25,-6.25 C 6.25,2.797 3.452,0 0,0"
             style="fill:#3c3c3b;fill-opacity:1;fill-rule:nonzero;stroke:none"
             id="path972" /></g><g
           id="g974"
           transform="translate(266.0156,379.3579)"><path
             d="M 0,0 C 2.412,0 4.375,-1.962 4.375,-4.375 4.375,-6.788 2.412,-8.75 0,-8.75 c -2.412,0 -4.375,1.962 -4.375,4.375 C -4.375,-1.962 -2.412,0 0,0"
             style="fill:#575756;fill-opacity:1;fill-rule:nonzero;stroke:none"
             id="path976" /></g><g
           id="g978"
           transform="translate(266.0156,376.2324)"><path
             d="M 0,0 C 0.689,0 1.25,-0.561 1.25,-1.25 1.25,-1.939 0.689,-2.5 0,-2.5 c -0.689,0 -1.25,0.561 -1.25,1.25 C -1.25,-0.561 -0.689,0 0,0"
             style="fill:#3c3c3b;fill-opacity:1;fill-rule:nonzero;stroke:none"
             id="path980" /></g><g
           id="g982"
           transform="translate(221.4844,368.7329)"><path
             d="m 0,0 v 0 c -3.452,0 -6.25,2.797 -6.25,6.25 0,3.452 2.798,6.25 6.25,6.25 3.452,0 6.25,-2.798 6.25,-6.25 C 6.25,2.797 3.452,0 0,0"
             style="fill:#3c3c3b;fill-opacity:1;fill-rule:nonzero;stroke:none"
             id="path984" /></g><g
           id="g986"
           transform="translate(221.4844,379.3579)"><path
             d="M 0,0 C 2.412,0 4.375,-1.962 4.375,-4.375 4.375,-6.788 2.412,-8.75 0,-8.75 c -2.412,0 -4.375,1.962 -4.375,4.375 C -4.375,-1.962 -2.412,0 0,0"
             style="fill:#575756;fill-opacity:1;fill-rule:nonzero;stroke:none"
             id="path988" /></g><g
           id="g990"
           transform="translate(221.4844,376.2324)"><path
             d="M 0,0 C 0.689,0 1.25,-0.561 1.25,-1.25 1.25,-1.939 0.689,-2.5 0,-2.5 c -0.689,0 -1.25,0.561 -1.25,1.25 C -1.25,-0.561 -0.689,0 0,0"
             style="fill:#3c3c3b;fill-opacity:1;fill-rule:nonzero;stroke:none"
             id="path992" /></g><path
           d="m 209.375,384.358 h 68.75 v 39.062 h -68.75 z"
           style="fill:#d9d9d9;fill-opacity:1;fill-rule:nonzero;stroke:none"
           id="path994" /><path
           d="m 279.687,424.982 h -71.875 v -3.125 h 71.875 z"
           style="fill:#ec5250;fill-opacity:1;fill-rule:nonzero;stroke:none"
           id="path996" /><g
           id="g998"
           transform="translate(255.2319,415.6074)"><path
             d="m 0,0 h -8.119 c -0.994,0 -1.8,-0.806 -1.8,-1.799 V -10.7 c 0,-0.994 0.806,-1.8 1.8,-1.8 H 0 c 0.994,0 1.799,0.806 1.799,1.8 v 8.901 C 1.799,-0.806 0.994,0 0,0"
             style="fill:#538684;fill-opacity:1;fill-rule:nonzero;stroke:none"
             id="path1000" /></g><g
           id="g1002"
           transform="translate(232.2686,403.1074)"><path
             d="m 0,0 h 8.12 c 0.993,0 1.799,0.806 1.799,1.8 v 8.901 C 9.919,11.694 9.113,12.5 8.12,12.5 H 0 c -0.994,0 -1.8,-0.806 -1.8,-1.799 V 1.8 C -1.8,0.806 -0.994,0 0,0"
             style="fill:#538684;fill-opacity:1;fill-rule:nonzero;stroke:none"
             id="path1004" /></g><g
           id="g1006"
           transform="translate(260.1562,413.8081)"><path
             d="m 0,0 v -8.9 c 0,-0.995 0.806,-1.801 1.801,-1.801 h 8.117 c 0.995,0 1.801,0.806 1.801,1.801 V 0 c 0,0.993 -0.806,1.799 -1.801,1.799 H 1.801 C 0.806,1.799 0,0.993 0,0"
             style="fill:#538684;fill-opacity:1;fill-rule:nonzero;stroke:none"
             id="path1008" /></g><g
           id="g1010"
           transform="translate(225.5439,415.6074)"><path
             d="m 0,0 h -8.119 c -0.994,0 -1.8,-0.806 -1.8,-1.799 V -10.7 c 0,-0.994 0.806,-1.8 1.8,-1.8 H 0 c 0.994,0 1.8,0.806 1.8,1.8 v 8.901 C 1.8,-0.806 0.994,0 0,0"
             style="fill:#538684;fill-opacity:1;fill-rule:nonzero;stroke:none"
             id="path1012" /></g><path
           d="m 278.125,396.858 h -68.75 v -1.25 h 68.75 z"
           style="fill:#ec5250;fill-opacity:1;fill-rule:nonzero;stroke:none"
           id="path1014" /><path
           d="m 200.092,390.607 h -62.5 v -12.5 h 62.5 z"
           style="fill:#575756;fill-opacity:1;fill-rule:nonzero;stroke:none"
           id="path1016" /><g
           id="g1018"
           transform="translate(191.1074,368.7329)"><path
             d="m 0,0 v 0 c -3.452,0 -6.25,2.797 -6.25,6.25 0,3.452 2.798,6.25 6.25,6.25 3.452,0 6.25,-2.798 6.25,-6.25 C 6.25,2.797 3.452,0 0,0"
             style="fill:#3c3c3b;fill-opacity:1;fill-rule:nonzero;stroke:none"
             id="path1020" /></g><g
           id="g1022"
           transform="translate(191.1074,379.3579)"><path
             d="M 0,0 C 2.413,0 4.375,-1.962 4.375,-4.375 4.375,-6.788 2.413,-8.75 0,-8.75 c -2.412,0 -4.375,1.962 -4.375,4.375 C -4.375,-1.962 -2.412,0 0,0"
             style="fill:#575756;fill-opacity:1;fill-rule:nonzero;stroke:none"
             id="path1024" /></g><g
           id="g1026"
           transform="translate(191.1074,376.2324)"><path
             d="M 0,0 C 0.689,0 1.25,-0.561 1.25,-1.25 1.25,-1.939 0.689,-2.5 0,-2.5 c -0.689,0 -1.25,0.561 -1.25,1.25 C -1.25,-0.561 -0.689,0 0,0"
             style="fill:#3c3c3b;fill-opacity:1;fill-rule:nonzero;stroke:none"
             id="path1028" /></g><g
           id="g1030"
           transform="translate(146.5762,368.7329)"><path
             d="m 0,0 v 0 c -3.451,0 -6.25,2.797 -6.25,6.25 0,3.452 2.799,6.25 6.25,6.25 3.452,0 6.25,-2.798 6.25,-6.25 C 6.25,2.797 3.452,0 0,0"
             style="fill:#3c3c3b;fill-opacity:1;fill-rule:nonzero;stroke:none"
             id="path1032" /></g><g
           id="g1034"
           transform="translate(146.5762,379.3579)"><path
             d="M 0,0 C 2.413,0 4.375,-1.962 4.375,-4.375 4.375,-6.788 2.413,-8.75 0,-8.75 c -2.412,0 -4.375,1.962 -4.375,4.375 C -4.375,-1.962 -2.412,0 0,0"
             style="fill:#575756;fill-opacity:1;fill-rule:nonzero;stroke:none"
             id="path1036" /></g><g
           id="g1038"
           transform="translate(146.5762,376.2324)"><path
             d="M 0,0 C 0.69,0 1.25,-0.561 1.25,-1.25 1.25,-1.939 0.69,-2.5 0,-2.5 c -0.689,0 -1.25,0.561 -1.25,1.25 C -1.25,-0.561 -0.689,0 0,0"
             style="fill:#3c3c3b;fill-opacity:1;fill-rule:nonzero;stroke:none"
             id="path1040" /></g><path
           d="m 134.467,384.358 h 68.75 v 39.062 h -68.75 z"
           style="fill:#d9d9d9;fill-opacity:1;fill-rule:nonzero;stroke:none"
           id="path1042" /><path
           d="m 204.78,424.982 h -71.875 v -3.125 h 71.875 z"
           style="fill:#ec5250;fill-opacity:1;fill-rule:nonzero;stroke:none"
           id="path1044" /><g
           id="g1046"
           transform="translate(180.3237,415.6074)"><path
             d="m 0,0 h -8.119 c -0.994,0 -1.8,-0.806 -1.8,-1.799 V -10.7 c 0,-0.994 0.806,-1.8 1.8,-1.8 H 0 c 0.994,0 1.8,0.806 1.8,1.8 v 8.901 C 1.8,-0.806 0.994,0 0,0"
             style="fill:#538684;fill-opacity:1;fill-rule:nonzero;stroke:none"
             id="path1048" /></g><g
           id="g1050"
           transform="translate(157.3608,403.1074)"><path
             d="m 0,0 h 8.119 c 0.994,0 1.8,0.806 1.8,1.8 v 8.901 c 0,0.993 -0.806,1.799 -1.8,1.799 H 0 c -0.994,0 -1.8,-0.806 -1.8,-1.799 V 1.8 C -1.8,0.806 -0.994,0 0,0"
             style="fill:#538684;fill-opacity:1;fill-rule:nonzero;stroke:none"
             id="path1052" /></g><g
           id="g1054"
           transform="translate(185.2485,413.8081)"><path
             d="m 0,0 v -8.9 c 0,-0.995 0.806,-1.801 1.8,-1.801 h 8.118 c 0.994,0 1.801,0.806 1.801,1.801 V 0 c 0,0.993 -0.807,1.799 -1.801,1.799 H 1.8 C 0.806,1.799 0,0.993 0,0"
             style="fill:#538684;fill-opacity:1;fill-rule:nonzero;stroke:none"
             id="path1056" /></g><g
           id="g1058"
           transform="translate(150.6362,415.6074)"><path
             d="m 0,0 h -8.119 c -0.994,0 -1.8,-0.806 -1.8,-1.799 V -10.7 c 0,-0.994 0.806,-1.8 1.8,-1.8 H 0 c 0.994,0 1.799,0.806 1.799,1.8 v 8.901 C 1.799,-0.806 0.994,0 0,0"
             style="fill:#538684;fill-opacity:1;fill-rule:nonzero;stroke:none"
             id="path1060" /></g><path
           d="m 203.217,396.858 h -68.75 v -1.25 h 68.75 z"
           style="fill:#ec5250;fill-opacity:1;fill-rule:nonzero;stroke:none"
           id="path1062" /></g></g></g></svg>
